<svg width="48" height="48" viewBox="0 0 48 48" fill="none" xmlns="http://www.w3.org/2000/svg">
<g clip-path="url(#clip0_6881_18811)">
<path d="M32.9163 8.22852H18.5163H15.7734V39.7714H32.9163V8.22852Z" fill="#0755E9"/>
<path d="M7.02903 7.02903C-2.34301 16.4011 -2.34301 31.599 7.02903 40.9711C16.4011 50.343 31.599 50.343 40.9711 40.9711C50.343 31.599 50.343 16.4011 40.9711 7.02903C31.599 -2.34301 16.4011 -2.34301 7.02903 7.02903ZM30.4844 22.9362C27.8502 27.4955 25.2158 32.0042 22.6322 36.5637C22.6322 36.5637 22.6322 36.6143 22.5816 36.6143C22.3789 36.969 22.1763 37.2729 21.771 37.1209C21.315 36.969 21.4164 36.5636 21.467 36.209C21.6697 35.0439 21.8723 33.9293 22.1256 32.7642C22.4802 30.7377 22.8855 28.762 23.2401 26.7356C23.2909 26.5837 23.2907 26.381 23.2907 26.1278C23.0376 26.1278 22.8349 26.0771 22.6322 26.0771C21.1631 26.0771 19.6433 26.0771 18.1742 26.0771C17.3129 26.0771 17.1104 25.7224 17.5156 24.9625C20.1499 20.4032 22.7843 15.8945 25.3679 11.3351C25.3679 11.3351 25.3679 11.2844 25.4185 11.2844C25.6212 10.9298 25.8238 10.6259 26.229 10.7778C26.685 10.9298 26.5837 11.3351 26.5331 11.6897C26.3304 12.8549 26.1278 13.9694 25.8745 15.1346C25.5198 17.161 25.1146 19.1367 24.7599 21.1631C24.7093 21.315 24.7093 21.5177 24.7093 21.771C24.9625 21.771 25.1652 21.8216 25.3679 21.8216C26.837 21.8216 28.3568 21.8216 29.8259 21.8216C30.6871 21.8216 30.8897 22.1763 30.4844 22.9362Z" fill="#E7ECF8"/>
</g>
<defs>
<clipPath id="clip0_6881_18811">
<rect width="48" height="48" fill="white"/>
</clipPath>
</defs>
</svg>
