<svg width="112" height="121" viewBox="0 0 112 121" fill="none" xmlns="http://www.w3.org/2000/svg">
<path d="M56.1413 0.5C57.6076 1.3016 59.0713 2.1058 60.5402 2.9022C72.1275 9.17185 83.7149 15.4389 95.3023 21.706C100.614 24.5792 105.925 27.4525 111.236 30.3232C111.333 30.3752 111.421 30.4533 111.543 30.4481C111.543 50.5115 111.543 70.5775 111.543 90.6409C110.594 91.0574 109.71 91.5935 108.8 92.0854C98.7574 97.5092 88.7169 102.941 78.6765 108.372C71.3034 112.362 63.9277 116.349 56.5625 120.35C56.2063 120.542 55.9463 120.555 55.5823 120.357C40.961 112.435 26.3345 104.526 11.7079 96.6139C8.09679 94.6619 4.48825 92.7048 0.874517 90.7607C0.653533 90.6409 0.585938 90.5134 0.585938 90.2714C0.591137 70.4604 0.591137 50.6494 0.585938 30.8385C0.585938 30.6042 0.632734 30.4663 0.864117 30.3414C11.7209 24.4725 22.5725 18.6011 33.4242 12.7322C40.8856 8.69558 48.3471 4.66155 55.8085 0.624925C55.8735 0.591091 55.9307 0.541642 55.9905 0.5C56.0425 0.5 56.0919 0.5 56.1413 0.5ZM110.644 60.5549C110.644 50.8602 110.641 41.1682 110.652 31.4735C110.652 31.1742 110.566 31.0154 110.298 30.8723C98.9576 24.7484 87.6198 18.6167 76.2846 12.4824C69.6447 8.89077 63.0048 5.29919 56.3701 1.6998C56.1439 1.57747 55.9749 1.58008 55.7591 1.705C55.0988 2.08238 54.4254 2.43893 53.7573 2.8033C36.4607 12.157 19.1642 21.5134 1.86504 30.8593C1.58687 31.0102 1.48547 31.1638 1.48547 31.4839C1.49587 41.5143 1.49327 51.5473 1.49327 61.5777C1.49327 70.9341 1.49327 80.2904 1.48807 89.6468C1.48807 89.92 1.56087 90.0684 1.81045 90.1933C2.55399 90.5733 3.28454 90.9845 4.02029 91.3801C21.2596 100.705 38.5016 110.03 55.7383 119.363C55.9905 119.501 56.1725 119.491 56.4169 119.355C59.2429 117.815 62.0741 116.282 64.9053 114.749C80.0284 106.569 95.1515 98.3915 110.28 90.2193C110.558 90.0684 110.659 89.9148 110.659 89.5947C110.644 79.9182 110.644 70.2366 110.644 60.5549Z" fill="#787878"/>
<path d="M108.538 44.0362C108.54 44.1351 108.548 44.2366 108.548 44.3355C108.548 55.1389 108.548 65.9449 108.548 76.7508C108.548 76.8497 108.54 76.9512 108.538 77.0501C107.077 77.0527 105.613 77.0658 104.152 77.0475C103.811 77.0423 103.741 77.1464 103.744 77.4692C103.757 80.4075 103.749 83.3484 103.757 86.2868C103.757 86.5314 103.689 86.6615 103.468 86.7812C101.024 88.1112 98.5882 89.4567 96.147 90.7971C91.9561 93.0977 87.7652 95.3958 83.5717 97.6939C79.3678 99.9972 75.1665 102.303 70.9627 104.606C66.2024 107.217 61.4369 109.822 56.6819 112.44C56.3465 112.625 56.0917 112.625 55.759 112.44C53.0084 110.915 50.25 109.406 47.4916 107.894C43.2903 105.588 39.0864 103.284 34.8825 100.981C30.4602 98.5554 26.0405 96.1324 21.6182 93.7067C17.4143 91.4035 13.213 89.095 9.00656 86.7995C8.76217 86.6667 8.68418 86.5236 8.68418 86.2503C8.69458 83.312 8.68678 80.371 8.69718 77.4327C8.69718 77.1464 8.63218 77.0475 8.328 77.0501C6.75512 77.0631 5.17963 77.0527 3.60415 77.0527C3.60155 76.9538 3.59375 76.8523 3.59375 76.7534C3.59375 65.9501 3.59375 55.1441 3.59375 44.3407C3.59375 44.2418 3.60155 44.1403 3.60415 44.0414C5.16663 44.0388 6.72652 44.0258 8.28901 44.044C8.62958 44.0492 8.69978 43.9451 8.69718 43.6224C8.68418 40.684 8.69198 37.7431 8.68418 34.8048C8.68418 34.5601 8.75177 34.43 8.97276 34.3103C11.4166 32.9804 13.8526 31.6348 16.2938 30.2945C20.4847 27.9938 24.6756 25.6957 28.8691 23.3976C33.073 21.0943 37.2743 18.7884 41.4782 16.4851C46.2384 13.8747 51.0039 11.2695 55.759 8.65128C56.0943 8.4665 56.3491 8.4665 56.6819 8.65128C59.4325 10.1764 62.1909 11.6859 64.9493 13.198C69.1506 15.5039 73.3545 17.8072 77.5584 20.1105C81.9807 22.5361 86.4003 24.9592 90.8226 27.3848C95.0265 29.6881 99.2278 31.9966 103.434 34.2921C103.679 34.4248 103.757 34.5679 103.757 34.8412C103.746 37.7795 103.754 40.7205 103.744 43.6588C103.744 43.9451 103.809 44.044 104.113 44.0414C105.59 44.0232 107.064 44.0336 108.538 44.0362ZM56.2399 74.0519C40.7216 74.0519 25.2034 74.0519 9.68511 74.0441C9.35753 74.0441 9.27954 74.117 9.27954 74.4475C9.29254 78.2499 9.29254 82.0523 9.28214 85.8547C9.28214 86.154 9.37053 86.305 9.63571 86.4533C19.6788 91.9474 29.7192 97.4519 39.7571 102.956C45.1439 105.91 50.5281 108.862 55.9097 111.821C56.1307 111.943 56.2997 111.961 56.5207 111.823C56.8561 111.61 57.2149 111.433 57.5658 111.24C72.6525 102.969 87.7392 94.6983 102.829 86.4351C103.068 86.305 103.156 86.1722 103.154 85.8964C103.143 82.094 103.141 78.2916 103.156 74.4892C103.159 74.1352 103.086 74.0441 102.717 74.0441C87.2271 74.0545 71.7348 74.0519 56.2399 74.0519ZM56.2139 47.0318C71.7166 47.0318 87.2219 47.0292 102.725 47.0422C103.096 47.0422 103.161 46.9433 103.159 46.5945C103.146 42.8182 103.143 39.0392 103.159 35.2628C103.161 34.9245 103.047 34.7683 102.764 34.6122C87.3493 26.1694 71.9376 17.7187 56.5285 9.2655C56.3101 9.14578 56.1463 9.13016 55.9175 9.25769C54.5162 10.0437 53.1045 10.8114 51.6954 11.5844C37.6591 19.2777 23.6227 26.9736 9.58631 34.6616C9.36273 34.784 9.28214 34.9193 9.28214 35.177C9.29254 38.9793 9.29514 42.7817 9.27954 46.5841C9.27694 46.9615 9.36793 47.0448 9.7423 47.0448C25.232 47.0318 40.7216 47.0318 56.2139 47.0318ZM36.1174 67.7641C38.2128 67.7641 40.0067 67.0249 41.5042 65.5519C41.6368 65.4217 41.6576 65.3384 41.512 65.2057C41.1974 64.9194 40.901 64.6149 40.5917 64.3234C40.0405 63.8029 40.0379 63.8029 39.4659 64.313C37.6045 65.9709 34.6485 65.9813 32.839 64.2844C31.5599 63.0846 31.2271 61.5491 31.4793 59.8574C31.7965 57.7415 33.619 56.1226 35.7534 56.0238C37.3055 55.9535 38.6522 56.4219 39.7571 57.5202C39.9651 57.7285 40.0691 57.7024 40.2563 57.5124C40.6411 57.122 41.0466 56.7473 41.4574 56.3829C41.6238 56.2346 41.642 56.1539 41.4652 55.9821C39.7441 54.3138 37.6903 53.6242 35.3166 53.848C31.1179 54.2436 28.3206 58.0173 29.2045 62.3012C29.8934 65.6456 32.6284 67.7589 36.1174 67.7641ZM76.5236 58.6888C76.5132 58.5613 76.5028 58.478 76.5028 58.3947C76.5028 56.8175 76.4977 55.243 76.508 53.6658C76.5106 53.4107 76.456 53.3197 76.1831 53.3301C75.5721 53.3509 74.9586 53.3431 74.3476 53.3327C74.1448 53.3275 74.0694 53.3743 74.0694 53.5981C74.0746 58.1266 74.0746 62.6526 74.0694 67.1811C74.0694 67.3945 74.1266 67.4596 74.3398 67.4544C74.9404 67.4413 75.5409 67.4335 76.1389 67.457C76.4327 67.4674 76.5132 67.3867 76.5107 67.09C76.495 65.5779 76.4976 64.0632 76.5054 62.5511C76.5106 61.307 77.1268 60.5315 78.2993 60.2686C79.2821 60.0474 79.9944 60.2738 80.3792 60.9375C80.6183 61.3487 80.6755 61.8041 80.6729 62.2726C80.6703 63.8862 80.6807 65.4998 80.6651 67.1134C80.6625 67.4023 80.7431 67.47 81.0187 67.4596C81.6063 67.4387 82.1938 67.4387 82.7788 67.4596C83.0466 67.47 83.109 67.3841 83.1064 67.1264C83.096 65.4764 83.109 63.8237 83.096 62.1737C83.0882 61.2524 82.9582 60.3415 82.407 59.5711C81.4165 58.1839 79.9814 57.8794 78.3929 58.0304C77.7326 58.0902 77.1216 58.3349 76.5236 58.6888ZM54.0197 67.0718C53.8871 67.4335 54.0535 67.4544 54.2797 67.4492C54.9036 67.4387 55.5276 67.4413 56.1515 67.4492C56.3361 67.4518 56.4167 67.4179 56.4141 67.2071C56.4063 64.2688 56.4063 61.3304 56.4141 58.3947C56.4141 58.1631 56.3231 58.1319 56.1281 58.1371C55.5536 58.1475 54.979 58.1579 54.4045 58.1345C54.0795 58.1214 53.9625 58.1891 53.9703 58.5509C53.9937 60.089 53.9807 61.6271 53.9807 63.1627C53.9807 64.4848 53.3515 65.2656 52.0698 65.5467C50.7673 65.8329 49.8782 65.341 49.5818 64.1725C49.5194 63.9278 49.5116 63.6806 49.5116 63.4281C49.5116 61.7911 49.5012 60.1541 49.5194 58.5144C49.522 58.1917 49.431 58.1162 49.1242 58.1319C48.6381 58.1579 48.1493 58.1527 47.6631 58.1345C47.4266 58.1266 47.3746 58.2021 47.3746 58.4286C47.385 60.1905 47.3642 61.9551 47.3824 63.717C47.411 66.5226 49.561 68.269 52.3116 67.7432C52.8862 67.6365 53.3983 67.3815 54.0197 67.0718ZM69.0362 57.8482C68.836 57.8482 68.6358 57.8404 68.4382 57.8508C68.277 57.8586 68.1159 57.8846 67.9573 57.9158C66.114 58.262 64.7075 59.2093 64.0498 61.0103C63.4076 62.7645 63.652 64.4484 64.8583 65.9032C66.8056 68.2534 70.8015 68.3991 72.9723 66.2441C73.1205 66.0958 73.0685 66.0359 72.9489 65.9292C72.5043 65.5284 72.0572 65.1276 71.6282 64.7112C71.467 64.5551 71.3682 64.5629 71.2044 64.7112C70.4245 65.4139 69.5094 65.6612 68.4694 65.505C67.1149 65.302 66.1582 64.2454 66.088 62.84C66.023 61.5751 66.8523 60.482 68.1471 60.1671C69.252 59.8964 70.2815 60.0708 71.1602 60.8307C71.3838 61.0233 71.519 60.9895 71.7088 60.8021C72.1066 60.4065 72.5173 60.0239 72.9359 59.6492C73.0867 59.5138 73.0841 59.4462 72.9307 59.3134C71.8128 58.3297 70.5207 57.8274 69.0362 57.8482ZM58.7799 63.6936C58.7799 64.844 58.7877 65.9943 58.7747 67.1446C58.7721 67.3971 58.8501 67.457 59.0893 67.4518C59.7627 67.4361 60.4386 67.4257 61.112 67.4544C61.4499 67.47 61.5201 67.3685 61.5175 67.0431C61.5019 64.8049 61.5149 62.5667 61.5019 60.3258C61.4993 60.0291 61.5487 59.9042 61.8789 59.9302C62.2767 59.9641 62.6771 59.9302 63.0774 59.9407C63.2594 59.9459 63.3166 59.886 63.3114 59.7064C63.301 59.2692 63.2958 58.8293 63.314 58.3947C63.3218 58.1683 63.2308 58.1266 63.0306 58.1319C62.6199 58.1449 62.2065 58.1214 61.7931 58.1423C61.5617 58.1527 61.4993 58.0824 61.5019 57.8534C61.5149 56.9529 61.5019 56.0524 61.5123 55.1519C61.5149 54.9281 61.4837 54.8187 61.2134 54.8292C60.501 54.85 59.7887 54.8474 59.0763 54.8292C58.8189 54.8214 58.7695 54.9124 58.7721 55.1467C58.7851 56.0472 58.7695 56.9477 58.7825 57.8482C58.7851 58.0694 58.7409 58.1605 58.4992 58.1423C58.1638 58.1188 57.8258 58.1423 57.4878 58.1345C57.324 58.1292 57.272 58.1865 57.2746 58.3505C57.285 58.8007 57.2876 59.251 57.272 59.7012C57.2642 59.912 57.3526 59.9511 57.5346 59.9433C57.8466 59.9329 58.1612 59.9563 58.4706 59.9355C58.7123 59.9198 58.7851 59.9927 58.7825 60.24C58.7721 61.3929 58.7799 62.5433 58.7799 63.6936ZM42.5857 60.3779C42.5857 62.6291 42.5883 64.8778 42.5805 67.129C42.5805 67.3529 42.6065 67.4622 42.8743 67.4544C43.597 67.4335 44.3224 67.4387 45.0477 67.4518C45.2661 67.457 45.3233 67.3841 45.3181 67.1759C45.3051 66.7386 45.3129 66.3014 45.3129 65.8642C45.3129 61.8249 45.3077 57.7883 45.3207 53.7491C45.3207 53.3951 45.2193 53.3171 44.8891 53.3301C44.2418 53.3561 43.5892 53.3561 42.9419 53.3301C42.6403 53.3197 42.5753 53.4133 42.5779 53.7022C42.5909 55.9275 42.5857 58.1527 42.5857 60.3779ZM68.9582 64.4536C69.9617 64.4536 70.7729 63.6988 70.7521 62.7879C70.7313 61.8692 69.9461 61.1405 68.9738 61.1379C67.9729 61.1353 67.1695 61.8692 67.1669 62.7931C67.1643 63.7196 67.9547 64.4536 68.9582 64.4536Z" fill="#787878"/>
<path d="M108.538 44.036C107.064 44.0334 105.59 44.023 104.115 44.0386C103.809 44.0412 103.744 43.9423 103.746 43.656C103.757 40.7177 103.749 37.7768 103.759 34.8384C103.759 34.5651 103.681 34.422 103.437 34.2893C99.2304 31.9938 95.0265 29.6879 90.8252 27.382C86.4029 24.9564 81.9832 22.5333 77.561 20.1077C73.3571 17.8044 69.1558 15.4985 64.9519 13.1952C62.1935 11.6831 59.4351 10.1736 56.6845 8.64849C56.3491 8.4637 56.0969 8.4637 55.7615 8.64849C51.0065 11.2693 46.241 13.8745 41.4808 16.4823C37.2769 18.7856 33.0756 21.0889 28.8717 23.3948C24.6808 25.6929 20.4873 27.991 16.2964 30.2917C13.8552 31.6294 11.4192 32.975 8.97535 34.3075C8.75436 34.4272 8.68677 34.5573 8.68677 34.802C8.69457 37.7403 8.68677 40.6813 8.69976 43.6196C8.70236 43.9423 8.63217 44.0438 8.29159 44.0412C6.72911 44.023 5.16922 44.036 3.60674 44.0386C3.60414 43.9137 3.59634 43.7888 3.59634 43.6638C3.59634 40.0358 3.60154 36.4104 3.58594 32.7824C3.58594 32.4701 3.69773 32.3217 3.95251 32.1838C9.48491 29.2246 15.0173 26.2629 20.5471 23.2985C32.2774 17.008 44.0052 10.7149 55.7303 4.41666C55.9773 4.28393 56.1593 4.27612 56.4089 4.41146C68.9712 11.1574 81.5387 17.8981 94.1035 24.6362C98.7858 27.1477 103.471 29.6619 108.158 32.1656C108.441 32.3165 108.561 32.4753 108.561 32.8188C108.545 36.4208 108.551 40.0228 108.551 43.6248C108.548 43.7601 108.54 43.8981 108.538 44.036Z" fill="#787878"/>
<path d="M3.60152 77.0502C5.17701 77.0528 6.74989 77.0632 8.32538 77.0476C8.63216 77.045 8.69715 77.1439 8.69455 77.4302C8.68415 80.3685 8.69195 83.3094 8.68155 86.2478C8.68155 86.521 8.75955 86.6642 9.00393 86.7969C13.2104 89.0924 17.4143 91.3983 21.6156 93.7042C26.0379 96.1298 30.4576 98.5528 34.8799 100.978C39.0837 103.282 43.285 105.588 47.4889 107.891C50.2473 109.403 53.0057 110.913 55.7563 112.438C56.0917 112.622 56.3439 112.622 56.6793 112.438C61.4343 109.817 66.1998 107.212 70.96 104.604C75.1639 102.301 79.3652 99.9973 83.5691 97.6914C87.76 95.3933 91.9535 93.0952 96.1444 90.7945C98.5856 89.4568 101.022 88.1112 103.465 86.7787C103.686 86.659 103.754 86.5288 103.754 86.2842C103.746 83.3459 103.754 80.4049 103.741 77.4666C103.738 77.1439 103.809 77.0424 104.149 77.045C105.61 77.0632 107.071 77.0502 108.535 77.0476C108.538 79.8115 108.543 82.5755 108.546 85.3394C108.546 86.3284 108.53 87.3148 108.556 88.3038C108.564 88.6187 108.442 88.7645 108.187 88.9024C102.654 91.8616 97.1219 94.8233 91.5921 97.7903C79.8618 104.081 68.134 110.374 56.4089 116.672C56.1593 116.805 55.9773 116.805 55.7303 116.672C38.4702 107.409 21.21 98.1546 3.9473 88.9024C3.69252 88.7645 3.57812 88.6187 3.57812 88.3038C3.59112 84.6758 3.58592 81.0504 3.58852 77.4224C3.58852 77.2974 3.59632 77.1725 3.60152 77.0502Z" fill="#787878"/>
<path d="M36.1153 67.7641C32.6264 67.7615 29.8914 65.6482 29.2024 62.3038C28.3185 58.0199 31.1159 54.2462 35.3146 53.8506C37.6882 53.6268 39.7421 54.3164 41.4631 55.9847C41.6399 56.1565 41.6217 56.2372 41.4553 56.3855C41.0446 56.7499 40.6416 57.1246 40.2542 57.515C40.067 57.705 39.963 57.7285 39.7551 57.5228C38.6501 56.4245 37.306 55.9561 35.7514 56.0264C33.6195 56.1226 31.7944 57.7441 31.4773 59.86C31.2251 61.5517 31.5579 63.0898 32.837 64.287C34.6464 65.9839 37.6024 65.9735 39.4639 64.3156C40.0358 63.8055 40.0384 63.8055 40.5896 64.326C40.899 64.6175 41.1954 64.922 41.5099 65.2083C41.6581 65.3436 41.6347 65.4243 41.5021 65.5545C40.0072 67.0223 38.2134 67.7615 36.1153 67.7641Z" fill="#FDFDFD"/>
<path d="M76.522 58.6883C77.12 58.3343 77.7309 58.0897 78.3939 58.0272C79.9824 57.8763 81.4149 58.1782 82.408 59.568C82.9591 60.3383 83.0891 61.2466 83.0969 62.1706C83.1099 63.8206 83.0943 65.4733 83.1073 67.1233C83.1099 67.381 83.0475 67.4669 82.7798 67.4564C82.1922 67.4356 81.6046 67.4356 81.0197 67.4564C80.7441 67.4669 80.6635 67.3992 80.6661 67.1103C80.6817 65.4967 80.6713 63.8831 80.6739 62.2695C80.6739 61.801 80.6167 61.3455 80.3801 60.9343C79.9954 60.2681 79.2804 60.0442 78.3003 60.2655C77.1304 60.5283 76.5116 61.3039 76.5064 62.5479C76.4986 64.0601 76.496 65.5748 76.5116 67.0869C76.5142 67.3836 76.4336 67.4669 76.1398 67.4538C75.5419 67.4304 74.9413 67.4382 74.3408 67.4512C74.1276 67.4564 74.0678 67.394 74.0704 67.178C74.0756 62.6494 74.0756 58.1235 74.0704 53.595C74.0704 53.3738 74.1458 53.3269 74.3486 53.3296C74.9595 53.3426 75.5731 53.3478 76.184 53.3269C76.457 53.3165 76.5116 53.4102 76.509 53.6627C76.4986 55.2373 76.5038 56.8144 76.5038 58.3916C76.5012 58.4775 76.5116 58.5608 76.522 58.6883Z" fill="#FBFCFC"/>
<path d="M54.0155 67.0717C53.3942 67.3814 52.882 67.6339 52.3127 67.7432C49.5621 68.2689 47.412 66.5226 47.3834 63.717C47.3652 61.955 47.3834 60.1905 47.3756 58.4285C47.3756 58.2021 47.4276 58.124 47.6642 58.1344C48.1504 58.1526 48.6391 58.1604 49.1253 58.1318C49.4295 58.1162 49.5231 58.1917 49.5205 58.5144C49.5023 60.1514 49.5127 61.7884 49.5127 63.4281C49.5127 63.6779 49.5231 63.9278 49.5829 64.1724C49.8766 65.341 50.7658 65.8329 52.0709 65.5466C53.3526 65.2655 53.9791 64.4847 53.9817 63.1626C53.9817 61.6245 53.9947 60.0864 53.9713 58.5508C53.9661 58.1891 54.0831 58.1214 54.4055 58.1344C54.9801 58.1604 55.5546 58.1474 56.1292 58.137C56.3242 58.1344 56.4152 58.1656 56.4152 58.3947C56.4074 61.333 56.4074 64.2713 56.4152 67.2071C56.4152 67.4179 56.3346 67.4517 56.1526 67.4491C55.5286 67.4387 54.9047 67.4387 54.2807 67.4491C54.0493 67.4543 53.8829 67.4361 54.0155 67.0717Z" fill="#FBFCFC"/>
<path d="M69.0357 57.8481C70.5202 57.8247 71.8123 58.327 72.9276 59.3082C73.0784 59.4409 73.081 59.5112 72.9328 59.6439C72.5143 60.0187 72.1035 60.4013 71.7057 60.7969C71.5159 60.9869 71.3808 61.0181 71.1572 60.8255C70.2784 60.0656 69.2489 59.8912 68.144 60.1619C66.8493 60.4794 66.0225 61.5699 66.0849 62.8347C66.1551 64.2401 67.1119 65.2968 68.4664 65.4998C69.5063 65.6559 70.4214 65.4087 71.2014 64.706C71.3652 64.5576 71.4613 64.5472 71.6251 64.706C72.0541 65.1224 72.5013 65.5232 72.9458 65.924C73.0654 66.0307 73.12 66.0906 72.9692 66.2389C70.7984 68.3939 66.8025 68.2481 64.8552 65.898C63.6515 64.4431 63.4071 62.7592 64.0467 61.0051C64.7044 59.2041 66.1109 58.2567 67.9542 57.9106C68.1128 57.882 68.274 57.8559 68.4352 57.8455C68.6354 57.8403 68.8355 57.8481 69.0357 57.8481Z" fill="#FDFDFD"/>
<path d="M58.7792 63.6943C58.7792 62.544 58.7714 61.3936 58.7844 60.2433C58.787 59.9934 58.7142 59.9232 58.4724 59.9388C58.1605 59.9596 57.8485 59.9362 57.5365 59.9466C57.3545 59.9544 57.2661 59.9154 57.2739 59.7045C57.2895 59.2543 57.2843 58.8041 57.2765 58.3538C57.2739 58.1898 57.3259 58.1326 57.4897 58.1378C57.8277 58.1482 58.1656 58.1222 58.501 58.1456C58.7428 58.1612 58.787 58.0727 58.7844 57.8515C58.7714 56.951 58.787 56.0505 58.774 55.15C58.7714 54.9158 58.8208 54.8247 59.0782 54.8325C59.7905 54.8507 60.5029 54.8533 61.2152 54.8325C61.4856 54.8247 61.5168 54.9314 61.5142 55.1552C61.5038 56.0557 61.5194 56.9562 61.5038 57.8567C61.5012 58.0883 61.5636 58.1586 61.795 58.1456C62.2058 58.1274 62.6191 58.1482 63.0325 58.1352C63.2327 58.13 63.3237 58.1716 63.3159 58.398C63.2977 58.8353 63.3029 59.2725 63.3133 59.7098C63.3185 59.8893 63.2613 59.9492 63.0793 59.944C62.6789 59.931 62.2786 59.9648 61.8808 59.9336C61.5506 59.9049 61.5012 60.0325 61.5038 60.3292C61.5168 62.5674 61.5038 64.8056 61.5194 67.0465C61.522 67.3718 61.4518 67.4733 61.1138 67.4577C60.4405 67.4265 59.7645 67.4395 59.0912 67.4551C58.852 67.4603 58.774 67.4004 58.7766 67.148C58.787 65.9976 58.7792 64.8473 58.7792 63.6943Z" fill="#FBFCFC"/>
<path d="M42.5782 60.3783C42.5782 58.153 42.5834 55.9278 42.5704 53.7026C42.5678 53.4137 42.6328 53.32 42.9344 53.3304C43.5817 53.3565 44.2343 53.3565 44.8816 53.3304C45.2118 53.3174 45.3158 53.3955 45.3132 53.7495C45.3002 57.7887 45.3054 61.8253 45.3054 65.8645C45.3054 66.3018 45.295 66.739 45.3106 67.1763C45.3184 67.3845 45.2586 67.4573 45.0402 67.4521C44.3149 67.4391 43.5921 67.4339 42.8668 67.4547C42.5964 67.4625 42.5704 67.3506 42.573 67.1294C42.5808 64.8782 42.5782 62.6295 42.5782 60.3783Z" fill="#FBFBFC"/>
<path d="M68.9579 64.4534C67.9544 64.4534 67.1641 63.7221 67.1641 62.7929C67.1667 61.869 67.97 61.1351 68.9709 61.1377C69.9433 61.1403 70.7284 61.869 70.7492 62.7877C70.7726 63.6987 69.9615 64.4508 68.9579 64.4534Z" fill="white"/>
<path d="M56.1026 76.9046C69.1589 76.9046 82.2152 76.9046 95.274 76.9046C95.3494 76.9046 95.4274 76.8916 95.4976 76.9072C95.6068 76.9332 95.7992 76.8032 95.7992 77.0554C95.7992 77.3076 95.6068 77.1724 95.4976 77.201C95.4404 77.2166 95.3728 77.2036 95.3104 77.2036C69.1459 77.2036 42.984 77.2036 16.8195 77.2036C16.7701 77.2036 16.7129 77.2166 16.6713 77.201C16.5569 77.1568 16.3359 77.3284 16.3359 77.0528C16.3359 76.7798 16.5595 76.9098 16.6713 76.9098C27.7907 76.902 38.9127 76.902 50.0321 76.902C52.0547 76.9046 54.08 76.9046 56.1026 76.9046Z" fill="#787878"/>
<path d="M54.9828 89.3114C54.9594 89.8475 54.9542 90.3863 54.78 90.9016C54.5356 91.6225 54.0078 91.9817 53.2409 91.953C52.4922 91.9244 52.0424 91.5835 51.863 90.8209C51.6264 89.8215 51.6134 88.8117 51.9202 87.8253C52.162 87.0498 52.6949 86.7218 53.5191 86.7739C54.2184 86.8181 54.6812 87.2293 54.8554 87.9711C54.962 88.4135 54.9672 88.8638 54.9828 89.3114ZM54.2652 89.2828C54.286 88.908 54.2652 88.5098 54.1742 88.1194C54.0572 87.6119 53.7999 87.3777 53.3787 87.3751C52.9549 87.3725 52.6637 87.5963 52.5545 88.0908C52.3596 88.9497 52.344 89.8189 52.5416 90.683C52.6481 91.1462 52.9081 91.3544 53.3111 91.3571C53.7141 91.3597 53.9766 91.1567 54.1144 90.7142C54.2574 90.2536 54.2782 89.7825 54.2652 89.2828Z" fill="#787878"/>
<path d="M64.4285 89.2798C64.3947 89.8524 64.3999 90.3807 64.2283 90.8856C63.9761 91.6221 63.4718 91.9761 62.7022 91.9527C61.9327 91.9293 61.4907 91.5909 61.3009 90.8023C61.0721 89.855 61.0748 88.8894 61.3217 87.9473C61.5739 86.9869 62.3643 86.5575 63.3158 86.8256C63.9137 86.9947 64.1763 87.4606 64.3115 88.0254C64.4155 88.4574 64.3895 88.8972 64.4285 89.2798ZM63.711 89.2616C63.7318 88.8972 63.7006 88.4964 63.6148 88.1086C63.5082 87.622 63.2482 87.3903 62.8478 87.3747C62.4215 87.3591 62.1225 87.5725 62.0029 88.0644C61.7923 88.9337 61.7793 89.8185 61.9873 90.6904C62.0939 91.1433 62.3409 91.3411 62.7256 91.3541C63.1442 91.3671 63.4224 91.1589 63.5628 90.7008C63.7006 90.2454 63.7214 89.7717 63.711 89.2616Z" fill="#787878"/>
<path d="M48.6103 91.8515C48.1735 91.8515 47.7367 91.8437 47.2999 91.8541C47.1232 91.8593 47.079 91.8047 47.0634 91.6251C47.001 90.8443 47.2739 90.2353 47.9187 89.7902C48.2567 89.556 48.5895 89.314 48.9248 89.0771C49.1198 88.9366 49.2862 88.77 49.3902 88.5488C49.684 87.9242 49.3668 87.4141 48.6804 87.3959C48.2957 87.3854 47.9421 87.4479 47.6301 87.6978C47.3727 87.9034 47.3389 87.5702 47.2064 87.4869C47.0244 87.3724 47.183 87.2839 47.2739 87.2059C47.8277 86.7348 49.034 86.6463 49.6476 87.0263C50.3027 87.4323 50.3807 88.5098 49.7958 89.137C49.4682 89.4883 49.0548 89.7252 48.6752 90.0089C48.3555 90.2483 48.0149 90.4669 47.8537 90.8573C47.7159 91.1852 47.7575 91.2477 48.1085 91.2451C48.7064 91.2451 49.307 91.2529 49.905 91.2269C50.1571 91.2165 50.1935 91.3206 50.1831 91.5314C50.1753 91.7188 50.1909 91.8671 49.918 91.8541C49.4838 91.8359 49.047 91.8541 48.6103 91.8515Z" fill="#787878"/>
<path d="M58.0388 91.8533C57.615 91.8533 57.1886 91.8429 56.7649 91.8585C56.5465 91.8663 56.5075 91.7882 56.4971 91.5852C56.4503 90.8174 56.7389 90.2267 57.3654 89.7894C57.7138 89.5474 58.0596 89.3027 58.4027 89.0555C58.5873 88.9228 58.7381 88.7588 58.8343 88.548C59.1229 87.913 58.8083 87.4185 58.1194 87.4002C57.7346 87.3898 57.381 87.4497 57.069 87.7047C56.8091 87.9182 56.7857 87.5772 56.6531 87.4965C56.4737 87.3846 56.6193 87.2935 56.7077 87.2155C57.2536 86.7444 58.4677 86.6507 59.0813 87.0281C59.765 87.4497 59.8274 88.5454 59.1931 89.1908C58.8681 89.5214 58.4625 89.753 58.096 90.0315C57.7996 90.2553 57.4798 90.4609 57.316 90.82C57.1496 91.1818 57.1912 91.2547 57.576 91.2547C58.174 91.2521 58.7745 91.2573 59.3725 91.2391C59.6039 91.2313 59.6455 91.3302 59.6299 91.5228C59.6169 91.6919 59.6792 91.8767 59.3855 91.8611C58.9383 91.8377 58.4885 91.8507 58.0388 91.8533Z" fill="#787878"/>
<path d="M56.0688 44.1813C42.9996 44.1813 29.9303 44.1813 16.8611 44.1813C16.7857 44.1813 16.7077 44.1943 16.6375 44.1787C16.5283 44.1527 16.3359 44.2827 16.3359 44.0331C16.3359 43.781 16.5283 43.9136 16.6375 43.885C16.6947 43.8694 16.7623 43.8824 16.8247 43.8824C42.9892 43.8824 69.1511 43.8824 95.3156 43.8824C95.365 43.8824 95.4222 43.8694 95.4638 43.885C95.5782 43.9292 95.7992 43.7576 95.7992 44.0331C95.7992 44.3061 95.5756 44.1761 95.4638 44.1761C84.8072 44.1839 74.1479 44.1839 63.4913 44.1839C61.0163 44.1813 58.5413 44.1813 56.0688 44.1813Z" fill="#787878"/>
<path d="M57.4992 34.1261C57.0937 35.2608 56.6829 36.393 56.2903 37.5303C56.2045 37.7775 56.0979 37.8764 55.8198 37.879C55.526 37.8842 55.4506 37.7515 55.3674 37.5121C55.0138 36.4866 54.6421 35.469 54.2755 34.4488C54.2391 34.3473 54.2027 34.2484 54.0987 34.1599C54.0493 35.2374 54.0025 36.3149 53.9531 37.3923C53.9453 37.5407 53.9219 37.6916 53.9297 37.84C53.9427 38.0508 53.8647 38.1185 53.6515 38.1159C53.207 38.1133 53.2174 38.1263 53.246 37.6656C53.3318 36.2576 53.4175 34.8496 53.4877 33.439C53.4981 33.21 53.5423 33.1189 53.7997 33.1241C54.4731 33.1345 54.4731 33.1215 54.7019 33.7487C55.0658 34.7559 55.4298 35.7631 55.7938 36.7729C55.9524 36.7417 55.9394 36.6012 55.9758 36.5101C56.3449 35.5185 56.7193 34.5269 57.0573 33.5249C57.1639 33.2126 57.3069 33.1007 57.637 33.1241C58.1518 33.1579 58.1648 33.1319 58.196 33.6576C58.2792 35.0526 58.3468 36.4502 58.43 37.8478C58.4404 38.0248 58.4352 38.1627 58.2168 38.1081C58.0426 38.0638 57.7358 38.2955 57.7202 37.8764C57.6734 36.6298 57.6162 35.3805 57.5642 34.1339C57.5434 34.1313 57.52 34.1287 57.4992 34.1261Z" fill="#787878"/>
<path d="M70.7724 34.1019C70.7724 35.398 70.7672 36.5874 70.7776 37.7742C70.7802 38.011 70.7594 38.1438 70.4656 38.1203C70.2369 38.1021 70.0809 38.1229 70.0861 37.795C70.1069 36.3454 70.1017 34.8931 70.0887 33.4435C70.0861 33.2014 70.1511 33.1442 70.398 33.1234C70.8478 33.0843 71.1052 33.2275 71.3236 33.6465C71.8695 34.6979 72.4753 35.7155 73.0603 36.7462C73.1175 36.8477 73.1461 36.9778 73.2708 37.0403C73.2708 35.8509 73.2682 34.6693 73.2734 33.4877C73.2734 33.3732 73.1955 33.1962 73.3488 33.1572C73.523 33.1129 73.7206 33.1286 73.9052 33.1572C74.0118 33.1728 73.9728 33.3029 73.9728 33.3836C73.9754 34.8853 73.9702 36.3844 73.978 37.8861C73.978 38.0709 73.9078 38.0969 73.7414 38.1229C73.2344 38.201 72.9407 38.0162 72.6989 37.5478C72.1087 36.4104 71.4536 35.3069 70.7724 34.1019Z" fill="#787878"/>
<path d="M38.7464 35.575C38.7724 36.0252 38.7464 36.4729 38.6086 36.9075C38.4084 37.5321 38.021 37.972 37.3685 38.1359C36.9005 38.2531 36.4274 38.2583 35.9646 38.1307C35.3952 37.9746 34.9975 37.618 34.8389 37.0402C34.5867 36.1319 34.5815 35.2158 34.8441 34.3101C35.0599 33.5606 35.585 33.1572 36.3546 33.0609C36.7055 33.0166 37.0539 33.0192 37.3971 33.0999C38.2134 33.2899 38.6606 33.9041 38.7464 34.9426C38.762 35.1508 38.7464 35.3642 38.7464 35.575ZM38.0132 35.549C38.0054 35.2418 38.021 34.8827 37.9353 34.5235C37.7897 33.9145 37.4101 33.6152 36.7471 33.61C36.0946 33.6048 35.6656 33.8963 35.52 34.4819C35.3354 35.2184 35.3432 35.968 35.481 36.7097C35.598 37.3421 35.9724 37.618 36.6483 37.6362C37.3243 37.6545 37.7663 37.3343 37.9249 36.7201C38.0236 36.3532 38.0132 35.9784 38.0132 35.549Z" fill="#787878"/>
<path d="M47.5304 35.6904C47.507 35.1751 47.5486 34.6676 47.7332 34.1809C47.9489 33.6136 48.3519 33.2492 48.9369 33.1061C49.4412 32.9837 49.956 32.9889 50.45 33.1555C50.9725 33.3299 51.3079 33.7073 51.4535 34.2304C51.7031 35.1387 51.7161 36.0548 51.4353 36.9605C51.2091 37.6892 50.6969 38.09 49.943 38.1889C49.5816 38.2358 49.2176 38.2358 48.8641 38.1447C48.0477 37.9365 47.6318 37.3561 47.5304 36.2864C47.5148 36.0912 47.5304 35.8908 47.5304 35.6904ZM48.2557 35.6878C48.2713 36.0028 48.2635 36.3385 48.3337 36.6716C48.4689 37.3197 48.7809 37.5929 49.4698 37.6346C50.125 37.6736 50.6007 37.3821 50.7541 36.7887C50.9569 36.0054 50.9517 35.2064 50.7567 34.4204C50.6189 33.8686 50.2394 33.624 49.6076 33.611C48.9863 33.598 48.5781 33.8712 48.3987 34.4074C48.2609 34.8212 48.2661 35.2454 48.2557 35.6878Z" fill="#787878"/>
<path d="M57.638 23.5934C57.6666 24.1087 57.6328 24.6136 57.43 25.0977C57.1726 25.7145 56.7125 26.0736 56.0573 26.1699C55.8233 26.2038 55.5842 26.2142 55.3502 26.2012C54.3597 26.1491 53.7643 25.6052 53.6161 24.5745C53.5147 23.8797 53.5173 23.1796 53.6733 22.4899C53.8631 21.6518 54.4194 21.1573 55.2748 21.048C55.6258 21.0038 55.9741 21.009 56.3147 21.0923C57.1051 21.2875 57.5418 21.8809 57.6354 22.8803C57.6562 23.1171 57.638 23.3565 57.638 23.5934ZM54.2791 23.6923C54.3285 24.0514 54.3051 24.4054 54.3935 24.7463C54.552 25.3553 54.8978 25.6208 55.5582 25.6312C56.2289 25.6416 56.6865 25.3371 56.8139 24.7411C56.9777 23.9916 56.9803 23.229 56.8165 22.4769C56.6865 21.8809 56.2913 21.6076 55.6388 21.6024C55.0018 21.5972 54.5832 21.8861 54.4195 22.443C54.2999 22.8568 54.3181 23.2837 54.2791 23.6923Z" fill="#787878"/>
<path d="M68.7363 38.0712C68.7077 38.0868 68.6973 38.0972 68.6843 38.0972C67.985 38.1675 67.985 38.1675 67.7796 37.5168C67.582 36.8896 67.582 36.8896 66.9451 36.8896C66.5967 36.8896 66.2457 36.9 65.8973 36.8844C65.7128 36.8766 65.6296 36.9391 65.5828 37.116C65.5178 37.3555 65.4294 37.5897 65.3462 37.8239C65.2942 37.9697 65.276 38.118 65.042 38.1206C64.5013 38.1284 64.4987 38.1441 64.6728 37.6339C65.1512 36.2207 65.6374 34.8075 66.1131 33.3917C66.1703 33.2225 66.2327 33.0794 66.4407 33.1367C66.6695 33.1991 67.0101 32.9545 67.1297 33.3006C67.6782 34.8882 68.2034 36.4836 68.7363 38.0712ZM67.4156 36.2884C67.1557 35.492 66.9113 34.7425 66.6305 33.8836C66.3445 34.7503 66.0949 35.5102 65.8402 36.2884C66.3705 36.2884 66.8671 36.2884 67.4156 36.2884Z" fill="#787878"/>
<path d="M60.2245 35.614C60.2245 34.8775 60.2323 34.141 60.2193 33.4044C60.2167 33.191 60.2817 33.1259 60.4949 33.1311C61.0434 33.1468 61.592 33.1259 62.1406 33.1442C62.9361 33.1728 63.3469 33.5528 63.4613 34.3414C63.5106 34.6901 63.4873 35.0415 63.3859 35.3798C63.2325 35.8899 62.8633 36.1632 62.3511 36.2204C61.969 36.2647 61.579 36.2647 61.1942 36.2595C60.9784 36.2569 60.916 36.3245 60.9238 36.5353C60.9394 36.9231 60.9212 37.3083 60.929 37.6961C60.9342 37.9433 60.9654 38.1385 60.5859 38.1333C60.2401 38.1281 60.2141 37.9928 60.2193 37.7143C60.2349 37.0116 60.2245 36.3141 60.2245 35.614ZM60.9524 34.6745C60.9446 34.6745 60.9342 34.6745 60.9264 34.6745C60.9264 34.9113 60.9368 35.1482 60.9238 35.385C60.9108 35.575 60.9654 35.6505 61.1708 35.64C61.4802 35.6218 61.7922 35.6348 62.1042 35.6322C62.2861 35.6322 62.4681 35.588 62.5695 35.4344C62.8425 35.0154 62.8087 34.5496 62.6579 34.1071C62.5279 33.7245 62.1691 33.7349 61.839 33.7506C61.5452 33.7636 61.1396 33.6178 60.9836 33.8104C60.838 33.99 60.9524 34.3778 60.9524 34.6745Z" fill="#787878"/>
<path d="M59.4039 23.6008C59.4039 22.8773 59.4144 22.1537 59.3988 21.4302C59.3936 21.1778 59.4741 21.1127 59.7159 21.1231C60.1891 21.1413 60.6623 21.1231 61.1354 21.1283C62.1727 21.1413 62.6693 21.6514 62.6511 22.6873C62.6355 23.7491 62.1545 24.2254 61.086 24.2566C60.7662 24.267 60.3477 24.1187 60.1501 24.3191C59.9369 24.5351 60.1007 24.9593 60.0799 25.2899C60.0695 25.4382 60.0643 25.5918 60.0825 25.7375C60.1189 26.0212 60.0279 26.1253 59.7211 26.1175C59.4507 26.1123 59.3936 26.0238 59.3988 25.774C59.4144 25.0478 59.4039 24.3243 59.4039 23.6008ZM60.0747 22.63C60.0747 22.9241 60.0799 23.1635 60.0721 23.4004C60.0669 23.5461 60.0955 23.6372 60.2723 23.632C60.6207 23.6216 60.9716 23.6268 61.32 23.6216C61.4916 23.619 61.6528 23.5565 61.7412 23.4134C61.9908 22.9996 61.9752 22.5467 61.8244 22.1121C61.6944 21.7347 61.346 21.7269 61.008 21.7373C60.7091 21.7477 60.3113 21.6358 60.1371 21.7894C59.9369 21.969 60.1085 22.3802 60.0747 22.63Z" fill="#787878"/>
<path d="M78.4848 35.5884C78.4848 34.8753 78.4978 34.1648 78.477 33.4517C78.4692 33.1784 78.5576 33.1237 78.8098 33.1316C79.4962 33.1498 80.1825 33.1446 80.8689 33.1342C81.0924 33.1316 81.2354 33.1342 81.2302 33.4387C81.225 33.7145 81.1314 33.7666 80.8845 33.7562C80.4113 33.738 79.9355 33.7614 79.4624 33.7458C79.244 33.738 79.1452 33.7822 79.1634 34.0295C79.1868 34.3392 79.1868 34.6541 79.1634 34.9664C79.1426 35.2319 79.2544 35.2761 79.4858 35.2683C79.9225 35.2527 80.3593 35.2787 80.7961 35.2579C81.0378 35.2475 81.0586 35.3672 81.0456 35.552C81.0326 35.7159 81.1054 35.9085 80.8065 35.8955C80.3463 35.8747 79.8835 35.8981 79.4208 35.8877C79.2258 35.8825 79.1582 35.9502 79.166 36.148C79.179 36.5227 79.1816 36.8975 79.166 37.2723C79.1582 37.4779 79.2388 37.5247 79.426 37.5195C79.9381 37.5091 80.4503 37.5325 80.9599 37.5091C81.2198 37.4987 81.2666 37.5924 81.2666 37.8266C81.2666 38.0453 81.225 38.1285 80.9806 38.1233C80.2449 38.1051 79.5092 38.1025 78.7734 38.1233C78.503 38.1311 78.477 38.0218 78.4796 37.8006C78.49 37.0615 78.4848 36.3249 78.4848 35.5884Z" fill="#787878"/>
<path d="M30.352 35.5855C30.352 34.8724 30.365 34.1619 30.3442 33.4487C30.3364 33.1755 30.4248 33.1208 30.6796 33.1286C31.3789 33.1468 32.0783 33.1442 32.775 33.1286C33.0116 33.1234 33.1052 33.1781 33.0974 33.4331C33.0896 33.6622 33.0558 33.7663 32.7932 33.7532C32.3071 33.7298 31.8209 33.7558 31.3348 33.7428C31.1164 33.735 31.0176 33.7819 31.0358 34.0265C31.0592 34.3362 31.0592 34.6511 31.0358 34.9635C31.015 35.2289 31.1268 35.2732 31.3581 35.2654C31.7949 35.2497 32.2317 35.2758 32.6685 35.2549C32.9128 35.2445 32.931 35.3643 32.918 35.549C32.905 35.713 32.9778 35.9056 32.6789 35.8926C32.2187 35.8718 31.7559 35.8952 31.2932 35.8848C31.0982 35.8796 31.0306 35.9498 31.0384 36.145C31.0514 36.5198 31.054 36.8946 31.0384 37.2694C31.0306 37.475 31.1112 37.5218 31.2984 37.5166C31.8105 37.5062 32.3227 37.5296 32.8322 37.5062C33.0922 37.4958 33.139 37.5921 33.1364 37.8237C33.1364 38.0449 33.0922 38.1256 32.8504 38.1204C32.1277 38.1022 31.4023 38.1022 30.6796 38.1204C30.4248 38.1256 30.339 38.0684 30.3468 37.7977C30.365 37.0611 30.352 36.3246 30.352 35.5855Z" fill="#787878"/>
<path d="M84.0827 38.1936C83.6226 38.204 83.1936 38.0999 82.7984 37.8578C82.6736 37.7824 82.5566 37.6783 82.723 37.5507C82.8478 37.4544 82.8192 37.0953 83.139 37.3087C83.5186 37.5611 83.9501 37.6132 84.3947 37.582C84.7223 37.5585 84.9875 37.431 85.0706 37.0953C85.1564 36.7465 85.0992 36.4264 84.7691 36.2026C84.4129 35.9631 83.9995 35.8564 83.6174 35.6743C83.2482 35.4973 82.918 35.2787 82.7672 34.8753C82.5202 34.2116 82.7854 33.5349 83.4328 33.2434C84.1087 32.9389 84.7951 32.9936 85.458 33.3137C85.5672 33.3657 85.7492 33.436 85.5828 33.6026C85.4684 33.7171 85.4762 34.0476 85.1694 33.8706C84.8081 33.6624 84.4103 33.639 84.0073 33.6702C83.7369 33.6911 83.5238 33.8108 83.4406 34.0815C83.3496 34.3756 83.3808 34.6514 83.6408 34.8622C83.8071 34.9976 84.0021 35.0809 84.1971 35.1641C84.4701 35.2839 84.7561 35.3828 85.0186 35.5207C85.653 35.859 85.9234 36.3978 85.8038 37.0276C85.6816 37.6704 85.211 38.0843 84.4961 38.1701C84.3583 38.1884 84.2179 38.1884 84.0827 38.1936Z" fill="#787878"/>
<path d="M26.9794 38.1775C26.5192 38.1931 26.0902 38.0942 25.6976 37.847C25.5443 37.7507 25.5105 37.6388 25.6535 37.5269C25.7704 37.4384 25.7444 37.1 26.0382 37.2952C26.4412 37.5633 26.8962 37.6205 27.3667 37.5737C27.6605 37.5451 27.8841 37.4097 27.9829 37.1104C28.0817 36.8111 28.0375 36.5483 27.8139 36.3167C27.6709 36.1683 27.4941 36.0798 27.3121 35.9991C27.0287 35.8742 26.735 35.7649 26.4568 35.6296C25.7834 35.299 25.5313 34.8618 25.6327 34.1565C25.721 33.5345 26.1682 33.2482 26.7194 33.1181C27.2939 32.9801 27.8607 33.04 28.3884 33.3211C28.4872 33.3731 28.6588 33.4434 28.5054 33.5891C28.3885 33.701 28.4066 34.0446 28.0999 33.878C27.7333 33.6776 27.3433 33.6412 26.9404 33.6672C26.6362 33.688 26.4178 33.8364 26.3346 34.1357C26.254 34.4246 26.3164 34.69 26.5712 34.8696C26.7428 34.9893 26.9378 35.0804 27.1275 35.1689C27.3745 35.2834 27.6371 35.3693 27.8815 35.4916C28.5756 35.8456 28.8512 36.4025 28.703 37.1235C28.5834 37.6986 28.0609 38.1098 27.3563 38.1749C27.2289 38.1879 27.1041 38.1775 26.9794 38.1775Z" fill="#787878"/>
<path d="M43.325 35.6249C43.3276 35.9477 43.3224 36.2704 43.3848 36.5931C43.559 37.5014 44.2349 37.8554 45.0773 37.4598C45.2229 37.3921 45.3762 37.3088 45.4776 37.1917C45.6908 36.9392 45.7922 37.1266 45.9482 37.2542C46.177 37.4389 46.0184 37.5457 45.891 37.6628C45.2957 38.2171 44.5911 38.3134 43.8372 38.1234C43.1118 37.9412 42.805 37.3791 42.675 36.7076C42.5269 35.9399 42.5295 35.1669 42.7244 34.4069C43.0572 33.0952 44.7835 32.5487 45.8286 33.4231C45.9352 33.5116 46.1068 33.6027 45.904 33.7641C45.7688 33.8708 45.7246 34.1753 45.4282 33.9228C45.0617 33.6079 44.5937 33.6079 44.1465 33.6964C43.6994 33.7849 43.4966 34.1284 43.4108 34.5449C43.3328 34.9014 43.3016 35.2606 43.325 35.6249Z" fill="#787878"/>
<path d="M50.1099 23.9236C50.1099 23.2859 50.1021 22.6483 50.1151 22.0132C50.1203 21.8076 50.0683 21.727 49.8499 21.7374C49.5015 21.7556 49.1506 21.7244 48.8022 21.7478C48.5266 21.766 48.5708 21.5994 48.576 21.4407C48.5812 21.2923 48.511 21.118 48.7918 21.1232C49.9019 21.1362 51.012 21.1362 52.1247 21.1232C52.4081 21.1206 52.3275 21.3001 52.3379 21.4459C52.3509 21.6151 52.3665 21.766 52.1039 21.7478C51.7686 21.7244 51.428 21.7582 51.0926 21.7374C50.8508 21.7218 50.8066 21.8102 50.8092 22.0315C50.8196 23.2547 50.8066 24.4805 50.8196 25.7037C50.8222 25.9822 50.8014 26.1175 50.4557 26.1227C50.0761 26.128 50.1073 25.9328 50.1099 25.6855C50.1151 25.0973 50.1099 24.5091 50.1099 23.9236Z" fill="#787878"/>
<path d="M76.5771 35.6218C76.5771 36.3584 76.5589 37.0949 76.5849 37.8314C76.5979 38.1698 76.4003 38.1073 76.2079 38.1151C76.0103 38.1229 75.8621 38.1333 75.8673 37.8366C75.8855 36.3636 75.8855 34.8905 75.8673 33.4174C75.8647 33.1259 76.0025 33.1233 76.2053 33.1337C76.3951 33.1441 76.5979 33.0713 76.5849 33.4122C76.5563 34.1488 76.5771 34.8853 76.5771 35.6218Z" fill="#787878"/>
</svg>
