<svg width="121" height="121" viewBox="0 0 121 121" fill="none" xmlns="http://www.w3.org/2000/svg">
<path d="M114.671 75.2295C112.302 83.4226 108.324 90.6188 102.838 97.0216C101.753 98.2866 100.664 98.7851 98.9625 98.7825C72.5472 98.7181 46.1319 98.7342 19.7165 98.753C19.017 98.753 18.5239 98.5895 18.0414 98.0588C12.1023 91.5274 7.865 84.0391 5.3564 75.5752C5.3296 75.4814 5.35372 75.3742 5.35372 75.2322C41.7525 75.2295 78.1567 75.2295 114.671 75.2295ZM30.6702 85.6364C30.6702 89.6674 32.1443 92.3582 34.6984 93.6527C37.4456 95.0464 40.1552 94.8802 42.7388 93.2132C44.5667 92.0339 44.5533 91.7766 42.9747 90.3293C42.5941 89.9809 42.4199 90.0533 42.0875 90.3695C40.4312 91.9374 38.4989 92.4413 36.3574 91.5542C34.2267 90.6697 33.3905 88.8633 33.2163 86.687C33.0475 84.5912 34.2535 82.423 36.0519 81.5117C37.8744 80.5871 40.2919 80.8229 41.7525 82.2809C42.4896 83.0153 42.8648 82.8384 43.3633 82.1737C43.4651 82.0397 43.5857 81.9084 43.7251 81.8146C44.3764 81.3616 44.2799 80.9945 43.7224 80.4772C41.4926 78.4135 38.0486 77.7542 35.2532 79.0272C32.0826 80.4665 30.764 83.1091 30.6702 85.6364ZM82.2225 83.763C82.2225 82.3238 82.2225 80.9676 82.2225 79.6088C82.2225 77.8426 82.2225 77.8667 80.4268 77.8614C79.8318 77.8587 79.5959 77.9659 79.5986 78.6333C79.6281 83.6129 79.612 88.5899 79.6174 93.5696C79.6174 93.8001 79.5129 94.1619 79.7299 94.2316C80.4509 94.4648 81.2255 94.4219 81.9464 94.2852C82.4637 94.186 82.2037 93.5911 82.2117 93.2239C82.2466 91.4175 82.1769 89.6057 82.2707 87.8047C82.3431 86.403 83.5089 85.5453 84.9803 85.6311C86.0631 85.6954 86.6286 86.4485 86.642 87.8958C86.6554 89.4315 86.6447 90.9645 86.6447 92.5002C86.6447 94.4541 86.6447 94.438 88.636 94.3549C89.097 94.3361 89.298 94.2477 89.2926 93.7304C89.2632 91.5836 89.3355 89.4315 89.2551 87.2874C89.1667 84.945 87.7891 83.4682 85.5592 83.0742C84.3907 82.8679 83.3535 83.2618 82.2225 83.763ZM60.3124 88.7856C60.3124 87.3866 60.3205 85.9875 60.3097 84.5885C60.299 83.1037 60.4947 83.3422 59.0206 83.2431C57.9807 83.1734 57.5975 83.4441 57.6752 84.551C57.7824 86.0438 57.7127 87.5527 57.6939 89.0536C57.6886 89.4583 57.6511 89.8764 57.5385 90.2597C57.2062 91.4041 55.9277 92.1572 54.7297 91.9589C53.789 91.8034 53.253 91.0128 53.2396 89.7102C53.2262 88.1745 53.2369 86.6388 53.2369 85.1031C53.2369 83.1359 53.2369 83.1573 51.2589 83.2458C50.7015 83.2699 50.5836 83.4736 50.5889 83.9801C50.613 85.9929 50.5514 88.0083 50.6077 90.0184C50.7068 93.6179 53.722 95.502 57.0427 94.0896C57.2276 94.0118 57.5706 93.8698 57.584 93.8939C58.0826 94.8159 58.9188 94.1726 59.5727 94.3308C60.1489 94.4701 60.3312 94.1646 60.3205 93.5911C60.291 91.9937 60.3097 90.3883 60.3124 88.7856ZM68.192 88.8124C68.2938 90.9243 69.0872 92.7039 71.0222 93.7706C73.0162 94.8695 75.0665 94.8507 77.0552 93.7117C78.6123 92.8192 78.5721 92.8165 77.3661 91.5434C76.8274 90.9752 76.4924 90.7742 75.7526 91.3773C74.5412 92.3636 72.6812 92.1063 71.6547 91.0101C70.6068 89.8898 70.521 87.9815 71.4618 86.7755C72.3837 85.5909 74.3322 85.1594 75.6052 86.1055C76.5165 86.7835 76.9935 86.5691 77.5483 85.816C77.6689 85.6525 77.8244 85.5105 77.9825 85.3845C78.3684 85.0763 78.347 84.8297 77.9584 84.5161C75.9778 82.9134 73.7935 82.5516 71.4644 83.562C69.2239 84.5376 68.2831 86.4056 68.192 88.8124ZM63.2284 89.9434C63.2284 90.8654 63.2284 91.7873 63.2284 92.7066C63.2284 94.3683 63.2284 94.3227 64.9035 94.371C65.6941 94.3924 65.8764 94.1351 65.8576 93.3847C65.8094 91.2031 65.8951 89.0161 65.8147 86.8345C65.7799 85.8964 66.0801 85.5962 66.9538 85.749C67.7605 85.8884 68.0848 85.5587 67.9562 84.7493C67.9186 84.5161 67.9267 84.2696 67.9562 84.0337C68.0205 83.4816 67.8489 83.2538 67.2379 83.2458C65.8415 83.2324 65.8415 83.1975 65.8415 81.844C65.8415 81.6725 65.8415 81.5037 65.8415 81.3322C65.8415 79.4748 65.8415 79.5043 64.0271 79.4963C63.4107 79.4936 63.1694 79.6383 63.215 80.2869C63.2686 81.0668 63.2123 81.8548 63.2338 82.64C63.2445 83.0555 63.1266 83.3422 62.6709 83.2511C61.3738 82.9938 61.4086 83.7684 61.3898 84.7011C61.3711 85.5507 61.5935 85.8991 62.4565 85.749C63.1078 85.6338 63.2632 85.958 63.2418 86.5638C63.1989 87.6894 63.2284 88.8151 63.2284 89.9434ZM45.8853 86.1457C45.8853 88.6033 45.9148 91.0583 45.8665 93.5133C45.8531 94.2209 46.0943 94.4299 46.7402 94.3522C46.9761 94.3254 47.2227 94.3147 47.4558 94.3522C48.3215 94.4943 48.5225 94.1244 48.5145 93.2882C48.4743 88.7159 48.4957 84.1463 48.4957 79.574C48.4957 77.8507 48.4957 77.8909 46.7724 77.856C46.0407 77.8399 45.8585 78.0678 45.8692 78.7753C45.9121 81.233 45.8853 83.688 45.8853 86.1457ZM75.7821 88.7802C75.7741 87.6572 74.9593 86.8398 73.8631 86.8612C72.7938 86.88 71.8879 87.7939 71.9147 88.8204C71.9442 89.863 72.8688 90.7635 73.9033 90.7528C74.9834 90.7421 75.7902 89.8952 75.7821 88.7802Z" fill="#787878"/>
<path d="M113.952 74.1248C112.513 74.1248 111.061 74.1248 109.595 74.1248C116.579 48.9102 104.454 26.834 87.9686 16.1778C70.6443 4.97755 47.8846 5.24824 30.5683 17.1614C14.2544 28.3858 3.70273 50.1163 10.3602 74.1141C8.87806 74.1141 7.40667 74.1141 5.92188 74.1141C6.60799 73.4039 7.23246 72.6937 7.93197 72.0665C8.35007 71.6913 8.41171 71.3456 8.30451 70.8176C5.14732 54.9753 8.17586 40.4437 17.9583 27.5523C26.4651 16.3413 37.81 9.48285 51.7547 7.41915C69.5186 4.78994 84.9508 9.89559 97.6734 22.5699C106.18 31.0472 111.028 41.4327 112.47 53.3833C113.17 59.1912 112.907 64.9508 111.666 70.6621C111.524 71.3161 111.677 71.7368 112.154 72.1791C112.787 72.7794 113.347 73.4655 113.952 74.1248Z" fill="#787878"/>
<path d="M94.2581 99.7441C75.9368 115.962 46.0265 117.355 25.7031 99.8326C26.7189 99.7013 27.5095 99.7441 28.3672 100.398C38.8974 108.452 50.7918 112.046 64.0263 111.052C74.401 110.274 83.6662 106.589 91.846 100.181C92.5723 99.6101 93.3174 99.8353 94.2581 99.7441Z" fill="#787878"/>
<path d="M25.9009 47.0263C25.1532 49.7948 24.4269 52.3436 23.7997 54.9166C23.6228 55.6402 23.2771 55.7045 22.6687 55.7206C22.0308 55.7394 21.7977 55.533 21.6529 54.9059C20.8945 51.5986 20.0824 48.3047 19.2891 45.0162C20.4254 44.6249 20.8489 45.043 21.0606 46.115C21.5565 48.637 22.1756 51.1349 22.8992 53.6435C23.5639 51.1188 24.2607 48.6022 24.8744 46.0668C25.0379 45.386 25.3328 45.2386 25.9787 45.2225C26.6299 45.2065 26.8497 45.4638 26.9917 46.0346C27.6216 48.5352 28.2863 51.0277 29.1385 53.5524C29.4548 52.1909 29.7791 50.8321 30.0873 49.4679C30.3821 48.1734 30.7037 46.8842 30.9342 45.579C31.0897 44.6946 31.7195 44.8259 32.2394 44.9304C32.8693 45.0591 32.411 45.5361 32.3466 45.8095C31.615 48.8836 30.8243 51.947 30.1141 55.0265C29.964 55.6804 29.6236 55.7179 29.1064 55.7099C28.573 55.7019 28.1817 55.7179 28.0075 55.0023C27.3723 52.3973 26.646 49.8163 25.9009 47.0263Z" fill="#787878"/>
<path d="M45.6209 50.2505C45.6209 48.7175 45.6424 47.1818 45.6102 45.6487C45.5968 45.0806 45.7496 44.8581 46.3472 44.8956C47.7034 44.9814 49.0676 44.8179 50.4264 45.027C52.0371 45.2735 53.0181 46.1848 53.3558 47.7366C53.7203 49.417 53.739 51.1242 53.3263 52.802C52.8573 54.7156 51.5896 55.6295 49.4106 55.6939C48.3895 55.7233 47.3657 55.6644 46.3445 55.7126C45.7442 55.7394 45.5968 55.5197 45.6102 54.9541C45.6424 53.3863 45.6209 51.8184 45.6209 50.2505ZM47.0869 50.2612C47.0869 50.875 47.0869 51.4887 47.0869 52.1025C47.0869 54.7049 47.0869 54.7049 49.7242 54.3672C51.008 54.201 51.5628 53.7025 51.8817 52.4161C52.1229 51.4432 52.0479 50.4489 52.0211 49.4626C51.9487 46.8762 51.2385 46.2009 48.6843 46.2009C48.3761 46.2009 48.0679 46.2277 47.765 46.1955C47.2263 46.1365 47.0575 46.3483 47.0762 46.8843C47.1137 48.0099 47.0869 49.1356 47.0869 50.2612Z" fill="#787878"/>
<path d="M98.1414 50.69C99.7602 51.8103 99.795 53.6193 100.173 55.2757C100.245 55.5973 100.074 55.7527 99.7896 55.6857C99.3957 55.5946 98.8087 56.0395 98.6452 55.2515C98.4737 54.4207 98.2807 53.5899 98.01 52.7858C97.5785 51.5047 96.1339 50.8803 94.8662 51.3305C94.4696 51.4726 94.617 51.7647 94.6116 51.9979C94.5929 53.019 94.5714 54.0428 94.617 55.0639C94.6438 55.6616 94.3597 55.7072 93.8853 55.7099C93.4029 55.7125 93.151 55.6509 93.1563 55.0613C93.1831 51.8933 93.1697 48.7254 93.167 45.5575C93.167 45.2037 93.1269 44.8687 93.6656 44.8982C95.0244 44.9706 96.3912 44.7749 97.742 45.0135C99.2375 45.2761 99.8835 45.8765 100.098 47.1602C100.334 48.5887 99.787 49.7921 98.605 50.4407C98.4549 50.5265 98.3049 50.6042 98.1414 50.69ZM94.6009 48.0098C94.6009 50.0977 94.6009 50.0977 96.3778 50.028C97.9404 49.969 98.6345 49.2909 98.5997 47.8598C98.5675 46.5143 98.1521 46.2008 96.3993 46.2008C94.6009 46.1981 94.6009 46.1981 94.6009 48.0098Z" fill="#787878"/>
<path d="M85.0819 50.2239C85.0819 48.723 85.1034 47.2195 85.0712 45.7213C85.0578 45.129 85.1865 44.869 85.8565 44.8931C87.3225 44.9441 88.7912 44.9333 90.2573 44.8958C90.8147 44.8824 90.938 45.0781 90.9407 45.598C90.9434 46.1126 90.7531 46.2305 90.2814 46.2198C89.2576 46.193 88.2338 46.2359 87.21 46.201C86.6713 46.1823 86.5265 46.3806 86.5051 46.9059C86.3952 49.5539 86.3791 49.5539 89.0459 49.5539C89.3192 49.5539 89.5953 49.5807 89.8633 49.5485C90.3966 49.4842 90.5655 49.6772 90.5628 50.2239C90.5601 50.7519 90.3511 50.8403 89.8981 50.8269C88.9789 50.8001 88.0542 50.8484 87.1349 50.8082C86.6257 50.7867 86.5265 50.977 86.5051 51.4514C86.3738 54.4022 86.363 54.4022 89.2549 54.4022C89.6301 54.4022 90.008 54.4317 90.3806 54.3969C90.9461 54.3459 90.9568 54.6783 90.9621 55.0964C90.9648 55.5064 90.8817 55.7209 90.402 55.7128C88.8341 55.6887 87.2636 55.678 85.693 55.7155C85.0551 55.7316 85.0766 55.3671 85.0793 54.9356C85.0846 53.3623 85.0819 51.7918 85.0819 50.2239Z" fill="#787878"/>
<path d="M34.218 50.2636C34.218 48.7654 34.2475 47.2646 34.2046 45.7664C34.1859 45.1205 34.336 44.8632 35.0408 44.8873C36.5042 44.9409 37.9702 44.9141 39.4362 44.898C39.8865 44.8926 40.1143 44.9838 40.117 45.5091C40.1197 46.0371 39.9696 46.2381 39.4255 46.2193C38.4044 46.1871 37.3806 46.23 36.3595 46.2032C35.8395 46.1898 35.668 46.3533 35.6465 46.8974C35.5393 49.5507 35.5206 49.5507 38.1659 49.5507C38.5062 49.5507 38.8493 49.5802 39.187 49.5453C39.79 49.481 39.7069 49.875 39.7337 50.2529C39.7659 50.7058 39.6024 50.8398 39.1575 50.8264C38.2034 50.797 37.2493 50.8398 36.2951 50.8077C35.8154 50.7916 35.6733 50.9417 35.6465 51.4348C35.5018 54.3937 35.4857 54.391 38.383 54.391C38.7582 54.391 39.1361 54.4178 39.5059 54.3857C39.9964 54.3428 40.1679 54.525 40.1438 55.0208C40.125 55.4363 40.125 55.723 39.5622 55.7123C37.9943 55.6775 36.4265 55.6775 34.8613 55.7123C34.2663 55.7257 34.2073 55.4389 34.2127 54.9646C34.2287 53.3994 34.218 51.8315 34.218 50.2636Z" fill="#787878"/>
<path d="M55.858 50.2344C55.858 48.7014 55.8822 47.1657 55.8446 45.6326C55.8286 45.0403 56.0296 44.8795 56.6004 44.8956C58.0665 44.9331 59.5325 44.9197 60.9985 44.901C61.4488 44.8956 61.6819 44.976 61.6766 45.5067C61.6712 46.0132 61.5667 46.2464 60.9985 46.2249C59.9774 46.1847 58.9536 46.2357 57.9324 46.2062C57.4527 46.1928 57.3053 46.3348 57.2812 46.836C57.1445 49.559 57.1284 49.5563 59.8273 49.5563C60.1328 49.5563 60.4437 49.5831 60.7466 49.551C61.3067 49.4947 61.3201 49.827 61.3308 50.2451C61.3442 50.69 61.1888 50.8428 60.7439 50.8294C59.8246 50.8026 58.9027 50.8455 57.9834 50.8106C57.4741 50.7919 57.2356 50.9125 57.2865 51.4753C57.3723 52.4187 56.9006 53.6355 57.4742 54.2332C57.9995 54.7826 59.2162 54.3538 60.1275 54.394C60.4678 54.4101 60.8109 54.4208 61.1486 54.3913C61.7061 54.3404 61.7355 54.6727 61.7355 55.0935C61.7355 55.5009 61.6364 55.7153 61.162 55.7099C59.5941 55.6858 58.0263 55.6804 56.4584 55.7126C55.925 55.7233 55.842 55.4901 55.8473 55.0399C55.8688 53.4372 55.858 51.8345 55.858 50.2344Z" fill="#787878"/>
<path d="M57.341 21.8032C57.2284 21.1252 57.3704 20.565 57.5313 20.029C57.7993 19.1392 57.5607 18.4879 56.8398 17.909C56.4002 17.5552 56.0733 17.0621 55.6016 16.5261C57.8314 16.6976 59.3886 15.8399 59.9246 13.3555C60.5544 15.6979 62.0071 16.7539 64.4379 16.6333C62.4278 17.9278 61.7471 19.5305 62.8862 21.763C62.0098 21.621 61.5005 21.2833 61.0261 20.967C60.2757 20.4632 59.6244 20.4766 58.8954 20.9831C58.4318 21.302 57.8931 21.5138 57.341 21.8032Z" fill="#787878"/>
<path d="M79.0833 54.0402C79.9892 51.2422 80.8147 48.688 81.6428 46.1339C82.0636 44.834 82.0663 44.834 83.5296 44.9707C82.3664 48.3932 81.1979 51.797 80.0615 55.2115C79.8552 55.8306 79.4076 55.6778 78.9895 55.6966C78.5767 55.7153 78.2015 55.7421 78.0246 55.2061C76.958 51.9819 75.8618 48.7684 74.7924 45.5469C74.7254 45.3459 74.4762 44.9385 74.9318 44.9305C75.4383 44.9225 76.111 44.5821 76.3683 45.4424C76.8936 47.2006 77.4565 48.948 78.0086 50.6981C78.3355 51.7327 78.6706 52.7618 79.0833 54.0402Z" fill="#787878"/>
<path d="M63.9097 50.2592C63.9097 48.7261 63.9311 47.1904 63.899 45.6574C63.8883 45.0972 64.033 44.8855 64.6333 44.8828C65.2364 44.8802 65.3677 45.0946 65.3623 45.652C65.3382 48.241 65.3784 50.8327 65.3355 53.4244C65.3221 54.1614 65.4749 54.4723 66.2816 54.4134C67.2652 54.341 68.2569 54.4187 69.2458 54.3866C69.7577 54.3705 69.8757 54.5822 69.873 55.0486C69.8676 55.5042 69.7792 55.724 69.2539 55.7159C67.686 55.6864 66.1181 55.6811 64.5502 55.7159C63.9526 55.7293 63.899 55.4372 63.9043 54.9655C63.9204 53.3949 63.9097 51.827 63.9097 50.2592Z" fill="#787878"/>
<path d="M53.0251 31.6054C53.0251 33.1733 53.0278 34.7412 53.0225 36.309C53.0225 36.6333 53.1297 37.0166 52.5588 36.9952C52.012 36.9737 52.1032 36.6039 52.1032 36.2742C52.1005 34.433 52.0898 32.589 52.1139 30.7478C52.1166 30.4664 51.8727 29.9866 52.4248 29.9384C52.867 29.9009 53.3333 29.7803 53.6416 30.3672C54.4322 31.8734 55.2952 33.3395 56.1287 34.8216C56.2064 34.9609 56.2949 35.0976 56.6058 35.2236C56.6058 34.6098 56.6058 33.9961 56.6058 33.3823C56.6058 32.3934 56.6111 31.4044 56.6031 30.4154C56.6004 30.0911 56.6835 29.9143 57.056 29.9116C57.3991 29.9089 57.5358 30.0027 57.5331 30.3672C57.5197 32.4148 57.5251 34.4598 57.5277 36.5074C57.5277 36.762 57.517 36.9871 57.1659 36.9871C56.6915 36.9898 56.2627 37.0407 55.9652 36.4806C55.1558 34.9475 54.2767 33.452 53.4218 31.9431C53.3441 31.8064 53.261 31.6724 53.1806 31.5384C53.1323 31.5625 53.0787 31.584 53.0251 31.6054Z" fill="#787878"/>
<path d="M65.2802 66.299C65.2802 64.6882 65.2748 63.1364 65.2855 61.5846C65.2882 61.2737 65.1596 60.8664 65.7358 60.8771C66.3147 60.8878 66.1593 61.3032 66.1619 61.6061C66.1727 63.4473 66.178 65.2913 66.1566 67.1325C66.1539 67.422 66.3898 67.891 65.8671 67.966C65.4169 68.033 64.9639 68.0947 64.6584 67.5158C63.8678 66.0122 63.0021 64.5435 62.1632 63.0641C62.0667 62.8952 61.9434 62.7398 61.6593 62.3244C61.6593 64.1093 61.6727 65.6156 61.6486 67.1245C61.6433 67.4327 61.9032 67.9419 61.2654 67.9821C60.5337 68.0277 60.7883 67.4568 60.7829 67.1191C60.7615 65.3449 60.7588 63.5706 60.7856 61.7964C60.791 61.4882 60.5149 60.9843 61.1126 60.8905C61.6379 60.8074 62.0614 60.8824 62.3642 61.4667C63.112 62.9167 63.9428 64.3264 64.7549 65.7415C64.8648 65.9291 64.9076 66.1971 65.2802 66.299Z" fill="#787878"/>
<path d="M53.4219 64.528C53.4862 64.0536 53.5371 63.5819 53.6175 63.1129C53.8963 61.4834 54.8557 60.7035 56.5174 60.7437C58.1737 60.7839 59.0073 61.5906 59.2002 63.3166C59.3155 64.3377 59.3289 65.3535 58.9992 66.3371C58.5704 67.6209 57.5144 68.2427 56.0404 68.1167C54.6226 67.9961 53.8695 67.3261 53.6202 65.9458C53.5318 65.4795 53.4862 65.0051 53.4219 64.528ZM58.2809 64.3806C58.2381 63.9357 58.2059 63.4613 58.1416 62.9896C58.0076 62.0301 57.4394 61.5691 56.4745 61.5584C55.3971 61.545 54.8611 61.9256 54.6467 62.9387C54.4484 63.8794 54.4135 64.8282 54.6011 65.7796C54.8289 66.9348 55.2765 67.3287 56.3781 67.3073C57.4555 67.2859 57.9969 66.8168 58.155 65.7367C58.2193 65.2999 58.2381 64.8577 58.2809 64.3806Z" fill="#787878"/>
<path d="M79.8739 29.935C80.3536 29.8037 80.5171 30.0985 80.6484 30.4925C81.2809 32.4275 81.9295 34.3599 82.5701 36.2949C82.6451 36.5254 82.9399 36.839 82.5191 36.9623C82.1922 37.0561 81.7875 37.1151 81.6133 36.5871C81.4685 36.1502 81.4846 35.44 81.0853 35.3435C80.3429 35.1639 79.5335 35.2792 78.7509 35.2524C78.4239 35.2416 78.3623 35.4802 78.2819 35.6919C78.1613 36.0082 78.0808 36.3405 77.971 36.6594C77.8396 37.0454 77.5073 37.0347 77.2071 36.9757C76.7435 36.8846 76.9847 36.5549 77.057 36.3351C77.711 34.3706 78.3917 32.4114 79.035 30.4442C79.1824 29.9993 79.4343 29.8492 79.8739 29.935ZM80.9593 34.4028C80.568 33.2342 80.2223 32.2024 79.8042 30.9561C79.3861 32.2613 79.0511 33.3039 78.7 34.4028C79.4879 34.4028 80.1553 34.4028 80.9593 34.4028Z" fill="#787878"/>
<path d="M71.6282 50.3149C71.6282 48.747 71.6416 47.1818 71.6202 45.6139C71.6121 45.1235 71.6979 44.8608 72.2795 44.8876C72.7887 44.9091 73.0889 44.9385 73.0835 45.5898C73.0514 48.7229 73.0541 51.8559 73.0835 54.9917C73.0889 55.6081 72.8477 55.7126 72.3036 55.7207C71.7515 55.7287 71.6095 55.5384 71.6175 55.0158C71.647 53.4506 71.6282 51.8827 71.6282 50.3149Z" fill="#787878"/>
<path d="M46.766 33.4005C46.766 32.4785 46.8009 31.5565 46.7526 30.6399C46.7231 30.0423 46.9402 29.8761 47.5111 29.9056C48.3285 29.9485 49.1487 29.9083 49.9661 29.9217C50.2368 29.927 50.5986 29.7877 50.6174 30.3049C50.6388 30.8919 50.2314 30.7364 49.9232 30.7498C49.5828 30.7632 49.2344 30.8007 48.9021 30.7445C47.9292 30.581 47.6826 30.9321 47.6639 31.9264C47.6424 32.9958 48.0954 33.0199 48.9101 33.0199C49.3872 33.0199 50.2797 32.5964 50.3118 33.3763C50.3494 34.2769 49.4381 33.6658 48.9718 33.8159C48.5751 33.9445 47.9078 33.5908 47.7711 34.0196C47.5835 34.6092 47.6826 35.3034 47.7389 35.9466C47.7657 36.2628 48.1222 36.1449 48.3419 36.1503C48.9557 36.1664 49.5694 36.161 50.1832 36.1583C50.4753 36.1583 50.6147 36.2843 50.612 36.5871C50.612 36.8954 50.4619 37.0079 50.1751 37.0079C49.1862 37.0052 48.1972 37.0052 47.2082 37.0052C46.7526 37.0052 46.7633 36.6863 46.7633 36.3701C46.7687 35.3784 46.766 34.3894 46.766 33.4005Z" fill="#787878"/>
<path d="M73.8327 37.0972C73.361 37.1374 72.8652 36.998 72.4042 36.7836C72.1817 36.6791 71.7315 36.6496 72.0021 36.1645C72.1951 35.8161 72.3881 35.7652 72.7311 35.9796C73.176 36.2583 73.688 36.2931 74.2079 36.2771C74.7412 36.261 75.1433 36.06 75.3014 35.532C75.4676 34.9692 75.2692 34.5082 74.7654 34.2294C74.3205 33.9829 73.8407 33.806 73.3797 33.5916C72.2728 33.0824 71.7556 32.2998 71.9325 31.3966C72.112 30.4585 72.959 29.8394 74.1623 29.834C74.5965 29.8314 75.0414 29.9252 75.4595 30.0485C75.7007 30.1208 76.151 30.1449 75.9553 30.622C75.8133 30.9651 75.5801 31.0321 75.221 30.8552C74.8216 30.6595 74.3687 30.63 73.9211 30.6542C73.4387 30.6783 73.0501 30.8605 72.9241 31.3671C72.7901 31.9031 73.0126 32.3051 73.4923 32.5463C73.9158 32.7607 74.358 32.943 74.7895 33.1386C76.0089 33.6961 76.5101 34.4841 76.2877 35.4945C76.0572 36.5531 75.2371 37.0999 73.8327 37.0972Z" fill="#787878"/>
<path d="M66.3315 37.0991C65.7767 37.1098 65.2488 36.9838 64.761 36.7265C64.5734 36.6274 64.2491 36.5764 64.442 36.2334C64.5948 35.96 64.7476 35.6866 65.1469 35.9439C65.6213 36.2495 66.1627 36.3031 66.7175 36.2736C67.1999 36.2495 67.5992 36.086 67.7466 35.5955C67.9075 35.0568 67.8002 34.5583 67.283 34.2635C66.8434 34.0116 66.3664 33.824 65.9027 33.6149C64.7181 33.0816 64.2491 32.3552 64.4447 31.3395C64.6243 30.4068 65.4712 29.8225 66.6987 29.8252C67.1731 29.8252 67.6502 29.8788 68.087 30.0986C68.3175 30.2165 68.6472 30.2567 68.4113 30.656C68.2505 30.9321 68.0843 31.0554 67.7574 30.8839C67.291 30.64 66.7764 30.6239 66.2619 30.6641C65.8062 30.6989 65.5034 30.9482 65.3908 31.3958C65.2756 31.8487 65.4364 32.2239 65.825 32.4464C66.2645 32.6983 66.7389 32.8913 67.2026 33.1003C68.4542 33.6631 68.9875 34.4886 68.7678 35.5285C68.5507 36.5496 67.6796 37.1098 66.3315 37.0991Z" fill="#787878"/>
<path d="M33.7943 33.5457C33.7943 33.8191 33.7755 34.0925 33.797 34.3631C33.9497 36.2446 35.1504 36.8396 36.7478 35.7997C37.0292 35.6174 37.1954 35.4432 37.4821 35.7836C37.8252 36.1937 37.4527 36.317 37.2409 36.4885C35.5819 37.8339 33.3601 37.0486 32.9018 34.9689C32.6713 33.9182 32.6954 32.873 32.942 31.8331C33.3762 30.0106 35.6355 29.1503 37.1686 30.2277C37.3696 30.3698 37.7019 30.5011 37.4044 30.8441C37.257 31.0157 37.1659 31.1738 36.8309 31.0612C34.5126 30.2813 33.797 30.8066 33.7809 33.2402C33.7809 33.342 33.7809 33.4439 33.7809 33.5457C33.7836 33.5457 33.7889 33.5457 33.7943 33.5457Z" fill="#787878"/>
<path d="M82.3906 30.0098C83.1973 29.7284 83.5592 30.05 83.8218 30.7442C84.1166 31.5268 84.5428 32.2611 84.9984 33.1912C85.454 32.2665 85.8855 31.5161 86.1964 30.7174C86.4671 30.0259 86.845 29.7365 87.6249 30.0206C87.247 30.7469 86.9066 31.4893 86.4912 32.1834C85.7408 33.435 85.2074 34.7242 85.4165 36.2304C85.4621 36.5628 85.5719 37.0371 84.9314 36.9943C84.3552 36.9567 84.5106 36.5065 84.5508 36.2304C84.8081 34.558 84.055 33.1912 83.2965 31.8136C82.9695 31.2239 82.6908 30.6129 82.3906 30.0098Z" fill="#787878"/>
<path d="M60.6358 33.8756C60.6358 33.4655 60.6411 33.0581 60.6331 32.6481C60.6224 32.0719 60.7912 31.375 60.5286 30.9516C60.2579 30.5174 59.5208 30.8256 58.9875 30.7934C58.6391 30.772 58.5104 30.6621 58.5158 30.311C58.5211 29.984 58.682 29.917 58.9607 29.9197C60.3919 29.9251 61.8231 29.9278 63.2542 29.917C63.6027 29.9144 63.7367 30.0323 63.726 30.3887C63.7152 30.7077 63.5625 30.7693 63.2837 30.7934C62.7504 30.8363 61.9892 30.5227 61.74 30.9382C61.4666 31.3965 61.6167 32.1174 61.6113 32.7258C61.6006 33.9185 61.6087 35.1111 61.6087 36.3038C61.6087 36.6442 61.673 37.0006 61.137 37.0087C60.6197 37.0167 60.6304 36.6951 60.6331 36.3333C60.6411 35.5131 60.6358 34.6957 60.6358 33.8756Z" fill="#787878"/>
<path d="M39.0655 33.5076C39.0655 32.5186 39.0628 31.5297 39.0682 30.5434C39.0709 30.2539 38.9798 29.9296 39.4809 29.9109C40.0384 29.8921 39.9634 30.2405 39.9634 30.5782C39.9634 32.0764 40.0223 33.58 39.9419 35.0755C39.8937 35.9706 40.2072 36.2092 41.0274 36.1073C41.4964 36.0484 41.9815 36.1047 42.4586 36.0939C42.7748 36.0886 42.9731 36.1636 42.9758 36.5415C42.9785 36.9167 42.7802 37.0025 42.4666 36.9998C41.5125 36.9971 40.5583 36.9811 39.6042 37.0079C39.1111 37.0213 39.0575 36.7613 39.0628 36.37C39.0762 35.4159 39.0655 34.4617 39.0655 33.5076Z" fill="#787878"/>
<path d="M44.0371 33.406C44.0371 32.4545 44.0424 31.5057 44.0344 30.5543C44.0317 30.1871 44.0263 29.8923 44.5463 29.9057C44.9912 29.9191 45.0233 30.1469 45.0207 30.49C45.0126 32.4599 45.0153 34.4271 45.0207 36.397C45.0207 36.7293 45.0073 36.9973 44.5597 37.0134C44.0612 37.0295 44.0263 36.7427 44.0317 36.3621C44.0451 35.3759 44.0371 34.3896 44.0371 33.406Z" fill="#787878"/>
<path d="M30.6719 85.6362C30.7684 83.1088 32.0843 80.4662 35.2522 79.0243C38.0476 77.7512 41.4916 78.4106 43.7214 80.4743C44.2789 80.9915 44.3754 81.3587 43.7241 81.8116C43.5874 81.9081 43.4641 82.0368 43.3623 82.1708C42.8638 82.8354 42.4886 83.0123 41.7515 82.278C40.2909 80.82 37.8761 80.5841 36.0509 81.5088C34.2525 82.42 33.0465 84.5883 33.2153 86.6841C33.3895 88.8604 34.2284 90.6695 36.3564 91.5512C38.4978 92.441 40.4302 91.9345 42.0865 90.3666C42.4216 90.0504 42.5931 89.978 42.9737 90.3264C44.5523 91.7737 44.5657 92.031 42.7378 93.2102C40.1542 94.8773 37.4446 95.0434 34.6974 93.6498C32.1459 92.3579 30.6719 89.6671 30.6719 85.6362Z" fill="white"/>
<path d="M82.224 83.763C83.355 83.2592 84.3895 82.8679 85.5607 83.0742C87.7879 83.4682 89.1682 84.9476 89.2566 87.2874C89.337 89.4315 89.2647 91.5836 89.2942 93.7304C89.3022 94.2477 89.1012 94.3361 88.6375 94.3549C86.6462 94.438 86.6462 94.454 86.6462 92.5002C86.6462 90.9645 86.6569 89.4315 86.6435 87.8958C86.6301 86.4512 86.0646 85.6981 84.9818 85.6311C83.5104 85.5426 82.3446 86.4003 82.2722 87.8047C82.1784 89.6084 82.2481 91.4175 82.2133 93.2239C82.2052 93.591 82.4652 94.186 81.9479 94.2852C81.2297 94.4219 80.4524 94.4648 79.7315 94.2316C79.5144 94.1619 79.6189 93.8001 79.6189 93.5696C79.6162 88.5899 79.6296 83.6103 79.6001 78.6333C79.5975 77.9659 79.8333 77.8587 80.4283 77.8614C82.224 77.8694 82.224 77.8426 82.224 79.6088C82.224 80.9676 82.224 82.3238 82.224 83.763Z" fill="white"/>
<path d="M60.3131 88.7854C60.3131 90.3882 60.2917 91.9936 60.3239 93.5963C60.3346 94.1698 60.1496 94.478 59.5761 94.336C58.9222 94.1779 58.086 94.8211 57.5874 93.8991C57.574 93.8723 57.2283 94.0144 57.0461 94.0948C53.7254 95.5072 50.7102 93.6231 50.6111 90.0237C50.5548 88.0109 50.6138 85.9981 50.5923 83.9853C50.587 83.4788 50.7049 83.2751 51.2623 83.251C53.2403 83.1625 53.2403 83.1384 53.2403 85.1083C53.2403 86.644 53.2296 88.1797 53.243 89.7155C53.2537 91.018 53.7924 91.8086 54.7331 91.9641C55.9311 92.1624 57.2069 91.4066 57.5419 90.2649C57.6545 89.8789 57.6947 89.4608 57.6973 89.0588C57.7161 87.5579 57.7858 86.0517 57.6786 84.5562C57.5982 83.4493 57.9841 83.1786 59.024 83.2483C60.5007 83.3475 60.3024 83.1089 60.3131 84.5937C60.3185 85.9874 60.3131 87.3864 60.3131 88.7854Z" fill="white"/>
<path d="M68.1953 88.8124C68.2864 86.4057 69.2272 84.5376 71.4704 83.5647C73.7995 82.5543 75.9811 82.9161 77.9644 84.5189C78.353 84.8324 78.3744 85.079 77.9885 85.3872C77.8304 85.5132 77.6749 85.6579 77.5543 85.8187C76.9969 86.5691 76.5225 86.7836 75.6112 86.1082C74.3382 85.1621 72.3924 85.5936 71.4678 86.7782C70.527 87.9869 70.6155 89.8925 71.6607 91.0128C72.6872 92.109 74.5472 92.3689 75.7586 91.38C76.4984 90.7769 76.8334 90.978 77.3721 91.5461C78.5781 92.8192 78.6183 92.8219 77.0612 93.7144C75.0725 94.8534 73.0222 94.8695 71.0282 93.7733C69.0905 92.704 68.2972 90.9244 68.1953 88.8124Z" fill="white"/>
<path d="M63.2249 89.9435C63.2249 88.8179 63.1954 87.6895 63.2356 86.5666C63.257 85.9635 63.1016 85.6392 62.4503 85.7518C61.59 85.9046 61.3675 85.5562 61.3836 84.7039C61.4024 83.7685 61.3675 82.9966 62.6647 83.2539C63.1203 83.345 63.2383 83.0556 63.2275 82.6429C63.2061 81.8576 63.2624 81.0696 63.2088 80.2897C63.1632 79.6411 63.4044 79.4964 64.0209 79.4991C65.8353 79.5071 65.8353 79.4776 65.8353 81.3349C65.8353 81.5065 65.8353 81.6753 65.8353 81.8469C65.8353 83.1976 65.8353 83.2325 67.2316 83.2486C67.8454 83.2539 68.0142 83.4844 67.9499 84.0365C67.9231 84.2724 67.9151 84.5189 67.9499 84.7521C68.0786 85.5615 67.7543 85.8939 66.9476 85.7518C66.0738 85.599 65.7737 85.9019 65.8085 86.8373C65.8862 89.0189 65.8031 91.2059 65.8514 93.3875C65.8675 94.1379 65.6879 94.3952 64.8973 94.3738C63.2222 94.3255 63.2222 94.3711 63.2222 92.7094C63.2249 91.7848 63.2249 90.8628 63.2249 89.9435Z" fill="white"/>
<path d="M45.8865 86.1459C45.8865 83.6882 45.9133 81.2332 45.8704 78.7755C45.857 78.068 46.0419 77.8402 46.7736 77.8563C48.4969 77.8911 48.4969 77.8509 48.4969 79.5742C48.4969 84.1465 48.4755 88.7188 48.5157 93.2884C48.5237 94.1246 48.3227 94.4945 47.457 94.3524C47.2239 94.3149 46.9773 94.323 46.7414 94.3524C46.0955 94.4275 45.8543 94.2184 45.8677 93.5136C45.916 91.0586 45.8865 88.6009 45.8865 86.1459Z" fill="white"/>
<path d="M75.7822 88.7797C75.7902 89.8974 74.9835 90.7416 73.9034 90.7523C72.8689 90.7604 71.9442 89.8625 71.9148 88.8199C71.8853 87.7935 72.7938 86.8822 73.8632 86.8608C74.9567 86.8393 75.7741 87.6568 75.7822 88.7797Z" fill="white"/>
<path d="M47.0902 50.2618C47.0902 49.1362 47.117 48.0105 47.0795 46.8849C47.0607 46.3489 47.2296 46.1371 47.7683 46.1961C48.0712 46.2282 48.3821 46.2014 48.6876 46.2014C51.2418 46.2014 51.952 46.8795 52.0243 49.4632C52.0511 50.4468 52.1262 51.4411 51.885 52.4167C51.566 53.7031 51.0113 54.2016 49.7275 54.3678C47.0902 54.7082 47.0902 54.7082 47.0902 52.1031C47.0902 51.4893 47.0902 50.8756 47.0902 50.2618Z" fill="white"/>
<circle cx="60.0781" cy="60.5" r="59.5" stroke="url(#paint0_linear_6556_19888)"/>
<defs>
<linearGradient id="paint0_linear_6556_19888" x1="60.0781" y1="0.5" x2="60.0781" y2="120.5" gradientUnits="userSpaceOnUse">
<stop stop-color="#D8D8D8"/>
<stop offset="1" stop-color="#D8D8D8"/>
</linearGradient>
</defs>
</svg>
