<svg width="109" height="19" viewBox="0 0 109 19" fill="none" xmlns="http://www.w3.org/2000/svg">
<g opacity="0.9">
<path d="M5.29605 18.2377H0.0820312V0.449583H9.09957L19.4446 13.7294V0.449583H24.6589V18.2377H15.8238L5.29589 4.73125V18.2377H5.29605ZM49.6057 12.7375C49.6057 15.2101 49.1701 16.0623 48.4482 16.8802C47.3418 18.0978 45.733 18.4636 42.6315 18.4636H33.7291C30.6276 18.4636 29.0167 18.0974 27.9114 16.8802C27.1907 16.0636 26.7542 15.2101 26.7542 12.7375V5.88043C26.7542 3.40828 27.1908 2.55642 27.9114 1.73775C29.0167 0.519167 30.6279 0.15332 33.7291 0.15332H42.6318C45.7323 0.15332 47.3425 0.519518 48.4482 1.73775C49.1699 2.55624 49.6057 3.40793 49.6057 5.88043V12.7375ZM42.4124 13.9561C43.6032 13.9561 44.0226 13.8864 44.3084 13.6258C44.5761 13.382 44.694 13.0687 44.694 12.0236V6.59365C44.694 5.54902 44.5761 5.23731 44.3084 4.99254C44.0233 4.73125 43.6032 4.6622 42.4124 4.6622H33.9482C32.7574 4.6622 32.3381 4.73125 32.0533 4.99254C31.7849 5.23714 31.6677 5.5492 31.6677 6.59365V12.0231C31.6677 13.0677 31.7846 13.3816 32.0533 13.6253C32.3377 13.8858 32.7574 13.9556 33.9482 13.9556H42.4133L42.4124 13.9561ZM57.1831 0.449583V18.2377H51.7352V0.449583H57.1831ZM66.3875 0.449583H73.5797L63.873 8.77022L74.8212 18.2377H67.1243L57.1831 8.9607L66.3875 0.449583ZM75.8265 0.449583H81.2762V18.2377H75.8265V0.449583ZM102.049 18.2377L100.437 15.1389H89.894L88.3008 18.2377H82.282L91.9391 0.449583H98.7118L108.369 18.2377H102.049ZM91.786 11.2752H98.5612L95.1732 4.83526L91.786 11.2752Z" fill="#7A8BA4"/>
</g>
</svg>
