<svg width="52" height="21" viewBox="0 0 52 21" fill="none" xmlns="http://www.w3.org/2000/svg">
<g opacity="0.9">
<path fill-rule="evenodd" clip-rule="evenodd" d="M43.3029 20.2807V10.7139H37.6984V20.2807H43.3029ZM43.3029 9.92327H37.6984V0.356445H43.3029V9.92327ZM50.5088 10.7206C51.246 11.7657 51.7066 13.0223 51.7066 14.3002C51.7026 15.8851 51.069 17.4038 49.9437 18.5245C48.8192 19.6451 47.2953 20.2766 45.7046 20.2808H44.1038V10.7139L50.5088 10.7206ZM44.1038 9.92327L49.7931 9.93737C49.2471 9.43033 48.6104 9.03033 47.9154 8.7584C48.6056 8.35998 49.1802 7.78899 49.5819 7.10176C49.9828 6.41453 50.1979 5.63486 50.2043 4.83975C50.2043 2.38999 48.164 0.356445 45.7046 0.356445H44.1038V9.92327ZM27.6934 20.2807H22.1024V10.7139H27.6934V20.2807ZM27.6934 9.92327H22.1024V0.356445H27.6934V9.92327ZM28.4936 20.2807V10.7139L34.8991 10.7209C35.6356 11.7659 36.0964 13.0226 36.0964 14.3005C36.0922 15.8853 35.4586 17.4038 34.3341 18.5245C33.2096 19.6451 31.6856 20.2766 30.0952 20.281L28.4936 20.2807ZM28.4936 9.92327V0.356445H30.0952C32.5537 0.356445 34.6013 2.38965 34.6013 4.83975C34.6013 6.45673 33.6943 7.95336 32.3054 8.7584C33.0001 9.03033 33.6373 9.43033 34.1834 9.93737L28.4936 9.92327ZM10.2977 9.92327H4.3319L7.69055 0.356694H10.298L10.2977 9.92327ZM17.0573 9.92327L13.6922 0.356445H11.0988V9.92295L17.0573 9.92327ZM20.6994 20.2807H15.6969L14.301 16.2987H11.0988V10.7139H17.3414L20.6994 20.2807ZM0.689453 20.2807H5.69259L7.09552 16.2987H10.2985V10.7139H4.05567L0.689453 20.2807Z" fill="#7A8BA4"/>
</g>
</svg>
