<svg width="109" height="21" viewBox="0 0 109 21" fill="none" xmlns="http://www.w3.org/2000/svg">
<g opacity="0.9">
<path d="M55.3373 10.1895C55.3373 6.77802 52.7163 4.04111 49.0822 4.02611H49.0542V4.02818C45.42 4.04318 42.8298 6.95144 42.8298 10.3629C42.8298 13.7824 45.4046 16.4541 49.0542 16.4541C51.8356 16.4541 54.8794 15.2223 55.2633 12.7341L53.1001 12.7286C52.6592 15.5662 47.4939 15.5473 47.3166 12.7993C47.2873 12.3412 47.2873 11.0767 47.2873 11.0767H55.3776C55.38 10.7807 55.3664 10.4847 55.3371 10.1902L55.3373 10.1895ZM47.3321 9.51513L47.406 7.43755C47.406 7.43755 47.3766 5.53135 49.0527 5.51774C50.5251 5.53135 50.5684 7.46755 50.5684 7.46755L50.627 9.51649H47.3321V9.51513ZM97.6925 0.356445H102.196V15.8948H97.6925V0.356445ZM103.814 0.356445H108.316V15.8948H103.814V0.356445ZM21.4952 4.04387C19.2077 4.04387 14.9554 5.60203 14.9554 10.2901C14.9554 15.4637 19.2077 16.4482 21.4952 16.4482C23.7827 16.4482 28.0393 15.1496 28.0336 10.2617C28.0279 5.48791 23.7827 4.04387 21.4952 4.04387ZM21.4952 14.9443C20.2587 14.9443 19.7925 13.0965 19.7925 10.2765C19.7925 7.45393 20.0381 5.56928 21.4952 5.56928C22.8629 5.56928 23.1365 7.45376 23.1365 10.2765C23.1376 13.0965 22.8629 14.9443 21.4952 14.9443ZM0.0292969 0.356445H4.91385V6.75096H8.70996V0.356445H13.8589V15.8948H8.70996V9.04332H4.94326V15.9226H0.0292969V0.356445ZM29.4543 15.8948V4.45586H33.898V5.55911C33.898 5.55911 35.5155 4.25521 37.4581 4.25521C39.2711 4.25521 40.9597 5.47343 41.3044 6.87387C41.3725 7.1378 41.4045 7.40937 41.3992 7.68147V15.896H37.0143V8.35496C37.0143 8.35496 37.1763 6.64839 35.8379 6.72062C34.78 6.77767 34.0862 7.32154 33.8953 7.68061V15.8946H29.4543" fill="#7A8BA4"/>
<path d="M54.2305 17.7441C54.2305 18.7762 54.8487 20.2813 56.8207 20.2813C58.4397 20.2813 59.9538 19.3785 60.5134 18.1453C60.9653 17.1485 66.1211 4.48456 66.1211 4.48456L69.5334 15.9236H73.2123L75.0962 9.0722L77.3337 15.9236H80.8333L83.8355 4.48456H81.8048L80.1869 10.4766L78.098 4.48456H74.478L72.6539 10.648L70.7993 4.48456H64.385L62.1184 9.98857L59.9706 4.48456H54.8216C54.8216 4.48456 59.5827 15.0936 59.559 15.895C59.499 17.7863 58.0279 18.6469 57.8229 18.7049H57.8383C58.04 18.3903 58.1513 18.0287 58.1606 17.6579C58.1602 17.1526 57.9539 16.6682 57.587 16.311C57.22 15.9539 56.7226 15.7535 56.2039 15.7536C55.1245 15.7536 54.2499 16.6211 54.2333 17.7592L54.2305 17.7441ZM96.5912 10.1897C96.5912 6.7783 93.9707 4.04275 90.3381 4.02637H90.307V4.02775C86.6744 4.04378 84.0826 6.9524 84.0826 10.3625C84.0826 13.782 86.6584 16.4539 90.307 16.4539C93.0901 16.4539 96.1337 15.222 96.5179 12.7338L94.3541 12.7283C93.9126 15.5659 88.7473 15.547 88.572 12.799C88.5425 12.3408 88.5425 11.0764 88.5425 11.0764H96.6327C96.635 10.7803 96.6215 10.4844 96.592 10.1897H96.5912ZM88.5855 9.5154L88.6596 7.43784C88.6596 7.43784 88.6302 5.53024 90.3062 5.518C91.7774 5.53024 91.8221 7.46783 91.8221 7.46783L91.8803 9.51676H88.5855V9.5154Z" fill="#7A8BA4"/>
</g>
</svg>
