<svg width="116" height="21" viewBox="0 0 116 21" fill="none" xmlns="http://www.w3.org/2000/svg">
<g clip-path="url(#clip0_1875_74205)">
<path opacity="0.9" fill-rule="evenodd" clip-rule="evenodd" d="M8.17627 0.536525C5.51987 1.12886 2.96694 3.2952 1.71749 6.01686C1.16736 7.21541 1.04578 7.9768 1.04118 10.2545C1.03629 12.6784 1.13775 13.2547 1.84023 14.7905C2.82208 16.9365 5.00394 19.1195 6.83686 19.7898C8.58152 20.4279 11.6266 20.4167 13.4155 19.7655C15.4516 19.0242 18.1379 16.0683 18.7967 13.844C19.0663 12.9339 19.2871 11.5108 19.2871 10.6818V9.17474H14.0996H8.91235L8.99771 11.1029L9.08338 13.0311L11.6194 13.1853L14.1553 13.3396L13.3439 14.1682C10.2458 17.3326 5.50952 14.9518 5.49515 10.223C5.4871 7.5199 7.22661 5.49949 9.78959 5.2351C11.0683 5.10336 11.4429 5.20795 12.7042 6.04956C14.0085 6.91986 14.3769 7.01519 16.4317 7.01519C17.6861 7.01519 18.7122 6.94022 18.7122 6.8486C18.7122 6.30315 17.457 4.21764 16.5128 3.1937C14.487 0.997128 11.0385 -0.101777 8.17627 0.536525ZM41.8441 0.549174C39.1135 0.949 36.4298 3.0376 35.0381 5.84563C34.4816 6.9686 34.3816 7.63775 34.3796 10.2545C34.3764 13.91 34.9136 15.4087 37.0291 17.6473C38.9034 19.6307 40.8981 20.3788 43.8621 20.2101C48.8292 19.9272 52.2498 16.2747 52.5579 10.9249C52.9276 4.50578 47.9229 -0.341178 41.8441 0.549174ZM89.6297 0.564291C86.4043 1.10819 83.3495 3.89525 82.3899 7.16975C81.2726 10.9838 82.3581 15.2548 85.1244 17.9243C86.853 19.5927 88.6112 20.281 91.144 20.281C93.688 20.281 95.4357 19.5918 97.1939 17.895C99.2198 15.9397 100.115 13.9362 100.28 10.9866C100.471 7.56433 99.8638 5.83082 97.6362 3.43989C95.3178 0.951159 92.7675 0.0355092 89.6297 0.564291ZM20.4368 10.4088V19.9725H22.5821H24.7275L24.8097 16.9645L24.8919 13.9566L26.5799 16.9645L28.268 19.9725H30.9986C33.137 19.9725 33.6697 19.8889 33.4555 19.5868C32.0778 17.6442 29.6345 13.803 29.6345 13.5802C29.6345 13.426 30.0825 13.0702 30.6301 12.7902C31.1777 12.5097 31.9859 11.6958 32.4265 10.9817C33.1382 9.82723 33.2273 9.40244 33.2273 7.16944C33.2273 4.95929 33.1342 4.50547 32.4559 3.40503C31.127 1.2501 29.9161 0.845033 24.8011 0.845033H20.4368V10.4088ZM53.8281 8.17209C53.9172 15.028 53.964 15.5809 54.5567 16.7714C55.8691 19.4073 57.8348 20.4497 61.0302 20.2042C63.6147 20.0058 65.0828 18.9838 66.2096 16.5986L67 14.9256V7.88549V0.845033H64.8443H62.6886V7.12347C62.6886 13.6129 62.4851 15.1098 61.5276 15.6599C60.6824 16.1455 59.5714 16.0097 58.952 15.3449C58.4114 14.7646 58.3772 14.3166 58.3772 7.78645V0.845033H56.0551H53.7327L53.8281 8.17209ZM68.4372 10.4088V19.9725H70.5928H72.7485V16.8875V13.8023L74.4012 13.8005C77.9392 13.7968 80.1576 12.2642 80.9713 9.26113C81.7077 6.54193 81.1666 4.06647 79.4568 2.33019C78.1809 1.03446 77.3232 0.845033 72.7299 0.845033H68.4372V10.4088ZM101.204 10.4088V19.9725H103.504H105.803V14.6745V9.37677L109.067 14.5974L112.331 19.8183L114.384 19.909L116.438 19.9997V10.4223V0.845033H114.145H111.853L111.774 5.98477L111.695 11.1245L108.533 5.99156L105.372 0.858607L103.288 0.85182L101.204 0.845033V10.4088ZM28.0823 5.40015C28.5141 5.70958 29.0596 6.86587 29.0596 7.47178C29.0596 7.74511 28.742 8.30938 28.3539 8.72588C27.7914 9.32991 27.3548 9.48325 26.1983 9.48325H24.7482V7.32369V5.16414L26.2572 5.16877C27.0873 5.17154 27.9084 5.27551 28.0823 5.40015ZM45.9672 5.99773C46.3903 6.334 47.0387 7.08244 47.4084 7.66058C48.3604 9.15035 48.2063 12.0114 47.089 13.5836C45.5487 15.7515 42.6595 16.1985 40.6774 14.5758C37.7108 12.1472 38.1914 7.26631 41.5627 5.58432C42.7135 5.01019 44.9943 5.2243 45.9672 5.99773ZM76.1335 5.64449C76.6075 6.0005 76.7725 6.43427 76.7725 7.32369C76.7725 8.8573 76.004 9.48325 74.1216 9.48325H72.7485V7.32369V5.16414H74.1216C74.8993 5.16414 75.7719 5.37238 76.1335 5.64449ZM93.2998 5.78116C96.4248 7.40514 96.6448 12.4634 93.692 14.8105C91.7545 16.3503 88.4566 15.4467 87.1981 13.0311C84.8088 8.44821 88.9539 3.52318 93.2998 5.78116Z" fill="#7A8BA4"/>
</g>
<defs>
<clipPath id="clip0_1875_74205">
<rect width="115.562" height="19.9246" fill="white" transform="translate(0.4375 0.357422)"/>
</clipPath>
</defs>
</svg>
