<svg width="48" height="48" viewBox="0 0 48 48" fill="none" xmlns="http://www.w3.org/2000/svg">
<path d="M30 6C24.4789 6 20 10.255 20 15.5C20 20.745 24.4789 25 30 25C35.5211 25 40 20.745 40 15.5C40 10.255 35.5211 6 30 6Z" fill="#0755E9"/>
<path d="M48 43C45.8134 33.5781 38.199 27 29.5 27C20.801 27 13.1871 33.5775 11 43H48Z" fill="#0755E9"/>
<path d="M15.341 13.7559C10.8326 13.7559 7.17969 17.4088 7.17969 21.9172C7.17969 26.4301 10.8236 30.0785 15.341 30.0785C19.8584 30.0785 23.5024 26.4346 23.5024 21.9172C23.5024 17.4043 19.8539 13.7559 15.341 13.7559Z" fill="#E7ECF8"/>
<path d="M20.2308 43.5372C20.9088 40.5582 22.0973 37.7965 23.6928 35.336C21.1749 33.8286 18.2978 33.0352 15.341 33.0352C8.57615 33.0352 2.52063 37.2156 0.140625 43.5417H20.2315L20.2308 43.5372Z" fill="#E7ECF8"/>
<path d="M16.0207 13.7559C11.5078 13.7559 7.85938 17.3998 7.85938 21.9172C7.85938 26.4346 11.5033 30.0785 16.0207 30.0785C20.5291 30.0785 24.182 26.4256 24.182 21.9172C24.182 17.4088 20.5291 13.7559 16.0207 13.7559Z" fill="#E7ECF8"/>
<path d="M7.6678 35.3346C9.26832 37.8128 10.4563 40.5791 11.1299 43.5358H31.2208C28.8359 37.2097 22.7934 33.0293 16.0204 33.0293C14.2647 33.0293 12.5715 33.3084 10.9977 33.8182C9.8183 34.1996 8.70137 34.7135 7.66406 35.3341L7.6678 35.3346Z" fill="#E7ECF8"/>
</svg>
