<svg width="121" height="121" viewBox="0 0 121 121" fill="none" xmlns="http://www.w3.org/2000/svg">
<path d="M2.4337 76.0255C2.07694 74.5137 1.69599 73.0081 1.42388 71.4782C1.14573 69.9363 0.90688 68.3913 0.755709 66.8312C0.683147 66.0935 0.583375 65.3619 0.580351 64.6181C0.580351 64.5002 0.58035 64.3762 0.414062 64.3641C0.414062 61.8245 0.414062 59.2848 0.414062 56.7451C0.610584 56.724 0.574304 56.5698 0.583374 56.4458C0.734545 53.5343 1.18503 50.665 1.79879 47.817C2.55162 44.3189 3.61888 40.9176 4.98547 37.6099C6.58485 33.743 8.58635 30.0968 10.9295 26.6289C12.4987 24.3039 14.2401 22.124 16.1268 20.0499C19.1018 16.7816 22.3913 13.8671 26.0315 11.3576C28.807 9.44078 31.7094 7.73255 34.7631 6.29643C39.2922 4.16794 44.0087 2.60484 48.9278 1.64642C51.1409 1.21407 53.3722 0.893585 55.6186 0.71218C57.8136 0.536822 60.0147 0.449143 62.2157 0.530776C68.3653 0.757532 74.3608 1.8248 80.1748 3.85653C84.3592 5.31987 88.338 7.21555 92.1082 9.55567C94.7628 11.2034 97.3024 13.0114 99.6607 15.0583C102.143 17.211 104.441 19.545 106.548 22.0696C109.78 25.9426 112.447 30.1723 114.627 34.7135C116.806 39.2547 118.364 44.0045 119.343 48.9477C119.788 51.1881 120.108 53.4496 120.289 55.7232C120.465 57.9303 120.556 60.1465 120.468 62.3626C120.283 66.9401 119.673 71.4571 118.475 75.8864C118.463 75.9287 118.463 75.9741 118.46 76.0164C118.231 76.0073 118.001 75.9982 117.771 75.9892C117.771 75.974 117.768 75.9589 117.771 75.9468C118.548 72.9204 119.147 69.8637 119.458 66.7496C119.609 65.2167 119.727 63.6808 119.769 62.145C119.842 59.5116 119.73 56.8812 119.449 54.2599C119.298 52.86 119.125 51.4632 118.878 50.0785C118.424 47.56 117.783 45.0868 117.009 42.6439C116.256 40.2645 115.376 37.9395 114.324 35.684C112.888 32.6032 111.225 29.6493 109.296 26.8436C107.561 24.322 105.638 21.9577 103.555 19.7264C102.173 18.248 100.683 16.8754 99.1467 15.5511C97.381 14.0303 95.5307 12.6275 93.6018 11.3274C90.5965 9.30473 87.4219 7.59045 84.1022 6.13921C81.3781 4.94799 78.5754 3.98049 75.7032 3.20952C73.2179 2.54135 70.7024 2.04853 68.1476 1.71595C66.2006 1.46199 64.2474 1.30779 62.2943 1.23825C60.8552 1.18686 59.413 1.205 57.9678 1.28058C56.1961 1.37431 54.4365 1.51641 52.6768 1.73409C50.8749 1.95783 49.0911 2.26924 47.3224 2.68042C43.9845 3.45442 40.7343 4.49447 37.5688 5.80966C35.4131 6.70761 33.3179 7.73557 31.2862 8.87842C28.7344 10.3115 26.3036 11.9291 23.9876 13.728C22.4457 14.9253 20.9763 16.1981 19.5553 17.5284C18.098 18.892 16.7466 20.3614 15.4435 21.8731C13.9318 23.6266 12.538 25.4649 11.247 27.3847C9.2243 30.39 7.507 33.5616 6.05576 36.8813C4.85848 39.6205 3.88494 42.4353 3.10793 45.3196C2.31277 48.2675 1.76553 51.2607 1.45412 54.3022C1.29388 55.8653 1.17899 57.4284 1.13666 58.9945C1.06107 61.6279 1.17596 64.2583 1.46319 66.8796C1.62041 68.3067 1.826 69.7277 2.0588 71.1426C2.32789 72.7783 2.77233 74.3747 3.13514 75.9892C2.89326 76.0073 2.66348 76.0164 2.4337 76.0255Z" fill="#787878"/>
<path d="M55.4096 120.5C55.4006 120.334 55.2736 120.34 55.1557 120.331C50.2275 119.932 45.4354 118.877 40.7703 117.262C36.5677 115.808 32.5798 113.9 28.7975 111.557C26.143 109.912 23.6063 108.104 21.2481 106.058C19.1982 104.28 17.2662 102.378 15.4733 100.337C14.261 98.9586 13.109 97.5285 12.0146 96.0561C11.936 95.9503 11.8694 95.8384 11.7969 95.7296C12.1174 95.7326 12.4378 95.7356 12.7583 95.7387C12.7493 95.8808 12.8188 95.9836 12.9065 96.0894C13.1453 96.3796 13.3842 96.6759 13.6049 96.9813C14.7538 98.5595 16.0629 100.005 17.3902 101.426C18.7628 102.895 20.2413 104.256 21.7651 105.571C23.5187 107.083 25.3569 108.476 27.2768 109.767C30.282 111.79 33.4566 113.504 36.7733 114.962C39.4309 116.129 42.1641 117.081 44.9607 117.846C47.5125 118.544 50.1005 119.052 52.7279 119.391C54.675 119.642 56.6281 119.796 58.5842 119.872C60.0355 119.926 61.4958 119.908 62.9531 119.826C64.7097 119.732 66.4572 119.593 68.2017 119.376C70.0037 119.152 71.7905 118.841 73.5562 118.432C76.894 117.661 80.1472 116.624 83.3097 115.303C85.6952 114.308 88.0051 113.163 90.2394 111.869C92.5584 110.526 94.7745 109.033 96.8939 107.388C98.457 106.172 99.9566 104.884 101.393 103.53C103.618 101.429 105.644 99.14 107.506 96.7122C107.739 96.4099 108.065 96.1529 108.126 95.7356C108.446 95.7326 108.767 95.7296 109.087 95.7266C108.238 96.9813 107.273 98.1513 106.306 99.3154C104.849 101.066 103.273 102.708 101.613 104.265C99.358 106.378 96.9695 108.325 94.3966 110.052C91.7753 111.811 89.0693 113.408 86.2182 114.762C81.6831 116.915 76.9545 118.484 72.0263 119.448C69.9432 119.856 67.848 120.186 65.7255 120.331C65.6076 120.34 65.4837 120.334 65.4716 120.5C62.1246 120.5 58.7687 120.5 55.4096 120.5Z" fill="#787878"/>
<path d="M12.7516 95.735C12.4311 95.732 12.1107 95.7289 11.7902 95.7259C10.735 94.3684 9.82496 92.9141 8.9391 91.4448C6.05779 86.6527 3.91116 81.5461 2.43876 76.1554C2.42666 76.113 2.43271 76.0677 2.42969 76.0254C2.65947 76.0163 2.88925 76.0072 3.11903 75.9981C5.36542 75.9981 7.61182 75.9981 9.8552 75.9981C12.7153 75.9981 15.5755 75.9981 18.4356 75.9981C18.9073 75.9981 19.3759 75.9981 19.8476 75.9981C20.7214 75.9981 21.5951 75.9981 22.4689 75.9981C22.6291 76.0012 22.7894 76.0102 22.9496 76.0102C47.6177 76.0102 72.2857 76.0102 96.9568 76.0102C97.117 76.0102 97.2773 76.0012 97.4375 75.9981C98.3113 75.9981 99.185 75.9981 100.059 75.9981C100.53 75.9981 101.002 75.9981 101.471 75.9981C104.331 75.9981 107.191 75.9981 110.051 75.9981C112.621 75.9981 115.188 75.9981 117.758 75.9951C117.988 76.0042 118.217 76.0133 118.447 76.0223C117.7 78.9671 116.679 81.8152 115.469 84.5967C113.782 88.4758 111.69 92.125 109.238 95.5687C109.196 95.6261 109.138 95.6715 109.09 95.7229C108.769 95.7259 108.449 95.7289 108.128 95.732C105.235 95.7289 102.344 95.7289 99.4511 95.7259C99.1911 95.7259 98.9311 95.7289 98.668 95.7289C98.5078 95.7229 98.3475 95.7138 98.1873 95.7138C72.6727 95.7138 47.1551 95.7138 21.6405 95.7138C21.4802 95.7138 21.32 95.7229 21.1597 95.7289C20.8997 95.7289 20.6397 95.7259 20.3797 95.7259C17.837 95.732 15.2943 95.732 12.7516 95.735ZM69.4014 88.3034C69.0083 87.729 68.6455 87.1878 68.2676 86.6557C68.1618 86.5045 68.1013 86.4319 68.319 86.305C69.102 85.8454 69.3953 85.1591 69.2169 84.3186C69.0567 83.5688 68.5095 83.0971 67.6266 82.9943C66.7982 82.8976 65.9668 82.9852 65.1384 82.9459C64.8239 82.9308 64.7544 83.0367 64.7574 83.336C64.7725 84.7207 64.7634 86.1054 64.7634 87.4901C64.7634 88.3851 64.7634 88.376 65.6826 88.3427C65.8972 88.3337 65.9577 88.2702 65.9516 88.0646C65.9396 87.6715 65.9456 87.2785 65.9486 86.8855C65.9486 86.7917 65.9063 86.6799 66.0303 86.6164C66.2721 86.4924 66.907 86.6678 67.0703 86.9066C67.1671 87.0517 67.294 87.1848 67.3605 87.342C67.7234 88.1976 68.3553 88.5151 69.2562 88.3427C69.2865 88.3337 69.3137 88.3276 69.4014 88.3034ZM49.3108 85.6428C49.3108 86.3866 49.341 87.1334 49.2987 87.8741C49.2745 88.2883 49.4226 88.3518 49.7885 88.3427C50.7499 88.3186 51.7144 88.3337 52.6789 88.3337C53.4226 88.3337 53.4075 88.3337 53.4166 87.6081C53.4196 87.342 53.3591 87.2573 53.081 87.2664C52.4974 87.2906 51.9139 87.2725 51.3304 87.2725C50.4355 87.2725 50.4445 87.2725 50.4899 86.3926C50.499 86.1961 50.5594 86.1477 50.7439 86.1508C51.2699 86.1598 51.793 86.1538 52.3191 86.1538C53.0538 86.1538 53.0417 86.1538 53.0417 85.41C53.0417 85.1682 52.9842 85.0805 52.7303 85.0895C52.2344 85.1107 51.7386 85.0956 51.2427 85.0956C50.4839 85.0956 50.505 85.0956 50.4899 84.3458C50.4839 84.0283 50.6108 83.9951 50.8678 84.0011C51.5541 84.0162 52.2405 83.98 52.9238 84.0162C53.3198 84.0374 53.4498 83.9104 53.3833 83.5355C53.3712 83.466 53.3712 83.3874 53.3833 83.3178C53.4287 83.0336 53.3289 82.9399 53.0296 82.9429C51.9049 82.958 50.7832 82.9611 49.6585 82.9429C49.3531 82.9369 49.2987 83.0457 49.3047 83.3208C49.3198 84.0948 49.3108 84.8688 49.3108 85.6428ZM75.5933 88.3216C75.554 88.2097 75.5359 88.1402 75.5056 88.0767C74.8193 86.4743 74.1118 84.8779 73.4588 83.2604C73.2713 82.7918 72.9418 82.958 72.6425 82.9187C72.3522 82.8825 72.1738 82.958 72.0468 83.2664C71.4543 84.7056 70.8314 86.1296 70.2207 87.5597C70.1149 87.8076 70.0242 88.0585 69.9184 88.3246C71.0703 88.37 71.0794 88.376 71.4754 87.4206C71.5692 87.1938 71.681 87.1152 71.9259 87.1243C72.4641 87.1455 73.0053 87.1424 73.5434 87.1243C73.7793 87.1152 73.9395 87.1636 73.9849 87.4176C74.133 88.2309 74.6379 88.4909 75.4119 88.3397C75.4573 88.3306 75.4996 88.3306 75.5933 88.3216ZM59.0704 82.952C58.7015 82.952 58.4203 82.9732 58.1482 82.9459C57.8338 82.9157 57.6433 83.0215 57.4831 83.2997C57.214 83.7653 56.8965 84.2007 56.573 84.6844C56.2374 84.1704 55.92 83.6867 55.6055 83.1999C55.5178 83.0639 55.4453 82.9369 55.2397 82.9459C54.8678 82.9611 54.4959 82.949 54.0545 82.949C54.6199 83.7774 55.1278 84.5484 55.669 85.3012C55.8353 85.531 55.8232 85.6791 55.6599 85.8998C55.2548 86.4501 54.8769 87.0215 54.4899 87.5869C54.3296 87.8197 54.1724 88.0525 53.9819 88.3337C54.3296 88.3337 54.5927 88.3095 54.8497 88.3397C55.2215 88.3851 55.4302 88.2339 55.6116 87.9164C55.8897 87.4327 56.2223 86.9822 56.5488 86.4954C56.9177 87.0548 57.2533 87.5627 57.5859 88.0737C57.6735 88.2097 57.7431 88.3427 57.9456 88.3367C58.3175 88.3246 58.6894 88.3337 59.1429 88.3337C58.5624 87.4811 58.0394 86.6799 57.48 85.9089C57.2896 85.6459 57.3168 85.4826 57.4921 85.2377C58.0182 84.5121 58.514 83.7623 59.0704 82.952ZM75.7203 85.3707C75.7112 86.7796 76.325 87.7622 77.356 88.1885C78.4837 88.6542 79.5177 88.4758 80.455 87.6927C80.6696 87.5143 80.6666 87.3934 80.455 87.2241C80.2736 87.079 80.1436 86.8189 79.947 86.7585C79.7596 86.7041 79.6054 86.9822 79.4179 87.088C78.7165 87.4871 77.8851 87.3783 77.3802 86.8129C76.839 86.2052 76.8087 85.1984 77.3106 84.5484C77.7732 83.9527 78.6077 83.8016 79.3272 84.1553C79.5389 84.2611 79.6961 84.5786 79.938 84.4758C80.1436 84.3851 80.2736 84.1251 80.4368 83.9407C80.4459 83.9286 80.455 83.9165 80.4671 83.9074C80.6454 83.7653 80.6394 83.6534 80.4459 83.5083C79.4724 82.7766 78.4202 82.6345 77.3167 83.1243C76.2554 83.599 75.7596 84.4788 75.7203 85.3707ZM83.4572 82.952C82.9614 82.952 82.4655 82.952 81.9727 82.952C81.1352 82.952 81.1443 82.952 81.1957 83.8106C81.2078 84.0011 81.2592 84.0646 81.4467 84.0616C81.7822 84.0525 82.1178 84.0797 82.4504 84.0525C82.7467 84.0283 82.8465 84.1039 82.8404 84.4244C82.8163 85.4433 82.8314 86.4622 82.8314 87.4841C82.8314 88.3609 82.8314 88.3488 83.6991 88.3458C83.9772 88.3458 84.0377 88.2551 84.0347 87.9951C84.0196 86.9762 84.0286 85.9573 84.0286 84.9354C84.0286 84.0586 84.0286 84.0586 84.9054 84.0586C85.6915 84.0586 85.6794 84.0586 85.6855 83.2846C85.6885 83.0034 85.5918 82.9399 85.3348 82.949C84.7089 82.9611 84.0831 82.952 83.4572 82.952ZM61.8217 82.952C61.3561 82.952 60.8874 82.952 60.4218 82.952C59.545 82.952 59.5511 82.952 59.6025 83.8137C59.6146 84.0102 59.672 84.0646 59.8564 84.0586C60.2223 84.0495 60.5851 84.0707 60.9509 84.0495C61.2109 84.0344 61.2593 84.1341 61.2563 84.373C61.2442 85.4221 61.2502 86.4743 61.2502 87.5234C61.2502 88.3397 61.2502 88.3276 62.0726 88.3397C62.3538 88.3427 62.4445 88.2793 62.4384 87.983C62.4173 86.9762 62.4294 85.9694 62.4294 84.9626C62.4294 84.0525 62.4294 84.0525 63.3243 84.0525C64.0862 84.0525 64.0681 84.0525 64.0802 83.2967C64.0832 82.9913 63.9804 82.9308 63.7022 82.9399C63.0764 82.9641 62.4475 82.952 61.8217 82.952ZM39.8142 83.98C41.1113 83.98 42.4053 83.98 43.7023 83.98C44.18 83.98 44.4431 83.7834 44.4431 83.4357C44.4431 83.1001 44.1528 82.8673 43.7054 82.8673C41.1264 82.8643 38.5504 82.8643 35.9715 82.8673C35.5059 82.8673 35.1824 83.1213 35.1944 83.4539C35.2065 83.7713 35.5059 83.98 35.9684 83.98C37.2504 83.983 38.5323 83.98 39.8142 83.98ZM41.4801 85.0321C40.1831 85.0321 38.883 85.0291 37.586 85.0321C37.1143 85.0321 36.8392 85.2468 36.8513 85.5884C36.8634 85.921 37.1597 86.1508 37.6071 86.1508C40.1891 86.1538 42.7681 86.1538 45.3501 86.1508C45.8157 86.1508 46.1241 85.8968 46.1059 85.5461C46.0878 85.2105 45.8218 85.0321 45.3289 85.0321C44.047 85.0321 42.7621 85.0321 41.4801 85.0321ZM39.8112 88.2732C41.1113 88.2732 42.4083 88.2732 43.7084 88.2732C44.1921 88.2732 44.4461 88.0797 44.4491 87.726C44.4521 87.3904 44.1649 87.1576 43.7114 87.1576C41.1294 87.1545 38.5474 87.1545 35.9624 87.1576C35.4968 87.1576 35.1703 87.4085 35.1823 87.7411C35.1944 88.0495 35.5119 88.2732 35.9594 88.2732C37.2443 88.2732 38.5293 88.2732 39.8112 88.2732Z" fill="#787878"/>
<rect x="55.5781" y="76.5" width="24" height="15" fill="#787878"/>
<path d="M101.474 75.9984C99.853 72.9054 99.9074 69.7641 101.195 66.5865C101.283 66.3718 101.313 66.0302 101.61 66.0332C101.891 66.0362 101.882 66.3749 101.963 66.5774C102.698 68.4187 103.502 70.2358 103.862 72.201C103.986 72.8752 104.01 73.5585 103.935 74.2508C104.4 73.2924 104.715 72.2826 105.035 71.2788C105.138 70.9584 105.18 70.6167 105.313 70.3144C105.652 69.5343 105.522 68.845 104.984 68.2131C105.207 68.1436 105.434 68.1254 105.667 68.1254C106.985 68.1315 108.303 68.1315 109.622 68.1254C109.858 68.1254 110.081 68.1496 110.305 68.2161C109.443 69.2713 108.418 69.9939 106.967 69.8306C106.765 69.8095 106.695 69.9606 106.589 70.0755C106.151 70.5623 106.036 71.1881 105.848 71.7837C105.434 73.0899 104.89 74.3476 104.406 75.6265C104.388 75.6658 104.37 75.7051 104.352 75.7444C104.331 75.7716 104.31 75.7988 104.288 75.829C104.303 75.8381 104.319 75.8472 104.334 75.8563C104.34 75.82 104.349 75.7837 104.355 75.7504C104.388 75.7263 104.424 75.7021 104.458 75.6809C104.963 75.182 105.41 74.6197 106.006 74.2115C107.251 73.3589 108.657 72.9719 110.13 72.7784C110.462 72.7361 110.798 72.727 111.127 72.6938C111.539 72.6484 111.593 72.8359 111.505 73.1896C111.26 74.139 110.783 74.9644 110.217 75.7474C110.157 75.8291 110.105 75.9167 110.048 76.0014C107.194 75.9984 104.334 75.9984 101.474 75.9984Z" fill="#787878"/>
<path d="M14.5162 68.8323C14.3499 69.1618 14.3771 69.4884 14.4709 69.8421C14.8276 71.1785 15.2418 72.4997 15.7377 73.7907C15.7981 73.9509 15.8677 74.1051 15.9796 74.3803C15.7316 71.3508 17.1043 68.8716 18.0597 66.2836C18.105 66.1626 18.1473 66.0205 18.3136 66.0205C18.4739 66.0205 18.5253 66.1626 18.5797 66.2775C19.39 68.0432 19.777 69.8905 19.6258 71.8376C19.5139 73.3069 19.1814 74.7098 18.4406 75.9978C15.5805 75.9978 12.7203 75.9978 9.86016 75.9978C9.2585 75.1543 8.69312 74.2926 8.42403 73.2707C8.28798 72.7506 8.33635 72.663 8.86545 72.6992C10.7369 72.8202 12.5268 73.1981 14.0748 74.347C14.5918 74.731 14.9879 75.2419 15.4535 75.6834C15.4777 75.6985 15.5049 75.7106 15.5291 75.7257C15.52 75.6954 15.5109 75.6652 15.5019 75.635C14.9909 74.2926 14.4104 72.9744 13.9932 71.5957C13.8239 71.0394 13.6848 70.474 13.2736 70.0296C13.1738 69.9207 13.0982 69.8179 12.9199 69.8361C11.5412 69.9721 10.5193 69.3342 9.6848 68.3092C9.79364 68.3425 9.86318 68.149 9.95086 68.2306C10.2078 68.4755 10.4497 68.3727 10.7097 68.2457C10.9909 68.1067 11.0998 68.2941 11.1693 68.5209C11.1995 68.6207 11.0211 68.8021 11.266 68.8172C11.4626 68.8293 11.4263 68.6569 11.4535 68.536C11.514 68.2669 11.7498 68.2125 11.9584 68.2064C12.1307 68.2004 12.1973 68.3878 12.2184 68.5481C12.2305 68.6448 12.0975 68.793 12.3031 68.8172C12.4966 68.8383 12.4815 68.6811 12.5026 68.5511C12.548 68.276 12.7838 68.2216 12.9954 68.2064C13.1768 68.1913 13.2343 68.3818 13.2736 68.533C13.2978 68.6267 13.1406 68.7748 13.3401 68.8142C13.5306 68.8504 13.5366 68.7023 13.5517 68.5662C13.585 68.2851 13.8208 68.2246 14.0294 68.2095C14.235 68.1944 14.2985 68.3909 14.3318 68.5602C14.353 68.6841 14.3983 68.7779 14.5162 68.8323ZM15.6077 75.8557L15.5956 75.8769L15.6137 75.8799L15.6077 75.8557Z" fill="#787878"/>
<path d="M21.1598 95.7315C21.178 95.9099 21.3261 96.0006 21.4319 96.1125C23.9414 98.7429 26.6413 101.162 29.6647 103.181C31.0978 104.14 32.5672 105.056 34.0759 105.902C37.0086 107.547 40.0683 108.902 43.2489 109.972C45.456 110.716 47.7084 111.29 49.9941 111.744C51.7901 112.1 53.6011 112.336 55.4182 112.521C57.6525 112.744 59.9019 112.799 62.1392 112.684C66.1815 112.478 70.1694 111.861 74.0666 110.752C76.9418 109.933 79.7325 108.883 82.4384 107.604C84.9237 106.431 87.2608 105.022 89.5737 103.55C91.3817 102.398 93.0325 101.056 94.6681 99.6801C96.0226 98.5433 97.235 97.2614 98.4867 96.0218C98.5683 95.9402 98.659 95.8615 98.6681 95.7315C98.9281 95.7315 99.1881 95.7285 99.4512 95.7285C99.2819 96.0036 99.0642 96.2364 98.8374 96.4632C97.3197 97.9931 95.808 99.532 94.136 100.902C92.9085 101.905 91.6931 102.93 90.3537 103.777C88.1678 105.162 85.9879 106.567 83.6478 107.689C80.8602 109.029 78.0091 110.19 75.0371 111.06C72.833 111.707 70.5987 112.221 68.3342 112.593C66.9767 112.817 65.601 112.932 64.2284 113.071C61.988 113.298 59.7447 113.279 57.5073 113.204C55.6268 113.14 53.7492 112.929 51.8838 112.641C49.0025 112.2 46.1846 111.52 43.4122 110.64C41.4137 110.005 39.4757 109.21 37.5649 108.342C35.2792 107.302 33.1053 106.063 30.9829 104.732C29.0751 103.535 27.2581 102.214 25.5317 100.759C23.8658 99.3566 22.348 97.8116 20.8152 96.2758C20.6519 96.1125 20.5249 95.9129 20.3828 95.7285C20.6398 95.7285 20.8998 95.7315 21.1598 95.7315Z" fill="#787878"/>
<path d="M69.4096 88.3033C69.3189 88.3275 69.2917 88.3335 69.2645 88.3396C68.3666 88.5119 67.7317 88.1945 67.3689 87.3388C67.3023 87.1816 67.1754 87.0486 67.0786 86.9035C66.9153 86.6646 66.2804 86.4893 66.0386 86.6132C65.9146 86.6767 65.9569 86.7856 65.9569 86.8823C65.9539 87.2753 65.9479 87.6684 65.96 88.0614C65.966 88.264 65.9055 88.3305 65.6909 88.3396C64.7718 88.3728 64.7718 88.3819 64.7718 87.487C64.7718 86.1023 64.7808 84.7175 64.7657 83.3328C64.7627 83.0335 64.8322 82.9277 65.1467 82.9428C65.9751 82.9821 66.8095 82.8944 67.6349 82.9912C68.5177 83.094 69.065 83.5656 69.2252 84.3154C69.4036 85.1559 69.1103 85.8423 68.3273 86.3018C68.1096 86.4288 68.167 86.5014 68.2759 86.6525C68.6538 87.1877 69.0166 87.7289 69.4096 88.3033ZM65.9569 84.7841C65.9569 84.9292 65.9721 85.0773 65.9539 85.2194C65.9207 85.4825 66.0023 85.5883 66.2835 85.5671C66.6463 85.5399 67.0121 85.5762 67.3719 85.5429C67.8042 85.5036 68.0612 85.1952 68.0582 84.7841C68.0552 84.385 67.8224 84.1159 67.393 84.0584C67.1633 84.0282 66.9305 84.0343 66.6977 84.0312C65.9569 84.0282 65.9569 84.0312 65.9569 84.7841Z" fill="white"/>
<path d="M49.3115 85.6425C49.3115 84.8685 49.3236 84.0945 49.3055 83.3235C49.2994 83.0483 49.3508 82.9395 49.6592 82.9456C50.7839 82.9637 51.9056 82.9637 53.0303 82.9456C53.3266 82.9425 53.4294 83.0363 53.384 83.3205C53.3719 83.39 53.3719 83.4686 53.384 83.5381C53.4536 83.913 53.3236 84.04 52.9245 84.0189C52.2412 83.9826 51.5518 84.0189 50.8686 84.0037C50.6085 83.9977 50.4846 84.031 50.4906 84.3484C50.5057 85.0982 50.4846 85.0982 51.2435 85.0982C51.7393 85.0982 52.2351 85.1133 52.731 85.0922C52.9849 85.0831 53.0424 85.1708 53.0424 85.4127C53.0454 86.1564 53.0545 86.1564 52.3198 86.1564C51.7937 86.1564 51.2676 86.1625 50.7446 86.1534C50.5602 86.1504 50.5027 86.1988 50.4906 86.3953C50.4453 87.2751 50.4362 87.2751 51.3311 87.2751C51.9147 87.2751 52.4982 87.2902 53.0817 87.2691C53.3599 87.257 53.4203 87.3446 53.4173 87.6107C53.4082 88.3363 53.4233 88.3363 52.6796 88.3363C51.7151 88.3363 50.7537 88.3212 49.7892 88.3454C49.4234 88.3545 49.2752 88.291 49.2994 87.8768C49.3387 87.133 49.3115 86.3862 49.3115 85.6425Z" fill="white"/>
<path d="M75.5938 88.3215C75.5001 88.3305 75.4547 88.3305 75.4154 88.3366C74.6445 88.4878 74.1365 88.2277 73.9884 87.4144C73.943 87.1605 73.7828 87.1151 73.547 87.1212C73.0088 87.1393 72.4676 87.1393 71.9294 87.1212C71.6845 87.1121 71.5727 87.1937 71.4789 87.4175C71.0829 88.3698 71.0738 88.3668 69.9219 88.3215C70.0247 88.0584 70.1184 87.8045 70.2242 87.5565C70.8349 86.1265 71.4578 84.6994 72.0504 83.2633C72.1773 82.9549 72.3557 82.8793 72.646 82.9156C72.9483 82.9549 73.2748 82.7886 73.4623 83.2572C74.1154 84.8748 74.8228 86.4711 75.5091 88.0735C75.5364 88.1401 75.5545 88.2096 75.5938 88.3215ZM72.0413 86.0569C72.5341 86.0569 72.9755 86.0569 73.4442 86.0569C73.2114 85.4916 72.9906 84.9564 72.7397 84.3487C72.4888 84.9625 72.2711 85.4916 72.0413 86.0569Z" fill="white"/>
<path d="M59.0728 82.9523C58.5165 83.7656 58.0176 84.5124 57.4946 85.2411C57.3192 85.4829 57.292 85.6492 57.4825 85.9123C58.0418 86.6832 58.5648 87.4844 59.1453 88.3371C58.6918 88.3371 58.32 88.328 57.9481 88.3401C57.7455 88.3461 57.676 88.2131 57.5883 88.077C57.2557 87.5661 56.9171 87.0581 56.5513 86.4988C56.2278 86.9856 55.8952 87.4391 55.614 87.9198C55.4326 88.2343 55.224 88.3884 54.8521 88.3431C54.5951 88.3129 54.3321 88.3371 53.9844 88.3371C54.1749 88.0559 54.3321 87.8231 54.4923 87.5903C54.8793 87.0249 55.2572 86.4535 55.6624 85.9032C55.8256 85.6825 55.8347 85.5343 55.6714 85.3046C55.1333 84.5517 54.6223 83.7777 54.0569 82.9523C54.4984 82.9523 54.8702 82.9644 55.2421 82.9493C55.4447 82.9403 55.5172 83.0672 55.6079 83.2033C55.9224 83.6901 56.2398 84.1738 56.5754 84.6878C56.8989 84.201 57.2164 83.7656 57.4855 83.3031C57.6457 83.0249 57.8362 82.9191 58.1506 82.9493C58.4258 82.9735 58.7039 82.9523 59.0728 82.9523Z" fill="white"/>
<path d="M75.7267 85.3709C75.769 84.479 76.2618 83.5992 77.323 83.1245C78.4235 82.6317 79.4787 82.7768 80.4523 83.5085C80.6458 83.6536 80.6518 83.7624 80.4734 83.9076C80.4613 83.9166 80.4553 83.9287 80.4432 83.9408C80.2799 84.1253 80.1499 84.3883 79.9443 84.476C79.7024 84.5818 79.5452 84.2613 79.3336 84.1555C78.617 83.8017 77.7796 83.9529 77.317 84.5485C76.8121 85.2016 76.8423 86.2054 77.3865 86.8131C77.8914 87.3784 78.7259 87.4873 79.4243 87.0882C79.6117 86.9824 79.7659 86.7012 79.9534 86.7587C80.1499 86.8161 80.2799 87.0761 80.4613 87.2242C80.673 87.3936 80.676 87.5145 80.4613 87.6929C79.5241 88.4759 78.487 88.6543 77.3623 88.1887C76.3313 87.7624 75.7176 86.7798 75.7267 85.3709Z" fill="white"/>
<path d="M83.4606 82.9518C84.0864 82.9518 84.7122 82.9608 85.3381 82.9457C85.5951 82.9397 85.6918 83.0001 85.6888 83.2813C85.6828 84.0553 85.6979 84.0553 84.9088 84.0553C84.032 84.0553 84.032 84.0553 84.032 84.9321C84.032 85.951 84.0229 86.9699 84.038 87.9918C84.041 88.2518 83.9806 88.3425 83.7024 88.3425C82.8347 88.3455 82.8347 88.3576 82.8347 87.4808C82.8347 86.4619 82.8196 85.44 82.8438 84.4211C82.8498 84.1007 82.75 84.0251 82.4537 84.0493C82.1212 84.0765 81.7856 84.0493 81.45 84.0583C81.2625 84.0644 81.2111 84.0009 81.199 83.8074C81.1476 82.9487 81.1386 82.9487 81.9761 82.9487C82.4719 82.9518 82.9647 82.9518 83.4606 82.9518Z" fill="white"/>
<path d="M62.2367 83.0069C62.8626 83.0069 63.4915 83.019 64.1173 83.0008C64.3955 82.9918 64.4983 83.0522 64.4952 83.3576C64.4862 84.1135 64.5013 84.1135 63.7394 84.1135C62.8445 84.1135 62.8444 84.1135 62.8444 85.0235C62.8444 86.0303 62.8323 87.0371 62.8535 88.0439C62.8596 88.3402 62.7689 88.4037 62.4877 88.4007C61.6653 88.3886 61.6653 88.4007 61.6653 87.5844C61.6653 86.5352 61.6593 85.4831 61.6714 84.4339C61.6744 84.1951 61.623 84.0953 61.366 84.1104C61.0032 84.1316 60.6373 84.1074 60.2715 84.1195C60.0871 84.1256 60.0266 84.0681 60.0175 83.8746C59.9692 83.0099 59.9601 83.0129 60.8369 83.0129C61.3025 83.0069 61.7681 83.0069 62.2367 83.0069Z" fill="white"/>
<path d="M39.8154 83.9802C38.5335 83.9802 37.2516 83.9802 35.9696 83.9802C35.5071 83.9802 35.2077 83.7715 35.1956 83.4541C35.1835 83.1215 35.504 82.8675 35.9727 82.8675C38.5516 82.8645 41.1276 82.8645 43.7066 82.8675C44.154 82.8675 44.4443 83.1003 44.4443 83.4359C44.4443 83.7866 44.1843 83.9802 43.7035 83.9802C42.4095 83.9832 41.1125 83.9802 39.8154 83.9802Z" fill="white"/>
<path d="M41.4808 85.0316C42.7627 85.0316 44.0477 85.0316 45.3296 85.0316C45.8224 85.0316 46.0885 85.21 46.1066 85.5456C46.1248 85.8963 45.8194 86.1503 45.3508 86.1503C42.7688 86.1533 40.1898 86.1533 37.6078 86.1503C37.1603 86.1503 36.8671 85.9205 36.8519 85.5879C36.8399 85.2463 37.115 85.0316 37.5866 85.0316C38.8837 85.0286 40.1837 85.0316 41.4808 85.0316Z" fill="white"/>
<path d="M39.8167 88.2732C38.5317 88.2732 37.2498 88.2732 35.9648 88.2732C35.5204 88.2732 35.1999 88.0525 35.1878 87.7411C35.1757 87.4085 35.5023 87.1575 35.9679 87.1575C38.5499 87.1545 41.1319 87.1545 43.7169 87.1575C44.1704 87.1575 44.4607 87.3873 44.4546 87.726C44.4516 88.0827 44.1976 88.2732 43.7139 88.2732C42.4138 88.2732 41.1168 88.2732 39.8167 88.2732Z" fill="white"/>
<path d="M19.8516 75.9976C19.9483 75.1178 20.039 74.241 20.1479 73.3642C20.166 73.2191 20.1327 73.0105 20.3262 72.9531C20.5258 72.8926 20.6437 73.0619 20.7556 73.1919C21.4751 74.0385 22.0677 74.9606 22.4729 75.9976C21.5991 75.9976 20.7253 75.9976 19.8516 75.9976Z" fill="#787878"/>
<path d="M97.4375 75.9984C97.8396 74.9765 98.4171 74.0604 99.1246 73.2229C99.2425 73.0838 99.3695 72.8903 99.5841 72.9538C99.7988 73.0173 99.7383 73.2501 99.7595 73.4073C99.8713 74.269 99.962 75.1337 100.062 75.9984C99.1881 75.9984 98.3113 75.9984 97.4375 75.9984Z" fill="#787878"/>
<path d="M95.7727 41.0718C95.2134 40.5517 94.7871 39.9289 94.4031 39.2758C94.2761 39.0582 94.2852 38.8556 94.6027 38.8677C96.1265 38.9342 97.6563 38.9282 99.1468 39.3363C99.7153 39.4905 100.214 39.7898 100.731 40.0529C100.773 40.068 100.816 40.0861 100.855 40.1012C100.864 40.1375 100.87 40.1708 100.879 40.2071C100.891 40.201 100.903 40.198 100.916 40.1919C100.894 40.1617 100.876 40.1345 100.855 40.1043C100.834 40.068 100.81 40.0317 100.789 39.9954C100.287 39.0551 99.6639 38.1935 99.0078 37.359C98.6661 36.9236 98.1068 37.0264 97.7138 37.235C95.1983 38.5533 92.06 37.1806 90.5241 35.0673C90.3366 34.8103 90.4334 34.644 90.7055 34.5926C92.1235 34.3326 93.5475 34.0635 94.9957 34.1421C95.552 34.1723 96.0841 34.3749 96.6163 34.5835C96.0176 33.9002 95.4129 33.226 94.6541 32.7241C94.4817 32.6092 94.2036 32.6546 93.9738 32.6213C91.809 32.3069 90.3366 31.0249 89.2482 29.22C88.8189 28.5064 88.5226 27.7264 88.2837 26.9282C88.193 26.6259 88.2807 26.4112 88.6012 26.5382C90.3518 27.2306 92.2626 27.6085 93.6745 28.9902C94.5089 29.8065 95.1318 30.7407 95.0713 31.9834C95.0653 32.1255 95.1015 32.2373 95.2104 32.3341C96.1295 33.1444 97.0063 33.9939 97.7712 34.9524C97.8407 35.04 97.9163 35.1459 98.0584 35.1066C98.0645 35.1459 98.0735 35.1852 98.0796 35.2245C98.0917 35.2184 98.1038 35.2124 98.1159 35.2063C98.0947 35.1761 98.0735 35.1459 98.0524 35.1156C97.6442 34.1844 97.2512 33.2472 97.0577 32.2404C96.7463 30.6289 96.6102 29.0114 96.9065 27.3817C97.0305 26.7105 97.1061 26.6743 97.5898 27.1368C99.6729 29.1262 100.916 31.5359 101.091 34.4354C101.139 35.2214 100.931 35.9985 100.474 36.6545C100.048 37.2683 100.187 37.8186 100.544 38.3628C101.07 39.164 101.647 39.935 102.083 40.7936C102.016 41.0778 101.783 40.975 101.614 40.975C99.8483 40.9811 98.0856 40.978 96.32 40.978C96.1355 40.9811 95.9451 40.9659 95.7727 41.0718Z" fill="#787878"/>
<path d="M19.1867 40.0527C20.4746 39.2303 21.9168 39.0157 23.4013 38.9582C23.9969 38.934 24.5925 38.8887 25.1912 38.8675C25.5691 38.8554 25.6658 38.9945 25.4844 39.3059C25.1337 39.9106 24.7437 40.4911 24.2297 40.9748C24.1632 40.7178 23.9516 40.8085 23.7943 40.8085C22.0317 40.8025 20.266 40.8025 18.5034 40.8085C18.2827 40.8085 18.068 40.7904 17.8594 40.7209C18.2947 39.8924 18.8359 39.1336 19.3681 38.3656C19.7248 37.8486 19.7581 37.1744 19.4164 36.6604C18.7664 35.6839 18.718 34.6105 18.8994 33.504C19.3136 30.9824 20.4958 28.866 22.3371 27.1125C22.461 26.9945 22.5819 26.7617 22.7996 26.8585C22.9901 26.9431 22.978 27.182 23.0052 27.3604C23.3892 29.8547 23.099 32.2674 22.0801 34.5833C22.0226 34.7164 21.9742 34.8524 21.9198 34.9885C21.8896 35.0217 21.8563 35.055 21.9107 35.0882C21.9168 35.0913 21.9501 35.058 21.9712 35.0399C22.8571 34.1117 23.7218 33.1653 24.7014 32.3339C24.8102 32.2402 24.8495 32.1313 24.8435 31.9862C24.789 30.6378 25.5026 29.6672 26.4247 28.8086C27.3227 27.9711 28.4655 27.5871 29.5812 27.1578C30.1254 26.9492 30.6696 26.7376 31.2229 26.5531C31.5887 26.4292 31.7429 26.5531 31.6461 26.8766C31.0747 28.8328 30.1072 30.5259 28.3809 31.702C27.5403 32.2734 26.6061 32.5667 25.5993 32.6514C25.4391 32.6665 25.2788 32.6665 25.1458 32.7753C24.5018 33.3014 23.8881 33.8547 23.3559 34.4987C23.3439 34.5047 23.3318 34.5077 23.3197 34.5138C23.3136 34.5168 23.3166 34.5319 23.3166 34.538C23.3257 34.5229 23.3378 34.5077 23.3469 34.4896C23.7943 34.4261 24.1965 34.2145 24.6439 34.1359C25.5721 33.9726 26.4731 34.154 27.3831 34.2598C27.9183 34.3233 28.4504 34.414 28.9795 34.5108C29.5298 34.6105 29.5902 34.7889 29.2456 35.2182C27.9304 36.8448 26.2554 37.7398 24.139 37.7307C23.5041 37.7277 22.9024 37.5644 22.3219 37.3074C21.5903 36.9869 21.0612 36.9537 20.5744 37.7519C20.1118 38.5077 19.5343 39.194 19.1262 39.9862C19.105 40.0225 19.0839 40.0587 19.0627 40.095C19.0506 40.1011 19.0355 40.1041 19.0264 40.1132C19.0204 40.1192 19.0264 40.1313 19.0264 40.1434C19.0385 40.1283 19.0476 40.1101 19.0597 40.095C19.105 40.089 19.1473 40.0708 19.1867 40.0527Z" fill="#787878"/>
<path d="M95.7734 41.0719C95.9458 40.9661 96.1363 40.9812 96.3267 40.9842C98.0924 40.9842 99.8551 40.9873 101.621 40.9812C101.79 40.9812 102.02 41.081 102.089 40.7998C102.274 41.081 102.455 41.3622 102.697 41.731C102.652 41.4136 102.621 41.2019 102.591 40.9903C103.701 40.9903 104.807 40.9873 105.917 40.9873C105.956 42.0878 105.742 43.1369 104.98 43.9502C104.381 44.5912 104.405 45.2956 104.656 45.9729C105.028 46.9706 105.349 47.9865 105.742 48.9781C105.76 49.0265 105.754 49.0991 105.85 49.1081C105.817 48.0137 105.79 46.9252 106.026 45.8459C106.386 44.186 107.141 42.7257 108.245 41.4438C108.511 41.1354 108.62 41.1626 108.777 41.5557C109.137 42.4566 109.309 43.3999 109.379 44.3644C109.488 45.8489 109.542 47.3304 109.276 48.8088C109.049 50.0635 108.553 51.1731 107.574 52.0257C107.308 52.2585 107.117 52.5518 106.927 52.8451C106.624 52.446 106.198 52.706 105.835 52.6425H105.844C105.826 52.6123 105.805 52.5821 105.787 52.5518C105.727 52.3099 105.663 52.0711 105.612 51.8292C105.451 51.1036 105.049 50.6894 104.324 50.6501C102.198 50.5382 100.777 49.3198 99.6525 47.672C98.9873 46.6985 98.4824 45.6312 98.0712 44.5216C98.0138 44.3674 97.8777 44.1891 98.0289 44.0318C98.1892 43.8686 98.3706 44.0167 98.5096 44.0863C100.058 44.8482 101.748 45.3047 103.184 46.3024C103.568 46.5685 103.846 46.9464 104.272 47.2064C104.097 46.7469 103.937 46.2813 103.746 45.8247C103.456 45.1263 103.16 44.4309 102.848 43.7416C102.558 43.1036 102.192 42.9101 101.482 43.0583C99.2715 43.5209 97.4817 42.7287 95.9125 41.2412C95.8581 41.1898 95.8188 41.1294 95.7734 41.0719Z" fill="#787878"/>
<path d="M12.5049 61.8241C12.4505 61.688 12.393 61.555 12.3417 61.4189C12.2207 61.0894 12.0363 60.8838 11.6553 60.781C10.6667 60.5149 10.0076 59.8014 9.52685 58.9428C8.55936 57.2134 8.0484 55.3388 7.8549 53.3706C7.77025 52.515 7.70978 51.6563 7.84583 50.7977C7.91537 50.3562 8.05143 50.2958 8.44447 50.58C9.58127 51.4054 10.4883 52.4424 11.2109 53.6427C11.9667 54.8974 12.4021 56.261 12.6712 57.7032C12.7286 57.0441 12.8133 56.388 12.8314 55.7289C12.8466 55.1302 12.9101 54.5407 13.034 53.9571C13.2094 53.1136 12.8677 52.4938 12.2661 51.9556C11.5798 51.3419 11.1232 50.583 10.8965 49.6881C11.0234 49.5097 11.2109 49.5671 11.3802 49.5641C13.5057 49.5611 15.6341 49.5641 17.7596 49.5611C17.9501 49.5611 18.1375 49.5611 18.3068 49.6669C17.4935 50.1658 16.6561 50.586 15.6674 50.6374C14.8602 50.6767 14.3704 50.8974 14.1708 52.1098C13.9682 53.3404 13.7596 54.5739 13.5601 55.8044C13.5389 55.9314 13.5571 56.0645 13.5873 56.2096C13.8896 55.5686 14.2071 54.9398 14.6425 54.3774C15.5586 53.1983 16.783 52.3638 17.9078 51.4205C18.198 51.1786 18.4973 50.9428 18.7936 50.71C18.8904 50.6344 18.9841 50.4983 19.1322 50.5891C19.2713 50.6707 19.2411 50.8158 19.235 50.9458C19.1232 53.2708 18.5034 55.4205 17.0582 57.2889C16.3477 58.205 15.5011 58.9337 14.4066 59.363C13.6478 59.6623 13.2789 60.2942 13.3061 61.1226C13.3152 61.3554 13.3968 61.5822 13.3243 61.818C13.0522 61.821 12.78 61.8241 12.5049 61.8241Z" fill="#787878"/>
<path d="M18.3081 49.6708C18.1388 49.565 17.9514 49.565 17.7609 49.565C15.6354 49.568 13.507 49.565 11.3815 49.568C11.2152 49.568 11.0247 49.5136 10.8977 49.692C10.6256 49.1447 10.5501 48.5431 10.5168 47.9535C10.408 46.1002 10.3928 44.2498 10.8494 42.4297C10.928 42.1183 11.0429 41.819 11.1487 41.5167C11.2545 41.2173 11.4147 41.1417 11.6476 41.4108C12.9053 42.8711 13.7156 44.537 13.9998 46.4569C14.1268 47.3125 14.0905 48.1742 14.0784 49.0691C14.2235 48.9543 14.2235 48.8061 14.2689 48.6791C14.6165 47.7056 14.9914 46.7381 15.2998 45.7525C15.4691 45.2113 15.5357 44.6338 15.0852 44.1561C14.2205 43.237 13.9574 42.1213 14.0028 40.8999C15.1184 40.9029 16.2341 40.9029 17.3467 40.9059C17.2923 41.169 17.2378 41.429 17.1834 41.692C17.4767 41.4018 17.6007 41.0208 17.8607 40.7275C18.0693 40.7971 18.2839 40.8152 18.5047 40.8152C20.2673 40.8122 22.033 40.8092 23.7956 40.8152C23.9498 40.8152 24.1645 40.7245 24.231 40.9815C23.2635 41.9369 22.1811 42.723 20.8387 43.0405C20.0617 43.2249 19.2635 43.2219 18.4714 43.0677C17.6853 42.9135 17.3527 43.0707 17.0292 43.7721C16.5848 44.7457 16.1162 45.7101 15.8138 46.7411C15.7775 46.8651 15.6989 46.98 15.7382 47.119C15.7231 47.1311 15.708 47.1463 15.6929 47.1583C15.702 47.1583 15.7171 47.1583 15.7201 47.1553C15.7292 47.1463 15.7292 47.1311 15.7352 47.116C17.1411 45.6285 19.0852 45.1266 20.8599 44.3194C21.1108 44.2045 21.3678 44.0986 21.6278 44.0049C21.8546 43.9233 22.0118 44.0352 21.9241 44.2559C21.1229 46.3148 20.2492 48.3314 18.3474 49.6617C18.3384 49.6648 18.3233 49.6648 18.3081 49.6708Z" fill="#787878"/>
<path d="M105.836 52.6396C106.201 52.7031 106.625 52.4401 106.927 52.8422C106.61 53.6222 107.006 54.3751 107.027 55.143C107.048 55.9533 107.19 56.7635 107.178 57.5799C107.178 57.6373 107.19 57.6978 107.299 57.7189C107.456 56.7787 107.659 55.8505 108.034 54.9676C108.777 53.2262 109.884 51.7689 111.402 50.6321C111.882 50.2723 112.03 50.3327 112.076 50.9405C112.297 53.8671 111.719 56.6305 110.229 59.1641C109.799 59.8928 109.149 60.5156 108.297 60.7575C107.783 60.9026 107.55 61.1868 107.447 61.6584C107.163 61.6554 106.876 61.6524 106.591 61.6494C106.576 61.4166 106.531 61.1808 106.555 60.954C106.637 60.1951 106.235 59.6751 105.618 59.4272C103.586 58.6109 102.434 56.9963 101.576 55.1128C100.977 53.7976 100.738 52.3917 100.681 50.9556C100.675 50.8286 100.638 50.6835 100.777 50.5958C100.907 50.5142 100.998 50.6109 101.086 50.6835C102.198 51.5996 103.362 52.4522 104.418 53.4378C105.216 54.1816 105.851 55.0462 106.232 56.0803C106.25 56.1317 106.292 56.171 106.398 56.3251C106.195 55.013 106.017 53.8278 105.836 52.6396Z" fill="#787878"/>
<path d="M12.5078 61.8245C12.7799 61.8245 13.055 61.8215 13.3271 61.8215C13.4209 62.916 13.4481 64.0135 13.6476 65.111C13.9711 63.7534 14.5849 62.5471 15.4012 61.4405C16.0996 60.4882 16.8101 59.5449 17.5176 58.5985C17.6234 58.4595 17.7202 58.3113 17.8441 58.1873C18.0467 57.9848 18.219 58.0241 18.2765 58.3113C18.3369 58.6106 18.3762 58.916 18.4065 59.2183C18.6695 61.9364 18.0497 64.4307 16.4806 66.6771C16.2447 67.0127 15.9666 67.3181 15.6431 67.566C15.1865 67.9197 14.8207 68.346 14.5214 68.8328C14.4035 68.7784 14.3581 68.6846 14.337 68.5607C14.3067 68.3883 14.2402 68.1918 14.0346 68.21C13.826 68.2281 13.5902 68.2855 13.5569 68.5667C13.5418 68.7028 13.5327 68.8509 13.3453 68.8146C13.1457 68.7753 13.2999 68.6272 13.2788 68.5335C13.2395 68.3793 13.182 68.1918 13.0006 68.2069C12.792 68.222 12.5531 68.2765 12.5078 68.5516C12.4866 68.6816 12.5017 68.8388 12.3082 68.8177C12.1057 68.7935 12.2357 68.6453 12.2236 68.5486C12.2024 68.3853 12.1329 68.2009 11.9636 68.2069C11.755 68.213 11.5191 68.2674 11.4587 68.5365C11.4315 68.6574 11.4677 68.8298 11.2712 68.8177C11.0263 68.8025 11.2047 68.6211 11.1745 68.5214C11.108 68.2916 10.9961 68.1072 10.7149 68.2462C10.4549 68.3732 10.216 68.476 9.95603 68.2311C9.86835 68.1495 9.79881 68.34 9.68997 68.3097C9.08226 67.7323 8.61666 67.0429 8.2085 66.3233C7.38915 64.8842 6.76935 63.3664 6.56678 61.7036C6.49422 61.1019 6.60306 61.0082 7.17751 61.2168C9.52066 62.0603 11.2017 63.6688 12.4201 65.8003C12.5441 66.015 12.6469 66.2387 12.7618 66.4594C12.7678 66.4685 12.7829 66.4715 12.8706 66.5199C12.6015 64.9326 12.5411 63.3785 12.5078 61.8245Z" fill="#787878"/>
<path d="M106.59 61.646C106.874 61.649 107.158 61.652 107.445 61.655C107.379 62.7737 107.321 63.8924 107.243 65.008C107.206 65.4978 107.122 65.9846 107.095 66.4895C107.439 65.8516 107.799 65.2257 108.228 64.6452C109.42 63.0337 110.913 61.8274 112.83 61.1834C113.293 61.0292 113.417 61.1199 113.356 61.5764C113.033 64.0738 111.996 66.2506 110.384 68.1645C110.366 68.1856 110.336 68.1977 110.311 68.2128C110.088 68.1463 109.861 68.1221 109.628 68.1221C108.31 68.1282 106.992 68.1282 105.674 68.1221C105.441 68.1221 105.211 68.1373 104.99 68.2098C103.932 67.3361 103.061 66.3292 102.481 65.0594C101.528 62.9763 101.271 60.8145 101.592 58.5681C101.616 58.3958 101.58 58.1418 101.807 58.0814C102.058 58.0118 102.145 58.2597 102.263 58.417C102.853 59.197 103.433 59.9801 104.023 60.7601C105.027 62.0904 105.931 63.4721 106.263 65.1562C106.466 63.9921 106.505 62.816 106.59 61.646Z" fill="#787878"/>
<path d="M53.7951 53.8698C54.2093 52.7754 54.6326 51.696 55.0256 50.6076C55.1254 50.3294 55.2494 50.2236 55.5517 50.2387C56.1473 50.2659 56.746 50.2538 57.3446 50.2417C57.5653 50.2387 57.653 50.3022 57.653 50.538C57.6469 52.6242 57.6469 54.7103 57.653 56.7935C57.653 57.0232 57.5774 57.1019 57.3507 57.0928C56.873 57.0716 56.2652 57.244 55.9478 57.0142C55.6394 56.7874 55.8601 56.1434 55.851 55.6839C55.8329 54.7708 55.845 53.8547 55.7664 52.9175C55.5608 53.4496 55.3522 53.9787 55.1466 54.5108C54.8563 55.2697 54.5449 56.0255 54.2879 56.7965C54.1851 57.1079 53.9947 57.0837 53.7558 57.0958C53.4988 57.1079 53.3325 57.0656 53.2297 56.7814C52.8004 55.6053 52.3469 54.4413 51.8994 53.2742C51.848 53.1442 51.7906 53.0172 51.6576 52.9023C51.6576 53.8668 51.6666 54.8343 51.6545 55.7988C51.6485 56.216 51.842 56.7632 51.5729 57.0172C51.3068 57.2651 50.7657 57.0686 50.3484 57.0898C50.291 57.0928 50.2305 57.0837 50.1731 57.0928C49.9342 57.126 49.8828 57.0112 49.8828 56.7935C49.8889 54.7073 49.8889 52.6212 49.8828 50.538C49.8828 50.3022 49.9614 50.2417 50.1852 50.2478C50.7989 50.2599 51.4096 50.2689 52.0234 50.2448C52.2925 50.2357 52.4074 50.3385 52.495 50.5773C52.8427 51.5327 53.2086 52.4851 53.5714 53.4345C53.6228 53.5705 53.6409 53.7398 53.7951 53.8698Z" fill="#787878"/>
<path d="M59.695 6.65627C61.1885 6.6472 62.4584 6.61999 63.7191 6.74697C65.7962 6.95559 67.8703 7.17327 69.9262 7.57841C72.2573 8.03797 74.546 8.62149 76.7984 9.36525C79.5286 10.2662 82.168 11.3879 84.7077 12.7303C87.0387 13.9608 89.2731 15.3516 91.4046 16.9056C91.4741 16.957 91.5527 17.0084 91.595 17.078C91.6857 17.2231 91.7099 17.4015 91.6011 17.5285C91.4801 17.6706 91.3411 17.5617 91.2171 17.4771C90.6185 17.0659 90.0108 16.6638 89.4151 16.2496C87.2322 14.7348 84.9254 13.4287 82.5248 12.2949C79.2927 10.7681 75.9428 9.55572 72.4689 8.70615C70.4221 8.20426 68.354 7.81121 66.2679 7.54818C65.119 7.40305 63.955 7.33654 62.797 7.24886C61.1069 7.12188 59.4168 7.16723 57.7267 7.19746C56.4992 7.21863 55.2687 7.38491 54.0412 7.5119C52.3481 7.68423 50.6761 7.96843 49.0163 8.32217C45.8205 9.00244 42.7124 9.96993 39.6981 11.2307C36.844 12.4249 34.1018 13.8369 31.5016 15.5179C30.5492 16.1347 29.6029 16.7605 28.6989 17.4468C28.6747 17.465 28.6536 17.4831 28.6263 17.4952C28.4268 17.5889 28.1789 17.7129 28.0368 17.4982C27.8917 17.2805 28.1335 17.1324 28.2938 17.0145C29.5213 16.1014 30.7881 15.2518 32.0942 14.4537C33.5364 13.5708 35.0118 12.7485 36.5356 12.0138C40.0458 10.3176 43.692 8.98732 47.4864 8.0803C49.3942 7.62376 51.3201 7.26095 53.2642 7.02513C54.401 6.88605 55.5468 6.80139 56.6897 6.71976C57.766 6.64418 58.8424 6.69255 59.695 6.65627Z" fill="#787878"/>
<path d="M71.6215 41.2829C72.5376 41.7243 72.9246 42.4802 72.7311 43.4054C72.5617 44.2126 71.8664 44.7991 70.9593 44.8173C69.6472 44.8445 68.335 44.8203 67.0229 44.8294C66.787 44.8324 66.7266 44.7447 66.7266 44.524C66.7326 42.4409 66.7326 40.3547 66.7266 38.2716C66.7266 38.0328 66.8233 37.9783 67.038 37.9814C68.2927 37.9874 69.5444 37.9602 70.7991 37.9934C72.1294 38.0297 72.9336 39.1121 72.5557 40.3003C72.4076 40.7568 72.0901 41.0622 71.6215 41.2829ZM69.5474 43.2572C69.7802 43.2572 70.013 43.2602 70.2458 43.2572C70.5935 43.2512 70.8898 43.1635 70.9291 42.7493C70.9654 42.3865 70.7537 42.1658 70.3002 42.1355C69.9102 42.1083 69.5141 42.1234 69.1241 42.1234C68.5406 42.1234 68.5406 42.1234 68.5406 42.6858C68.5406 43.2602 68.5406 43.2602 69.109 43.2602C69.2572 43.2572 69.4023 43.2572 69.5474 43.2572ZM69.5262 40.5543C69.7439 40.5543 69.9646 40.5482 70.1823 40.5543C70.5361 40.5664 70.8112 40.4424 70.8082 40.0524C70.8051 39.6624 70.5209 39.5505 70.1763 39.5505C69.7984 39.5505 69.4144 39.5747 69.0395 39.5445C68.6525 39.5112 68.5255 39.6231 68.5255 40.0343C68.5285 40.4424 68.6071 40.6299 69.0455 40.5543C69.1997 40.5301 69.363 40.5543 69.5262 40.5543Z" fill="#787878"/>
<path d="M75.1107 53.1712C75.1107 54.4411 75.0986 55.5748 75.1198 56.7116C75.1258 57.0291 75.026 57.1138 74.7267 57.0926C74.3639 57.0684 73.9981 57.0745 73.6322 57.0896C73.3964 57.1017 73.3359 57.0079 73.3359 56.7872C73.342 54.7011 73.342 52.6149 73.3359 50.5287C73.3359 50.2869 73.4297 50.2173 73.6443 50.2445C73.6594 50.2476 73.6746 50.2476 73.6867 50.2445C74.7418 50.0571 75.4826 50.3987 76.0359 51.3753C76.5347 52.2551 77.2241 53.0261 77.8348 53.8515C77.9739 53.7306 77.9104 53.5915 77.9104 53.4736C77.9164 52.5121 77.9225 51.5476 77.9074 50.5862C77.9043 50.3232 77.9678 50.2234 78.246 50.2415C78.6239 50.2657 79.0048 50.2566 79.3828 50.2445C79.6005 50.2355 79.6912 50.2929 79.6912 50.5318C79.6821 52.6179 79.6851 54.7041 79.6912 56.7902C79.6912 57.014 79.6277 57.1228 79.3949 57.0896C79.3798 57.0865 79.3646 57.0896 79.3525 57.0896C78.0011 57.1289 78.0041 57.1258 77.2059 56.0283C76.5347 55.1062 75.8605 54.1931 75.1107 53.1712Z" fill="#787878"/>
<path d="M44.8447 57.2051C42.7011 57.196 41.1773 55.7085 41.1955 53.6435C41.2106 51.5785 42.7495 50.1091 44.8871 50.1182C47.0095 50.1273 48.5212 51.6269 48.5061 53.707C48.491 55.7629 46.9702 57.2142 44.8447 57.2051ZM46.6739 53.6707C46.6739 52.4946 45.9483 51.7206 44.8508 51.7236C43.7624 51.7267 43.0246 52.5188 43.0277 53.6768C43.0307 54.7985 43.7865 55.6057 44.8387 55.6148C45.9271 55.6238 46.6739 54.8287 46.6739 53.6707Z" fill="#787878"/>
<path d="M40.452 42.3419C40.8995 43.1521 41.3439 43.9624 41.8216 44.8271C41.1474 44.8271 40.5518 44.8211 39.9562 44.8301C39.7657 44.8332 39.7113 44.7153 39.6448 44.5852C39.3515 43.9987 39.0371 43.4212 38.774 42.8226C38.5715 42.3661 38.1996 42.5656 37.9063 42.5686C37.61 42.5717 37.7551 42.8619 37.7491 43.0221C37.7279 43.5331 37.734 44.0441 37.7461 44.555C37.7491 44.7606 37.6826 44.8574 37.4709 44.8301C37.4558 44.8271 37.4407 44.8301 37.4286 44.8301C36.9539 44.7969 36.3341 45.0327 36.0469 44.7334C35.8171 44.4945 35.9744 43.8747 35.9744 43.4243C35.9713 41.7463 35.9834 40.0683 35.9653 38.3903C35.9623 38.0668 36.0409 37.97 36.3735 37.9791C37.4226 38.0033 38.4747 37.97 39.5269 37.9912C41.5374 38.0305 42.1421 39.8869 41.5949 41.2353C41.3923 41.7039 41.1686 41.9125 40.452 42.3419ZM38.6198 39.5755C37.74 39.5543 37.74 39.5543 37.74 40.4492C37.74 40.5641 37.7431 40.682 37.74 40.7969C37.737 40.9239 37.7945 40.9874 37.9214 40.9813C38.4263 40.9541 38.9403 41.0539 39.4392 40.9148C39.802 40.8151 39.9562 40.5611 39.932 40.1953C39.9078 39.8355 39.6901 39.6359 39.3576 39.5845C39.1187 39.5452 38.8678 39.5755 38.6198 39.5755Z" fill="#787878"/>
<path d="M65.73 44.8264C65.1313 44.8264 64.5478 44.8143 63.9673 44.8324C63.7134 44.8385 63.6982 44.6631 63.6408 44.5059C63.3899 43.8438 63.3929 43.8438 62.6824 43.8438C62.1714 43.8438 61.6605 43.8619 61.1495 43.8377C60.8502 43.8226 60.6809 43.9072 60.6355 44.2126C60.5599 44.7175 60.2788 44.9352 59.7678 44.8264C59.7527 44.8233 59.7376 44.8264 59.7255 44.8264C59.2962 44.7992 58.8638 44.8838 58.4375 44.775C58.5736 44.3789 58.7005 43.9768 58.8487 43.5837C59.4896 41.8664 60.1488 40.1552 60.7746 38.4349C60.9076 38.0721 61.083 37.9451 61.4639 37.9723C61.9568 38.0086 62.4556 37.9874 62.9515 37.9783C63.1359 37.9753 63.2357 38.0267 63.3052 38.2142C64.1034 40.3547 64.9106 42.4893 65.7149 44.6268C65.73 44.6812 65.7209 44.7417 65.73 44.8264ZM62.0898 39.8075C61.8086 40.6269 61.5516 41.3646 61.3037 42.1023C61.2372 42.3018 61.4004 42.2686 61.5063 42.2716C61.857 42.2746 62.2077 42.2595 62.5554 42.2776C62.8547 42.2928 62.9031 42.196 62.8033 41.9239C62.5645 41.2557 62.3498 40.5755 62.0898 39.8075Z" fill="#787878"/>
<path d="M64.9609 57.087C65.2875 56.2163 65.5989 55.3909 65.9103 54.5655C66.4122 53.2322 66.9171 51.8988 67.4069 50.5625C67.4946 50.3206 67.6155 50.2269 67.8785 50.2359C68.4016 50.2571 68.9277 50.2511 69.4537 50.239C69.6865 50.2329 69.8165 50.2873 69.9042 50.5292C70.6752 52.6154 71.4583 54.6955 72.2504 56.7726C72.3562 57.0477 72.2746 57.0961 72.0206 57.09C71.5701 57.0779 71.1166 57.0689 70.6661 57.0931C70.394 57.1082 70.2882 56.9963 70.2096 56.7544C69.9979 56.1014 69.9889 56.1044 69.2905 56.1044C68.7644 56.1044 68.2413 56.1165 67.7153 56.0984C67.4492 56.0893 67.3011 56.1558 67.2134 56.437C67.0078 57.09 66.9866 57.084 66.2943 57.084C65.868 57.087 65.4477 57.087 64.9609 57.087ZM68.6646 52.0591C68.3744 52.9207 68.1083 53.7099 67.8302 54.5352C68.323 54.5352 68.7584 54.5262 69.1937 54.5383C69.4114 54.5443 69.484 54.4899 69.4084 54.2692C69.1665 53.5587 68.9307 52.8452 68.6646 52.0591Z" fill="#787878"/>
<path d="M43.2329 41.4041C43.2329 40.3822 43.242 39.3603 43.2269 38.3414C43.2208 38.0542 43.3055 37.9756 43.5927 37.9786C45.0228 37.9937 46.4528 37.9907 47.8829 37.9786C48.1581 37.9756 48.2548 38.0421 48.2578 38.3384C48.2669 39.5538 48.276 39.5538 47.0757 39.5538C46.5073 39.5538 45.9358 39.572 45.3674 39.5478C45.0681 39.5357 44.9956 39.6445 45.0046 39.9257C45.0288 40.6906 44.9351 40.5455 45.6244 40.5546C46.3531 40.5636 47.0847 40.5697 47.8134 40.5485C48.1187 40.5394 48.2336 40.6301 48.2034 40.9385C48.1671 41.3134 48.3546 41.7972 48.1339 42.0391C47.9071 42.287 47.4173 42.1086 47.0454 42.1177C46.477 42.1328 45.9086 42.1298 45.3372 42.1177C45.1044 42.1116 45.0046 42.157 45.0016 42.423C44.9865 43.2575 44.9744 43.2575 45.8119 43.2575C46.5254 43.2575 47.242 43.2666 47.9555 43.2514C48.1853 43.2484 48.2457 43.321 48.2548 43.5477C48.3032 44.8236 48.3092 44.8236 47.0515 44.8236C45.8996 44.8236 44.7446 44.8146 43.5927 44.8297C43.3055 44.8327 43.2238 44.7541 43.2269 44.4638C43.242 43.448 43.2329 42.4261 43.2329 41.4041Z" fill="#787878"/>
<path d="M80.0779 41.377C80.0779 40.3702 80.084 39.3634 80.0719 38.3566C80.0688 38.0905 80.1142 37.9726 80.4226 37.9757C81.8678 37.9908 83.313 37.9908 84.7551 37.9757C85.0514 37.9726 85.1149 38.0724 85.1149 38.3475C85.121 39.5509 85.13 39.5508 83.9207 39.5508C83.3523 39.5508 82.7808 39.5629 82.2124 39.5448C81.9494 39.5388 81.8527 39.6143 81.8617 39.8895C81.8859 40.7118 81.7922 40.5365 82.4966 40.5486C83.2102 40.5607 83.9267 40.5607 84.6403 40.5456C84.9033 40.5395 85.0514 40.5818 85.0242 40.8963C84.991 41.2863 85.1452 41.7972 84.9486 42.0361C84.74 42.287 84.2109 42.1056 83.8209 42.1147C83.2676 42.1298 82.7113 42.1268 82.158 42.1147C81.9252 42.1087 81.8678 42.1933 81.8617 42.417C81.8375 43.2576 81.8285 43.2576 82.666 43.2576C83.3825 43.2576 84.096 43.2666 84.8096 43.2545C85.0333 43.2515 85.1028 43.312 85.1119 43.5448C85.1603 44.8267 85.1694 44.8267 83.9116 44.8267C82.7597 44.8267 81.6047 44.8176 80.4528 44.8328C80.1444 44.8388 80.0567 44.7481 80.0628 44.4427C80.09 43.4208 80.0779 42.3989 80.0779 41.377Z" fill="#787878"/>
<path d="M59.3577 53.6762C59.3577 52.6543 59.3668 51.6324 59.3517 50.6105C59.3486 50.3354 59.4121 50.2295 59.7115 50.2356C60.7485 50.2537 61.7825 50.2356 62.8195 50.2447C64.2405 50.2598 65.1717 51.1547 65.1869 52.5062C65.202 53.7851 64.295 54.7163 62.9284 54.801C62.4779 54.8282 62.0213 54.8372 61.5709 54.801C61.202 54.7737 61.1355 54.9249 61.1506 55.2484C61.1748 55.7443 61.1446 56.2401 61.1627 56.7359C61.1718 56.9899 61.1143 57.1108 60.8271 57.0927C60.4492 57.0685 60.0682 57.0685 59.6903 57.0927C59.4091 57.1108 59.3486 57.002 59.3517 56.742C59.3638 55.7201 59.3577 54.6982 59.3577 53.6762ZM62.0213 51.832C61.1566 51.8138 61.1566 51.8138 61.1566 52.6785C61.1566 52.8085 61.1597 52.9416 61.1597 53.0716C61.1597 53.1713 61.196 53.2439 61.3048 53.2409C61.8127 53.2197 62.3237 53.3195 62.8256 53.1744C63.1763 53.0716 63.3698 52.8267 63.3396 52.4639C63.3093 52.101 63.0735 51.8834 62.7167 51.841C62.49 51.8078 62.2542 51.832 62.0213 51.832Z" fill="#787878"/>
<path d="M36.9399 57.1988C35.8091 57.1535 34.5998 56.6032 33.9588 55.2094C33.345 53.8701 33.4841 52.5579 34.4123 51.3878C35.6731 49.8036 38.8416 49.5012 40.1266 51.6055C40.2928 51.8776 40.3231 52.0409 39.9724 52.1407C39.8635 52.1709 39.7637 52.2404 39.6579 52.2918C39.407 52.4097 39.1681 52.5851 38.9051 52.6305C38.5786 52.6819 38.5483 52.2888 38.3518 52.1195C37.3632 51.2639 35.8303 51.8232 35.5007 53.1928C35.3133 53.9638 35.5068 54.6471 36.1054 55.1762C36.5982 55.6115 37.1818 55.7446 37.8167 55.5269C38.1734 55.4059 38.4637 55.1822 38.6451 54.8496C38.7479 54.6622 38.8416 54.641 39.02 54.7347C39.3042 54.8829 39.5975 55.0099 39.8877 55.1459C40.3654 55.3727 40.3654 55.3727 40.054 55.8171C39.3798 56.7756 38.4486 57.217 36.9399 57.1988Z" fill="#787878"/>
<path d="M105.913 40.9806C104.804 40.9806 103.697 40.9836 102.588 40.9836C102.068 38.453 102.216 36.001 103.443 33.676C103.661 33.2679 103.77 33.2679 104.036 33.67C104.792 34.8068 105.173 36.0917 105.481 37.4009C105.705 38.3502 105.883 39.3086 105.901 40.2913C105.847 40.3427 105.85 40.3941 105.904 40.4455C105.907 40.6269 105.91 40.8022 105.913 40.9806Z" fill="#787878"/>
<path d="M17.3439 40.902C16.2283 40.899 15.1126 40.899 14 40.896C14.0302 38.441 14.5472 36.1039 15.7143 33.927C15.7747 33.8121 15.8503 33.7033 15.9289 33.5974C16.1617 33.2921 16.2615 33.2981 16.452 33.6428C17.0839 34.7826 17.4527 36.0101 17.5495 37.2981C17.6432 38.5014 17.6644 39.7138 17.3439 40.902Z" fill="#787878"/>
<path d="M80.6719 50.2451C81.328 50.2451 81.8964 50.2541 82.4648 50.239C82.6855 50.233 82.7641 50.3569 82.8578 50.5142C83.2841 51.2398 83.7165 51.9624 84.1639 52.7152C84.6023 51.9624 85.0316 51.2519 85.4307 50.5293C85.5547 50.3025 85.6998 50.23 85.9477 50.239C86.4829 50.2541 87.021 50.2451 87.5653 50.2451C87.5653 50.4718 87.4232 50.5958 87.3325 50.7379C86.6764 51.787 86.0233 52.8392 85.3431 53.8732C85.1405 54.1816 85.0528 54.4869 85.0649 54.8528C85.0861 55.4635 85.0498 56.0803 85.077 56.691C85.0921 57.0326 84.9742 57.1203 84.6537 57.0961C84.2909 57.0689 83.9251 57.078 83.5592 57.0931C83.3264 57.1022 83.2569 57.0206 83.2599 56.7908C83.272 56.0772 83.2599 55.3607 83.266 54.6472C83.269 54.4355 83.2146 54.2571 83.0967 54.0788C82.371 52.951 81.6575 51.8172 80.941 50.6835C80.8684 50.5625 80.7958 50.4416 80.6719 50.2451Z" fill="#787878"/>
<path d="M49.7208 41.4104C49.7208 40.3885 49.7299 39.3666 49.7148 38.3447C49.7117 38.0575 49.7903 37.9547 50.0836 37.9758C50.4162 38 50.7548 38.003 51.0904 37.9758C51.429 37.9486 51.5379 38.0514 51.5349 38.4051C51.5137 39.8776 51.5349 41.353 51.5197 42.8284C51.5167 43.161 51.5893 43.2819 51.946 43.2668C52.6021 43.2366 53.2582 43.2698 53.9143 43.2517C54.1713 43.2456 54.2952 43.3001 54.262 43.5873C54.2136 43.9864 54.4343 44.5094 54.1652 44.7573C53.9566 44.9508 53.4457 44.8239 53.0677 44.8239C52.1033 44.8269 51.1418 44.8087 50.1773 44.8329C49.8236 44.842 49.6996 44.7604 49.7117 44.3855C49.7389 43.3938 49.7208 42.4021 49.7208 41.4104Z" fill="#787878"/>
<path d="M74.1705 41.419C74.1705 40.4122 74.1826 39.4054 74.1644 38.3986C74.1584 38.0872 74.2219 37.9421 74.5696 37.9754C74.9173 38.0056 75.271 38.0026 75.6187 37.9754C75.918 37.9542 75.9815 38.0721 75.9785 38.3503C75.9664 39.8529 75.9845 41.3555 75.9634 42.8582C75.9603 43.1877 76.045 43.2784 76.3715 43.2663C77.0427 43.2391 77.7139 43.2694 78.3851 43.2512C78.636 43.2452 78.7207 43.3208 78.6995 43.5687C78.6633 43.9708 78.8628 44.4908 78.6209 44.7508C78.3942 44.9927 77.8741 44.8173 77.4872 44.8234C76.4955 44.8325 75.5038 44.8173 74.5121 44.8325C74.24 44.8355 74.1644 44.7508 74.1675 44.4848C74.1765 43.4629 74.1705 42.4409 74.1705 41.419Z" fill="#787878"/>
<path d="M57.7891 21.5218C58.2758 21.416 58.6961 21.3011 59.1254 21.2437C59.4519 21.1983 59.6394 21.029 59.7845 20.7569C59.9841 20.385 60.1987 20.0222 60.4285 19.6201C60.7581 19.995 60.9334 20.4183 61.1632 20.8113C61.3053 21.0562 61.4746 21.1983 61.7649 21.2407C62.1972 21.3011 62.6205 21.413 63.0831 21.5098C62.8624 21.924 62.4874 22.2051 62.1942 22.5468C61.9977 22.7796 61.916 22.9942 61.9614 23.2936C62.0279 23.7229 62.0521 24.1552 62.0974 24.6208C61.6802 24.5301 61.3506 24.3366 61.0211 24.1673C60.6401 23.9708 60.2894 23.9285 59.9085 24.1613C59.6847 24.2973 59.4278 24.3729 59.201 24.4999C58.8987 24.6692 58.7807 24.6178 58.8321 24.258C58.8835 23.9134 58.9077 23.5626 58.9652 23.218C59.0015 23.0003 58.9742 22.837 58.808 22.6677C58.4693 22.314 58.1549 21.933 57.7891 21.5218Z" fill="#787878"/>
<path d="M57.4234 41.4221C57.4234 42.4409 57.4174 43.4629 57.4295 44.4818C57.4325 44.7387 57.3811 44.8506 57.0969 44.8325C56.7038 44.8083 56.3108 44.8174 55.9178 44.8294C55.6971 44.8355 55.6094 44.772 55.6094 44.5362C55.6154 42.453 55.6154 40.3669 55.6094 38.2837C55.6094 38.06 55.6759 37.9723 55.9087 37.9784C56.3017 37.9935 56.6978 37.9965 57.0878 37.9754C57.3539 37.9602 57.4355 38.0419 57.4325 38.314C57.4143 39.351 57.4234 40.385 57.4234 41.4221Z" fill="#787878"/>
<path d="M73.2749 66.5647C73.6589 66.8066 73.8856 67.1482 73.8463 67.6108C73.798 68.1822 73.417 68.5481 72.8426 68.5662C72.2893 68.5844 71.736 68.5602 71.1827 68.5753C70.9348 68.5813 70.8985 68.4755 70.9015 68.2639C70.9076 67.1573 70.9106 66.0507 70.8985 64.9442C70.8955 64.6902 70.9832 64.6176 71.225 64.6267C71.6604 64.6418 72.0988 64.6328 72.5342 64.6297C73.027 64.6297 73.4684 64.7416 73.6891 65.2405C73.8947 65.6879 73.7587 66.1021 73.2749 66.5647ZM72.1955 66.8126V66.8096C72.0202 66.8096 71.8479 66.8217 71.6725 66.8066C71.4337 66.7885 71.3853 66.9396 71.4337 67.1059C71.5274 67.4355 71.1616 67.9192 71.6362 68.0825C71.9718 68.1974 72.383 68.1218 72.7579 68.0825C73.1298 68.0432 73.3112 67.7952 73.29 67.4143C73.2689 67.0515 73.0572 66.864 72.7156 66.8187C72.5463 66.7945 72.3709 66.8126 72.1955 66.8126ZM72.1744 65.1407C71.4216 65.1256 71.4216 65.1256 71.4276 65.8905C71.4276 65.9631 71.4306 66.0356 71.4276 66.1082C71.4216 66.2594 71.5002 66.3138 71.6423 66.3108C72.0051 66.3047 72.3709 66.3259 72.7307 66.2956C73.0542 66.2684 73.2054 66.0477 73.2054 65.7242C73.2054 65.4037 73.0602 65.1921 72.7367 65.1437C72.5553 65.1195 72.3649 65.1407 72.1744 65.1407Z" fill="#787878"/>
<path d="M65.0071 66.5769C65.0071 66.0387 65.0161 65.4975 65.0041 64.9594C64.998 64.7236 65.0585 64.6117 65.3215 64.6298C65.8446 64.6661 66.3706 64.5754 66.8876 64.7024C67.9186 64.9503 68.4719 65.7727 68.3631 66.9034C68.2754 67.8437 67.4832 68.5481 66.4855 68.5693C66.1076 68.5784 65.7266 68.5542 65.3487 68.5754C65.0827 68.5905 64.9889 68.5149 65.001 68.2367C65.0222 67.6835 65.0071 67.1302 65.0071 66.5769ZM65.5392 66.6071C65.5392 66.8399 65.5392 67.0727 65.5392 67.3085C65.5392 68.143 65.5392 68.143 66.3888 68.1097C67.2746 68.0735 67.8491 67.4627 67.837 66.5799C67.8219 65.7152 67.2535 65.1499 66.3676 65.1317C66.1923 65.1287 66.0169 65.1408 65.8415 65.1287C65.6178 65.1136 65.5271 65.1952 65.5362 65.428C65.5513 65.818 65.5422 66.2141 65.5392 66.6071Z" fill="#787878"/>
<path d="M54.237 68.5213C53.8198 68.6665 53.5749 68.5304 53.3935 68.1827C53.2242 67.8622 53.0065 67.5659 52.813 67.2606C52.7253 67.1215 52.6316 67.0217 52.4411 67.0096C51.918 66.9794 51.9059 66.9824 51.9059 67.5055C51.9059 67.7685 51.8969 68.0285 51.909 68.2915C51.918 68.485 51.8697 68.5818 51.6489 68.5788C51.4282 68.5758 51.3829 68.485 51.3829 68.2885C51.3889 67.1668 51.392 66.0451 51.3829 64.9265C51.3799 64.6906 51.4706 64.6272 51.6913 64.6332C52.1418 64.6453 52.5953 64.6211 53.0458 64.6423C53.6898 64.6725 54.0919 65.0232 54.2068 65.6188C54.3186 66.2084 54.0949 66.6589 53.5144 66.9129C53.2604 67.0247 53.3118 67.1154 53.4298 67.2847C53.7019 67.6869 53.9649 68.1011 54.237 68.5213ZM51.9059 65.8637C51.9059 66.5621 51.9059 66.5621 52.6255 66.5621C52.7706 66.5621 52.9188 66.5712 53.0609 66.55C53.4449 66.4956 53.6807 66.2084 53.6777 65.8244C53.6747 65.4405 53.4298 65.1774 53.0307 65.1381C52.9007 65.126 52.7676 65.129 52.6376 65.129C51.9059 65.126 51.9059 65.129 51.9059 65.8637Z" fill="#787878"/>
<path d="M47.9359 66.5773C47.9359 66.0391 47.945 65.4979 47.9329 64.9598C47.9268 64.727 47.9873 64.6212 48.2473 64.6272C48.9034 64.6453 49.5595 64.6363 50.2156 64.6302C50.4 64.6272 50.5149 64.6514 50.5149 64.8842C50.5149 65.1261 50.3788 65.1291 50.2035 65.1291C49.753 65.1261 49.2995 65.1412 48.849 65.123C48.5799 65.114 48.462 65.1744 48.462 65.4798C48.459 66.3143 48.4438 66.3143 49.2844 66.3143C49.6048 66.3143 49.9253 66.3203 50.2458 66.3143C50.4302 66.3112 50.5028 66.3838 50.5028 66.5713C50.5028 66.7738 50.403 66.8131 50.2307 66.8101C49.75 66.8041 49.2692 66.8192 48.7885 66.8041C48.5406 66.795 48.4711 66.8796 48.462 67.1276C48.4348 68.0981 48.4257 68.0981 49.372 68.0981C49.6623 68.0981 49.9556 68.1041 50.2458 68.0951C50.4181 68.092 50.5119 68.1283 50.5119 68.3339C50.5119 68.5395 50.4181 68.5728 50.2458 68.5697C49.5595 68.5637 48.8762 68.5576 48.1899 68.5728C47.9601 68.5758 47.9268 68.47 47.9299 68.2825C47.9389 67.7171 47.9359 67.1487 47.9359 66.5773Z" fill="#787878"/>
<path d="M61.5425 66.6075C61.5425 66.0693 61.5516 65.5282 61.5395 64.99C61.5335 64.739 61.5849 64.6211 61.8721 64.6272C62.5282 64.6453 63.1842 64.6362 63.8403 64.6302C64.0248 64.6272 64.1457 64.6544 64.1457 64.8842C64.1427 65.126 64.0006 65.1291 63.8282 65.126C63.3324 65.123 62.8366 65.1321 62.3407 65.123C62.1321 65.12 62.0747 65.1925 62.0626 65.4012C62.0112 66.3142 62.0051 66.3142 62.9273 66.3142C63.2326 66.3142 63.541 66.3233 63.8464 66.3112C64.0489 66.3052 64.0852 66.411 64.0852 66.5833C64.0852 66.7557 64.0127 66.8131 63.8494 66.8101C63.3536 66.804 62.8577 66.8191 62.3619 66.804C62.1351 66.798 62.0686 66.8705 62.0595 67.1003C62.0263 68.098 62.0172 68.098 63.021 68.098C63.3112 68.098 63.6045 68.1041 63.8948 68.098C64.0883 68.092 64.1457 68.1827 64.1427 68.3641C64.1396 68.5515 64.0338 68.5727 63.8887 68.5727C63.2024 68.5697 62.5191 68.5636 61.8328 68.5757C61.5939 68.5818 61.5365 68.4911 61.5395 68.2704C61.5516 67.7141 61.5425 67.1608 61.5425 66.6075Z" fill="#787878"/>
<path d="M45.4381 67.944C45.8403 66.9221 46.2 66.006 46.5598 65.0869C46.6022 64.9781 46.6294 64.8601 46.6868 64.7634C46.8138 64.5487 47.0375 64.6062 47.1978 64.6606C47.3671 64.718 47.2401 64.8813 47.1978 64.9902C46.7594 66.0846 46.3119 67.1761 45.8826 68.2736C45.7949 68.4973 45.6891 68.585 45.4412 68.582C45.2023 68.579 45.0814 68.5124 44.9937 68.2796C44.5704 67.1942 44.126 66.1209 43.6997 65.0355C43.6543 64.9206 43.4487 64.7332 43.7027 64.6515C43.8932 64.5911 44.1199 64.5699 44.2318 64.8692C44.5492 65.7279 44.8969 66.5774 45.2325 67.4301C45.2809 67.5631 45.3353 67.6961 45.4381 67.944Z" fill="#787878"/>
<path d="M56.6362 66.5922C56.6362 66.0389 56.6452 65.4856 56.6331 64.9324C56.6271 64.7056 56.7027 64.627 56.9325 64.63C57.6006 64.6421 58.2718 64.6391 58.94 64.63C59.1335 64.627 59.2393 64.6754 59.2333 64.8961C59.2272 65.1017 59.1154 65.1319 58.9491 65.1289C58.4683 65.1259 57.9876 65.138 57.5069 65.1228C57.259 65.1168 57.1471 65.1621 57.1471 65.4524C57.1381 66.3141 57.126 66.3141 57.9786 66.3141C58.299 66.3141 58.6195 66.3231 58.94 66.311C59.1486 66.305 59.1728 66.4169 59.1728 66.5862C59.1758 66.7615 59.0942 66.8099 58.934 66.8099C58.4381 66.8039 57.9423 66.819 57.4495 66.8039C57.2227 66.7978 57.1411 66.8704 57.1501 67.1002C57.1653 67.4781 57.1532 67.856 57.1562 68.237C57.1562 68.4154 57.1834 68.5786 56.9052 68.5756C56.6452 68.5756 56.6301 68.4456 56.6331 68.2491C56.6422 67.6988 56.6362 67.1455 56.6362 66.5922Z" fill="#787878"/>
<path d="M74.1484 64.6785C74.5778 64.5394 74.8136 64.6906 75.0101 65.0262C75.2822 65.4888 75.5997 65.9241 75.9353 66.4291C76.2739 65.9241 76.6034 65.4706 76.8876 64.9929C77.0721 64.6815 77.2898 64.5576 77.6375 64.6664C77.6949 64.8176 77.5709 64.9052 77.5014 65.0111C77.326 65.2801 77.1658 65.5613 76.9602 65.8032C76.3767 66.4895 76.0804 67.2514 76.2164 68.1645C76.2437 68.3399 76.3102 68.5757 75.9564 68.5848C75.5846 68.5938 75.636 68.355 75.6632 68.1524C75.775 67.2817 75.5362 66.5349 74.9587 65.8667C74.6564 65.513 74.4326 65.0988 74.1484 64.6785Z" fill="#787878"/>
<path d="M59.9799 66.5954C59.9799 66.0572 59.9859 65.519 59.9768 64.9809C59.9738 64.7692 59.9919 64.6211 60.2731 64.6271C60.5301 64.6302 60.5483 64.7632 60.5483 64.9597C60.5452 66.0633 60.5422 67.1698 60.5513 68.2734C60.5543 68.4971 60.4878 68.5757 60.255 68.5787C59.998 68.5818 59.9768 68.4518 59.9799 68.2522C59.9859 67.6989 59.9799 67.1456 59.9799 66.5954Z" fill="#787878"/>
<path d="M55.0738 66.6103C55.0738 66.057 55.0798 65.5068 55.0707 64.9535C55.0677 64.7509 55.0979 64.627 55.3519 64.627C55.5908 64.627 55.6452 64.7298 55.6422 64.9414C55.6361 66.0449 55.6361 67.1515 55.6422 68.2551C55.6422 68.4607 55.6119 68.5786 55.361 68.5755C55.1221 68.5755 55.0647 68.4818 55.0707 68.2641C55.0828 67.7139 55.0738 67.1606 55.0738 66.6103Z" fill="#787878"/>
<path d="M105.911 40.4491C105.853 40.3977 105.853 40.3463 105.908 40.2949C105.911 40.3463 105.911 40.3977 105.911 40.4491Z" fill="#787878"/>
<path d="M105.789 52.5488C105.807 52.5793 105.829 52.6098 105.847 52.6402C105.826 52.6098 105.807 52.5793 105.789 52.5488Z" fill="#787878"/>
<path d="M59.5741 103.72C59.6164 103.442 59.5076 103.29 59.2627 103.215C59.0238 103.139 58.7669 103.157 58.5885 103.29C58.2226 103.56 58.1471 103.303 58.005 103.055C57.7994 102.689 58.135 102.662 58.3073 102.574C58.5945 102.432 58.909 102.371 59.2385 102.377C60.0881 102.389 60.4872 102.734 60.5416 103.566C60.5749 104.058 60.5477 104.554 60.5537 105.05C60.5567 105.222 60.5083 105.349 60.3118 105.316C60.0669 105.277 59.8039 105.425 59.5711 105.207C59.4562 105.098 59.3353 105.262 59.2204 105.301C58.392 105.597 57.6573 105.077 57.7691 104.27C57.8508 103.677 58.4343 103.36 59.1115 103.544C59.2597 103.587 59.4048 103.656 59.5741 103.72ZM59.1357 104.745C59.3201 104.733 59.559 104.73 59.5802 104.464C59.6043 104.149 59.3171 104.152 59.1176 104.137C58.9301 104.122 58.7094 104.191 58.6973 104.424C58.6792 104.687 58.8908 104.742 59.1357 104.745Z" fill="#787878"/>
<path d="M46.5145 104.201C46.8229 104.639 47.1373 104.736 47.618 104.503C48.0594 104.291 48.0625 104.693 48.1804 104.872C48.3406 105.117 48.0534 105.156 47.9204 105.204C47.2461 105.458 46.5719 105.498 45.9914 104.993C45.5016 104.566 45.4109 104.001 45.5984 103.399C45.8221 102.671 46.5659 102.247 47.3187 102.402C48.0443 102.55 48.5341 103.218 48.5009 103.965C48.4888 104.216 48.3557 104.201 48.1894 104.198C47.6483 104.201 47.1131 104.201 46.5145 104.201ZM46.4903 103.535C46.7322 103.535 46.9226 103.551 47.1071 103.529C47.2461 103.511 47.4971 103.635 47.5062 103.427C47.5152 103.215 47.2733 103.164 47.0768 103.151C46.8259 103.139 46.6203 103.209 46.4903 103.535Z" fill="#787878"/>
<path d="M74.2284 105.371C73.2942 105.377 72.6562 104.776 72.6562 103.881C72.6562 103.013 73.2881 102.39 74.1831 102.381C75.0991 102.372 75.7613 103.001 75.7582 103.881C75.7582 104.76 75.1354 105.365 74.2284 105.371ZM74.7847 103.899C74.7908 103.491 74.567 103.228 74.2072 103.224C73.8656 103.224 73.6298 103.472 73.6147 103.847C73.5995 104.222 73.8505 104.54 74.18 104.555C74.5247 104.573 74.7787 104.295 74.7847 103.899Z" fill="#787878"/>
<path d="M52.0096 102.462C51.7344 102.891 51.5077 103.263 51.2567 103.617C51.1358 103.789 51.1388 103.907 51.2628 104.076C51.5349 104.451 51.7768 104.847 52.0368 105.243C51.29 105.455 51.1539 105.391 50.5069 104.506C50.2106 105.134 49.7994 105.555 48.9922 105.249C49.2189 104.908 49.4336 104.536 49.6966 104.203C49.9053 103.937 49.8901 103.735 49.6906 103.478C49.4578 103.181 49.2703 102.852 49.0587 102.531C49.8055 102.347 49.9446 102.404 50.513 103.139C50.7579 102.964 50.7609 102.549 51.0632 102.48C51.3414 102.41 51.6467 102.462 52.0096 102.462Z" fill="#787878"/>
<path d="M62.9799 105.371C62.215 105.362 61.6769 105.002 61.4743 104.398C61.2657 103.772 61.4561 103.079 61.9459 102.704C62.4569 102.311 63.2611 102.26 63.7932 102.611C63.9262 102.698 64.2286 102.807 64.0139 103.013C63.8507 103.167 63.7479 103.611 63.3427 103.333C63.1039 103.17 62.8409 103.182 62.6111 103.351C62.3934 103.512 62.3208 103.741 62.3662 104.007C62.4146 104.274 62.5657 104.449 62.8288 104.534C62.9799 104.582 63.1099 104.537 63.252 104.497C63.376 104.461 63.4455 104.252 63.5755 104.34C63.7539 104.458 63.9081 104.621 64.0532 104.781C64.1681 104.911 64.023 104.993 63.9444 105.06C63.6511 105.298 63.3034 105.389 62.9799 105.371Z" fill="#787878"/>
<path d="M70.8863 105.371C70.1213 105.365 69.6013 105.02 69.3927 104.403C69.178 103.774 69.3655 103.082 69.8523 102.704C70.3541 102.314 71.1795 102.259 71.7026 102.607C71.8356 102.695 72.1349 102.804 71.9384 103C71.7782 103.16 71.6693 103.581 71.2672 103.333C70.9588 103.142 70.6384 103.157 70.4086 103.457C70.203 103.723 70.203 104.04 70.4176 104.303C70.6686 104.609 70.9679 104.618 71.3065 104.403C71.6784 104.167 71.7389 104.618 71.9324 104.748C72.1531 104.899 71.8991 105.014 71.7933 105.095C71.5151 105.313 71.1886 105.383 70.8863 105.371Z" fill="#787878"/>
<path d="M65.5741 101.697C65.9702 101.597 66.1123 101.752 66.0609 102.12C66.0306 102.332 66.0639 102.504 66.3481 102.459C66.6625 102.408 66.6323 102.631 66.6081 102.816C66.5839 102.991 66.7593 103.306 66.3572 103.269C66.1244 103.248 66.0427 103.345 66.0578 103.572C66.073 103.805 66.0578 104.037 66.0669 104.273C66.073 104.436 66.1516 104.591 66.3269 104.545C66.5507 104.488 66.5628 104.621 66.6051 104.76C66.7472 105.229 66.6867 105.328 66.209 105.371C65.4441 105.44 65.1266 105.153 65.1236 104.388C65.1236 104.182 65.1266 103.98 65.1236 103.774C65.1206 103.529 65.2113 103.278 64.7789 103.239C64.5431 103.218 64.7064 102.864 64.6701 102.665C64.6429 102.52 64.7185 102.441 64.8696 102.462C65.1448 102.501 65.1478 102.323 65.1236 102.139C65.0692 101.758 65.1841 101.564 65.5741 101.697Z" fill="#787878"/>
<path d="M53.4892 101.679C53.7885 101.613 53.9457 101.737 53.8913 102.097C53.858 102.32 53.8822 102.508 54.1966 102.459C54.5292 102.408 54.4476 102.671 54.4325 102.834C54.4173 102.998 54.5806 103.3 54.2057 103.264C53.9034 103.236 53.8671 103.391 53.8822 103.632C53.8973 103.835 53.8852 104.041 53.8882 104.246C53.8913 104.385 53.9306 104.561 54.0817 104.539C54.5957 104.476 54.4778 104.926 54.4869 105.117C54.499 105.386 54.1694 105.353 53.9638 105.365C53.2291 105.413 52.951 105.141 52.948 104.406C52.948 104.143 52.9419 103.88 52.951 103.617C52.957 103.412 52.957 103.261 52.6668 103.258C52.3463 103.251 52.5156 102.97 52.4975 102.816C52.4854 102.689 52.3886 102.45 52.6668 102.465C52.9117 102.477 52.951 102.375 52.951 102.16C52.9601 101.676 52.9721 101.676 53.4892 101.679Z" fill="#787878"/>
<path d="M55.2951 103.862C55.2951 103.587 55.2951 103.309 55.2951 103.034C55.2951 102.471 55.5793 102.232 56.1144 102.493C56.3835 102.623 56.5014 102.529 56.6919 102.465C56.8189 102.423 57.0003 102.284 57.088 102.438C57.2029 102.641 57.1333 102.892 57.1242 103.124C57.1152 103.306 56.958 103.236 56.8552 103.251C56.317 103.327 56.2595 103.397 56.2565 103.941C56.2565 104.288 56.2354 104.639 56.2626 104.987C56.2958 105.41 56.0086 105.325 55.7788 105.319C55.5581 105.316 55.2558 105.431 55.292 104.996C55.3193 104.618 55.2951 104.24 55.2951 103.862Z" fill="#787878"/>
<path d="M67.9318 105.37C67.6113 105.358 67.3603 105.089 67.3936 104.766C67.4268 104.421 67.6536 104.239 67.9771 104.252C68.3036 104.264 68.5062 104.481 68.5243 104.814C68.5425 105.116 68.2492 105.379 67.9318 105.37Z" fill="#787878"/>
<path d="M104.356 75.75C104.35 75.7866 104.341 75.8231 104.335 75.8566C104.32 75.8475 104.304 75.8384 104.289 75.8292C104.31 75.8018 104.332 75.7744 104.356 75.75Z" fill="#506367"/>
<path d="M104.359 75.7477C104.378 75.7081 104.396 75.6685 104.414 75.6289C104.432 75.6472 104.448 75.6624 104.466 75.6807C104.429 75.702 104.396 75.7264 104.359 75.7477C104.359 75.7508 104.359 75.7477 104.359 75.7477Z" fill="#506367"/>
<path d="M15.6057 75.8564L15.6117 75.8804L15.5938 75.8774L15.6057 75.8564Z" fill="#506367"/>
<path d="M15.5019 75.6328C15.511 75.6633 15.5202 75.6938 15.5293 75.7242C15.5049 75.709 15.4775 75.6968 15.4531 75.6816C15.4684 75.6663 15.4836 75.648 15.5019 75.6328Z" fill="#506367"/>
<path d="M98.0469 35.1156C98.0682 35.1461 98.0895 35.1765 98.1109 35.207C98.0987 35.2131 98.0865 35.2192 98.0743 35.2253C98.0682 35.1857 98.0591 35.1461 98.053 35.1064C98.056 35.1095 98.0469 35.1156 98.0469 35.1156Z" fill="#506367"/>
<path d="M100.859 40.1075C100.881 40.138 100.899 40.1654 100.92 40.1959C100.908 40.202 100.896 40.205 100.884 40.2111C100.875 40.1746 100.869 40.1411 100.859 40.1045C100.862 40.1045 100.859 40.1075 100.859 40.1075Z" fill="#506367"/>
<path d="M100.789 39.998C100.81 40.0343 100.834 40.0706 100.855 40.1069L100.858 40.1039C100.816 40.0857 100.777 40.0706 100.734 40.0555C100.753 40.0343 100.771 40.0162 100.789 39.998Z" fill="#506367"/>
<path d="M21.973 35.0469C21.9517 35.0652 21.9182 35.1018 21.9121 35.0957C21.8572 35.0622 21.8908 35.0256 21.9212 34.9951C21.9395 35.0104 21.9578 35.0286 21.973 35.0469Z" fill="#506367"/>
<path d="M19.0669 40.1045C19.0549 40.1195 19.0459 40.1375 19.0339 40.1525C19.0339 40.1435 19.0279 40.1285 19.0339 40.1225C19.0399 40.1165 19.0549 40.1135 19.0669 40.1045C19.0669 40.1075 19.0669 40.1045 19.0669 40.1045Z" fill="#506367"/>
<path d="M23.3511 34.499C23.3421 34.514 23.3301 34.529 23.3211 34.547C23.3211 34.538 23.3181 34.526 23.3241 34.523C23.3331 34.514 23.3481 34.511 23.3601 34.508C23.3571 34.505 23.3511 34.499 23.3511 34.499Z" fill="#506367"/>
<path d="M19.1865 40.0526C19.1441 40.0707 19.1048 40.0858 19.0625 40.104C19.0837 40.0677 19.1048 40.0314 19.126 39.9951C19.1502 40.0163 19.1683 40.0344 19.1865 40.0526Z" fill="#506367"/>
<path d="M15.7373 47.1094C15.7343 47.1214 15.7313 47.1364 15.7223 47.1484C15.7193 47.1544 15.7043 47.1514 15.6953 47.1514C15.7103 47.1394 15.7253 47.1244 15.7403 47.1124C15.7403 47.1154 15.7373 47.1094 15.7373 47.1094Z" fill="#506367"/>
</svg>
