<svg width="121" height="121" viewBox="0 0 121 121" fill="none" xmlns="http://www.w3.org/2000/svg">
<path d="M0.179688 56.362C0.550778 55.3606 0.484807 54.2932 0.614001 53.2588C2.01865 41.9327 6.25457 31.7923 13.4262 22.9339C22.4891 11.7427 34.1138 4.63394 48.2125 1.72333C79.9421 -4.82968 111.515 15.6051 118.571 47.1982C125.163 76.7033 109.228 106.164 80.9069 116.792C75.5962 118.783 70.0958 119.953 64.436 120.346C64.2683 120.357 64.0512 120.269 63.9467 120.5C61.3353 120.5 58.7267 120.5 56.1153 120.5C56.0356 120.302 55.8569 120.351 55.7085 120.343C53.1576 120.164 50.6232 119.834 48.1245 119.303C33.4019 116.164 21.4253 108.624 12.2937 96.6566C5.79552 88.1394 1.94992 78.5052 0.622247 67.8641C0.490304 66.8022 0.561773 65.7101 0.179688 64.6812C0.179688 61.9053 0.179688 59.135 0.179688 56.362ZM115.245 60.5078C115.234 30.0399 90.6047 5.37672 60.1533 5.34096C29.702 5.30244 4.99561 29.9959 4.97362 60.4941C4.95163 90.9785 29.636 115.694 60.1039 115.699C90.569 115.705 115.259 90.995 115.245 60.5078Z" fill="#787878"/>
<path d="M65.9359 57.2703C66.8156 56.9072 67.6897 56.5963 68.6435 56.7504C70.7079 57.0833 72.096 59.0283 72.0273 61.485C71.9311 64.9815 69.8173 67.0036 66.3235 66.8825C65.3999 66.8495 64.4791 66.6624 63.5582 66.5579C63.0937 66.5056 62.9892 66.2745 63.0057 65.8124C63.1376 62.3543 63.1459 58.8962 63.003 55.4381C62.9727 54.7091 62.8957 54.0213 61.9474 53.9526C61.7907 53.9416 61.7083 53.859 61.711 53.6995C61.7138 53.5289 61.832 53.4959 61.9721 53.4684C63.1954 53.2208 64.4131 52.9622 65.6391 52.7256C66.0679 52.6431 65.9332 52.9814 65.9332 53.1933C65.9387 54.522 65.9359 55.8535 65.9359 57.2703ZM65.8617 61.9719C65.892 61.9719 65.9222 61.9719 65.9524 61.9719C65.9524 63.0888 65.9304 64.2057 65.9607 65.3227C65.9827 66.17 66.1888 66.3048 67.0162 66.1315C67.4588 66.0407 67.7721 65.7601 68.036 65.4162C69.1988 63.8976 69.3885 60.3955 68.3961 58.7807C67.9206 58.0076 67.1976 57.6775 66.373 57.8398C66.0211 57.9086 65.837 58.0324 65.8507 58.4588C65.8865 59.6307 65.8617 60.8027 65.8617 61.9719Z" fill="#787878"/>
<path d="M40.1046 52.9863C41.7539 52.9863 43.4032 53.0028 45.0524 52.9753C45.5445 52.967 45.7616 53.0605 45.7369 53.6162C45.6957 54.5186 45.7314 55.4264 45.7616 56.3315C45.7726 56.6672 45.7122 56.912 45.3411 56.967C44.9755 57.022 45.0057 56.7057 44.9287 56.5021C44.0546 54.2407 42.3504 53.3659 39.9616 53.9326C39.662 54.0041 39.662 54.1802 39.6593 54.392C39.6263 55.9106 39.6043 57.4265 39.5576 58.9423C39.5466 59.3302 39.6868 59.4237 40.0633 59.4347C41.7374 59.476 41.9518 59.3577 42.573 57.8556C42.6582 57.6465 42.7297 57.4512 43.0128 57.509C43.2795 57.564 43.2217 57.7813 43.2217 57.9547C43.2272 59.2064 43.2272 60.4581 43.2217 61.7098C43.2217 61.8777 43.2932 62.1005 43.0046 62.139C42.7269 62.1775 42.6252 62.0125 42.5675 61.7869C42.1387 60.1225 41.2893 60.2793 39.9479 60.2133C39.662 60.1995 39.5713 60.3316 39.5851 60.5929C39.6565 61.9464 39.5686 63.3082 39.7747 64.659C39.9012 65.476 40.3025 65.9575 41.1601 66.0372C41.3718 66.0565 41.7704 65.9575 41.7181 66.4031C41.6659 66.846 41.3003 66.637 41.0859 66.6397C39.0903 66.659 37.0946 66.6562 35.099 66.6425C34.9011 66.6425 34.585 66.7965 34.5492 66.3921C34.5162 66.007 34.8378 66.051 35.0413 66.0262C35.8714 65.9299 36.2425 65.421 36.3332 64.648C36.5751 62.5819 36.5806 60.5049 36.5256 58.4278C36.4954 57.2861 36.5339 56.139 36.3442 55.0028C36.2095 54.1995 35.8577 53.6658 34.9808 53.6107C34.7664 53.597 34.5437 53.5667 34.552 53.2614C34.563 52.8487 34.8791 52.9918 35.0797 52.9918C36.751 52.9808 38.4278 52.9863 40.1046 52.9863Z" fill="#787878"/>
<path d="M54.0669 61.7043C54.0724 65.2917 51.3731 67.4953 47.8793 66.758C45.7572 66.3096 44.5093 64.6259 44.3828 62.0399C44.1986 58.2655 47.2938 55.7813 50.8865 56.8239C52.9261 57.4154 54.0641 59.1623 54.0669 61.7043ZM51.0707 61.8584C51.0542 60.6726 51.0267 59.4182 50.4659 58.26C50.1883 57.6878 49.7952 57.2283 49.0641 57.2751C48.3741 57.3191 47.9948 57.784 47.8298 58.359C47.1949 60.6066 47.1371 62.8652 47.9343 65.0936C48.1624 65.7263 48.5748 66.2518 49.3087 66.2408C50.0811 66.2298 50.4495 65.6686 50.6859 64.9973C51.0432 64.0042 51.024 62.9615 51.0707 61.8584Z" fill="#787878"/>
<path d="M78.6805 61.3055C77.908 61.3055 77.1356 61.3468 76.3687 61.2918C75.797 61.2533 75.7282 61.4871 75.753 61.974C75.8932 64.8076 78.3616 66.2519 80.8987 64.9617C81.0857 64.8681 81.2616 64.6701 81.4293 64.9562C81.5805 65.2175 81.3221 65.3468 81.1901 65.4734C79.8075 66.7994 78.1527 67.1873 76.3302 66.7196C74.527 66.2547 73.411 65.0387 72.9547 63.245C72.218 60.3454 73.6969 57.5256 76.3027 56.8048C79.2027 55.9987 81.5365 57.7292 81.6657 60.7608C81.6822 61.1707 81.5887 61.3303 81.1516 61.3138C80.3297 61.2835 79.5051 61.3055 78.6805 61.3055ZM77.1631 60.5517C78.7629 60.5187 78.7629 60.5187 78.6502 59.2532C78.5485 58.1116 78.1444 57.3798 77.5699 57.3C76.9075 57.2092 76.366 57.7814 76.0059 58.9479C75.5138 60.5462 75.5413 60.582 77.1631 60.5517Z" fill="#787878"/>
<path d="M82.2668 64.8461C82.2668 64.4994 82.2696 64.1528 82.2668 63.8062C82.2641 63.6164 82.2476 63.4375 82.5032 63.3743C82.7699 63.3082 82.8248 63.4981 82.8908 63.6659C83.0777 64.1363 83.2949 64.593 83.6 65.0001C84.0948 65.6604 84.738 66.018 85.5792 65.9933C86.3378 65.9712 86.8436 65.6109 87.0498 64.8846C87.2559 64.1666 86.9755 63.6053 86.3433 63.2752C85.5682 62.8708 84.7298 62.5875 83.9628 62.1693C82.1129 61.1624 81.948 58.7525 83.6083 57.4485C84.0783 57.0798 84.6116 56.824 85.1888 56.7277C86.3571 56.5296 87.5171 56.6039 88.6633 56.9395C89.0619 57.0578 89.2268 57.2449 89.2076 57.6686C89.1883 58.1473 89.2461 58.6259 89.2626 59.1046C89.2708 59.3275 89.3945 59.6081 89.0536 59.7044C88.6798 59.8116 88.7128 59.4595 88.6111 59.2779C88.4324 58.9533 88.3032 58.6012 88.1081 58.2876C87.8167 57.8171 87.3824 57.52 86.8409 57.3852C86.0877 57.1981 85.4719 57.465 85.1751 58.1142C84.87 58.7828 85.0294 59.4237 85.6451 59.8749C86.2499 60.3206 86.9591 60.5627 87.6435 60.857C89.3038 61.5723 89.892 62.4527 89.7271 63.9465C89.5594 65.4706 88.5726 66.4444 86.9261 66.7773C85.6919 67.0277 84.4934 66.8323 83.2866 66.6012C82.6022 66.4692 82.1404 66.2188 82.3108 65.4073C82.3493 65.2285 82.3163 65.0359 82.3163 64.8488C82.3026 64.8461 82.2833 64.8461 82.2668 64.8461Z" fill="#787878"/>
<path d="M58.3754 58.6536C58.6366 58.274 58.7987 58.0099 58.9884 57.7705C59.5602 57.0415 60.3051 56.6096 61.2397 56.5876C62.2265 56.5628 62.3887 56.8104 62.0423 57.71C61.9846 57.8586 61.9296 58.0071 61.8719 58.1557C61.707 58.5766 61.6465 59.1213 61.3441 59.3772C61.0363 59.6385 60.624 59.1213 60.2144 59.0938C59.7911 59.0635 59.3677 59.014 58.9527 59.1626C58.5623 59.3001 58.3397 59.512 58.3479 59.9741C58.3727 61.4652 58.3369 62.9563 58.3782 64.4446C58.4139 65.6826 58.5349 65.7899 59.7333 66.0787C59.9285 66.1255 60.1044 66.142 60.0742 66.4061C60.044 66.684 59.8323 66.6454 59.6536 66.6454C57.9521 66.6482 56.2478 66.6482 54.5463 66.6454C54.3924 66.6454 54.2165 66.6702 54.1862 66.4419C54.156 66.2218 54.2275 66.087 54.4666 66.0567C55.3462 65.9439 55.4452 65.2837 55.4782 64.5904C55.5606 62.86 55.5661 61.1323 55.4782 59.4019C55.4424 58.6894 55.3875 57.9796 54.4391 57.8861C54.2989 57.8723 54.189 57.7953 54.1917 57.6302C54.1945 57.4652 54.3182 57.4047 54.4501 57.3771C55.6486 57.1406 56.8471 56.9122 58.0456 56.6729C58.3699 56.6096 58.3864 56.7939 58.3837 57.036C58.3672 57.5202 58.3754 57.9989 58.3754 58.6536Z" fill="#787878"/>
<path d="M37.9683 25.011C35.6538 25.011 33.3365 25.011 31.022 25.011C30.7142 25.011 30.3843 25.0935 30.3678 24.5708C30.3513 24.0316 30.6565 24.0508 31.0248 24.0508C35.7088 24.0563 40.3928 24.0536 45.0795 24.0536C45.3874 24.0536 45.7172 23.971 45.7337 24.4938C45.7502 25.033 45.4451 25.0137 45.0767 25.0137C42.7073 25.0082 40.3378 25.011 37.9683 25.011Z" fill="#787878"/>
<path d="M82.1601 24.0536C84.5021 24.0536 86.8441 24.0564 89.1861 24.0509C89.5572 24.0509 89.8596 24.0316 89.8431 24.5708C89.8266 25.0935 89.4967 25.011 89.1888 25.011C84.5049 25.0137 79.8209 25.011 75.1342 25.0165C74.7631 25.0165 74.4607 25.0357 74.4772 24.4965C74.4937 23.9738 74.8236 24.0564 75.1314 24.0564C77.4762 24.0509 79.8181 24.0536 82.1601 24.0536Z" fill="#787878"/>
<path d="M60.4139 24.5019C60.4057 26.7578 59.2622 27.8692 57.481 27.5776C56.7498 27.4565 56.1863 27.0797 55.8894 26.3974C55.4001 25.2695 55.3974 24.114 55.9059 22.9998C56.31 22.1085 57.2033 21.7096 58.3111 21.8224C59.2677 21.9214 59.9741 22.5074 60.2353 23.473C60.3452 23.8774 60.3809 24.3038 60.4139 24.5019ZM56.5354 24.6972C56.5848 25.0631 56.6096 25.4345 56.692 25.7922C56.8487 26.4717 57.2885 26.8321 57.995 26.8321C58.6794 26.8321 59.0918 26.4524 59.2457 25.8279C59.4436 25.0219 59.4683 24.202 59.177 23.4042C58.9708 22.8458 58.5612 22.5789 57.9537 22.5899C57.349 22.6009 56.9614 22.898 56.747 23.4428C56.5903 23.8444 56.5573 24.2653 56.5354 24.6972Z" fill="#787878"/>
<path d="M69.2178 25.0212C68.2313 25.6897 67.2722 25.7557 66.5659 25.2413C65.9861 24.8149 65.7442 23.8767 65.9998 23.0652C66.2224 22.3554 66.7281 21.9593 67.4316 21.8437C68.2588 21.7089 69.0282 21.8602 69.6026 22.537C70.4985 23.5934 70.4188 25.9125 69.4624 26.9222C68.7672 27.6594 67.2172 27.852 66.3406 27.3293C66.1372 27.2083 66.0685 27.0872 66.1922 26.8919C66.2939 26.7378 66.2911 26.4352 66.6181 26.5535C66.816 26.6251 67.0166 26.7103 67.2227 26.7488C68.4566 26.9909 69.1931 26.3692 69.2178 25.0212ZM67.918 22.6525C67.2172 22.6718 66.7775 23.134 66.8078 23.8135C66.8352 24.427 67.3326 24.8479 67.9867 24.8094C68.649 24.7708 69.1244 24.3169 69.1272 23.7282C69.1272 23.0927 68.6105 22.6305 67.918 22.6525Z" fill="#787878"/>
<path d="M37.0983 79.0774C37.0983 81.1544 37.0983 83.2315 37.0983 85.3085C37.0983 85.6387 37.1999 85.9743 36.6173 85.9743C36.0265 85.9743 36.1419 85.6277 36.1419 85.303C36.1392 81.0939 36.1392 76.8876 36.1419 72.6785C36.1419 72.3483 36.0402 72.0127 36.6228 72.0127C37.2137 72.0127 37.0983 72.3593 37.0983 72.684C37.101 74.816 37.0983 76.9453 37.0983 79.0774Z" fill="#787878"/>
<path d="M51.2635 26.6752C52.1181 26.6752 52.7474 26.6835 53.3768 26.6725C53.7285 26.6642 53.9868 26.678 53.9813 27.1622C53.9759 27.6326 53.6955 27.5776 53.4042 27.5776C52.4479 27.5748 51.4916 27.5858 50.538 27.5693C50.3291 27.5666 50.0213 27.7179 49.9197 27.407C49.8262 27.1209 49.9142 26.8485 50.1422 26.612C50.7303 26.0012 51.2965 25.3685 51.8736 24.744C51.945 24.667 52.0329 24.6009 52.0934 24.5156C52.4259 24.0562 53.0113 23.5858 52.5221 22.9916C52.0302 22.3891 51.3761 22.7 50.7743 22.9586C50.5407 23.0603 50.3181 23.6216 49.9884 22.9998C49.719 22.4854 50.1175 22.4083 50.3868 22.2433C50.9969 21.8691 51.6647 21.7233 52.371 21.8444C53.5636 22.0507 54.0336 23.0328 53.4592 24.1002C53.0745 24.81 52.4699 25.341 51.9395 25.9352C51.7719 26.125 51.596 26.3121 51.2635 26.6752Z" fill="#787878"/>
<path d="M74.8505 36.6373C74.5922 37.1435 74.3394 37.6524 74.0673 38.1531C73.9492 38.3705 73.9327 38.7116 73.5727 38.6951C73.2319 38.6786 73.2072 38.343 73.0862 38.1256C72.8362 37.6717 72.6163 37.1985 72.2426 36.7556C72.2426 37.3498 72.2508 37.9413 72.2398 38.5355C72.2343 38.7749 72.358 39.1133 71.9018 39.094C71.4319 39.0747 71.627 38.7143 71.6215 38.4998C71.5995 37.6469 71.6023 36.7941 71.6188 35.9413C71.6215 35.746 71.4594 35.4241 71.8743 35.4048C72.1436 35.3911 72.3827 35.3856 72.5311 35.7019C72.8472 36.3705 73.1989 37.0225 73.5919 37.79C73.9656 37.0582 74.3037 36.4392 74.595 35.7982C74.7434 35.4736 74.944 35.3608 75.2765 35.4076C75.7189 35.4654 75.5348 35.812 75.5431 36.0348C75.565 36.8326 75.5678 37.6332 75.5431 38.4337C75.5348 38.6758 75.7354 39.1105 75.2298 39.083C74.7461 39.0555 74.9934 38.6346 74.9797 38.398C74.9412 37.8258 74.9687 37.248 74.9687 36.6731C74.9302 36.6593 74.889 36.6483 74.8505 36.6373Z" fill="#787878"/>
<path d="M62.8158 36.7653C62.8158 37.4008 62.8131 38.0363 62.8158 38.669C62.8158 38.8946 62.8158 39.0872 62.4971 39.0955C62.159 39.1037 62.1865 38.8946 62.1865 38.6773C62.1865 37.7447 62.181 36.8121 62.192 35.8795C62.1948 35.7006 62.0656 35.4173 62.4284 35.4035C62.6894 35.3953 62.945 35.3595 63.0961 35.6786C63.4122 36.3471 63.7639 37.0019 64.1624 37.7859C64.5334 37.0569 64.8714 36.4462 65.1627 35.8134C65.3056 35.5026 65.4842 35.3623 65.8305 35.398C66.2812 35.4448 66.1136 35.7832 66.1191 36.006C66.1383 36.8864 66.1273 37.7639 66.1246 38.6443C66.1246 38.8534 66.1575 39.0817 65.825 39.09C65.4705 39.0982 65.5447 38.8479 65.5447 38.6525C65.5392 37.9923 65.542 37.332 65.421 36.625C65.1325 37.2 64.8467 37.7777 64.5526 38.3499C64.2998 38.8424 64.0333 38.8506 63.7777 38.3527C63.5001 37.8162 63.2308 37.2743 62.9587 36.735C62.912 36.7461 62.8626 36.7571 62.8158 36.7653Z" fill="#787878"/>
<path d="M76.8897 37.1847C76.8897 37.1049 76.8842 37.0251 76.8897 36.9453C76.9336 36.4501 76.6616 35.6881 77.0023 35.512C77.5794 35.2149 78.3516 35.3195 79.0222 35.479C79.7339 35.6496 79.9538 36.2796 79.5113 36.8903C79.3327 37.1352 79.3657 37.1847 79.5581 37.3442C79.8961 37.6248 80.0005 37.9935 79.8356 38.4199C79.6707 38.8518 79.308 39.0279 78.9013 39.0636C78.3461 39.1132 77.7855 39.0774 77.2277 39.0967C76.9254 39.1077 76.8814 38.9481 76.8869 38.7032C76.8952 38.1971 76.8897 37.6909 76.8897 37.1847ZM78.2747 37.49C77.8955 37.5148 77.4832 37.3332 77.497 37.9797C77.508 38.4859 77.7278 38.5464 78.1208 38.5107C78.5468 38.4694 79.1651 38.6317 79.1953 38.0127C79.2255 37.4405 78.6429 37.5148 78.2747 37.49ZM78.2994 36.9041C78.511 36.8903 79.0469 37.0031 79.0469 36.4336C79.0469 35.9219 78.544 35.9935 78.1813 35.988C77.8515 35.9825 77.4887 35.8807 77.5025 36.4639C77.5107 36.9783 77.8103 36.9178 78.2994 36.9041Z" fill="#787878"/>
<path d="M63.7205 24.7198C63.7205 25.5176 63.7013 26.3126 63.7288 27.1104C63.7425 27.5204 63.5611 27.5836 63.2094 27.5891C62.8439 27.5946 62.7697 27.4488 62.7724 27.1214C62.7862 25.8725 62.7642 24.6262 62.7862 23.3773C62.7944 22.9426 62.7422 22.6427 62.2036 22.7115C61.882 22.7528 61.6485 22.7115 61.6485 22.2713C61.6457 21.8339 61.8711 21.8339 62.1981 21.8229C63.726 21.7789 63.7233 21.7707 63.7233 23.2837C63.7205 23.7624 63.7205 24.2411 63.7205 24.7198Z" fill="#787878"/>
<path d="M33.7764 39.1318C32.6854 39.1263 31.8143 38.2652 31.8445 37.2226C31.8747 36.1909 32.7129 35.4041 33.7792 35.4014C34.8922 35.4014 35.7688 36.2267 35.7578 37.2666C35.7496 38.3175 34.8784 39.1373 33.7764 39.1318ZM35.0845 37.2556C35.0845 36.5706 34.5129 36.0011 33.8122 35.9873C33.0812 35.9736 32.4573 36.5733 32.4738 37.2748C32.4876 37.9488 33.0784 38.5403 33.7572 38.5596C34.4662 38.5843 35.0845 37.9764 35.0845 37.2556Z" fill="#787878"/>
<path d="M88.2138 39.0222C87.6477 39.234 87.4223 38.9534 87.2052 38.571C87.0623 38.3206 87.0018 37.9685 86.5649 37.963C86.1032 37.9603 85.7075 37.93 85.8174 38.593C85.8531 38.8103 85.8944 39.0827 85.5096 39.0937C85.0974 39.1074 85.2018 38.8186 85.1991 38.604C85.1908 37.7017 85.2101 36.7993 85.1881 35.8997C85.1798 35.5393 85.254 35.3605 85.6608 35.3935C86.1609 35.4348 86.6748 35.3688 87.1667 35.454C88.1121 35.6164 88.6095 36.7085 87.9692 37.3853C87.4553 37.9272 87.6284 38.2354 87.9829 38.6563C88.0654 38.7553 88.1231 38.8764 88.2138 39.0222ZM85.8421 36.7113C85.6828 37.322 86.0015 37.4348 86.5264 37.3935C87.0183 37.355 87.568 37.366 87.5762 36.7058C87.5844 35.9878 86.9991 36.029 86.4852 35.9767C85.8916 35.919 85.7185 36.1693 85.8421 36.7113Z" fill="#787878"/>
<path d="M67.6172 37.1925C67.6172 35.3988 67.6172 35.3988 69.4282 35.4016C69.5876 35.4016 69.747 35.4043 69.9063 35.4016C70.0767 35.3988 70.2224 35.4181 70.2224 35.6464C70.2224 35.8748 70.1372 35.9903 69.8954 35.9848C69.4969 35.9766 69.0984 36.0013 68.6999 35.9793C68.3592 35.9628 68.23 36.0839 68.2383 36.4332C68.2465 36.7634 68.2657 37.0055 68.6999 36.9669C69.016 36.9367 69.3375 36.9642 69.6563 36.9614C69.8486 36.9614 70.0245 36.9559 70.03 37.2365C70.0328 37.5034 69.8871 37.5392 69.6783 37.5337C69.4392 37.5282 69.2001 37.5282 68.961 37.5337C68.6092 37.5392 68.2218 37.4044 68.23 38.0398C68.241 38.7056 68.6807 38.48 68.9995 38.5048C69.343 38.5295 69.6892 38.513 70.0355 38.5158C70.2251 38.5185 70.3158 38.6121 70.3241 38.8101C70.3323 39.022 70.2224 39.0907 70.0383 39.0907C69.321 39.0907 68.6037 39.088 67.8865 39.0935C67.6034 39.0962 67.6199 38.9009 67.6199 38.7111C67.6172 38.2049 67.6172 37.6987 67.6172 37.1925Z" fill="#787878"/>
<path d="M81.2031 37.2147C81.2031 35.4017 81.2031 35.4017 82.9921 35.4045C83.1515 35.4045 83.3109 35.4045 83.4703 35.4045C83.6325 35.4045 83.8001 35.3962 83.8056 35.6301C83.8111 35.8419 83.7561 35.996 83.4978 35.9877C83.2862 35.9795 83.0554 35.9382 82.863 35.9987C82.5002 36.1143 81.816 35.5888 81.8269 36.4967C81.8379 37.3467 82.481 36.8295 82.8218 36.9561C82.9619 37.0084 83.1378 36.9699 83.2972 36.9644C83.4758 36.9588 83.5967 36.9974 83.6077 37.2174C83.6215 37.4678 83.506 37.5421 83.2779 37.5338C82.9592 37.5256 82.6376 37.5531 82.3216 37.5283C81.9424 37.4953 81.816 37.6329 81.816 38.0208C81.816 38.4059 81.9396 38.5462 82.3189 38.5159C82.6624 38.4912 83.0086 38.4994 83.3549 38.5159C83.5665 38.5269 83.8715 38.4087 83.8963 38.791C83.9238 39.2037 83.6022 39.0827 83.3961 39.0882C82.8108 39.1019 82.2254 39.0744 81.6428 39.0992C81.2966 39.1129 81.1701 39.0029 81.1894 38.6507C81.2224 38.1721 81.2031 37.6934 81.2031 37.2147Z" fill="#787878"/>
<path d="M61.1821 74.5881C61.6355 74.3845 62.001 74.2387 62.4132 74.2855C63.059 74.357 63.4465 74.6844 63.4685 75.3529C63.4877 75.9911 63.485 76.6321 63.4685 77.2703C63.463 77.4684 63.6196 77.7875 63.2047 77.7985C62.8199 77.8095 62.8831 77.5289 62.8804 77.2979C62.8749 76.7394 62.8667 76.1782 62.8804 75.6197C62.8914 75.152 62.7238 74.8192 62.2346 74.7834C61.7372 74.7476 61.3085 74.9402 61.248 75.4904C61.1793 76.0956 61.1986 76.7119 61.1848 77.3254C61.1793 77.573 61.1986 77.8206 60.8303 77.8013C60.4676 77.782 60.5912 77.5069 60.5885 77.3254C60.5775 76.0214 60.5802 74.7146 60.5857 73.4106C60.5857 73.2235 60.4868 72.9567 60.8468 72.9512C61.2205 72.9484 61.1793 73.2043 61.1793 73.4436C61.1793 73.7903 61.1821 74.1341 61.1821 74.5881Z" fill="#787878"/>
<path d="M52.1406 39.0157C52.6188 37.9373 53.0915 36.8699 53.5614 35.7998C53.6603 35.5714 53.7538 35.3899 54.0643 35.3926C54.3693 35.3954 54.4683 35.5522 54.57 35.7943C55.0261 36.8672 55.5016 37.9346 55.9742 39.0157C55.606 39.1423 55.301 39.1808 55.1745 38.7544C54.93 37.9236 54.2539 38.3692 53.7675 38.2812C53.3938 38.2152 53.0283 38.2344 52.9183 38.7434C52.8249 39.1863 52.5006 39.1368 52.1406 39.0157ZM54.0451 36.0996C53.7758 36.7461 53.5971 37.1725 53.4103 37.6237C53.8692 37.6237 54.2512 37.6237 54.6909 37.6237C54.4875 37.1423 54.3089 36.7186 54.0451 36.0996Z" fill="#787878"/>
<path d="M56.3827 76.4886C56.3827 76.7004 56.3855 76.915 56.3827 77.1268C56.3772 77.7128 56.3745 77.7211 55.8029 77.534C55.5666 77.457 55.5033 77.699 55.3385 77.7403C54.8136 77.8641 54.2749 77.9769 53.8407 77.5395C53.511 77.2066 53.4587 76.7829 53.6841 76.3648C53.9589 75.8531 54.481 75.8256 54.973 75.7045C55.245 75.6358 55.8551 76.0484 55.7534 75.3276C55.6682 74.7389 55.2093 74.7086 54.7036 74.8297C54.492 74.882 54.176 75.2148 54.0496 74.8049C53.9039 74.3428 54.3959 74.406 54.6212 74.3455C55.7479 74.0484 56.3443 74.5188 56.3827 75.6935C56.391 75.9576 56.3827 76.2217 56.3827 76.4886ZM55.3055 76.1722C54.481 76.2162 54.1568 76.4308 54.198 76.8737C54.2365 77.3194 54.5552 77.3359 54.8933 77.3277C55.4484 77.3167 55.7067 76.9783 55.7727 76.4803C55.8331 75.9989 55.4731 76.1777 55.3055 76.1722Z" fill="#787878"/>
<path d="M57.8315 83.4459C57.8315 83.1021 57.8287 82.7554 57.8315 82.4115C57.8342 81.8228 57.8315 81.8366 58.4058 81.9906C58.5048 82.0181 58.6477 81.8696 58.7741 81.8091C59.8293 81.3056 60.7032 81.8366 60.7307 83.0058C60.7445 83.589 60.728 84.175 60.7362 84.7582C60.739 84.9975 60.706 85.1736 60.3982 85.1571C60.1289 85.1434 60.1234 84.97 60.1234 84.7747C60.1234 84.1915 60.1151 83.6055 60.1261 83.0223C60.1344 82.5326 59.9805 82.1777 59.4309 82.1585C58.9225 82.1419 58.568 82.3428 58.458 82.8875C58.3344 83.4927 58.4251 84.1035 58.3921 84.7114C58.3811 84.9068 58.4635 85.1544 58.1145 85.1571C57.7683 85.1599 57.8342 84.9178 57.8315 84.7169C57.8287 84.2933 57.8315 83.8696 57.8315 83.4459Z" fill="#787878"/>
<path d="M47.9234 85.1936C46.7499 85.1881 46.1179 84.8249 45.8293 83.9914C45.4721 82.9542 45.4995 81.9391 46.291 81.0863C46.8351 80.503 47.9838 80.3325 48.7533 80.6461C48.9347 80.7204 49.1133 80.7479 49.0034 81.0202C48.8852 81.3146 48.6956 81.2046 48.4867 81.1633C46.8544 80.8552 45.9447 81.829 46.335 83.4604C46.5685 84.4343 47.1951 84.7947 48.3356 84.6544C48.5142 84.6324 48.8083 84.2912 48.9099 84.7232C48.9979 85.1111 48.6818 85.1331 48.407 85.1551C48.1954 85.1743 47.9838 85.1908 47.9234 85.1936Z" fill="#787878"/>
<path d="M47.9729 77.8282C46.8819 77.8529 46.2086 77.5366 45.8486 76.6892C45.4171 75.6741 45.6012 74.3481 46.2993 73.7126C47.022 73.0551 47.8739 73.0276 48.7643 73.289C48.91 73.333 49.1106 73.3467 49.0281 73.5778C48.9677 73.7456 48.899 73.9492 48.6379 73.8392C48.5884 73.8199 48.5362 73.8061 48.4868 73.7924C47.7695 73.5861 47.0935 73.6191 46.6235 74.2711C46.1344 74.9533 46.1399 75.7209 46.4559 76.4747C46.7444 77.1652 47.3848 77.4128 48.3411 77.2835C48.5252 77.2587 48.822 76.9341 48.9127 77.366C48.9924 77.7567 48.6599 77.7622 48.3961 77.7897C48.1817 77.8172 47.9701 77.8282 47.9729 77.8282Z" fill="#787878"/>
<path d="M64.4142 76.0429C64.4252 74.9452 65.0078 74.2684 65.9339 74.2794C66.7858 74.2877 67.4014 75.036 67.308 75.886C67.2722 76.2079 67.1101 76.2024 66.8902 76.1997C66.4121 76.1969 65.9312 76.2217 65.453 76.1914C64.9776 76.1611 64.9638 76.417 65.1067 76.7251C65.4392 77.4404 66.0548 77.3799 66.6841 77.2616C66.8573 77.2286 67.0991 76.9755 67.1651 77.3661C67.2145 77.6522 66.9754 77.7127 66.7721 77.7733C65.42 78.1832 64.4005 77.4349 64.4142 76.0429ZM65.9147 75.787C66.0658 75.4404 66.6457 76.0814 66.6484 75.4156C66.6484 74.9837 66.3021 74.7609 65.8899 74.7746C65.4502 74.7884 65.06 75.0607 65.093 75.4926C65.126 75.9631 65.6124 75.5779 65.9147 75.787Z" fill="#787878"/>
<path d="M51.3269 81.6467C52.2778 81.6605 52.9208 82.4033 52.8961 83.4679C52.8713 84.5628 52.2558 85.2093 51.25 85.1956C50.2634 85.1818 49.7028 84.5243 49.711 83.3854C49.722 82.2657 50.3101 81.6329 51.3269 81.6467ZM52.2723 83.4349C52.2723 82.6178 51.9232 82.1612 51.2857 82.1529C50.6564 82.1446 50.3046 82.6041 50.3046 83.4294C50.3046 84.263 50.6399 84.6949 51.2857 84.6949C51.9342 84.6976 52.2723 84.263 52.2723 83.4349Z" fill="#787878"/>
<path d="M56.7112 83.4795C56.7112 83.7711 56.7497 84.071 56.7002 84.3571C56.6425 84.6845 57.0245 85.529 56.0407 84.9541C55.8758 84.8578 55.3949 85.2044 55.0074 85.2017C54.3176 85.1989 53.8669 84.9128 53.8175 84.1975C53.7708 83.4822 53.7845 82.7642 53.7735 82.0462C53.7708 81.8289 53.8532 81.6913 54.095 81.6858C54.3753 81.6775 54.3698 81.8756 54.3698 82.0654C54.3726 82.6239 54.3671 83.1824 54.3726 83.7436C54.3753 84.2278 54.4468 84.6569 55.0734 84.6955C55.7027 84.734 56.0352 84.4066 56.0902 83.8261C56.1424 83.2704 56.1011 82.7092 56.1149 82.1507C56.1204 81.9582 56.0352 81.6913 56.3815 81.6885C56.6837 81.6858 56.7112 81.8921 56.7085 82.1205C56.7085 82.5744 56.7112 83.0283 56.7112 83.4795Z" fill="#787878"/>
<path d="M51.2715 74.2765C52.2279 74.2655 52.8847 74.9808 52.8984 76.0454C52.9121 77.1348 52.3021 77.8226 51.3155 77.8336C50.3179 77.8446 49.7243 77.1926 49.7188 76.0784C49.7106 74.9505 50.2822 74.2875 51.2715 74.2765ZM50.3069 76.0729C50.3069 76.9065 50.6477 77.3412 51.299 77.3329C51.9393 77.3247 52.2801 76.879 52.2773 76.0564C52.2746 75.2449 51.9036 74.7662 51.2825 74.7662C50.6752 74.7662 50.3069 75.2641 50.3069 76.0729Z" fill="#787878"/>
<path d="M47.7971 39.132C46.9644 39.1347 46.2994 38.6698 46.03 37.8968C45.7552 37.1127 45.9778 36.3039 46.6017 35.8115C47.2392 35.3108 48.1461 35.253 48.8441 35.6877C48.9925 35.7812 49.2921 35.8142 49.1134 36.1333C48.943 36.436 48.7699 36.3479 48.5363 36.1994C48.0059 35.861 47.4591 35.9105 46.9836 36.3012C46.5879 36.6285 46.4258 37.0742 46.5824 37.5914C46.8297 38.4085 47.6597 38.7358 48.5253 38.3287C48.7562 38.2214 48.9403 38.0756 49.1079 38.3699C49.3113 38.7248 48.9375 38.7551 48.7836 38.8596C48.4978 39.0632 48.1543 39.1402 47.7971 39.132Z" fill="#787878"/>
<path d="M36.9291 37.2144C36.9291 35.3684 36.9291 35.3629 38.7868 35.4125C38.9984 35.418 39.3804 35.2171 39.3666 35.6931C39.3556 36.136 38.9956 35.9627 38.7675 35.9819C38.5037 36.0067 38.2372 36.0067 37.9733 35.9847C37.5034 35.9434 37.5749 36.2598 37.5529 36.5514C37.5281 36.8898 37.6408 37.0383 37.9953 37.0053C38.2591 36.9806 38.5257 36.9998 38.7895 37.0026C38.9956 37.0053 39.2347 36.9503 39.2127 37.2969C39.1935 37.6188 38.9736 37.5885 38.7593 37.5858C38.7318 37.5858 38.7071 37.5885 38.6796 37.5858C37.8717 37.4675 37.3385 37.6353 37.5501 38.6339C37.6023 38.8815 37.5611 39.1071 37.1984 39.0961C36.8466 39.0824 36.9318 38.8375 36.9291 38.6449C36.9236 38.169 36.9291 37.6903 36.9291 37.2144Z" fill="#787878"/>
<path d="M41.7348 35.4017C42.0261 35.4017 42.3174 35.4072 42.6087 35.4017C42.8065 35.3962 42.9027 35.476 42.8917 35.6795C42.8807 35.8584 42.823 35.9849 42.6169 35.9849C42.2981 35.9849 41.9794 36.0097 41.6633 35.9822C41.2346 35.9436 41.0615 36.0619 41.0587 36.5379C41.056 37.0413 41.3253 37.0138 41.6606 37.0028C41.9244 36.9918 42.191 37.0055 42.4548 37C42.6554 36.9945 42.7433 37.0826 42.7323 37.2834C42.7213 37.465 42.6581 37.5888 42.452 37.586C42.3723 37.586 42.2899 37.5998 42.2129 37.586C41.2951 37.41 40.8993 37.7538 41.0697 38.7002C41.1137 38.945 41.0258 39.0991 40.729 39.0964C40.4569 39.0936 40.4432 38.9368 40.4432 38.7387C40.4459 37.7566 40.4542 36.7772 40.4377 35.7951C40.4322 35.4705 40.5613 35.3797 40.8581 35.3989C41.1522 35.4154 41.4435 35.4017 41.7348 35.4017Z" fill="#787878"/>
<path d="M68.9554 77.842C68.8207 77.8228 68.5816 77.8063 68.3508 77.754C68.1529 77.71 68.021 77.5752 68.0622 77.3496C68.1227 77.014 68.3178 77.2231 68.4799 77.2423C68.9581 77.3028 69.6342 77.5972 69.8238 77.025C70.0436 76.3592 69.2549 76.3427 68.8372 76.1419C68.3398 75.9053 67.9523 75.6054 68.0842 75.0002C68.2079 74.4307 68.6861 74.3069 69.1862 74.2877C69.4473 74.2794 69.7166 74.3042 69.9694 74.362C70.1453 74.4032 70.4394 74.4032 70.3294 74.7416C70.247 74.9975 70.0491 74.9232 69.8705 74.8874C69.7935 74.8709 69.7221 74.8324 69.6424 74.8159C69.2659 74.7361 68.8207 74.6673 68.6833 75.1047C68.5432 75.5504 69.0213 75.5972 69.3126 75.7347C69.3593 75.7567 69.4088 75.7815 69.4583 75.8008C70.0161 76.0181 70.6125 76.2382 70.4778 77.0002C70.3404 77.787 69.6919 77.8255 68.9554 77.842Z" fill="#787878"/>
<path d="M59.0748 74.8329C58.6818 74.7724 58.3108 74.8384 58.0992 75.1988C57.7859 75.738 57.7832 76.3212 58.0552 76.8769C58.2613 77.2923 58.6488 77.3281 59.0748 77.3336C59.2864 77.3364 59.6491 76.9485 59.7096 77.4106C59.7728 77.8838 59.3029 77.8095 59.0116 77.8316C57.8958 77.9141 57.2555 77.2676 57.25 76.0819C57.2445 74.8879 57.9508 74.1864 59.072 74.2964C59.3249 74.3212 59.7508 74.2524 59.7068 74.6678C59.6711 75.0695 59.3221 74.8769 59.0748 74.8329Z" fill="#787878"/>
<path d="M61.6641 83.4789C61.6559 82.1391 62.4611 81.3991 63.651 81.6742C63.8296 81.7154 64.1292 81.6962 64.0852 82.0181C64.0412 82.3207 63.8131 82.2987 63.5933 82.2326C63.1041 82.0868 62.6589 82.1749 62.4144 82.6288C62.1368 83.1432 62.1478 83.7155 62.4199 84.2437C62.6754 84.7389 63.1399 84.7058 63.607 84.6591C63.7719 84.6426 64.0467 84.3867 64.0825 84.7966C64.1072 85.08 63.8901 85.1213 63.6647 85.168C62.4336 85.4211 61.6724 84.7829 61.6641 83.4789Z" fill="#787878"/>
<path d="M57.5354 36.9917C57.5354 37.1237 57.5354 37.2585 57.5354 37.3906C57.5354 38.4607 57.5354 38.4552 58.5934 38.513C58.8078 38.524 59.1101 38.4112 59.1265 38.7991C59.143 39.2118 58.8215 39.077 58.6181 39.088C56.9088 39.1733 56.9088 39.1705 56.9088 37.4429C56.9088 36.9119 56.9033 36.3782 56.9116 35.8472C56.9143 35.6519 56.8374 35.4098 57.1891 35.4016C57.5629 35.3933 57.5409 35.6272 57.5381 35.8748C57.5326 36.2462 57.5354 36.6175 57.5354 36.9917Z" fill="#787878"/>
<path d="M66.6654 82.7332C66.6654 82.0702 66.6654 81.4072 66.6654 80.7469C66.6654 80.5351 66.627 80.3012 66.9567 80.3067C67.27 80.3122 67.2618 80.5268 67.2618 80.7469C67.259 82.0729 67.2618 83.3962 67.259 84.7222C67.259 84.934 67.281 85.1596 66.9567 85.1623C66.6215 85.1651 66.6682 84.9258 66.6682 84.7222C66.6627 84.0592 66.6654 83.3962 66.6654 82.7332Z" fill="#787878"/>
<path d="M50.9801 37.3079C50.9801 37.7316 50.9883 38.1553 50.9773 38.5789C50.9718 38.7963 51.068 39.0714 50.6805 39.0961C50.2738 39.1209 50.359 38.843 50.359 38.6202C50.3535 37.6931 50.3535 36.766 50.359 35.8389C50.359 35.6436 50.293 35.407 50.6393 35.4015C51.013 35.396 50.9828 35.6353 50.9828 35.8774C50.9801 36.3533 50.9801 36.8293 50.9801 37.3079Z" fill="#787878"/>
<path d="M44.7554 37.267C44.7554 37.6906 44.7636 38.1143 44.7526 38.5379C44.7471 38.7773 44.8625 39.1019 44.4146 39.0909C44.0024 39.0826 44.1398 38.7773 44.137 38.5765C44.1233 37.6769 44.1288 36.7773 44.1343 35.8749C44.1343 35.6548 44.0518 35.3742 44.4558 35.399C44.846 35.421 44.7499 35.6989 44.7554 35.9162C44.7608 36.3674 44.7554 36.8185 44.7554 37.267Z" fill="#787878"/>
<path d="M65.5389 83.526C65.5389 83.9497 65.5389 84.3733 65.5389 84.797C65.5389 84.9978 65.5169 85.1629 65.2503 85.1629C64.992 85.1629 64.9453 85.0116 64.9453 84.8052C64.9453 83.8781 64.9453 82.951 64.9481 82.0239C64.9481 81.8038 65.0497 81.6718 65.2833 81.6855C65.4894 81.6993 65.5362 81.8451 65.5362 82.0184C65.5389 82.5191 65.5389 83.0226 65.5389 83.526Z" fill="#787878"/>
</svg>
