<svg width="117" height="121" viewBox="0 0 117 121" fill="none" xmlns="http://www.w3.org/2000/svg">
<path d="M0.468456 107.262C0.468456 94.091 0.468456 80.9173 0.468456 67.7463C0.723974 67.7356 0.943719 67.8375 1.15069 67.9849C1.95812 68.564 2.77067 69.1377 3.58066 69.7114C3.32004 69.8347 3.42991 70.0813 3.42991 70.2717C3.4248 81.4213 3.42735 92.5709 3.41458 103.721C3.41458 104.182 3.53211 104.313 3.97672 104.31C7.38277 104.292 10.7914 104.292 14.1974 104.31C14.6139 104.313 14.7264 104.195 14.7264 103.755C14.7085 95.0668 14.7085 86.3809 14.7034 77.6923C14.8337 77.7861 14.9512 77.9014 15.0943 77.9684C15.2451 78.0408 15.3626 78.2928 15.5593 78.148C15.6999 78.0461 15.6309 77.8424 15.6386 77.6815C15.6462 77.5153 15.6411 77.3491 15.6411 77.1856C15.6411 68.1243 15.6232 59.0604 15.6667 49.9991C15.6718 49.0126 15.4239 48.3853 14.5628 48.0341C14.8694 47.8035 14.711 47.4657 14.711 47.1869C14.7212 36.3375 14.7187 25.4882 14.7187 14.6388C14.7187 13.612 14.7187 13.612 15.6718 13.612C43.352 13.612 71.0297 13.6093 98.71 13.6254C99.3002 13.6254 99.5123 13.5101 99.5021 12.8292C99.4612 10.0572 99.4893 7.28522 99.4816 4.51591C99.4791 3.3685 99.6298 3.52399 98.5669 3.52399C75.9689 3.52131 53.3683 3.52131 30.7703 3.52131C21.8987 3.52131 13.0246 3.52667 4.15302 3.51059C3.63688 3.51059 3.41458 3.57493 3.41458 4.21833C3.43757 16.1561 3.43246 28.0966 3.43502 40.0344C2.78856 39.5733 2.14721 39.1015 1.48797 38.6565C1.17624 38.4474 0.902836 38.123 0.471011 38.182C0.471011 25.8447 0.476122 13.5075 0.453125 1.17021C0.453125 0.556298 0.614101 0.5 1.13025 0.5C34.8688 0.513404 68.61 0.513404 102.349 0.513404C102.351 4.65263 102.354 8.79186 102.354 12.9338C102.354 13.2984 102.308 13.6281 102.844 13.6254C107.421 13.6013 111.997 13.6013 116.573 13.5932C116.573 49.0099 116.571 84.4292 116.586 119.846C116.586 120.379 116.471 120.5 115.963 120.5C82.2061 120.487 48.4496 120.487 14.6931 120.487C14.7008 116.422 14.7085 112.356 14.7161 108.291C14.7187 107.291 14.7161 107.294 13.7809 107.291C9.34259 107.278 4.9068 107.27 0.468456 107.262ZM58.5093 48.723C71.8959 48.723 85.2825 48.7177 98.6691 48.7365C99.29 48.7365 99.5021 48.6265 99.4995 47.9081C99.474 37.7477 99.474 27.5873 99.4995 17.4269C99.5021 16.7406 99.29 16.628 98.7023 16.628C71.9291 16.6414 45.156 16.6414 18.3854 16.628C17.7951 16.628 17.5856 16.7432 17.5882 17.4295C17.6111 27.5899 17.6137 37.7503 17.5856 47.9134C17.583 48.6373 17.8002 48.7418 18.4211 48.7418C31.7822 48.7177 45.1457 48.723 58.5093 48.723ZM58.5196 78.2633C45.11 78.2633 31.7004 78.2686 18.2883 78.2499C17.721 78.2499 17.5856 78.4 17.5856 78.9898C17.606 87.1851 17.606 95.3805 17.5856 103.576C17.583 104.174 17.744 104.313 18.2985 104.31C45.1406 104.297 71.9853 104.297 98.8275 104.313C99.4126 104.313 99.5148 104.133 99.5123 103.565C99.4944 95.3939 99.4918 87.22 99.5148 79.0488C99.5174 78.4027 99.3615 78.2445 98.7483 78.2445C85.3413 78.2686 71.9291 78.2633 58.5196 78.2633ZM65.6076 117.473C81.3858 117.473 97.1666 117.473 112.945 117.479C113.407 117.479 113.724 117.516 113.722 116.811C113.699 104.163 113.701 91.5174 113.717 78.8691C113.717 78.3571 113.568 78.2499 113.108 78.2526C109.769 78.2713 106.427 78.282 103.087 78.2472C102.476 78.2418 102.354 78.4134 102.356 79.03C102.377 88.0779 102.369 97.1257 102.369 106.174C102.369 107.329 102.369 107.329 101.275 107.329C73.6437 107.329 46.0145 107.332 18.3828 107.316C17.7926 107.316 17.5754 107.431 17.583 108.117C17.6239 110.959 17.6239 113.801 17.583 116.642C17.5728 117.337 17.7568 117.492 18.4033 117.489C34.138 117.468 49.8728 117.473 65.6076 117.473ZM113.665 32.713C113.665 27.5765 113.658 22.4374 113.676 17.3009C113.678 16.7674 113.543 16.6226 113.034 16.628C109.695 16.6521 106.355 16.6548 103.015 16.6253C102.458 16.6199 102.356 16.8183 102.359 17.3518C102.372 27.5792 102.374 37.8066 102.356 48.0341C102.356 48.5997 102.502 48.7391 103.031 48.7365C106.347 48.7123 109.664 48.7096 112.981 48.7391C113.553 48.7445 113.681 48.5676 113.678 47.9858C113.655 42.8922 113.665 37.804 113.665 32.713ZM49.6352 62.5643C49.6837 62.583 49.7323 62.6045 49.7783 62.6232C49.7783 63.9234 49.7936 65.2236 49.7706 66.5239C49.763 66.993 49.9674 67.0707 50.343 67.0654C50.7186 67.06 50.992 67.0493 50.9843 66.5158C50.9613 64.6231 50.9767 62.7278 50.9741 60.8324C50.9741 60.6019 51.0175 60.3043 50.7084 60.2641C50.2178 60.2024 49.7297 60.13 49.4052 60.7171C48.9887 61.4731 48.4956 62.1862 48.0663 62.9369C47.821 63.3685 47.6677 63.331 47.4326 62.9288C46.9753 62.1407 46.4693 61.3847 46.0145 60.5938C45.7002 60.0469 45.2198 60.2212 44.8034 60.2694C44.3792 60.3177 44.5223 60.744 44.5197 61.0228C44.5095 62.7975 44.5274 64.5749 44.507 66.3496C44.5018 66.8375 44.5811 67.0734 45.1279 67.0761C45.6823 67.0788 45.7488 66.8241 45.7411 66.3442C45.7181 65.1057 45.7334 63.8645 45.7334 62.6232C46.3978 63.398 46.9523 64.1915 47.4429 65.0306C47.7111 65.4891 47.8415 65.4033 48.074 65.0253C48.5825 64.1969 49.1139 63.3819 49.6352 62.5643ZM61.0211 62.4383C61.2153 62.6795 61.2868 62.7653 61.3532 62.8538C62.2757 64.1057 63.216 65.347 64.1103 66.6204C64.422 67.0627 64.8078 67.1351 65.2346 67.0279C65.6843 66.9153 65.4799 66.481 65.4824 66.1914C65.5029 64.4408 65.4799 62.6902 65.5003 60.9397C65.5054 60.4598 65.4415 60.2105 64.8871 60.2105C64.3326 60.2105 64.238 60.4625 64.2789 60.9423C64.3045 61.2238 64.284 61.5107 64.284 61.7922C64.284 62.7412 64.284 63.6902 64.284 64.8028C64.1026 64.5802 64.0413 64.5132 63.9902 64.4408C63.055 63.1674 62.107 61.9048 61.1923 60.6153C60.8729 60.1649 60.4564 60.1622 60.045 60.2587C59.6387 60.3552 59.8252 60.7734 59.8227 61.0469C59.8074 62.8216 59.8304 64.5963 59.8048 66.3684C59.7971 66.8885 59.93 67.0681 60.4462 67.0654C60.9597 67.0627 61.0364 66.8322 61.0287 66.3791C61.0057 65.1379 61.0211 63.8859 61.0211 62.4383ZM76.043 63.6098C76.043 64.5802 76.0532 65.5507 76.0379 66.5185C76.0302 66.9099 76.1605 67.0654 76.5438 67.06C77.829 67.0439 79.1143 67.0439 80.3996 67.06C80.7675 67.0654 80.9336 66.9474 80.9259 66.5373C80.9183 66.1459 80.8416 65.9046 80.4021 65.9153C79.6126 65.9341 78.823 65.9207 78.036 65.9207C77.1647 65.9207 77.1647 65.9207 77.1698 64.9877C77.1698 64.8939 77.18 64.7974 77.1698 64.7036C77.1238 64.2853 77.3257 64.1781 77.6885 64.1888C78.4321 64.2076 79.1756 64.1781 79.9192 64.1996C80.3025 64.2103 80.4328 64.0628 80.4277 63.6661C80.4225 63.28 80.374 63.0361 79.9192 63.0548C79.1756 63.0843 78.4295 63.0307 77.6885 63.0709C77.0344 63.1058 77.1749 62.642 77.1724 62.2667C77.1698 61.8833 77.0472 61.4329 77.6936 61.4597C78.5726 61.4973 79.4516 61.449 80.3306 61.4758C80.7905 61.4892 80.8339 61.2346 80.8339 60.8539C80.8314 60.4786 80.8007 60.2212 80.3357 60.2292C79.0734 60.2534 77.8111 60.248 76.5489 60.2319C76.1682 60.2266 76.0327 60.3767 76.0404 60.7734C76.0557 61.7171 76.043 62.6634 76.043 63.6098ZM35.6839 63.6098C35.6839 64.532 35.7018 65.4569 35.6763 66.3791C35.6635 66.8482 35.7759 67.0654 36.2742 67.052C37.5134 67.0225 38.7552 67.0305 39.9971 67.0493C40.388 67.0547 40.5771 66.9421 40.5643 66.4917C40.5515 66.0628 40.3855 65.8992 39.9894 65.9073C39.2688 65.9207 38.5457 65.9099 37.8226 65.9099C36.7469 65.9099 36.7673 65.9099 36.7724 64.792C36.775 64.3256 36.9232 64.1674 37.3627 64.1862C38.0832 64.2156 38.8064 64.1781 39.5295 64.1996C39.9127 64.2103 40.0431 64.0548 40.0431 63.658C40.0431 63.2586 39.9587 63.0388 39.5192 63.0548C38.7987 63.0816 38.073 63.028 37.355 63.0709C36.7545 63.1085 36.7724 62.7331 36.7826 62.3069C36.7929 61.8833 36.6907 61.4356 37.3601 61.4731C38.1931 61.5187 39.0287 61.4651 39.8642 61.4919C40.3037 61.5053 40.4672 61.3471 40.4544 60.8807C40.4417 60.4705 40.3982 60.2105 39.9102 60.2212C38.6709 60.248 37.4291 60.24 36.1873 60.2239C35.8015 60.2185 35.6763 60.3874 35.6814 60.7761C35.6941 61.7171 35.6839 62.6634 35.6839 63.6098ZM34.0614 63.6929C34.0614 62.7921 34.0512 61.894 34.0665 60.9933C34.0742 60.5456 34.0409 60.2105 33.4711 60.2105C32.9294 60.2078 32.8247 60.4812 32.8451 60.9611C32.8681 61.4812 32.8349 62.004 32.8553 62.524C32.8707 62.9235 32.7199 63.0736 32.3418 63.0629C31.6876 63.0441 31.0335 63.0441 30.3794 63.0629C30.0063 63.0736 29.8453 62.9315 29.8607 62.5294C29.8811 61.9611 29.8479 61.3927 29.8683 60.8244C29.8862 60.3445 29.6614 60.2105 29.2474 60.2158C28.8718 60.2212 28.647 60.3231 28.6495 60.7761C28.6597 62.6956 28.6623 64.6124 28.647 66.5319C28.6419 67.0252 28.8999 67.052 29.2525 67.0493C29.5898 67.0439 29.8888 67.0547 29.8683 66.548C29.8453 65.9341 29.876 65.3175 29.8607 64.7009C29.853 64.3363 29.9935 64.1915 30.341 64.1996C31.0182 64.2157 31.6953 64.2183 32.3724 64.1969C32.7812 64.1835 32.8656 64.3979 32.8579 64.7652C32.8426 65.3336 32.8783 65.9046 32.8477 66.4702C32.8196 66.9742 33.0572 67.052 33.4635 67.0547C33.8749 67.0574 34.0895 66.9635 34.0742 66.4649C34.0409 65.5427 34.0614 64.6178 34.0614 63.6929ZM58.0698 67.0413C58.7291 67.1699 58.7393 66.8804 58.517 66.3576C57.707 64.4596 56.9098 62.5535 56.1279 60.6448C55.9874 60.3016 55.7855 60.1944 55.4533 60.2132C55.1365 60.2292 54.8452 60.1837 54.6766 60.5938C53.8615 62.5937 53.0208 64.5802 52.1955 66.5748C52.1367 66.7142 52.0115 66.867 52.2006 67.0118C52.4561 67.2075 53.307 67.0252 53.3683 66.7008C53.6008 65.4703 54.3929 65.3336 55.369 65.4703C55.5683 65.4971 55.7804 65.5078 55.9771 65.4676C56.7028 65.3175 57.0554 65.6848 57.2369 66.371C57.3467 66.8053 57.5256 67.1941 58.0698 67.0413ZM84.3243 67.1968C85.7552 67.2048 86.6393 66.5775 86.7645 65.54C86.9153 64.288 86.3684 63.5937 84.9299 63.205C84.5824 63.1111 84.2298 63.0173 83.8899 62.894C83.4811 62.7439 83.1361 62.4945 83.2511 61.9637C83.3508 61.5053 83.6983 61.3659 84.1224 61.3364C84.6718 61.2962 85.1471 61.4973 85.5891 61.7895C86.1053 62.13 86.1998 61.6394 86.3966 61.3686C86.6572 61.0094 86.3608 60.8753 86.1308 60.7252C85.3873 60.2426 84.5696 60.1166 83.7238 60.2346C82.8244 60.3579 82.0987 61.1005 82.0298 61.9101C81.9301 63.028 82.3338 63.6661 83.3993 64.0387C83.9334 64.2264 84.4827 64.3631 85.0142 64.5534C85.3898 64.6875 85.6172 64.9663 85.5636 65.4167C85.5073 65.8939 85.165 66.0091 84.7893 66.0574C84.0892 66.1459 83.4223 66.0118 82.8806 65.5319C82.4028 65.1084 82.2163 65.5024 81.9735 65.8C81.6209 66.237 82.0298 66.3603 82.2648 66.5346C82.9113 67.0118 83.6395 67.2155 84.3243 67.1968ZM69.9744 63.6768C69.9744 64.6473 69.9872 65.6177 69.9693 66.5882C69.9591 67.052 70.2223 67.0681 70.5391 67.0547C70.8457 67.0413 71.2009 67.1378 71.183 66.5962C71.1651 66.0038 71.1932 65.4113 71.1754 64.8215C71.1626 64.4489 71.3006 64.3202 71.6506 64.3282C72.3277 64.347 73.0049 64.339 73.682 64.3309C74.0448 64.3282 74.4485 64.4676 74.4511 63.784C74.4537 63.1406 74.1061 63.1942 73.7127 63.1969C73.0355 63.2023 72.3584 63.1808 71.6813 63.205C71.2954 63.2184 71.1447 63.0656 71.1779 62.6688C71.1958 62.4811 71.1983 62.2881 71.1779 62.1005C71.1191 61.6045 71.3133 61.4329 71.786 61.4544C72.619 61.4865 73.4571 61.4383 74.2901 61.4731C74.7654 61.4919 74.8574 61.2721 74.8472 60.8378C74.8395 60.4517 74.7909 60.2158 74.3361 60.2239C73.0509 60.248 71.763 60.2426 70.4778 60.2266C70.0996 60.2212 69.9591 60.3606 69.9668 60.7627C69.9872 61.7359 69.9744 62.7063 69.9744 63.6768ZM89.4832 64.2639C89.4832 65.0226 89.5088 65.7786 89.4755 66.5346C89.4526 67.0949 89.7771 67.0493 90.1297 67.0627C90.5053 67.0761 90.7148 66.9984 90.7046 66.5265C90.679 65.3684 90.6969 64.2076 90.6969 63.0468C90.6969 61.516 90.6969 61.4973 92.161 61.4785C92.6005 61.4731 92.7385 61.3337 92.7436 60.8673C92.7487 60.3633 92.5877 60.2185 92.1201 60.2266C90.7889 60.2534 89.4577 60.2507 88.1264 60.2292C87.6716 60.2212 87.4314 60.2855 87.4288 60.87C87.4263 61.4973 87.7457 61.4919 88.1571 61.4731C88.4279 61.4597 88.6988 61.4865 88.9696 61.4678C89.3427 61.441 89.4985 61.5884 89.4858 61.9959C89.4679 62.7466 89.4832 63.5052 89.4832 64.2639ZM24.9266 60.2239C24.2725 60.2239 23.6184 60.24 22.9668 60.2185C22.5273 60.2024 22.2514 60.2507 22.2514 60.8485C22.2514 61.4329 22.5043 61.5268 22.9566 61.4865C23.2019 61.4651 23.4548 61.5053 23.7001 61.4785C24.1728 61.4276 24.3287 61.6259 24.3185 62.1246C24.2929 63.5669 24.3236 65.0092 24.3006 66.4515C24.2929 66.9206 24.4514 67.0627 24.8883 67.0627C25.338 67.0627 25.5399 66.9474 25.5271 66.4274C25.4964 65.2692 25.5169 64.1111 25.5169 62.953C25.5169 61.5321 25.5169 61.5321 26.8967 61.4865C26.9427 61.4839 26.9861 61.4839 27.0321 61.4865C27.4665 61.5107 27.5508 61.2399 27.5533 60.8512C27.5559 60.4544 27.4435 60.2185 27.0193 60.2266C26.3243 60.2346 25.6267 60.2239 24.9266 60.2239ZM68.3366 63.6285C68.3366 62.6822 68.3187 61.7332 68.3442 60.7868C68.357 60.3365 68.1832 60.2051 67.7846 60.2292C67.4397 60.248 67.1152 60.1837 67.1203 60.7493C67.1433 62.6903 67.1407 64.6339 67.1228 66.5748C67.1177 67.0976 67.4218 67.0493 67.7463 67.06C68.1015 67.0707 68.3544 67.0359 68.3417 66.5426C68.3161 65.5722 68.334 64.6017 68.3366 63.6285Z" fill="#787878"/>
<path d="M0.46875 38.1795C0.89802 38.1178 1.17398 38.4449 1.48571 38.654C2.14495 39.099 2.78374 39.5708 3.43276 40.032C3.48642 40.0748 3.53752 40.1204 3.59373 40.1606C7.25019 42.7852 10.9067 45.4097 14.5631 48.0343C15.4242 48.3855 15.6721 49.0128 15.6669 49.9993C15.6261 59.0606 15.6414 68.1245 15.6414 77.1858C15.6414 77.352 15.6465 77.5182 15.6388 77.6817C15.6312 77.8426 15.7002 78.0463 15.5596 78.1482C15.3629 78.293 15.2453 78.041 15.0946 77.9686C14.9541 77.9016 14.834 77.7863 14.7036 77.6925C10.9961 75.0304 7.28852 72.371 3.58096 69.7089C2.77097 69.1325 1.95842 68.5615 1.15098 67.9824C0.941458 67.8323 0.724268 67.7331 0.46875 67.7438C0.46875 57.8891 0.46875 48.0343 0.46875 38.1795Z" fill="#787878"/>
<path d="M49.6271 62.5656C49.1058 63.386 48.5743 64.1983 48.0684 65.0267C47.8384 65.4046 47.7056 65.4904 47.4373 65.032C46.9492 64.1956 46.3948 63.3994 45.7279 62.6246C45.7279 63.8659 45.7125 65.1044 45.7355 66.3456C45.7432 66.8255 45.6767 67.0802 45.1223 67.0775C44.5755 67.0748 44.4963 66.8389 44.5014 66.351C44.5218 64.5763 44.5039 62.7989 44.5141 61.0242C44.5167 60.7453 44.3711 60.3191 44.7978 60.2708C45.2143 60.2226 45.6946 60.0483 46.0089 60.5952C46.4637 61.3834 46.9697 62.1421 47.427 62.9302C47.6621 63.335 47.8129 63.3699 48.0607 62.9383C48.49 62.1876 48.9831 61.4772 49.3996 60.7185C49.7242 60.1314 50.2122 60.2011 50.7028 60.2655C51.0094 60.3057 50.9685 60.6033 50.9685 60.8338C50.9711 62.7292 50.9557 64.6218 50.9787 66.5172C50.9839 67.0507 50.713 67.0614 50.3374 67.0668C49.9592 67.0721 49.7548 66.9944 49.765 66.5252C49.788 65.225 49.7727 63.9248 49.7727 62.6246C49.7241 62.6032 49.6756 62.5844 49.6271 62.5656Z" fill="white"/>
<path d="M61.0202 62.4388C61.0202 63.8865 61.0074 65.1358 61.0278 66.3877C61.0355 66.8408 60.9589 67.0713 60.4453 67.074C59.9291 67.0767 59.7962 66.8944 59.8039 66.377C59.8295 64.6023 59.8065 62.8302 59.8218 61.0555C59.8244 60.7821 59.6378 60.3639 60.0441 60.2674C60.4555 60.1682 60.872 60.1709 61.1914 60.6239C62.1061 61.9134 63.0541 63.1761 63.9893 64.4495C64.043 64.5219 64.1017 64.5889 64.2831 64.8114C64.2831 63.6988 64.2831 62.7498 64.2831 61.8008C64.2831 61.5166 64.3036 61.2325 64.278 60.951C64.2372 60.4711 64.3291 60.2191 64.8862 60.2191C65.4381 60.2191 65.5045 60.4684 65.4994 60.9483C65.479 62.6989 65.502 64.4495 65.4815 66.2001C65.479 66.4869 65.6834 66.9239 65.2337 67.0365C64.807 67.141 64.4211 67.0713 64.1094 66.629C63.2125 65.3556 62.2748 64.1144 61.3524 62.8624C61.2859 62.7659 61.2118 62.6828 61.0202 62.4388Z" fill="white"/>
<path d="M76.0392 63.61C76.0392 62.6636 76.052 61.7173 76.0341 60.771C76.0265 60.3742 76.1619 60.2241 76.5426 60.2294C77.8049 60.2455 79.0671 60.2509 80.3294 60.2267C80.7944 60.2187 80.8276 60.4761 80.8276 60.8514C80.8302 61.2321 80.7842 61.4867 80.3243 61.4733C79.4453 61.4465 78.5637 61.4948 77.6873 61.4573C77.0409 61.4304 77.1635 61.8808 77.1661 62.2642C77.1686 62.6395 77.0281 63.1033 77.6822 63.0684C78.4232 63.0282 79.1693 63.0818 79.9129 63.0523C80.3703 63.0336 80.4163 63.2775 80.4214 63.6636C80.4265 64.063 80.2962 64.2105 79.9129 64.1971C79.1693 64.1756 78.4258 64.2051 77.6822 64.1864C77.3168 64.1756 77.1175 64.2829 77.1635 64.7011C77.1737 64.7949 77.1635 64.8914 77.1635 64.9852C77.161 65.9182 77.161 65.9182 78.0297 65.9182C78.8193 65.9182 79.6088 65.9316 80.3958 65.9128C80.8353 65.9021 80.912 66.1434 80.9196 66.5348C80.9273 66.9449 80.7612 67.0629 80.3933 67.0575C79.108 67.0414 77.8227 67.0414 76.5375 67.0575C76.1542 67.0629 76.0239 66.9074 76.0316 66.516C76.052 65.5509 76.0392 64.5804 76.0392 63.61Z" fill="white"/>
<path d="M35.683 63.6108C35.683 62.6645 35.6933 61.7155 35.6779 60.7691C35.6703 60.3804 35.7955 60.2142 36.1839 60.2169C37.4257 60.2303 38.6649 60.241 39.9068 60.2142C40.3973 60.2035 40.4408 60.4635 40.451 60.8737C40.4638 61.3428 40.3003 61.4983 39.8608 61.4849C39.0278 61.4581 38.1897 61.5117 37.3567 61.4661C36.6898 61.4313 36.7894 61.8763 36.7792 62.2999C36.769 62.7261 36.7511 63.1015 37.3516 63.0639C38.0721 63.021 38.7952 63.072 39.5158 63.0478C39.9553 63.0318 40.0396 63.2516 40.0396 63.651C40.0396 64.0478 39.9093 64.2033 39.526 64.1926C38.8055 64.1738 38.0824 64.2086 37.3592 64.1792C36.9197 64.1604 36.7715 64.3186 36.769 64.785C36.7639 65.9029 36.7434 65.9003 37.8192 65.9029C38.5423 65.9029 39.2628 65.9137 39.986 65.9003C40.382 65.8922 40.5507 66.0584 40.5609 66.4847C40.5737 66.9378 40.3846 67.0477 39.9936 67.0423C38.7518 67.0262 37.5125 67.0155 36.2707 67.045C35.7725 67.0584 35.66 66.8412 35.6728 66.3721C35.7009 65.4579 35.683 64.5357 35.683 63.6108Z" fill="white"/>
<path d="M34.0602 63.6943C34.0602 64.6192 34.0398 65.5414 34.0679 66.4663C34.0832 66.965 33.8686 67.0561 33.4572 67.0561C33.0535 67.0534 32.8133 66.9757 32.8414 66.4717C32.872 65.906 32.8363 65.335 32.8516 64.7667C32.8618 64.3994 32.7775 64.1849 32.3661 64.1983C31.689 64.2198 31.0119 64.2144 30.3347 64.201C29.9872 64.193 29.8467 64.3378 29.8544 64.7023C29.8697 65.3189 29.839 65.9355 29.862 66.5494C29.8825 67.0561 29.5835 67.0454 29.2462 67.0508C28.8936 67.0561 28.6381 67.0266 28.6406 66.5334C28.6585 64.6139 28.6534 62.6971 28.6432 60.7776C28.6406 60.3245 28.8655 60.2253 29.2411 60.2173C29.6551 60.2093 29.8799 60.346 29.862 60.8258C29.8416 61.3942 29.8722 61.9625 29.8544 62.5309C29.8416 62.933 30 63.0751 30.3731 63.0643C31.0272 63.0456 31.6813 63.0456 32.3354 63.0643C32.7136 63.0751 32.8644 62.925 32.849 62.5255C32.8286 62.0054 32.8618 61.4827 32.8388 60.9626C32.8184 60.4827 32.9231 60.2093 33.4648 60.2119C34.0346 60.2146 34.0653 60.547 34.0602 60.9947C34.0525 61.8955 34.0602 62.7963 34.0602 63.6943Z" fill="white"/>
<path d="M58.0678 67.0431C57.5235 67.1959 57.3447 66.8045 57.2297 66.3729C57.0508 65.6866 56.6957 65.3166 55.97 65.4694C55.7758 65.5096 55.5612 65.4989 55.3619 65.4721C54.3858 65.3354 53.5962 65.4721 53.3612 66.7026C53.2998 67.027 52.4464 67.2093 52.1934 67.0136C52.0044 66.8688 52.1321 66.716 52.1883 66.5766C53.0162 64.5821 53.8543 62.5955 54.6694 60.5956C54.8355 60.1881 55.1293 60.2337 55.4462 60.2149C55.7809 60.1962 55.9802 60.3034 56.1207 60.6466C56.9026 62.558 57.6998 64.4614 58.5098 66.3595C58.7372 66.8849 58.727 67.1744 58.0678 67.0431ZM55.3568 61.7806C55.0144 62.6331 54.7614 63.2818 54.4905 63.9226C54.3551 64.2443 54.4573 64.3488 54.764 64.3435C55.275 64.3354 55.7886 64.3408 56.4044 64.3408C56.0543 63.4883 55.7426 62.7242 55.3568 61.7806Z" fill="white"/>
<path d="M84.3191 67.1976C83.6343 67.2163 82.9061 67.0126 82.2571 66.5327C82.022 66.3584 81.6131 66.2325 81.9658 65.7982C82.2059 65.5006 82.395 65.1065 82.8729 65.5301C83.4145 66.0099 84.0815 66.144 84.7816 66.0555C85.1572 66.0073 85.497 65.892 85.5558 65.4148C85.6094 64.9644 85.382 64.6856 85.0064 64.5516C84.4749 64.3612 83.9256 64.2245 83.3916 64.0368C82.326 63.6642 81.9223 63.0262 82.022 61.9082C82.0935 61.0986 82.8192 60.3587 83.7161 60.2327C84.5644 60.1148 85.382 60.2408 86.123 60.7233C86.353 60.8734 86.652 61.0075 86.3888 61.3667C86.192 61.6348 86.0975 62.1281 85.5813 61.7876C85.1393 61.4954 84.664 61.2943 84.1147 61.3345C83.6905 61.364 83.3456 61.5061 83.2433 61.9619C83.1258 62.4927 83.4708 62.742 83.8821 62.8921C84.222 63.0154 84.572 63.1093 84.9221 63.2031C86.3607 63.5945 86.91 64.2862 86.7567 65.5381C86.6341 66.5783 85.7525 67.2056 84.3191 67.1976Z" fill="white"/>
<path d="M69.9689 63.677C69.9689 62.7065 69.9817 61.7361 69.9612 60.7656C69.9536 60.3635 70.0941 60.2241 70.4723 60.2294C71.7575 60.2455 73.0453 60.2509 74.3306 60.2268C74.7854 60.2187 74.834 60.452 74.8416 60.8407C74.8493 61.275 74.7599 61.4948 74.2846 61.476C73.4516 61.4439 72.6135 61.4921 71.7805 61.4573C71.3053 61.4385 71.1136 61.6074 71.1724 62.1034C71.1954 62.291 71.1903 62.484 71.1724 62.6717C71.1366 63.0685 71.2899 63.2213 71.6758 63.2079C72.3529 63.1837 73.03 63.2079 73.7071 63.1998C74.1006 63.1971 74.4481 63.1435 74.4456 63.7869C74.443 64.4705 74.0393 64.3285 73.6765 64.3338C72.9993 64.3419 72.3222 64.3499 71.6451 64.3311C71.295 64.3204 71.1596 64.4518 71.1698 64.8244C71.1877 65.4169 71.1596 66.0093 71.1775 66.5991C71.1954 67.1407 70.8402 67.0441 70.5336 67.0575C70.2142 67.0709 69.9536 67.0549 69.9638 66.5911C69.9842 65.6206 69.9689 64.6475 69.9689 63.677Z" fill="white"/>
<path d="M89.4815 64.2649C89.4815 63.5063 89.4662 62.7503 89.4866 61.9916C89.4968 61.5841 89.3435 61.4366 88.9705 61.4635C88.7022 61.4822 88.4288 61.4581 88.1579 61.4688C87.7465 61.4876 87.4271 61.4929 87.4297 60.8656C87.4323 60.2812 87.6724 60.2169 88.1273 60.2249C89.4585 60.2464 90.7898 60.2517 92.121 60.2222C92.5886 60.2115 92.7496 60.3563 92.7445 60.8629C92.7394 61.3294 92.6014 61.4688 92.1619 61.4742C90.6978 61.4956 90.6978 61.5117 90.6978 63.0425C90.6978 64.2033 90.6799 65.3614 90.7054 66.5222C90.7157 66.994 90.5061 67.0745 90.1305 67.0584C89.7779 67.045 89.4508 67.0905 89.4764 66.5302C89.5071 65.7796 89.4815 65.0209 89.4815 64.2649Z" fill="white"/>
<path d="M24.9227 60.2244C25.6203 60.2244 26.3204 60.2351 27.018 60.2217C27.4421 60.2137 27.5545 60.4469 27.552 60.8464C27.5494 61.2324 27.4651 61.5032 27.0307 61.4817C26.9847 61.4791 26.9413 61.4817 26.8953 61.4817C25.5155 61.5273 25.5155 61.5273 25.5155 62.9482C25.5155 64.1063 25.4951 65.2644 25.5257 66.4225C25.5385 66.9426 25.3367 67.0579 24.8869 67.0579C24.45 67.0579 24.2916 66.9158 24.2993 66.4467C24.3222 65.0044 24.2916 63.5621 24.3171 62.1198C24.3248 61.6238 24.1715 61.4228 23.6988 61.4737C23.4535 61.5005 23.2031 61.4603 22.9552 61.4817C22.503 61.522 22.2526 61.4281 22.25 60.8437C22.25 60.2485 22.526 60.2003 22.9655 60.2137C23.617 60.2405 24.2711 60.2244 24.9227 60.2244Z" fill="white"/>
<path d="M68.331 63.6288C68.331 64.5993 68.3106 65.5724 68.3387 66.5402C68.3515 67.0335 68.0985 67.071 67.7433 67.0576C67.4188 67.0469 67.1148 67.0952 67.1199 66.5724C67.1378 64.6315 67.1403 62.6879 67.1173 60.7469C67.1097 60.1813 67.4342 60.2456 67.7817 60.2268C68.1777 60.2054 68.354 60.3341 68.3412 60.7845C68.3131 61.7335 68.331 62.6825 68.331 63.6288Z" fill="white"/>
<path d="M36.9988 38.4871C37.1879 37.4443 37.3795 36.3988 37.566 35.3532C37.6044 35.1468 37.5865 34.9189 37.8931 34.9243C38.1844 34.9297 38.2074 35.1495 38.2432 35.3532C38.4373 36.4148 38.6239 37.4791 38.9177 38.5327C39.0608 37.4872 39.2116 36.4443 39.3419 35.3988C39.3802 35.0825 39.4415 34.8197 39.8197 34.9109C40.2132 35.0047 39.9475 35.2916 39.9219 35.4712C39.7073 36.9671 39.4748 38.4603 39.2397 39.9509C39.2065 40.1546 39.3087 40.4495 38.9331 40.4602C38.5396 40.4736 38.5881 40.1573 38.5447 39.9267C38.3428 38.8437 38.1563 37.7606 37.8573 36.6722C37.6682 37.7365 37.4919 38.8035 37.2799 39.8624C37.2339 40.093 37.3284 40.4736 36.8838 40.4602C36.4443 40.4441 36.5542 40.0769 36.5133 39.8383C36.2833 38.4416 36.061 37.0422 35.8719 35.6374C35.8413 35.4095 35.5398 35.0181 36.0176 34.9162C36.5618 34.7983 36.4188 35.3318 36.4622 35.5838C36.6334 36.5542 36.7458 37.5354 36.8787 38.5139C36.9221 38.5032 36.9605 38.4952 36.9988 38.4871Z" fill="#787878"/>
<path d="M59.8881 26.3248C59.8652 26.8904 59.8754 27.4614 59.8089 28.0217C59.7144 28.8072 59.2238 29.2201 58.4649 29.2254C57.7009 29.2308 57.1822 28.834 57.1004 28.0512C56.9778 26.8743 56.9752 25.6894 57.103 24.5125C57.1822 23.7753 57.6856 23.3999 58.4394 23.3946C59.2238 23.3892 59.7246 23.7753 59.8064 24.5527C59.8677 25.1345 59.8192 25.7323 59.8192 26.3221C59.8422 26.3221 59.8652 26.3248 59.8881 26.3248ZM57.7801 26.306C57.7801 26.8234 57.7622 27.3435 57.7852 27.8582C57.8057 28.3086 58.0101 28.6383 58.4879 28.6222C58.9325 28.6061 59.1114 28.271 59.119 27.8555C59.1369 26.8207 59.1344 25.7832 59.1216 24.7484C59.1165 24.3248 58.9274 24.0085 58.4854 23.9924C58.0101 23.9763 57.798 24.29 57.7852 24.7511C57.7673 25.2712 57.7801 25.7886 57.7801 26.306Z" fill="#787878"/>
<path d="M26.2938 37.6402C26.2682 38.23 26.281 38.8251 26.2094 39.4096C26.1149 40.1897 25.6115 40.5972 24.8526 40.5945C24.0886 40.5918 23.5853 40.1951 23.5035 39.4042C23.3834 38.2514 23.386 37.088 23.5009 35.9352C23.5801 35.1497 24.0759 34.7637 24.8603 34.7637C25.6422 34.7637 26.1328 35.1551 26.2145 35.9406C26.2733 36.5009 26.2248 37.0719 26.2248 37.6375C26.2452 37.6402 26.2708 37.6402 26.2938 37.6402ZM25.5298 37.6965C25.5298 37.1791 25.54 36.6617 25.5272 36.1443C25.5144 35.6886 25.3202 35.3615 24.8399 35.3695C24.3978 35.3749 24.1959 35.6805 24.1883 36.1068C24.173 37.1416 24.1704 38.1791 24.1857 39.2139C24.1934 39.6616 24.3927 40.0047 24.8705 39.9967C25.356 39.9886 25.5093 39.6214 25.5246 39.1817C25.5425 38.6857 25.5298 38.1898 25.5298 37.6965Z" fill="#787878"/>
<path d="M81.0888 37.6747C81.0888 38.2403 81.1347 38.814 81.0785 39.3743C80.9993 40.1679 80.5087 40.5834 79.755 40.5968C78.9603 40.6102 78.4493 40.2 78.3649 39.3716C78.2525 38.243 78.2551 37.1036 78.3624 35.975C78.439 35.152 78.945 34.7525 79.7575 34.766C80.5343 34.7794 81.0044 35.1761 81.0811 35.975C81.1348 36.5353 81.0913 37.1063 81.0913 37.672C81.0913 37.6747 81.0888 37.6747 81.0888 37.6747ZM80.3963 37.6988H80.3989C80.3989 37.2055 80.404 36.7096 80.3963 36.2163C80.3886 35.7391 80.2328 35.3638 79.709 35.3691C79.226 35.3718 79.0523 35.723 79.0497 36.1734C79.0395 37.1841 79.0369 38.1974 79.0523 39.2108C79.0599 39.6585 79.2567 40.0016 79.7345 39.9963C80.22 39.9909 80.3784 39.6263 80.3912 39.184C80.4091 38.688 80.3963 38.1948 80.3963 37.6988Z" fill="#787878"/>
<path d="M48.9484 40.3933C48.4195 40.5676 48.1895 40.4041 48.095 39.8867C47.9954 39.3344 47.8037 38.7982 47.6657 38.254C47.6095 38.0288 47.5482 37.8787 47.2748 37.8894C46.9528 37.9055 46.9963 38.1227 46.9963 38.3291C46.9937 38.8974 46.9784 39.4631 47.0014 40.0314C47.0167 40.3826 46.8864 40.4604 46.5747 40.4657C46.2042 40.4738 46.2578 40.2405 46.2578 40.0073C46.2578 38.447 46.2681 36.8868 46.2502 35.3292C46.2451 34.978 46.3575 34.8708 46.6743 34.9056C46.8736 34.9271 47.0806 34.9083 47.2825 34.911C47.8574 34.9191 48.4578 34.9512 48.7083 35.608C48.9689 36.2916 49.0123 37.0128 48.44 37.5731C48.21 37.7983 48.2918 37.9859 48.3505 38.2031C48.5447 38.9269 48.7466 39.6507 48.9484 40.3933ZM46.9426 36.3935C47.1854 36.6696 46.6053 37.3291 47.3898 37.3265C47.9698 37.3238 48.164 36.9592 48.1614 36.4042C48.1614 35.8654 48.026 35.4793 47.4153 35.4713C46.6334 35.4606 47.1573 36.0986 46.9426 36.3935Z" fill="#787878"/>
<path d="M94.063 40.3863C93.5622 40.582 93.3092 40.4292 93.2095 39.8716C93.1099 39.3193 92.9131 38.7858 92.7803 38.2389C92.7215 37.9976 92.6372 37.877 92.3766 37.8931C92.0469 37.9119 92.1159 38.1478 92.1134 38.3488C92.1083 38.9172 92.1006 39.4828 92.1159 40.0512C92.1236 40.3434 92.0521 40.4694 91.7429 40.4694C91.4439 40.4694 91.3647 40.3702 91.3673 40.0673C91.38 38.4829 91.38 36.9012 91.3673 35.3168C91.3647 35.0246 91.4209 34.8745 91.7352 34.9066C91.9805 34.9308 92.2309 34.9066 92.4788 34.912C93.0332 34.9281 93.5979 34.9924 93.8305 35.6224C94.0758 36.2873 94.1217 36.9896 93.5928 37.5339C93.3577 37.7751 93.3986 37.9655 93.4702 38.2175C93.672 38.9386 93.8662 39.6651 94.063 40.3863ZM92.0546 36.3731C92.3152 36.6519 91.7071 37.3033 92.4864 37.3274C93.0435 37.3435 93.2811 37.0299 93.2785 36.357C93.276 35.794 93.0767 35.4562 92.4864 35.475C91.7557 35.4964 92.2795 36.0916 92.0546 36.3731Z" fill="#787878"/>
<path d="M57.5006 37.6861C57.5006 36.906 57.516 36.1232 57.493 35.343C57.4827 35.0079 57.5722 34.8658 57.9043 34.9061C58.1266 34.9329 58.354 34.9087 58.5815 34.9114C59.7722 34.9275 60.1989 35.3806 60.2117 36.6432C60.2168 37.3537 60.2244 38.0641 60.2091 38.7745C60.181 39.9782 59.7236 40.4474 58.5891 40.4581C57.5006 40.4661 57.5006 40.4661 57.5006 39.3241C57.5006 38.7745 57.5006 38.2303 57.5006 37.6861ZM58.2288 37.6378C58.2288 38.2035 58.2646 38.7745 58.2186 39.3348C58.1777 39.8442 58.3924 39.93 58.8012 39.8924C59.256 39.8522 59.4323 39.5546 59.4451 39.1391C59.4732 38.3375 59.4809 37.536 59.4783 36.7344C59.4783 36.4556 59.4655 36.1607 59.3812 35.898C59.2381 35.4449 58.8446 35.4503 58.4793 35.4771C58.0551 35.5066 58.2493 35.8658 58.2365 36.0776C58.211 36.5977 58.2288 37.1178 58.2288 37.6378Z" fill="#787878"/>
<path d="M20.2388 34.7619C20.9721 34.7538 21.3937 35.1023 21.547 35.8288C21.5956 36.0567 21.639 36.2417 21.3477 36.3194C21.0948 36.3891 20.9644 36.3221 20.9287 36.0379C20.8801 35.6385 20.6706 35.3811 20.2694 35.3704C20.0318 35.3624 19.8069 35.4589 19.7303 35.7136C19.623 36.0728 19.6715 36.4186 19.9449 36.6947C20.3001 37.0593 20.668 37.4078 21.0104 37.7858C21.4295 38.2523 21.6697 38.8046 21.5956 39.4641C21.5112 40.2093 20.9236 40.6785 20.2081 40.59C19.5642 40.5096 19.0072 39.8018 19.0353 39.1477C19.0481 38.8555 19.2525 38.9038 19.4032 38.8367C19.6179 38.7375 19.692 38.8448 19.7073 39.0512C19.7098 39.0995 19.715 39.145 19.7252 39.1933C19.8044 39.5498 19.9117 39.893 20.3078 39.9841C20.5249 40.0351 20.7115 39.9359 20.8213 39.7348C21.0232 39.3649 20.9823 38.9654 20.7447 38.6652C20.341 38.1585 19.858 37.7242 19.4364 37.2336C18.9842 36.7108 18.905 36.0969 19.1579 35.4508C19.347 34.9495 19.7558 34.7779 20.2388 34.7619Z" fill="#787878"/>
<path d="M97.1114 34.7637C97.8166 34.7771 98.2663 35.1846 98.3788 35.8897C98.4145 36.1068 98.4043 36.2516 98.1692 36.3186C97.924 36.3856 97.7783 36.34 97.7451 36.0478C97.6965 35.6484 97.4947 35.3883 97.091 35.3723C96.8533 35.3615 96.6259 35.4554 96.5467 35.7074C96.4241 36.0961 96.5033 36.4526 96.7971 36.7448C97.1395 37.088 97.4921 37.4231 97.8166 37.7823C98.2178 38.2274 98.458 38.7555 98.4146 39.3855C98.3609 40.1468 97.8141 40.6455 97.0961 40.5945C96.4139 40.5463 95.8287 39.8519 95.8466 39.1549C95.8543 38.8627 96.0536 38.9029 96.2043 38.8359C96.4087 38.7448 96.4854 38.8252 96.5186 39.0396C96.5467 39.2246 96.5876 39.415 96.6591 39.5839C96.7792 39.8653 96.9939 40.045 97.3031 39.9726C97.6097 39.9002 97.7221 39.6562 97.7374 39.3372C97.7553 38.8949 97.5458 38.5678 97.2673 38.2783C96.9147 37.911 96.5263 37.5786 96.2043 37.1845C95.7904 36.6778 95.7137 36.0746 95.9616 35.4554C96.1686 34.9272 96.6004 34.761 97.1114 34.7637Z" fill="#787878"/>
<path d="M41.5234 40.3911C41.8709 38.6915 42.2261 37.0133 42.5506 35.327C42.6094 35.0214 42.6835 34.882 43.0106 34.8954C43.3095 34.9088 43.3759 35.0455 43.427 35.3163C43.7311 36.8873 44.0582 38.4502 44.3648 40.0212C44.3929 40.1579 44.5948 40.4099 44.2549 40.4474C44.0173 40.4716 43.7362 40.5359 43.703 40.1365C43.6902 39.9729 43.657 39.8094 43.6417 39.6459C43.6008 39.2357 43.4935 38.9998 42.9952 39.0105C42.5149 39.0212 42.382 39.225 42.3385 39.6512C42.2951 40.1097 42.3079 40.6619 41.5234 40.3911ZM43.0336 36.3189C42.9952 36.327 42.9595 36.3377 42.9211 36.3458C42.8138 36.9489 42.709 37.5521 42.6017 38.158C42.5251 38.5923 42.8394 38.4475 43.0284 38.4609C43.2201 38.4743 43.4654 38.5306 43.3913 38.1634C43.2686 37.5495 43.1536 36.9329 43.0336 36.3189Z" fill="#787878"/>
<path d="M67.4557 38.8573C67.6908 37.6054 67.9054 36.5437 68.0868 35.4741C68.1711 34.9808 68.3577 34.7529 68.8687 34.9808C68.5161 36.6778 68.1558 38.3801 67.8083 40.0825C67.7598 40.3237 67.6857 40.4524 67.4199 40.4605C67.1235 40.4712 67.0418 40.3264 66.9855 40.0557C66.6738 38.5303 66.3391 37.0129 66.0401 35.4848C66.0095 35.3213 65.639 34.9942 66.1551 34.9031C66.5512 34.8334 66.6457 35.0639 66.7096 35.4097C66.8859 36.3856 67.0878 37.3534 67.2845 38.3238C67.3075 38.4364 67.3535 38.5437 67.4557 38.8573Z" fill="#787878"/>
<path d="M61.9752 26.2925C61.9752 25.5097 61.9726 24.7296 61.9777 23.9467C61.9803 23.7779 61.896 23.5285 62.1975 23.5393C62.7136 23.558 63.24 23.4508 63.7459 23.6009C64.3771 23.7859 64.6556 24.4159 64.5559 25.3462C64.4767 26.0727 64.073 26.5257 63.3448 26.5016C62.7749 26.4828 62.66 26.7027 62.7009 27.2254C62.7366 27.6973 62.6906 28.1745 62.7136 28.6463C62.7315 28.9841 62.6267 29.0913 62.2997 29.094C61.9394 29.0967 61.9726 28.8822 61.9726 28.6382C61.9777 27.8554 61.9752 27.0753 61.9752 26.2925ZM62.6574 25.0218C62.9002 25.3006 62.3201 25.944 63.1046 25.9601C63.7485 25.9735 63.8941 25.5821 63.8839 24.9976C63.8762 24.4481 63.7587 24.0862 63.1327 24.0915C62.3482 24.0996 62.8695 24.7242 62.6574 25.0218Z" fill="#787878"/>
<path d="M83.9806 34.9087C85.2939 34.9087 85.7155 35.3001 85.7053 36.4609C85.6977 37.3965 85.2888 37.879 84.3869 37.879C83.9244 37.879 83.8068 38.0292 83.835 38.4795C83.8682 38.9969 83.8298 39.5224 83.8477 40.0425C83.8579 40.332 83.789 40.4634 83.4772 40.4634C83.1732 40.4661 83.0991 40.3588 83.1016 40.0559C83.1144 38.4688 83.0914 36.8818 83.1144 35.2947C83.1297 34.4958 83.7634 35.1365 83.9806 34.9087ZM83.789 36.4046C84.0215 36.6914 83.467 37.3375 84.2566 37.3321C84.8545 37.3295 85.0231 36.9863 85.018 36.4207C85.0154 35.855 84.9234 35.4421 84.2489 35.4636C83.4645 35.4904 84.0266 36.1204 83.789 36.4046Z" fill="#787878"/>
<path d="M70.6465 37.6275C70.6465 36.8715 70.6568 36.1155 70.6414 35.3595C70.6338 35.0512 70.6746 34.8743 71.0324 34.9011C71.4795 34.9333 71.9318 34.9118 72.3815 34.9091C72.5553 34.9065 72.6779 34.9252 72.683 35.1665C72.6907 35.4239 72.5859 35.4641 72.3662 35.4855C71.3773 35.5847 71.408 35.5954 71.3671 36.59C71.3441 37.1503 71.4514 37.4425 72.0468 37.3353C72.1975 37.3085 72.4224 37.2468 72.4275 37.5659C72.4352 37.8956 72.2282 37.9036 72.0238 37.8688C71.4693 37.7723 71.2981 38.035 71.3748 38.5712C71.3901 38.6865 71.3927 38.8098 71.3748 38.9251C71.2623 39.6435 71.4412 40.051 72.2384 39.8982C72.4198 39.8634 72.7162 39.7668 72.7009 40.1877C72.6856 40.6086 72.3917 40.4451 72.2103 40.4505C70.644 40.4987 70.644 40.496 70.644 38.8366C70.6465 38.4318 70.6465 38.0297 70.6465 37.6275Z" fill="#787878"/>
<path d="M87.4431 37.641C87.4431 36.8609 87.4558 36.0808 87.438 35.3033C87.4303 34.995 87.5172 34.8878 87.8161 34.9039C88.2658 34.928 88.7155 34.92 89.1652 34.9066C89.3901 34.9012 89.4872 34.9682 89.4795 35.2229C89.4719 35.4642 89.3492 35.4749 89.1755 35.4803C88.8637 35.4883 88.4242 35.3864 88.2709 35.558C88.0205 35.8422 88.2249 36.3247 88.1713 36.7161C88.1023 37.2175 88.2914 37.3917 88.7615 37.3381C88.9174 37.3193 89.1934 37.1907 89.2215 37.5499C89.2496 37.9359 88.9787 37.9011 88.7666 37.8635C88.2045 37.767 88.1151 38.078 88.1713 38.5525C88.1866 38.6919 88.1917 38.8394 88.1713 38.9761C88.0589 39.6892 88.2939 40.0163 89.0196 39.8929C89.1959 39.8635 89.4949 39.7455 89.4974 40.1664C89.4974 40.59 89.2061 40.4398 89.0196 40.4452C87.4405 40.4988 87.4405 40.4935 87.4405 38.8421C87.4431 38.4453 87.4431 38.0432 87.4431 37.641Z" fill="#787878"/>
<path d="M62.248 37.6249C62.248 36.8689 62.2608 36.1129 62.2429 35.357C62.2352 35.0433 62.2838 34.8744 62.639 34.9012C63.0657 34.9334 63.4949 34.9066 63.9217 34.9093C64.0929 34.9093 64.2819 34.861 64.287 35.1693C64.2922 35.432 64.1823 35.4642 63.9676 35.4856C62.9814 35.5821 63.0146 35.5929 62.9711 36.5928C62.9456 37.1612 63.0631 37.44 63.6559 37.3327C63.8067 37.3059 64.029 37.2443 64.0341 37.566C64.0392 37.8984 63.8297 37.9011 63.6278 37.8662C63.0708 37.7697 62.9073 38.0378 62.9814 38.5713C62.9967 38.6866 62.9992 38.8099 62.9814 38.9252C62.8664 39.6463 63.0529 40.0484 63.845 39.8956C64.029 39.8608 64.3177 39.7723 64.3075 40.1878C64.2973 40.5524 64.0571 40.4425 63.8782 40.4532C62.248 40.5337 62.248 40.531 62.248 38.8313C62.248 38.4265 62.248 38.0271 62.248 37.6249Z" fill="#787878"/>
<path d="M50.865 37.6437C50.865 36.8636 50.8777 36.0834 50.8598 35.306C50.8522 34.9977 50.9365 34.8878 51.238 34.9039C51.6877 34.928 52.1374 34.9199 52.5871 34.9065C52.812 34.9012 52.9091 34.9655 52.904 35.2229C52.8963 35.4642 52.7737 35.4776 52.5999 35.4802C52.2882 35.4883 51.8487 35.3864 51.6954 35.558C51.445 35.8422 51.6494 36.3247 51.5957 36.7161C51.5267 37.2174 51.7133 37.3917 52.186 37.3381C52.3418 37.3193 52.6178 37.1879 52.6459 37.5499C52.674 37.9359 52.4057 37.8957 52.1911 37.8662C51.7235 37.8019 51.5216 37.9815 51.5957 38.4855C51.6187 38.6463 51.6213 38.8179 51.5957 38.9814C51.4833 39.6972 51.7209 40.0216 52.4441 39.8983C52.6204 39.8688 52.9193 39.7508 52.9219 40.1717C52.9244 40.5953 52.6306 40.4452 52.4441 40.4505C50.865 40.5042 50.865 40.4988 50.865 38.8501C50.865 38.4453 50.865 38.0431 50.865 37.6437Z" fill="#787878"/>
<path d="M28.2399 37.6491C28.2399 36.8689 28.2527 36.0861 28.2348 35.306C28.2272 34.9977 28.314 34.8878 28.613 34.9039C29.0627 34.928 29.515 34.9199 29.9673 34.9065C30.1972 34.8985 30.2841 34.9789 30.279 35.2282C30.2739 35.4749 30.1359 35.4695 29.9698 35.4802C29.6606 35.5017 29.262 35.3301 29.0602 35.558C28.8353 35.8073 29.0244 36.2389 28.9733 36.5874C28.8941 37.1504 29.0499 37.4426 29.6453 37.3327C29.8114 37.3005 30.0107 37.2791 30.0056 37.5901C30.0005 37.8742 29.8344 37.9011 29.6479 37.8689C29.0576 37.7643 28.9069 38.0458 28.9656 38.6168C29.0091 39.0377 28.981 39.4693 28.9707 39.8956C28.9656 40.153 29.0832 40.4613 28.6181 40.472C28.1658 40.48 28.2399 40.2039 28.2399 39.9278C28.2399 39.1664 28.2399 38.4077 28.2399 37.6491Z" fill="#787878"/>
<path d="M53.7902 26.5958C53.7902 25.9363 53.7698 25.2741 53.7979 24.6146C53.8158 24.2179 53.7008 24.0544 53.3099 24.0999C53.131 24.1214 52.8985 24.1911 52.8908 23.8318C52.8832 23.4753 53.1003 23.5396 53.292 23.5396C53.8771 23.5369 54.4623 23.545 55.0448 23.5343C55.2646 23.5316 55.3719 23.5906 55.3617 23.8479C55.354 24.0838 55.2288 24.1348 55.0576 24.1026C54.5159 23.9981 54.5082 24.3224 54.5134 24.7514C54.5338 26.0248 54.5236 27.2982 54.5185 28.5716C54.5185 28.8075 54.6181 29.0863 54.194 29.0943C53.7851 29.1024 53.7749 28.8906 53.7826 28.5743C53.7979 27.9175 53.7902 27.2553 53.7902 26.5958Z" fill="#787878"/>
<path d="M33.3907 38.0374C33.3907 38.6969 33.3855 39.359 33.3932 40.0185C33.3958 40.2705 33.4085 40.4636 33.0585 40.4662C32.7238 40.4662 32.6471 40.3429 32.6497 40.0158C32.665 38.6942 32.6471 37.3752 32.6624 36.0536C32.6675 35.6729 32.642 35.3994 32.1718 35.4718C31.993 35.4986 31.763 35.5576 31.7579 35.1984C31.7528 34.8365 31.9751 34.9142 32.1642 34.9115C32.7493 34.9062 33.3344 34.9115 33.917 34.9088C34.0806 34.9088 34.2236 34.9062 34.2288 35.1528C34.2339 35.3941 34.1547 35.5201 33.9221 35.4745C33.3753 35.3673 33.3677 35.7051 33.383 36.1259C33.4085 36.764 33.3907 37.402 33.3907 38.0374Z" fill="#787878"/>
<path d="M74.5762 37.6801C74.5762 36.8999 74.5813 36.1171 74.5736 35.337C74.5711 35.0743 74.5787 34.9027 74.916 34.8947C75.2737 34.8893 75.3172 35.0448 75.3146 35.3585C75.3018 36.6613 75.33 37.9642 75.2993 39.2644C75.2865 39.755 75.4117 39.9668 75.8921 39.8864C76.0454 39.8623 76.2064 39.8864 76.3648 39.881C76.5411 39.8757 76.6663 39.9105 76.6637 40.1464C76.6612 40.3448 76.6178 40.4547 76.4031 40.4521C75.8844 40.444 75.3657 40.4387 74.847 40.4547C74.5123 40.4628 74.5762 40.2242 74.5736 40.0231C74.5762 39.243 74.5762 38.4629 74.5762 37.6801Z" fill="#787878"/>
<path d="M54.654 86.3886C54.654 85.8712 54.6182 85.3485 54.6642 84.8337C54.7332 84.0268 55.1625 83.6247 55.8805 83.6032C56.6087 83.5845 57.0891 83.9491 57.1734 84.7453C57.2935 85.8686 57.296 87.0079 57.1708 88.1312C57.084 88.914 56.5806 89.2947 55.8651 89.2679C55.1778 89.2411 54.7179 88.7907 54.6591 88.0106C54.6208 87.4744 54.654 86.9302 54.654 86.3886ZM55.3413 86.3511C55.3439 86.8926 55.3209 87.4369 55.3515 87.9757C55.372 88.3189 55.5074 88.6325 55.906 88.654C56.3174 88.6754 56.4809 88.3537 56.4912 88.0186C56.5244 86.9597 56.5295 85.898 56.5014 84.8391C56.4937 84.5067 56.3353 84.1957 55.9162 84.2064C55.5049 84.2198 55.3745 84.5201 55.3515 84.8632C55.3158 85.3619 55.3413 85.8578 55.3413 86.3511Z" fill="#787878"/>
<path d="M50.7386 88.6136C51.2956 88.6136 51.6789 88.619 52.0622 88.6109C52.2768 88.6056 52.3918 88.6565 52.3918 88.9219C52.3918 89.2061 52.241 89.2141 52.0469 89.2114C51.5052 89.2061 50.966 89.2141 50.4243 89.2088C49.8213 89.2034 49.7242 89.0238 50.0538 88.4554C50.5112 87.67 50.989 86.9006 51.4643 86.1285C51.6891 85.7639 51.8476 85.3805 51.8143 84.9355C51.7888 84.595 51.7479 84.2492 51.3237 84.217C50.9328 84.1902 50.7616 84.4476 50.7028 84.8149C50.6849 84.9301 50.6671 85.0481 50.6543 85.1634C50.6108 85.5065 50.3579 85.3725 50.1816 85.3859C49.9669 85.402 49.9439 85.2545 49.9439 85.0615C49.9465 84.1527 50.4269 83.6058 51.2496 83.5978C52.0596 83.5897 52.4838 84.0669 52.5196 84.9864C52.5426 85.5896 52.2922 86.0802 51.9958 86.5601C51.5997 87.2062 51.2062 87.8523 50.7386 88.6136Z" fill="#787878"/>
<path d="M59.9339 88.6136C60.4909 88.6136 60.8742 88.619 61.2575 88.6109C61.4721 88.6056 61.5871 88.6565 61.5871 88.9219C61.5871 89.2061 61.4363 89.2141 61.2422 89.2114C60.7005 89.2061 60.1613 89.2141 59.6196 89.2088C59.0166 89.2034 58.9195 89.0238 59.2491 88.4554C59.7065 87.67 60.1843 86.9006 60.6596 86.1285C60.8844 85.7639 61.0428 85.3805 61.0096 84.9355C60.9841 84.595 60.9432 84.2492 60.519 84.217C60.1281 84.1902 59.9569 84.4476 59.8981 84.8149C59.8803 84.9301 59.8624 85.0481 59.8496 85.1634C59.8061 85.5065 59.5532 85.3725 59.3769 85.3859C59.1622 85.402 59.1393 85.2545 59.1393 85.0615C59.1418 84.1527 59.6222 83.6058 60.4449 83.5978C61.2549 83.5897 61.6791 84.0669 61.7148 84.9864C61.7378 85.5896 61.4874 86.0802 61.191 86.5601C60.7976 87.2062 60.4015 87.8523 59.9339 88.6136Z" fill="#787878"/>
<path d="M71.2069 86.3539C71.1941 87.1555 70.6447 87.7157 69.8756 87.7157C69.1269 87.7157 68.552 87.1179 68.5469 86.3351C68.5418 85.5389 69.1653 84.9062 69.9267 84.9304C70.6728 84.9518 71.2196 85.5604 71.2069 86.3539Z" fill="#787878"/>
<path d="M46.0139 87.6676C45.2551 87.6649 44.7006 87.0805 44.7031 86.287C44.7057 85.4988 45.2704 84.8929 46.0114 84.8849C46.7703 84.8742 47.3759 85.5203 47.358 86.3218C47.3426 87.1127 46.7831 87.6703 46.0139 87.6676Z" fill="#787878"/>
<path d="M65.1286 86.4638C65.1286 87.2439 65.1209 88.0213 65.1337 88.8015C65.1388 89.091 65.0749 89.2223 64.7632 89.2223C64.4412 89.2223 64.4029 89.0695 64.4029 88.7907C64.4131 87.587 64.4004 86.3833 64.4106 85.1796C64.4131 84.8231 64.4055 84.5604 63.9507 84.7292C63.8127 84.7802 63.5929 84.933 63.5214 84.6247C63.4652 84.3754 63.5878 84.2735 63.8101 84.169C65.1337 83.5443 65.1286 83.5363 65.1286 85.1206C65.1286 85.5683 65.1286 86.0161 65.1286 86.4638Z" fill="#787878"/>
<path d="M49.3966 97.0518C49.2521 97.2588 49.0499 97.4141 48.7902 97.5176C48.5324 97.6191 48.2316 97.6699 47.8878 97.6699C47.5402 97.6699 47.2316 97.5889 46.9621 97.4268C46.6925 97.2627 46.4835 97.0303 46.3351 96.7295C46.1886 96.4287 46.1134 96.0801 46.1095 95.6836V95.3115C46.1095 94.6689 46.2589 94.1709 46.5578 93.8174C46.8585 93.4639 47.2804 93.2871 47.8234 93.2871C48.2687 93.2871 48.6271 93.4014 48.8986 93.6299C49.1701 93.8564 49.3361 94.1787 49.3966 94.5967H48.8341C48.7287 94.0322 48.3927 93.75 47.8263 93.75C47.4494 93.75 47.1632 93.8828 46.9679 94.1484C46.7746 94.4121 46.6769 94.7949 46.6749 95.2969V95.6455C46.6749 96.124 46.7843 96.5049 47.0031 96.7881C47.2218 97.0693 47.5177 97.21 47.8908 97.21C48.1017 97.21 48.2863 97.1865 48.4445 97.1396C48.6027 97.0928 48.7335 97.0137 48.8371 96.9023V95.9443H47.8497V95.4873H49.3966V97.0518ZM51.4425 97.1514H53.464V97.6113H50.8771V93.3457H51.4425V97.1514ZM57.7335 95.6162C57.7335 96.0342 57.6631 96.3994 57.5225 96.7119C57.3819 97.0225 57.1827 97.2598 56.9249 97.4238C56.6671 97.5879 56.3663 97.6699 56.0225 97.6699C55.6866 97.6699 55.3887 97.5879 55.129 97.4238C54.8692 97.2578 54.6671 97.0225 54.5225 96.7178C54.3799 96.4111 54.3067 96.0566 54.3028 95.6543V95.3467C54.3028 94.9365 54.3741 94.5742 54.5167 94.2598C54.6592 93.9453 54.8604 93.7051 55.1202 93.5391C55.3819 93.3711 55.6807 93.2871 56.0167 93.2871C56.3585 93.2871 56.6592 93.3701 56.919 93.5361C57.1807 93.7002 57.3819 93.9395 57.5225 94.2539C57.6631 94.5664 57.7335 94.9307 57.7335 95.3467V95.6162ZM57.1739 95.3408C57.1739 94.835 57.0723 94.4473 56.8692 94.1777C56.6661 93.9062 56.3819 93.7705 56.0167 93.7705C55.6612 93.7705 55.3809 93.9062 55.1758 94.1777C54.9727 94.4473 54.8682 94.8223 54.8624 95.3027V95.6162C54.8624 96.1064 54.9649 96.4922 55.17 96.7734C55.377 97.0527 55.6612 97.1924 56.0225 97.1924C56.3858 97.1924 56.6671 97.0605 56.8663 96.7969C57.0655 96.5312 57.168 96.1514 57.1739 95.6572V95.3408ZM59.1172 97.6113V93.3457H60.5117C60.9746 93.3457 61.3223 93.4414 61.5547 93.6328C61.7891 93.8242 61.9063 94.1074 61.9063 94.4824C61.9063 94.6816 61.8496 94.8584 61.7363 95.0127C61.6231 95.165 61.4688 95.2832 61.2735 95.3672C61.5039 95.4316 61.6856 95.5547 61.8184 95.7363C61.9531 95.916 62.0205 96.1309 62.0205 96.3809C62.0205 96.7637 61.8965 97.0645 61.6485 97.2832C61.4004 97.502 61.0498 97.6113 60.5967 97.6113H59.1172ZM59.6797 95.6162V97.1514H60.6084C60.8701 97.1514 61.0762 97.084 61.2266 96.9492C61.3789 96.8125 61.4551 96.625 61.4551 96.3867C61.4551 95.873 61.1758 95.6162 60.6172 95.6162H59.6797ZM59.6797 95.165H60.5293C60.7754 95.165 60.9717 95.1035 61.1182 94.9805C61.2666 94.8574 61.3408 94.6904 61.3408 94.4795C61.3408 94.2451 61.2725 94.0752 61.1358 93.9697C60.999 93.8623 60.791 93.8086 60.5117 93.8086H59.6797V95.165ZM65.751 96.498H63.9638L63.5625 97.6113H62.9824L64.6113 93.3457H65.1035L66.7353 97.6113H66.1582L65.751 96.498ZM64.1338 96.0352H65.584L64.8574 94.04L64.1338 96.0352ZM68.415 97.1514H70.4365V97.6113H67.8496V93.3457H68.415V97.1514Z" fill="#787878"/>
<path d="M55.3624 61.7793C55.7482 62.7256 56.0625 63.4897 56.41 64.3395C55.7942 64.3395 55.2806 64.3341 54.7696 64.3422C54.463 64.3475 54.3608 64.243 54.4962 63.9213C54.767 63.2806 55.02 62.6291 55.3624 61.7793Z" fill="#787878"/>
</svg>
