<svg width="48" height="48" viewBox="0 0 48 48" fill="none" xmlns="http://www.w3.org/2000/svg">
<g clip-path="url(#clip0_6881_18836)">
<path d="M37.7826 11.7451H10.7188V31.66H37.7826V11.7451Z" fill="#F8F8F8"/>
<path d="M42.3656 10.5166C42.3656 9.47923 42.4051 8.43013 42.3656 7.39275C42.3656 7.38103 42.3656 7.36932 42.3656 7.35759C42.3656 6.81253 42.0089 6.3964 41.5334 6.22644C39.5746 5.52313 37.6103 4.81983 35.6516 4.11652C32.5606 3.00882 29.4753 1.89525 26.3843 0.787539C25.6994 0.541381 25.0201 0.260059 24.3238 0.0490674C23.9785 -0.0564285 23.7407 0.0256235 23.4407 0.131119C23.0896 0.260059 22.7331 0.383137 22.382 0.512076C19.4213 1.57289 16.4663 2.63372 13.5055 3.69453C11.1902 4.52678 8.88047 5.35317 6.5651 6.18542C6.52547 6.19713 6.4915 6.21471 6.45188 6.22644C5.97635 6.3964 5.6197 6.81839 5.6197 7.35759V18.2178C5.6197 20.5035 5.61404 22.7893 5.6197 25.0751C5.62536 27.0149 5.95371 28.9666 6.57642 30.7953C7.85016 34.5638 10.1655 37.8752 12.9224 40.6357C15.6454 43.361 18.8326 45.6409 22.2519 47.317C22.6425 47.5046 23.0331 47.6864 23.4237 47.8622C23.4463 47.8738 23.4746 47.8856 23.4972 47.8973C23.4972 47.8973 23.4972 47.8973 23.503 47.8973C23.5595 47.9207 23.6218 47.9442 23.6784 47.9617C23.9501 48.038 24.2502 47.997 24.5502 47.8681C24.5559 47.8681 24.5615 47.8622 24.5615 47.8622C28.0147 46.3441 31.219 44.1991 34.0267 41.6261C36.8573 39.0298 39.3539 35.8708 40.8484 32.2546C41.6183 30.385 42.1278 28.451 42.2976 26.423C42.3882 25.3388 42.3543 24.2427 42.3543 23.1527V10.5166H42.3656ZM34.0438 17.7138C33.5739 18.2002 33.1041 18.6867 32.6342 19.1731C30.5963 21.2831 28.564 23.3871 26.5259 25.4971C25.2409 26.8275 23.9501 28.1637 22.6651 29.4941C22.014 30.1681 20.9101 30.1681 20.2648 29.4941C20.0044 29.2246 19.744 28.955 19.4836 28.6854C17.6607 26.7981 15.8379 24.9109 14.0094 23.0179C13.3357 22.3204 13.3866 21.2362 14.0094 20.5329C14.6321 19.8354 15.7813 19.8823 16.4096 20.5329C16.6701 20.8025 16.9305 21.0779 17.1909 21.3475C18.6118 22.8187 20.0327 24.3014 21.4536 25.7724C21.5272 25.6963 21.5952 25.626 21.6687 25.5497C23.7067 23.4399 25.739 21.33 27.7771 19.22C29.0621 17.8896 30.3527 16.5533 31.6379 15.2229C32.3116 14.5255 33.3645 14.5781 34.0382 15.2229C34.7174 15.8676 34.6722 17.0632 34.0438 17.7138Z" fill="#0755E9"/>
</g>
<defs>
<clipPath id="clip0_6881_18836">
<rect width="48" height="48" fill="white"/>
</clipPath>
</defs>
</svg>
