<svg width="158" height="121" viewBox="0 0 158 121" fill="none" xmlns="http://www.w3.org/2000/svg">
<path d="M136.64 67.0455C136.865 64.8957 136.98 62.7118 136.98 60.5C136.98 27.3629 111.094 0.5 79.1619 0.5C47.2298 0.5 21.3438 27.3629 21.3438 60.5C21.3438 63.4642 21.5509 66.3782 21.951 69.2273M136.64 67.0455C136.486 68.5166 136.281 69.9718 136.027 71.4091L136.64 67.0455ZM128.937 91.0455C127.86 92.9327 126.685 94.7533 125.421 96.5C114.872 111.073 98.0779 120.5 79.1619 120.5C58.4186 120.5 40.2267 109.164 30.0248 92.1364" stroke="url(#paint0_linear_6556_19923)"/>
<path d="M67.4454 103.373C67.6526 102.659 68.2079 102.571 68.8337 102.602C69.4772 102.633 69.8871 103.003 70.0677 103.58C70.601 105.312 69.8738 107.296 67.7275 106.948C67.582 106.925 67.3132 106.811 67.3132 107.075C67.3132 107.428 67.0972 107.847 67.4983 108.124C67.6173 108.208 67.7716 108.23 67.8068 108.402C67.203 108.609 66.5331 108.627 65.4004 108.442C66.0792 108.177 66.0924 107.692 66.0792 107.168C66.0527 106.132 66.0615 105.101 66.0792 104.065C66.088 103.594 66.1541 103.122 65.3828 103.087C66.6433 102.351 67.1017 102.43 67.4719 103.351C67.2162 104.149 67.3044 104.969 67.2868 105.784C67.2779 106.128 67.2823 106.445 67.7187 106.516C68.1374 106.586 68.4811 106.476 68.6839 106.079C68.9351 105.59 68.9351 105.052 68.9219 104.524C68.8778 103.298 68.5649 103.06 67.4454 103.373Z" fill="#787878"/>
<path d="M61.7415 106.982C60.3224 106.67 60.0579 106.37 59.7979 104.783C59.8111 103.866 59.7715 102.95 59.8596 102.042C59.9169 101.456 59.3792 101.465 59.1016 101.072C60.0315 101.072 60.8865 101.072 61.9883 101.072C61.1245 101.465 61.1333 102.037 61.1598 102.65C61.195 103.448 61.1465 104.245 61.1862 105.043C61.2303 105.956 61.6886 106.383 62.5128 106.357C63.3634 106.326 63.716 105.801 63.738 105.03C63.7689 104.025 63.7028 103.016 63.7733 102.015C63.8174 101.403 63.2047 101.509 62.9579 101.085C63.716 101.085 64.4035 101.085 65.0911 101.085C64.2008 101.438 64.4344 102.196 64.4256 102.862C64.4211 103.307 64.4256 103.747 64.4256 104.193C64.4167 106.37 63.9319 106.877 61.7415 106.982Z" fill="#787878"/>
<path d="M79.4033 105.673C79.1256 106.343 78.6012 106.731 77.9357 106.956C77.7021 106.96 77.4641 106.965 77.2305 106.965C75.7805 106.947 75.0401 106.215 75.0313 104.801C75.0269 103.408 75.8114 102.615 77.2085 102.597C78.6937 102.579 79.5002 103.324 79.5267 104.752C79.5311 104.986 79.5047 105.219 79.4914 105.457L79.4958 105.462C79.465 105.528 79.4341 105.603 79.4033 105.673ZM76.3006 104.686C76.3314 105.069 76.3182 105.4 76.3975 105.709C76.5121 106.162 76.7854 106.515 77.301 106.533C77.8607 106.55 78.015 106.145 78.134 105.682C78.3059 105.008 78.2662 104.342 78.0723 103.686C77.9533 103.289 77.6668 103.038 77.2349 103.024C76.781 103.011 76.5297 103.298 76.4372 103.703C76.3579 104.043 76.3402 104.395 76.3006 104.686Z" fill="#787878"/>
<path d="M102.611 103.589C102.642 103.73 102.668 103.875 102.703 104.016C103.149 105.894 102.157 107.088 100.253 106.956C99.993 106.938 99.733 106.872 99.473 106.828C98.4196 106.277 98.2081 105.352 98.3535 104.285C98.4681 103.439 98.9749 102.862 99.7859 102.676C100.879 102.43 101.901 102.566 102.611 103.589ZM101.562 104.796C101.514 104.497 101.465 104.179 101.403 103.862C101.311 103.377 101.042 103.047 100.531 103.025C99.971 102.998 99.7418 103.413 99.6757 103.862C99.6008 104.382 99.6096 104.92 99.6449 105.444C99.6845 106.017 99.9445 106.498 100.588 106.528C101.258 106.564 101.364 106.022 101.461 105.519C101.5 105.29 101.527 105.056 101.562 104.796Z" fill="#787878"/>
<path d="M85.3857 106.987C84.3147 106.828 83.7065 106.203 83.5391 105.14C83.5611 104.819 83.5567 104.488 83.6052 104.171C83.7726 103.069 84.6453 102.496 85.9763 102.597C86.9767 102.677 87.5144 103.276 87.5365 104.272C87.5453 104.709 87.4439 104.938 86.9547 104.911C86.4567 104.885 85.9498 104.933 85.4518 104.898C84.7775 104.854 84.7775 105.167 85.0067 105.638C85.3152 106.269 85.8573 106.419 86.4919 106.322C86.7652 106.282 87.0296 106.172 87.4395 106.053C86.915 107.018 86.1129 106.917 85.3857 106.987ZM85.5532 104.413C85.9807 104.448 86.3333 104.479 86.2716 103.911C86.2231 103.474 86.1702 103.016 85.6193 103.038C84.9935 103.065 84.9274 103.629 84.9009 104.087C84.8656 104.66 85.3637 104.316 85.5532 104.413Z" fill="#787878"/>
<path d="M90.2995 102.598C90.4405 102.615 90.7402 102.62 91.0223 102.695C91.1942 102.739 91.4938 102.761 91.4277 103.052C91.366 103.329 91.3616 103.686 91.1016 103.849C90.8372 104.017 90.7711 103.726 90.7005 103.541C90.5771 103.21 90.4141 102.955 89.9954 103.03C89.7706 103.069 89.5987 103.184 89.5458 103.4C89.4489 103.801 89.753 103.982 90.0262 104.154C90.3524 104.356 90.6917 104.533 91.0223 104.731C91.5027 105.022 91.7362 105.445 91.6128 106C91.4894 106.56 91.0487 106.842 90.5287 106.904C90.0351 106.965 89.5194 106.957 89.0258 106.89C88.2986 106.793 88.1928 106.476 88.5498 105.802C88.7702 105.383 88.9332 105.401 89.1227 105.806C89.2109 105.991 89.2594 106.221 89.396 106.357C89.7089 106.67 90.0659 106.555 90.348 106.309C90.6256 106.066 90.5639 105.762 90.2951 105.546C90.0439 105.343 89.7618 105.172 89.4753 105.026C88.8054 104.682 88.1796 104.255 88.444 103.4C88.6952 102.615 89.4401 102.58 90.2995 102.598Z" fill="#787878"/>
<path d="M82.3698 103.214C81.982 103.117 81.8409 103.271 81.863 103.663C81.885 104.104 81.8674 104.545 81.8674 104.986C81.8674 106.299 81.8762 106.303 83.2204 106.396C82.6254 106.986 81.9423 107.101 81.2724 106.894C80.5628 106.674 80.6686 105.977 80.6466 105.395C80.6377 105.193 80.6201 104.986 80.6025 104.783C80.4438 104.232 81.1975 103.412 80.1177 103.13C80.0824 103.121 80.0516 103.038 80.0472 102.989C80.0251 102.725 81.2636 101.61 81.5589 101.588C81.8894 101.565 81.885 101.777 81.863 101.984C81.8101 102.451 81.9247 102.72 82.4712 102.654C82.6431 102.632 82.9295 102.548 82.9472 102.87C82.9736 103.328 82.5725 103.117 82.3698 103.214Z" fill="#787878"/>
<path d="M70.4609 102.636C71.0515 102.627 71.6377 102.623 72.2282 102.614C72.334 102.654 72.4398 102.689 72.5456 102.729C71.7699 103.813 72.8805 104.624 72.9643 105.585C72.9687 105.629 73.0171 105.668 73.1494 105.862C73.1626 104.721 74.2864 103.901 73.4887 102.711C74.0264 102.711 74.5421 102.711 75.1811 102.711C74.0925 103.743 73.9735 105.118 73.3829 106.268C73.2419 106.537 73.2595 106.925 72.8012 106.942C72.3252 106.96 72.3428 106.55 72.2194 106.286C71.6509 105.056 71.1573 103.795 70.4609 102.636Z" fill="#787878"/>
<path d="M97.8235 106.176C98.013 106.603 97.6252 106.678 97.4048 106.771C96.6247 107.101 95.827 107.088 95.1351 106.577C94.2712 105.938 94.3153 104.977 94.474 104.065C94.6062 103.307 95.1439 102.826 95.8975 102.659C96.3867 102.549 96.898 102.562 97.396 102.65C97.8235 102.725 98.1276 102.888 97.9028 103.413C97.7926 103.664 97.8984 104.082 97.4885 104.091C97.1448 104.1 97.1756 103.725 97.0742 103.496C96.8318 102.95 96.3823 102.875 95.9945 103.311C95.4876 103.88 95.6463 105.625 96.2325 106.105C96.7481 106.528 97.2902 106.29 97.8323 106.202L97.8235 106.176Z" fill="#787878"/>
<path d="M93.7673 106.343C93.7144 106.859 93.3839 106.987 92.9608 106.951C92.5465 106.916 92.3041 106.682 92.3393 106.259C92.3746 105.849 92.6522 105.638 93.0577 105.647C93.5073 105.66 93.7541 105.902 93.7673 106.343Z" fill="#787878"/>
<path d="M97.8379 106.199C97.8557 106.185 97.8735 106.176 97.8912 106.163C97.9001 106.176 97.909 106.194 97.9179 106.208C97.8868 106.194 97.8601 106.185 97.829 106.172C97.8246 106.176 97.8379 106.199 97.8379 106.199Z" fill="#787878"/>
<path d="M16.9872 66.2587C17.0122 66.2162 17.0335 66.1701 17.0584 66.1276C17.717 66.1347 18.3791 66.2127 19.0341 66.071C19.2299 66.0533 19.4221 66.032 19.6179 66.0143C19.7603 66.1631 19.8991 66.1099 20.0379 66.0072C22.8643 65.9966 25.6907 65.986 28.5136 65.9718C28.7556 66.1489 28.9977 66.1312 29.2362 65.9683C32.059 66.0179 34.8819 66.0285 37.7047 65.9612C38.1817 66.0249 38.6552 66.0249 39.1322 65.9612C39.417 65.9753 39.7017 65.9966 39.9865 65.9966C44.2083 66.0001 48.4301 66.0001 52.6519 65.9966C53.7946 65.9966 54.9408 65.9718 56.0835 65.9612C56.2722 65.9647 56.4608 65.9647 56.6495 65.9683C59.7464 65.9789 62.847 65.9966 65.9439 65.9966C68.3503 65.9966 70.7566 65.9789 73.1665 65.9683C73.4976 65.9647 73.8322 65.9647 74.1633 65.9612C77.1178 65.9753 80.0759 65.9966 83.0305 65.9966C85.4867 65.9966 87.9393 65.9753 90.3955 65.9612C90.7266 65.9612 91.0612 65.9612 91.3923 65.9612C93.7025 65.9753 96.0163 65.9966 98.3266 65.9966C101.185 65.9966 104.047 65.9754 106.905 65.9647C107.237 65.9647 107.571 65.9647 107.902 65.9612C108.187 65.9753 108.472 65.9966 108.757 65.9966C112.836 66.0001 116.912 66.0001 120.991 65.9966C122.134 65.9966 123.28 65.9718 124.423 65.9612C124.754 65.9612 125.088 65.9612 125.419 65.9612C126.765 65.9647 128.111 65.9683 129.456 65.9754C129.702 66.0887 129.947 66.1879 130.179 65.9541C132.037 65.9647 133.892 65.9754 135.75 65.986C135.853 66.0674 135.953 66.1312 136.052 65.9824C136.43 66.0391 136.811 66.0674 137.191 66.0037C137.43 66.0533 137.665 66.0781 137.903 66.0072C138.085 66.0178 138.266 66.0249 138.448 66.0356C139.025 66.1631 139.612 66.0816 140.192 66.0958C140.207 66.3331 140.231 66.5668 140.231 66.8041C140.235 76.0621 140.224 85.32 140.249 94.578C140.253 95.2509 140.053 95.389 139.416 95.3855C136.426 95.3642 133.436 95.3961 130.449 95.4067C130.257 95.4067 130.068 95.4067 129.876 95.4103C129.688 95.4103 129.499 95.4103 129.307 95.4103C129.207 95.4067 129.107 95.4032 129.008 95.3996C128.726 95.3536 128.445 95.3501 128.171 95.4386C128.118 95.428 128.061 95.4174 128.007 95.4067C127.908 95.4067 127.812 95.4067 127.712 95.4067C124.939 95.4067 122.166 95.4103 119.393 95.4103C118.973 95.4103 118.556 95.4138 118.136 95.4138C117.787 95.4103 117.442 95.4067 117.093 95.4067C115.847 95.4067 114.598 95.4103 113.352 95.4103C109.575 95.4103 105.798 95.4103 102.022 95.4103C100.149 95.4103 98.2803 95.4103 96.4079 95.4103C92.7271 95.4103 89.0428 95.4067 85.3621 95.4067C83.3971 95.4103 81.4286 95.4103 79.4637 95.4138C75.402 95.4138 71.3368 95.4138 67.2752 95.4138C65.4989 95.4138 63.7226 95.4174 61.9463 95.4174C58.1232 95.4138 54.2965 95.4138 50.4734 95.4103C48.4123 95.4103 46.3513 95.4138 44.2866 95.4138C43.3754 95.4138 42.4641 95.4103 41.5528 95.4103C41.2288 95.4103 40.9049 95.4103 40.581 95.4103C37.897 95.4103 35.2129 95.4138 32.5289 95.4138C32.0982 95.4173 31.6639 95.4209 31.2332 95.4244C31.1335 95.4209 31.0374 95.4209 30.9377 95.4174C30.8452 95.4138 30.7526 95.4067 30.6636 95.4032C30.6138 95.4067 30.5604 95.4067 30.5106 95.4103C30.3183 95.4103 30.1297 95.4067 29.9375 95.4067C29.7452 95.4067 29.5566 95.4067 29.3643 95.4067C25.4736 95.3961 21.5828 95.389 17.6885 95.3642C17.4464 95.3642 17.0905 95.559 16.9766 95.1234C16.9908 94.9357 17.0157 94.7444 17.0157 94.5567C17.0193 85.3129 17.0193 76.0656 17.0157 66.8218C17.0264 66.6377 17.0015 66.4464 16.9872 66.2587ZM123.113 84.3921C123.067 84.4063 123.024 84.424 122.978 84.4381C122.401 83.6094 121.717 82.8302 121.272 81.9342C120.742 80.8646 119.881 80.9673 118.976 80.9956C118.823 80.9992 118.688 81.0346 118.631 81.194C118.571 81.371 118.61 81.5588 118.784 81.619C119.293 81.8031 119.243 82.2069 119.24 82.6142C119.233 83.5421 119.208 84.47 119.247 85.3979C119.268 85.9221 119.147 86.3294 118.599 86.3861C118.094 86.4392 117.809 86.124 117.627 85.6352C117.104 84.2079 116.524 82.7983 115.972 81.3817C115.865 81.1054 115.776 80.861 115.392 80.8752C115.032 80.8858 114.908 81.0912 114.794 81.3781C114.242 82.77 113.672 84.1583 113.117 85.5502C112.985 85.8832 112.886 86.2231 112.487 86.3506C112.313 86.4073 112.224 86.549 112.259 86.7438C112.298 86.9634 112.473 86.9704 112.644 86.9704C113.121 86.974 113.601 86.974 114.078 86.9704C114.242 86.9704 114.434 86.9952 114.498 86.7898C114.566 86.5702 114.47 86.4144 114.26 86.3436C113.915 86.2267 113.968 86.0248 114.039 85.7309C114.27 84.7746 115.018 85.2208 115.559 85.1465C116.036 85.0827 116.011 85.5361 116.154 85.8123C116.296 86.0921 116.193 86.2621 115.919 86.3613C115.737 86.425 115.652 86.5454 115.677 86.7402C115.709 86.974 115.887 86.9704 116.054 86.9704C117.51 86.974 118.969 86.974 120.425 86.9704C120.589 86.9704 120.774 86.9882 120.813 86.7544C120.845 86.5632 120.756 86.4427 120.596 86.3471C120.404 86.2267 120.119 86.1913 120.119 85.8796C120.119 84.9446 120.119 84.0131 120.119 82.9046C120.343 83.1808 120.454 83.3013 120.546 83.4323C121.283 84.4877 122.027 85.5361 122.739 86.6056C122.995 86.9917 123.298 87.2148 123.746 87.0767C124.17 86.9457 123.974 86.549 123.981 86.2763C124.003 85.0863 123.999 83.8998 123.988 82.7098C123.985 82.2742 123.942 81.8492 124.476 81.6615C124.643 81.6013 124.732 81.449 124.69 81.2577C124.633 81.0133 124.433 81.0062 124.238 81.0027C123.782 80.9992 123.33 80.9956 122.874 81.0027C122.689 81.0062 122.476 80.9779 122.426 81.24C122.383 81.4631 122.501 81.5977 122.679 81.704C122.878 81.8244 123.109 81.9129 123.106 82.214C123.106 82.94 123.113 83.666 123.113 84.3921ZM34.9958 85.0296C34.6042 83.9317 34.2803 83.0002 33.935 82.0723C33.8175 81.7571 34.0311 81.711 34.2305 81.6296C34.3978 81.5588 34.5152 81.449 34.4654 81.2471C34.4156 81.0487 34.2589 81.0027 34.081 81.0027C33.3405 81.0027 32.6001 81.0027 31.8561 81.0027C31.6782 81.0027 31.5215 81.0346 31.4681 81.2365C31.4183 81.4348 31.518 81.5871 31.6853 81.6331C32.1587 81.7606 32.2584 82.1608 32.4079 82.5327C32.9561 83.8998 33.5221 85.2633 34.0525 86.6375C34.202 87.0306 34.4049 87.1263 34.8071 87.0519C35.1738 86.9846 35.3197 86.7934 35.4336 86.4746C35.9427 85.0402 36.4766 83.6165 36.9892 82.1821C37.1423 81.7571 37.4556 81.5658 37.8614 81.6012C38.317 81.6437 38.4452 81.9625 38.4309 82.4158C38.3989 83.5102 38.4202 84.6046 38.4202 85.699C38.4202 85.9611 38.4523 86.2231 38.0963 86.3152C37.8863 86.3719 37.6763 86.4994 37.751 86.7721C37.8293 87.059 38.0963 86.974 38.2956 86.9775C39.3493 86.9846 40.3994 86.9811 41.4531 86.9811C42.5281 86.9811 42.5424 86.9634 42.4142 85.9079C42.4036 85.8123 42.3964 85.7167 42.3644 85.6281C42.2968 85.444 42.343 85.1783 42.0333 85.1536C41.7486 85.1323 41.6738 85.3413 41.5848 85.5325C41.4496 85.8265 41.3855 86.1452 40.9334 86.1771C40.0185 86.2409 39.9331 86.1877 39.958 85.1358C39.9652 84.8773 39.8085 84.5231 40.1859 84.3921C40.524 84.2752 40.791 84.4204 40.9476 84.7463C41.0295 84.9127 41.1648 84.9942 41.357 84.9588C41.5848 84.9163 41.567 84.7215 41.5741 84.5656C41.5848 84.1619 41.5813 83.7581 41.5777 83.3544C41.5741 83.1879 41.5813 83.0002 41.3819 82.9365C41.1612 82.8692 41.0117 82.9967 40.9263 83.1844C40.7732 83.535 40.492 83.6306 40.1645 83.5208C39.8156 83.4075 40.0008 83.0746 39.958 82.8408C39.9367 82.724 39.9438 82.6035 39.958 82.4867C39.9901 82.2317 39.837 81.8385 40.2926 81.8421C40.6807 81.8456 41.179 81.5977 41.3962 82.1892C41.4923 82.4477 41.5314 82.8161 41.9159 82.7594C42.343 82.6992 42.2113 82.2848 42.2825 82.0086C42.3181 81.874 42.2896 81.7217 42.311 81.5835C42.3751 81.1515 42.2042 80.9921 41.7592 80.9956C39.8228 81.0133 37.8898 81.0027 35.9534 81.0062C35.7433 81.0062 35.5013 80.9779 35.4301 81.2612C35.3696 81.5056 35.5369 81.6119 35.7255 81.6756C35.9996 81.7713 36.0174 81.9519 35.9391 82.1856C35.6437 83.0675 35.3482 83.96 34.9958 85.0296ZM104.019 77.1033C104.424 77.1033 104.83 77.1033 105.236 77.1033C105.667 77.1033 106.097 77.1033 106.528 77.1033C106.724 77.1033 106.923 77.1069 106.977 76.8554C107.023 76.6535 106.913 76.5012 106.742 76.4729C105.969 76.3489 106.169 75.7681 106.194 75.3077C106.222 74.7056 106.756 75.0669 107.037 74.9358C107.183 74.8685 107.365 74.8756 107.528 74.8402C108.525 74.6064 109.155 73.8627 109.152 72.9277C109.148 71.9608 108.554 71.3304 107.464 71.1179C106.414 70.9089 105.368 71.2064 104.318 71.1391C104.197 71.132 104.075 71.1745 104.051 71.3197C104.019 71.4933 104.033 71.6668 104.232 71.7306C104.56 71.8368 104.645 72.0564 104.641 72.3823C104.627 73.5475 104.645 74.7162 104.631 75.8814C104.624 76.4233 104.236 76.6287 103.709 76.4552C103.335 76.3348 103.203 76.0514 103.082 75.7362C102.566 74.4046 102.057 73.0729 101.527 71.7448C101.399 71.4225 101.395 70.9762 100.829 70.9939C100.313 71.0081 100.302 71.4048 100.174 71.7129C99.6472 72.9879 99.1311 74.2664 98.622 75.5485C98.4725 75.9239 98.3728 76.3206 97.9208 76.4764C97.7428 76.5366 97.6894 76.7102 97.7356 76.8944C97.789 77.1033 97.9742 77.1033 98.1415 77.1069C98.6185 77.1104 99.099 77.1104 99.576 77.1069C99.7504 77.1069 99.9177 77.0785 99.9747 76.8802C100.032 76.6889 99.9391 76.5544 99.7718 76.4729C99.5724 76.3773 99.3446 76.2958 99.4621 76.0125C99.576 75.7433 99.5404 75.3148 99.9249 75.2829C100.409 75.2439 101 75.0527 101.363 75.4104C101.545 75.591 102.111 76.14 101.359 76.4871C101.178 76.5721 101.135 76.7244 101.178 76.905C101.231 77.121 101.424 77.1033 101.587 77.1033C102.395 77.1033 103.207 77.0998 104.019 77.1033ZM63.0712 73.2535C63.1317 73.2464 63.1922 73.2429 63.2528 73.2358C63.687 74.3373 64.1178 75.4387 64.5592 76.5402C64.6624 76.7952 64.7051 77.1175 65.1038 77.0927C65.4669 77.0714 65.4669 76.7527 65.5559 76.5296C65.9973 75.4423 66.4245 74.3444 66.8552 73.2535C66.994 74.1035 66.9833 74.9252 66.9976 75.7468C67.0011 76.0798 66.9762 76.3596 66.5882 76.4694C66.4173 76.5189 66.3105 76.6571 66.3568 76.8589C66.4031 77.0644 66.5597 77.1033 66.7377 77.1033C67.382 77.1033 68.0299 77.1033 68.6742 77.1033C68.8522 77.1033 69.0124 77.0644 69.0658 76.866C69.1192 76.6677 69.0159 76.526 68.8415 76.4764C68.4072 76.3525 68.425 76.0266 68.4286 75.6831C68.4357 74.6135 68.4393 73.5404 68.4286 72.4708C68.425 72.145 68.4286 71.8581 68.8237 71.7448C68.9981 71.6952 69.0978 71.55 69.0586 71.3552C69.0088 71.0895 68.7917 71.1285 68.6066 71.125C68.2719 71.1214 67.9338 71.1533 67.6027 71.1179C67.0225 71.0506 66.7092 71.2383 66.517 71.8333C66.2073 72.8108 65.7801 73.7529 65.3637 74.8083C65.0718 74.0433 64.8297 73.3987 64.5805 72.7577C63.8971 71.001 63.8971 71.001 61.9962 71.1285C61.9713 71.1285 61.9499 71.1285 61.925 71.1285C61.7648 71.1427 61.5726 71.1073 61.5441 71.3481C61.5263 71.4968 61.5477 71.6597 61.7078 71.7058C62.2596 71.8616 62.1635 72.2973 62.1635 72.6939C62.167 73.6466 62.1599 74.5993 62.167 75.5485C62.1706 75.9381 62.1955 76.3171 61.7221 76.4871C61.5405 76.5508 61.5049 76.735 61.5512 76.9121C61.6082 77.1246 61.7968 77.1069 61.9606 77.1104C62.4162 77.1139 62.8683 77.1104 63.324 77.1104C63.5269 77.1104 63.7155 77.0856 63.7618 76.8412C63.801 76.6358 63.6657 76.5296 63.5055 76.4658C63.2421 76.3596 63.0641 76.2144 63.0712 75.8921C63.0819 75.0031 63.0712 74.1283 63.0712 73.2535ZM63.9184 84.4984C63.865 84.4948 63.8081 84.4913 63.7547 84.4877C63.3738 83.4925 62.9929 82.4938 62.6085 81.4985C62.5266 81.286 62.491 81.0098 62.1742 81.0062C61.5512 80.9992 60.9318 81.0027 60.3089 81.0062C60.1594 81.0062 60.0277 81.07 59.9849 81.2329C59.9458 81.3852 59.9814 81.5446 60.138 81.5871C60.7503 81.7465 60.6613 82.221 60.6577 82.6708C60.6542 83.5988 60.6506 84.5267 60.6577 85.4546C60.6613 85.8477 60.6827 86.2267 60.1914 86.3648C59.9992 86.4179 59.9422 86.5702 59.9743 86.7579C60.0134 86.9917 60.2021 86.9704 60.3623 86.974C60.8393 86.9811 61.3198 86.9775 61.7968 86.9775C61.9641 86.9775 62.1493 86.9846 62.2062 86.7757C62.2667 86.5454 62.135 86.4179 61.9357 86.3436C61.7007 86.255 61.5263 86.1452 61.5299 85.8406C61.5441 84.8986 61.537 83.96 61.537 83.0179C62.0923 84.084 62.5159 85.1819 62.9644 86.2727C63.0819 86.5561 63.0605 86.9881 63.5411 86.9704C64.0074 86.9563 63.9789 86.5206 64.0964 86.2409C64.5129 85.2456 64.8973 84.2363 65.2925 83.2304C65.4633 84.0344 65.4598 84.8029 65.4633 85.575C65.4669 85.915 65.4918 86.2479 65.0575 86.3719C64.8689 86.425 64.8155 86.5879 64.8439 86.7721C64.8795 87.0094 65.0789 86.974 65.2355 86.9775C65.8798 86.9846 66.5277 86.9811 67.172 86.9775C67.3179 86.9775 67.471 86.9598 67.5137 86.7898C67.5529 86.6411 67.528 86.4781 67.3749 86.425C66.8445 86.2444 66.9442 85.8088 66.9442 85.4156C66.9406 84.3921 66.9442 83.3685 66.9406 82.345C66.9406 82.051 66.9299 81.7712 67.2859 81.6473C67.4496 81.5906 67.5636 81.456 67.5173 81.2542C67.4639 81.0063 67.2645 80.9992 67.0688 80.9992C66.6879 80.9956 66.2999 81.031 65.9225 80.9885C65.4313 80.9354 65.1928 81.1373 65.0326 81.5906C64.6944 82.5681 64.2957 83.5315 63.9184 84.4984ZM101.331 83.0356C101.374 83.0179 101.413 83.0038 101.456 82.986C101.552 83.195 101.655 83.3969 101.737 83.6094C102.121 84.5833 102.502 85.5573 102.887 86.5313C102.972 86.7473 103.025 86.9882 103.353 86.9775C103.673 86.9669 103.727 86.7331 103.816 86.5136C103.905 86.294 103.986 86.0709 104.075 85.8477C104.435 84.934 104.795 84.0238 105.158 83.11C105.311 83.9281 105.307 84.7038 105.311 85.4794C105.314 85.8619 105.368 86.255 104.852 86.379C104.659 86.425 104.613 86.6021 104.666 86.7827C104.716 86.9563 104.866 86.9669 105.012 86.9669C105.656 86.9704 106.304 86.9704 106.948 86.9669C107.115 86.9669 107.297 86.9669 107.322 86.7367C107.34 86.5844 107.315 86.4321 107.155 86.3825C106.685 86.2409 106.742 85.8725 106.745 85.5148C106.749 84.4665 106.749 83.4217 106.745 82.3733C106.745 82.0581 106.717 81.75 107.115 81.6225C107.293 81.5658 107.379 81.4171 107.336 81.2258C107.283 80.9708 107.069 80.9921 106.881 80.9885C106.5 80.9815 106.112 81.0204 105.734 80.9779C105.24 80.9248 105.019 81.1302 104.859 81.5871C104.506 82.5965 104.093 83.5811 103.655 84.7038C103.228 83.5775 102.847 82.5575 102.452 81.5446C102.353 81.2896 102.317 80.9744 101.915 80.985C101.342 80.9992 100.769 80.9885 100.192 80.9885C100.014 80.9885 99.8572 81.024 99.8074 81.2294C99.7611 81.4277 99.8643 81.58 100.032 81.6225C100.512 81.75 100.47 82.1113 100.466 82.4725C100.462 83.4713 100.459 84.47 100.466 85.4688C100.47 85.8619 100.498 86.2373 99.9925 86.3648C99.811 86.4109 99.7326 86.5738 99.7718 86.7615C99.811 86.9315 99.9533 86.9634 100.106 86.9634C100.633 86.9634 101.16 86.9669 101.683 86.9598C101.829 86.9598 101.979 86.9386 102.004 86.7509C102.022 86.6056 102.022 86.4321 101.858 86.3896C101.203 86.2125 101.327 85.699 101.324 85.235C101.327 84.509 101.331 83.7723 101.331 83.0356ZM77.9223 84.385C77.8725 84.3921 77.8226 84.4027 77.7728 84.4098C77.2033 83.5881 76.5233 82.8231 76.0891 81.9342C75.5658 80.8575 74.7043 80.9673 73.8037 81.0027C73.6578 81.0098 73.5083 81.0346 73.4656 81.2046C73.43 81.3498 73.4371 81.5233 73.583 81.5835C74.1775 81.8315 74.0458 82.3415 74.0493 82.8019C74.0529 83.6802 74.0387 84.5621 74.0565 85.4404C74.0636 85.8442 74.0458 86.1984 73.583 86.3542C73.4122 86.4109 73.3196 86.5596 73.3588 86.7544C73.4015 86.974 73.5795 86.974 73.7503 86.974C74.206 86.9775 74.6581 86.9846 75.1137 86.9704C75.2881 86.9669 75.5195 87.0519 75.6014 86.8004C75.6833 86.5525 75.548 86.4002 75.3344 86.2869C75.1707 86.2019 74.9357 86.1559 74.9322 85.9256C74.9215 84.9552 74.9286 83.9813 74.9286 83.0108C75.9253 84.2186 76.7939 85.4404 77.6269 86.6836C77.8618 87.0377 78.143 87.1582 78.5275 87.0873C78.9867 87.0023 78.855 86.6234 78.8585 86.34C78.8692 85.104 78.8656 83.8679 78.8621 82.6319C78.8621 82.2529 78.8122 81.8633 79.2786 81.6721C79.4779 81.5906 79.5313 81.3888 79.4743 81.1869C79.4138 80.9815 79.2216 80.9992 79.0579 80.9992C78.6022 80.9956 78.1501 80.9956 77.6945 80.9992C77.5023 80.9992 77.2958 80.9956 77.2353 81.24C77.1783 81.4667 77.3172 81.5942 77.4952 81.6933C77.6981 81.8102 77.9294 81.8881 77.9259 82.1963C77.9152 82.9258 77.9223 83.6554 77.9223 84.385ZM77.8547 77.0998C78.6165 77.121 79.3853 77.206 80.1115 76.8731C81.3467 76.3064 81.5639 74.9535 80.5209 74.1248C80.2468 73.9052 80.1863 73.8237 80.4711 73.5616C80.9053 73.1579 81.0264 72.6408 80.8377 72.06C80.6384 71.4508 80.1507 71.2347 79.5882 71.132C78.5203 70.9337 77.4453 71.1923 76.3738 71.1285C76.2279 71.1214 76.0819 71.1533 76.057 71.341C76.0392 71.4933 76.0641 71.6562 76.2243 71.6952C76.8508 71.8475 76.7405 72.3327 76.7369 72.7718C76.7334 73.7246 76.7298 74.6737 76.7405 75.6264C76.744 75.9983 76.7618 76.3454 76.2848 76.4587C76.1069 76.5012 76.025 76.6535 76.0535 76.8483C76.0926 77.1175 76.3026 77.0962 76.4913 77.0998C76.947 77.1033 77.4026 77.0998 77.8547 77.0998ZM21.9957 80.9744C21.9957 80.985 21.9957 80.9921 21.9957 81.0027C21.5187 81.0027 21.0417 80.9992 20.5647 81.0027C20.4224 81.0027 20.2657 81.0062 20.2088 81.1727C20.1589 81.3144 20.1518 81.5056 20.2906 81.5552C20.9599 81.7854 20.7712 82.3344 20.7783 82.8054C20.7926 83.7298 20.7783 84.6577 20.7854 85.5821C20.789 85.9221 20.8104 86.2515 20.3832 86.379C20.1839 86.4392 20.1661 86.6127 20.1945 86.7863C20.2159 86.9279 20.3298 86.9775 20.4544 86.974C21.5935 86.9315 22.7362 87.2431 23.8717 86.9244C25.3775 86.4994 26.125 85.2244 25.9328 83.4004C25.7868 82.0192 24.7652 81.0771 23.2844 80.985C22.8536 80.9496 22.4229 80.9744 21.9957 80.9744ZM54.0723 84.0981C54.1079 82.1963 52.9901 80.9425 51.1996 80.8894C49.4838 80.8363 48.2913 82.0652 48.2379 83.9388C48.1845 85.784 49.3343 87.0661 51.075 87.1015C52.8513 87.1334 54.0367 85.9504 54.0723 84.0981ZM93.4142 83.9883C93.4142 85.8619 94.5462 87.0838 96.3046 87.1015C98.0952 87.1192 99.2556 85.8867 99.2521 83.9777C99.2485 82.1254 98.0596 80.8681 96.3296 80.8858C94.5746 80.9071 93.4142 82.1396 93.4142 83.9883ZM50.4485 70.9975C48.6722 70.9727 47.5046 72.1556 47.469 74.0185C47.4299 75.9062 48.5796 77.1741 50.3631 77.2096C52.0895 77.245 53.2891 75.9948 53.3069 74.1389C53.3212 72.2654 52.1892 71.0222 50.4485 70.9975ZM75.4839 74.1496C75.4946 72.2016 74.3875 70.9975 72.5899 71.001C70.8456 71.0045 69.7243 72.1804 69.7065 74.0221C69.6887 75.9735 70.7709 77.1777 72.5685 77.2131C74.3128 77.2414 75.4732 76.0231 75.4839 74.1496ZM28.5848 86.9775C29.0618 86.9775 29.5388 86.9775 30.0193 86.9775C31.041 86.9775 31.0516 86.9634 30.9306 85.9292C30.9164 85.8123 30.9057 85.6919 30.8701 85.5786C30.8167 85.4086 30.8381 85.1819 30.5746 85.15C30.297 85.1146 30.1617 85.2988 30.1154 85.5077C29.9517 86.2656 29.3786 86.2373 28.8304 86.1488C28.2039 86.0461 28.5171 85.5077 28.4815 85.1642C28.4531 84.9127 28.3214 84.5515 28.6738 84.4063C29.044 84.254 29.3145 84.4417 29.4854 84.7817C29.5744 84.9588 29.731 85.0013 29.909 84.9481C30.0834 84.8986 30.0834 84.7356 30.087 84.5975C30.0941 84.169 30.0941 83.7404 30.0905 83.3154C30.087 83.149 30.0763 82.9683 29.8591 82.9258C29.6669 82.8869 29.5316 82.9896 29.4569 83.1525C29.3074 83.4854 29.0546 83.6306 28.7094 83.5315C28.3107 83.4146 28.5171 83.0569 28.4709 82.8054C28.4495 82.6921 28.4566 82.5681 28.4709 82.4513C28.4993 82.214 28.3676 81.8456 28.7663 81.8456C29.1508 81.8456 29.6456 81.5835 29.8912 82.1537C30.0087 82.4229 30.0371 82.8444 30.4572 82.7558C30.8452 82.6744 30.7384 82.2635 30.7953 81.9802C30.8309 81.796 30.8167 81.6013 30.8274 81.41C30.8381 81.1515 30.7384 81.0062 30.4572 81.0062C29.1899 81.0062 27.9262 81.0062 26.659 81.0062C26.481 81.0062 26.3244 81.0523 26.271 81.2471C26.214 81.4525 26.3457 81.5835 26.5059 81.6296C26.9224 81.75 26.9473 82.051 26.9402 82.4088C26.9259 83.4783 26.9259 84.5479 26.9402 85.6175C26.9473 85.9788 26.9153 86.2692 26.4988 86.3754C26.3208 86.4215 26.2247 86.5667 26.2603 86.7615C26.303 86.9811 26.481 86.9811 26.6518 86.9811C27.2962 86.9775 27.9405 86.9775 28.5848 86.9775ZM130.82 86.9775C131.297 86.9775 131.774 86.9775 132.254 86.9775C133.272 86.9775 133.286 86.9634 133.165 85.9292C133.151 85.8123 133.14 85.6919 133.105 85.5786C133.052 85.4086 133.073 85.1819 132.809 85.15C132.532 85.1146 132.397 85.2988 132.35 85.5077C132.187 86.2656 131.613 86.2373 131.065 86.1488C130.439 86.0461 130.752 85.5077 130.716 85.1642C130.688 84.9127 130.556 84.5515 130.909 84.4063C131.279 84.254 131.549 84.4417 131.72 84.7817C131.809 84.9588 131.966 85.0013 132.144 84.9481C132.318 84.8986 132.318 84.7356 132.322 84.5975C132.329 84.169 132.329 83.744 132.325 83.3154C132.322 83.149 132.311 82.9683 132.094 82.9258C131.902 82.8869 131.766 82.9896 131.692 83.1525C131.542 83.4854 131.289 83.6306 130.944 83.5315C130.545 83.4146 130.752 83.0569 130.706 82.8054C130.684 82.6921 130.691 82.5681 130.706 82.4513C130.734 82.214 130.602 81.8421 131.001 81.8456C131.386 81.8492 131.88 81.5765 132.122 82.1537C132.236 82.4229 132.268 82.8408 132.692 82.7558C133.084 82.6744 132.973 82.26 133.03 81.9802C133.066 81.796 133.052 81.6013 133.062 81.41C133.073 81.1515 132.973 81.0062 132.692 81.0062C131.425 81.0062 130.161 81.0062 128.894 81.0062C128.716 81.0062 128.559 81.0523 128.506 81.2471C128.449 81.4525 128.581 81.5835 128.741 81.6296C129.157 81.75 129.182 82.051 129.179 82.4088C129.164 83.4783 129.164 84.5479 129.179 85.6175C129.186 85.9752 129.154 86.2692 128.737 86.3754C128.559 86.4215 128.463 86.5667 128.499 86.7615C128.538 86.9811 128.719 86.9811 128.887 86.9811C129.527 86.9775 130.172 86.9775 130.82 86.9775ZM92.5278 77.1033C92.9336 77.1033 93.3394 77.1033 93.7488 77.1033C95.0018 77.1033 95.0018 77.1033 94.8416 75.8566C94.8131 75.6335 94.8523 75.3502 94.5355 75.2829C94.1724 75.205 94.1012 75.4919 94.0051 75.7327C93.8876 76.0196 93.8057 76.2781 93.3857 76.2958C92.389 76.3383 92.3783 76.3666 92.4032 75.2085C92.4103 74.9535 92.2323 74.5923 92.6026 74.4577C92.9656 74.3302 93.2504 74.4825 93.4106 74.8473C93.4854 75.0137 93.6206 75.1164 93.8093 75.0775C94.0371 75.0314 93.9908 74.8331 94.0086 74.6773C94.0549 74.2771 94.0834 73.8733 94.0122 73.4731C93.9837 73.3173 94.0549 73.1154 93.8556 73.041C93.6384 72.9596 93.4818 73.087 93.3928 73.2712C93.2362 73.5864 92.9941 73.7564 92.6417 73.6608C92.2323 73.5475 92.4495 73.1898 92.3996 72.9383C92.3747 72.825 92.3854 72.701 92.3996 72.5841C92.4281 72.3468 92.2893 71.975 92.6809 71.9679C93.0724 71.9608 93.5601 71.7129 93.8306 72.2512C93.9588 72.5098 93.9624 72.9277 94.4038 72.8427C94.8452 72.7577 94.6565 72.3468 94.7241 72.0741C94.7633 71.9148 94.774 71.7448 94.7882 71.5783C94.8131 71.295 94.7135 71.1285 94.3895 71.1285C93.1472 71.1356 91.9013 71.1285 90.659 71.132C90.4988 71.132 90.303 71.1002 90.2638 71.3375C90.2353 71.5145 90.2709 71.6775 90.4667 71.7412C90.8013 71.8475 90.8619 72.0847 90.8583 72.4035C90.8441 73.5439 90.8512 74.6879 90.8547 75.8283C90.8547 76.101 90.8512 76.3489 90.5166 76.4481C90.3101 76.5083 90.214 76.6783 90.2674 76.8979C90.3315 77.1529 90.5593 77.1069 90.7408 77.1069C91.3317 77.1069 91.9298 77.0998 92.5278 77.1033ZM70.3117 86.9775C70.7175 86.9775 71.1233 86.9775 71.5291 86.9775C72.8319 86.9775 72.8284 86.9775 72.6077 85.6742C72.5721 85.4688 72.6041 85.2209 72.3229 85.1606C72.0096 85.0934 71.885 85.3165 71.8245 85.5538C71.6252 86.3719 70.9702 86.2196 70.4434 86.1311C69.8809 86.0354 70.1942 85.5042 70.1693 85.1748C70.1479 84.9127 69.9592 84.5125 70.39 84.3815C70.7495 84.2717 71.0414 84.3992 71.2051 84.7675C71.2835 84.9411 71.4436 84.9977 71.6252 84.9552C71.8459 84.9021 71.821 84.7038 71.8281 84.5479C71.8423 84.1442 71.8281 83.7404 71.8352 83.3367C71.8388 83.1596 71.7355 82.9188 71.974 82.8338C72.7536 82.554 72.4688 81.8669 72.5614 81.3321C72.6041 81.0913 72.4048 81.0027 72.1912 81.0027C70.9026 80.9992 69.6104 80.9992 68.3218 80.9992C68.1687 80.9992 68.037 81.0487 68.0085 81.2258C67.9836 81.3746 67.9978 81.5446 68.158 81.5871C68.8201 81.7535 68.6849 82.2742 68.6884 82.731C68.692 83.705 68.6849 84.679 68.692 85.6565C68.6956 85.954 68.6991 86.2267 68.3253 86.3258C68.1367 86.3754 67.9694 86.4852 68.005 86.7296C68.0548 87.0519 68.3147 86.9704 68.5104 86.974C69.1192 86.9846 69.7172 86.9775 70.3117 86.9775ZM55.2399 83.9069C55.2399 84.4311 55.2399 84.9552 55.2399 85.4794C55.2399 85.8513 55.3217 86.2586 54.802 86.4002C54.6347 86.4463 54.6311 86.6127 54.6454 86.7579C54.6739 86.9952 54.8625 86.974 55.0263 86.9775C55.7453 86.9811 56.4608 86.9811 57.1799 86.9811C57.3508 86.9811 57.5252 86.974 57.5679 86.7579C57.6142 86.5206 57.4647 86.3931 57.2653 86.3506C56.4858 86.1842 56.799 85.5715 56.8061 85.1394C56.8132 84.6436 57.276 84.9056 57.5394 84.8419C57.7708 84.7817 58.0129 84.7711 58.2407 84.7073C59.2445 84.4169 59.8034 83.6625 59.7322 82.7133C59.6646 81.7713 58.9989 81.0771 57.9346 81.0062C56.9592 80.939 55.9732 81.0027 54.9942 81.0098C54.8483 81.0098 54.6952 81.031 54.6525 81.201C54.6098 81.3746 54.6347 81.5658 54.8234 81.6225C55.2968 81.7642 55.2434 82.129 55.2399 82.4831C55.2363 82.9542 55.2399 83.4288 55.2399 83.9069ZM55.2719 77.0998C55.6314 77.0998 55.9874 77.1033 56.3469 77.0998C56.5356 77.0962 56.7456 77.1139 56.7954 76.8589C56.8417 76.6252 56.7065 76.4835 56.5071 76.441C55.8201 76.2923 56.055 75.7575 56.0443 75.3466C56.0301 74.7906 56.5071 75.0173 56.7883 74.9464C56.9948 74.8933 57.2119 74.8791 57.422 74.826C58.4472 74.5639 58.9953 73.8343 58.9562 72.8002C58.9206 71.8793 58.3083 71.295 57.2475 71.1072C56.2188 70.9231 55.2007 71.2029 54.1791 71.132C54.0331 71.1214 53.8836 71.1533 53.8409 71.3233C53.8053 71.472 53.8338 71.6456 53.9868 71.6845C54.6596 71.851 54.503 72.3752 54.5066 72.8285C54.5137 73.7777 54.503 74.7304 54.5101 75.6796C54.5137 76.0196 54.535 76.3489 54.0972 76.4694C53.9406 76.5119 53.7946 76.6323 53.8338 76.8412C53.8836 77.0821 54.0758 77.1069 54.2716 77.1069C54.6062 77.0998 54.9408 77.0998 55.2719 77.0998ZM109.319 86.9775C109.654 86.9775 109.988 86.9881 110.323 86.974C110.497 86.9669 110.732 87.0448 110.786 86.7686C110.832 86.5419 110.711 86.3896 110.501 86.3436C109.775 86.1806 110.038 85.6104 110.042 85.189C110.045 84.6329 110.529 84.9056 110.807 84.8313C110.967 84.7888 111.138 84.7781 111.298 84.7392C112.441 84.4665 113.003 83.7546 112.943 82.6638C112.889 81.711 112.184 81.0452 111.053 80.9885C110.123 80.9425 109.191 80.9921 108.258 81.0027C108.059 81.0062 107.867 81.0275 107.82 81.2719C107.781 81.4808 107.927 81.5977 108.084 81.6402C108.525 81.7642 108.497 82.0935 108.493 82.4335C108.486 83.4571 108.49 84.4806 108.493 85.5006C108.497 85.8831 108.55 86.2727 108.027 86.3861C107.842 86.4286 107.778 86.6021 107.827 86.7863C107.874 86.9598 108.023 86.974 108.173 86.974C108.554 86.9775 108.934 86.974 109.319 86.9775ZM110.818 77.0998C110.818 77.0962 110.818 77.0962 110.818 77.0998C111.202 77.0962 111.583 77.0998 111.967 77.0962C112.142 77.0927 112.302 77.0502 112.348 76.8483C112.391 76.6464 112.291 76.4942 112.113 76.4729C111.291 76.3737 111.49 75.7539 111.53 75.2794C111.576 74.695 112.106 75.0704 112.391 74.9393C112.58 74.8508 112.815 74.8614 113.017 74.8012C114 74.5214 114.566 73.7458 114.502 72.7931C114.441 71.9006 113.84 71.3127 112.829 71.1143C111.775 70.9089 110.732 71.1993 109.682 71.132C109.536 71.1214 109.397 71.1639 109.369 71.3516C109.344 71.5464 109.426 71.6952 109.604 71.7377C110.074 71.8545 110.056 72.1981 110.052 72.57C110.042 73.5935 110.042 74.6171 110.052 75.6406C110.056 76.0125 110.066 76.3596 109.589 76.4694C109.408 76.5119 109.333 76.6677 109.362 76.8625C109.397 77.0821 109.565 77.0998 109.735 77.1033C110.102 77.0998 110.462 77.0998 110.818 77.0998ZM135.746 87.0979C137.405 87.1157 138.259 86.4144 138.217 85.1677C138.188 84.3708 137.644 83.9529 137.056 83.5669C136.679 83.319 136.273 83.1171 135.892 82.8692C135.6 82.6779 135.515 82.3804 135.625 82.0546C135.711 81.796 135.946 81.7146 136.195 81.704C136.519 81.6933 136.821 81.7323 136.932 82.1183C136.992 82.3238 137.078 82.5185 137.152 82.7204C137.223 82.901 137.359 82.9683 137.547 82.9471C137.725 82.9258 137.757 82.7913 137.811 82.6567C138.274 81.5056 138.046 81.1054 136.843 80.9567C136.608 80.9283 136.369 80.8858 136.131 80.8965C134.91 80.9531 134.29 81.3958 134.109 82.3238C133.963 83.0817 134.34 83.7688 135.212 84.3C135.579 84.5231 135.97 84.7038 136.326 84.9411C136.615 85.1323 136.825 85.3979 136.665 85.7875C136.519 86.1381 136.234 86.255 135.871 86.2834C135.116 86.3436 135.166 85.7344 134.999 85.2952C134.927 85.1075 134.92 84.8596 134.611 84.8631C134.315 84.8702 134.28 85.0934 134.223 85.2952C133.842 86.6198 134.03 86.8961 135.422 87.0802C135.565 87.0979 135.707 87.0979 135.746 87.0979ZM82.646 80.9992C81.8807 80.9992 81.1154 81.0098 80.35 80.9956C79.9407 80.985 79.7769 81.155 79.8268 81.5517C79.8517 81.7394 79.8588 81.9306 79.898 82.1183C79.9798 82.4867 79.7449 83.0604 80.2468 83.1667C80.8199 83.2871 80.6811 82.6106 80.9053 82.3167C80.9338 82.2813 80.9409 82.2281 80.9552 82.1821C81.0442 81.874 81.2578 81.7783 81.5603 81.835C81.8807 81.8917 81.8024 82.1502 81.8024 82.345C81.8095 83.4146 81.7988 84.4842 81.8095 85.5573C81.8131 85.9292 81.8273 86.2763 81.3396 86.3648C81.1189 86.4038 81.0264 86.5738 81.0762 86.7969C81.1261 87.0236 81.3254 86.9811 81.482 86.9846C82.1975 86.9917 82.9166 86.9917 83.6356 86.9846C83.8136 86.9811 84.0379 87.0413 84.0842 86.7615C84.1233 86.5242 83.9916 86.4002 83.7887 86.3471C83.5075 86.2727 83.3366 86.1559 83.3402 85.8159C83.358 84.6259 83.3473 83.4358 83.3473 82.2494C83.3473 82.0581 83.3473 81.8563 83.6214 81.8385C83.8457 81.8244 84.0557 81.8279 84.1482 82.0865C84.2301 82.3096 84.312 82.5327 84.401 82.7523C84.49 82.9683 84.5398 83.234 84.8602 83.2056C85.2411 83.1738 85.1877 82.8585 85.2197 82.6106C85.2589 82.306 85.2696 81.9944 85.3194 81.6898C85.3977 81.2081 85.2482 80.9779 84.7178 80.9992C84.0343 81.0204 83.3402 80.9956 82.646 80.9992ZM44.7352 71.1214C43.9698 71.1214 43.208 71.125 42.4427 71.1179C42.1508 71.1143 41.8981 71.1497 41.923 71.5216C41.955 71.9962 41.9977 72.4673 42.0547 72.9383C42.0761 73.1083 42.1544 73.2571 42.3644 73.2712C42.5495 73.2818 42.6883 73.2216 42.756 73.0339C42.845 72.7895 42.9482 72.5487 43.0301 72.3008C43.1297 72.0033 43.3326 71.8935 43.6352 71.9466C43.9449 71.9998 43.8915 72.2477 43.8915 72.4495C43.8986 73.5652 43.8879 74.6843 43.8986 75.8C43.9022 76.1223 43.8381 76.3525 43.475 76.4304C43.2828 76.4729 43.1262 76.5898 43.1547 76.8306C43.1938 77.1494 43.4465 77.0927 43.6495 77.0962C44.3436 77.1033 45.0342 77.1033 45.7283 77.0962C45.9134 77.0962 46.127 77.121 46.1733 76.8554C46.2124 76.6216 46.0807 76.4941 45.8814 76.4339C45.6358 76.3631 45.4364 76.2781 45.4364 75.97C45.44 74.7587 45.4364 73.5475 45.44 72.3362C45.44 72.1697 45.4435 71.9856 45.6678 71.9537C45.8849 71.9218 46.1128 71.9041 46.2231 72.152C46.337 72.4106 46.4331 72.6798 46.5364 72.9454C46.6076 73.1331 46.6966 73.2854 46.9386 73.2712C47.2341 73.2571 47.2732 73.0445 47.2982 72.8285C47.348 72.4283 47.3693 72.0245 47.4227 71.6243C47.4726 71.2489 47.3266 71.1073 46.9493 71.1143C46.216 71.132 45.4756 71.1214 44.7352 71.1214ZM88.0817 84.0061C88.0888 86.255 89.5697 87.4415 91.8906 87.0519C92.9906 86.8677 93.0333 86.8146 92.866 85.7131C92.8268 85.4546 92.9443 85.0721 92.5313 85.0261C92.0793 84.9729 92.065 85.4015 92.0081 85.6636C91.855 86.3684 91.3709 86.3613 90.8583 86.2338C90.093 86.0461 89.648 85.0969 89.6836 83.8467C89.7192 82.6885 90.1713 81.9023 90.9295 81.7358C91.289 81.6579 91.6272 81.6296 91.8194 82.0829C91.9618 82.4158 91.9013 83.0427 92.453 82.9542C93.0155 82.8621 92.777 82.26 92.8624 81.874C92.9265 81.58 93.0404 81.2471 92.5954 81.1125C90.5486 80.4892 88.0141 81.1196 88.0817 84.0061ZM45.4507 86.9775C45.7604 86.9775 46.0736 86.9775 46.3833 86.9775C48.0564 86.9775 48.1703 86.8323 47.7929 85.1606C47.7894 85.1359 47.7858 85.1146 47.7823 85.0898C47.7502 84.9304 47.7502 84.7498 47.5224 84.725C47.2875 84.6967 47.17 84.8242 47.0952 85.019C46.992 85.2846 46.8817 85.5502 46.782 85.8159C46.5613 86.4073 46.0558 86.1275 45.6678 86.1523C45.2193 86.1842 45.3012 85.8088 45.2976 85.5396C45.2905 84.4913 45.3012 83.4465 45.2905 82.3981C45.2869 82.0333 45.3225 81.7429 45.7639 81.6579C45.9704 81.619 46.0772 81.449 46.0309 81.2223C45.9846 81.0027 45.8031 81.0062 45.6393 81.0027C44.9452 80.9992 44.251 80.9992 43.5569 81.0027C43.3896 81.0027 43.208 81.0062 43.1689 81.2258C43.1404 81.3746 43.1582 81.5517 43.3006 81.6012C43.8702 81.789 43.7562 82.2494 43.7562 82.6638C43.7598 83.6625 43.7527 84.6648 43.7598 85.6636C43.7598 85.9575 43.7776 86.2373 43.4109 86.3506C43.1938 86.4179 43.1191 86.5844 43.176 86.8004C43.2365 87.0236 43.4323 86.9775 43.5889 86.9811C44.2048 86.9811 44.8277 86.9775 45.4507 86.9775ZM87.5976 77.1033C87.8859 77.1033 88.1707 77.1033 88.459 77.1033C90.1428 77.1033 90.1428 77.1033 89.9541 75.421C89.947 75.3502 89.9434 75.2794 89.9292 75.2085C89.8936 75.0456 89.8616 74.8756 89.648 74.8473C89.4273 74.8154 89.2849 74.8969 89.2102 75.1129C89.1176 75.3821 89.0108 75.6477 88.9111 75.9133C88.6762 76.5366 88.1458 76.2321 87.74 76.2639C87.2701 76.3029 87.3947 75.9027 87.3947 75.6477C87.384 74.5781 87.3983 73.5085 87.384 72.4389C87.3805 72.0989 87.4054 71.8333 87.829 71.7766C88.0176 71.7518 88.185 71.6243 88.1636 71.3835C88.1387 71.1143 87.9393 71.1179 87.7436 71.1179C87.0494 71.1179 86.3588 71.1143 85.6647 71.1179C85.5045 71.1179 85.3087 71.0895 85.2553 71.3091C85.2019 71.5287 85.3016 71.6987 85.5081 71.7518C85.9423 71.8687 85.9352 72.1875 85.9352 72.5346C85.9281 73.5793 85.9281 74.6277 85.9352 75.6725C85.9388 76.0231 85.9352 76.3383 85.4974 76.4446C85.2874 76.4977 85.1948 76.6748 85.2553 76.8908C85.3123 77.0998 85.5009 77.0891 85.6647 77.0891C86.309 77.1033 86.9533 77.0998 87.5976 77.1033ZM125.768 84.0025C125.768 84.3602 125.786 84.7144 125.765 85.0721C125.736 85.5786 125.964 86.1523 125.252 86.4675C125.021 86.5702 125.092 86.9598 125.494 86.9704C126.185 86.9846 126.879 86.974 127.57 86.974C127.715 86.974 127.865 86.9598 127.915 86.7898C127.958 86.6446 127.947 86.464 127.797 86.4179C127.142 86.2302 127.303 85.7096 127.299 85.2633C127.292 84.339 127.299 83.411 127.295 82.4867C127.295 82.129 127.235 81.7642 127.715 81.6296C127.883 81.5835 127.982 81.4313 127.933 81.2329C127.883 81.0275 127.723 80.9992 127.545 80.9992C126.875 80.9992 126.21 80.9992 125.541 81.0027C125.37 81.0027 125.195 81.0133 125.16 81.2329C125.135 81.3817 125.156 81.5517 125.309 81.5942C125.861 81.75 125.761 82.1856 125.761 82.5788C125.772 83.0533 125.768 83.5279 125.768 84.0025ZM83.3082 71.1214C82.9486 71.1214 82.5927 71.1214 82.2331 71.1214C82.0872 71.1214 81.9377 71.1285 81.8843 71.302C81.838 71.4508 81.8558 71.6314 82.0017 71.6704C82.6638 71.8475 82.5143 72.3681 82.5179 72.8214C82.525 73.7706 82.5179 74.7198 82.5215 75.6689C82.525 76.0089 82.5464 76.3383 82.105 76.4552C81.9448 76.4977 81.8202 76.6323 81.8629 76.8377C81.9056 77.036 82.048 77.0962 82.2331 77.0962C82.9237 77.0962 83.6178 77.0962 84.3084 77.0962C84.4544 77.0962 84.6074 77.075 84.6466 76.9014C84.6786 76.7598 84.6822 76.5756 84.5291 76.526C83.892 76.3206 84.0343 75.8071 84.0343 75.3502C84.0272 74.4258 84.0379 73.4979 84.0308 72.5735C84.0272 72.2052 84.0094 71.8581 84.4615 71.7164C84.6502 71.6562 84.6893 71.4791 84.6466 71.3056C84.5932 71.0789 84.3939 71.1285 84.2372 71.125C83.9275 71.1143 83.6178 71.1214 83.3082 71.1214Z" fill="#787878"/>
<path d="M115.167 82.9404C115.277 83.2592 115.391 83.5354 115.473 83.8223C115.519 83.9888 115.701 84.2225 115.498 84.3252C115.309 84.4173 115.017 84.4208 114.814 84.3465C114.526 84.2367 114.707 83.9888 114.775 83.8046C114.882 83.5248 114.91 83.2096 115.167 82.9404Z" fill="#787878"/>
<path d="M106.179 72.914C106.179 72.7935 106.154 72.6696 106.182 72.5598C106.243 72.3154 105.99 71.9329 106.431 71.855C106.816 71.7877 107.136 71.9471 107.346 72.2835C107.688 72.829 107.503 73.7073 106.99 73.9942C106.46 74.2917 106.193 74.15 106.179 73.5585C106.172 73.3425 106.179 73.13 106.179 72.914Z" fill="#787878"/>
<path d="M100.586 72.9736C100.746 73.4341 100.835 73.6713 100.907 73.9157C100.953 74.0751 101.138 74.2982 100.864 74.3868C100.679 74.447 100.433 74.4293 100.248 74.362C100.045 74.2841 100.163 74.0751 100.209 73.9299C100.294 73.6713 100.408 73.4234 100.586 72.9736Z" fill="#787878"/>
<path d="M78.1763 75.2905C78.3329 75.0496 77.8488 74.4546 78.5963 74.4369C79.2193 74.4227 79.6251 74.7946 79.6286 75.3648C79.6357 75.9386 79.2299 76.3459 78.6461 76.3565C78.1834 76.36 78.1763 76.3459 78.1763 75.2905Z" fill="#787878"/>
<path d="M78.1406 72.7229C78.3079 72.4254 77.8879 71.8623 78.5713 71.8517C79.1089 71.8446 79.4328 72.1527 79.4221 72.6911C79.415 73.2329 79.0982 73.6402 78.5536 73.6367C77.8452 73.6332 78.3542 73.0098 78.1406 72.7229Z" fill="#787878"/>
<path d="M22.2478 83.9604C22.2478 83.3654 22.2549 82.7739 22.2442 82.1789C22.2371 81.7964 22.4329 81.6725 22.7853 81.715C22.8102 81.7185 22.8316 81.7221 22.8565 81.7256C23.7393 81.8389 24.2946 82.611 24.348 83.7869C24.405 85.0725 23.8995 86.0535 23.063 86.2306C22.5539 86.3404 22.1695 86.2908 22.2336 85.5931C22.2834 85.0548 22.2442 84.5058 22.2478 83.9604C22.2442 83.9604 22.2442 83.9604 22.2478 83.9604Z" fill="#787878"/>
<path d="M52.3664 84.0094C52.3735 84.5584 52.3842 85.1073 52.1386 85.6173C51.9642 85.9751 51.7328 86.2619 51.2843 86.2761C50.8322 86.2938 50.4762 86.1238 50.2804 85.7236C49.7287 84.5867 49.7749 83.4215 50.2092 82.2669C50.3409 81.9127 50.6613 81.7144 51.0564 81.7002C51.505 81.6825 51.836 81.895 52.0567 82.2775C52.3628 82.8159 52.3806 83.4109 52.3664 84.0094Z" fill="#787878"/>
<path d="M97.5778 84.0598C97.6063 84.5663 97.5387 85.0621 97.3571 85.5296C97.2076 85.9192 96.9691 86.2379 96.4921 86.2769C96.0009 86.3194 95.6271 86.1069 95.442 85.6854C94.9543 84.5698 94.933 83.4011 95.3993 82.2925C95.7446 81.4744 96.7626 81.4885 97.2254 82.2642C97.5529 82.8131 97.6027 83.4329 97.5778 84.0598Z" fill="#787878"/>
<path d="M49.1648 74.0188C49.1684 73.4946 49.1577 72.9704 49.3784 72.4746C49.5564 72.0708 49.8447 71.8229 50.311 71.8194C50.7631 71.8158 51.1226 72.0036 51.2971 72.4073C51.7741 73.5052 51.7598 74.6315 51.3505 75.7436C51.2116 76.1225 50.9162 76.374 50.489 76.3988C50.0334 76.4236 49.713 76.1898 49.4887 75.8179C49.1577 75.2619 49.1612 74.6386 49.1648 74.0188Z" fill="#787878"/>
<path d="M73.8735 74.1783C73.8237 74.6919 73.7988 75.2373 73.5674 75.7438C73.4001 76.1121 73.1438 76.3777 72.7095 76.3954C72.261 76.4167 71.9086 76.2148 71.7199 75.8217C71.1646 74.6671 71.1824 73.4913 71.6772 72.3225C71.8267 71.9683 72.1399 71.8125 72.5422 71.8125C73.0405 71.8125 73.3502 72.0852 73.5425 72.489C73.7952 73.0096 73.8522 73.5798 73.8735 74.1783Z" fill="#787878"/>
<path d="M70.1411 82.6428C70.255 82.3453 69.9062 81.8176 70.5861 81.8176C71.0773 81.814 71.6184 81.7042 71.7252 82.4232C71.7536 82.6109 71.832 82.7915 71.5579 82.8765C71.1022 83.0182 70.9669 83.8611 70.3013 83.4998C69.9916 83.3298 70.2194 82.9332 70.1411 82.6428Z" fill="#787878"/>
<path d="M56.784 82.8585C56.784 82.692 56.7697 82.5256 56.7875 82.3626C56.8125 82.1466 56.6701 81.8491 56.9762 81.7464C57.2396 81.6578 57.4924 81.7747 57.7095 81.9306C58.2292 82.3131 58.2648 83.326 57.7736 83.7651C57.528 83.9847 57.2147 84.1051 56.9228 83.9918C56.6594 83.8926 56.8125 83.5739 56.7875 83.3508C56.7697 83.1914 56.784 83.0249 56.784 82.8585Z" fill="#787878"/>
<path d="M55.9844 72.9203C55.9844 72.7786 55.9701 72.6334 55.9879 72.4953C56.0128 72.2757 55.874 71.9747 56.1695 71.8684C56.4471 71.7692 56.7355 71.8578 56.9775 72.0384C57.5898 72.5059 57.4474 73.7172 56.7461 74.0395C56.2407 74.2697 56.0057 74.1245 55.9879 73.5613C55.9772 73.3488 55.9844 73.1363 55.9844 72.9203Z" fill="#787878"/>
<path d="M109.972 82.8904C109.972 82.7239 109.961 82.5574 109.976 82.391C109.99 82.1643 109.894 81.8739 110.168 81.7535C110.428 81.6402 110.691 81.7676 110.912 81.9129C111.321 82.1856 111.375 82.6141 111.335 83.0533C111.303 83.4606 111.115 83.7864 110.716 83.9387C110.26 84.1158 109.904 84.1122 109.968 83.457C109.99 83.2693 109.972 83.0781 109.972 82.8904Z" fill="#787878"/>
<path d="M111.511 72.9702C111.511 72.8037 111.494 72.6337 111.515 72.4708C111.547 72.2583 111.38 71.9572 111.707 71.8616C111.967 71.7837 112.23 71.8616 112.455 72.0175C113.099 72.4602 113.006 73.6679 112.305 74.0185C111.75 74.2948 111.526 74.1602 111.511 73.5439C111.508 73.3491 111.511 73.1614 111.511 72.9702Z" fill="#787878"/>
<path d="M82.387 50.4036C82.3958 49.7248 82.4222 49.0461 82.409 48.3674C82.4002 47.9134 82.5721 47.7372 83.0305 47.7416C85.1592 47.7548 87.2835 47.7504 89.4122 47.746C89.7824 47.746 90.0468 47.8033 90.038 48.266C89.9984 50.646 90.3201 53.0611 89.2403 55.3221C88.2002 57.6315 86.7193 59.5663 84.5333 60.9105C83.4139 61.5407 82.1931 61.9198 80.9722 62.2856C78.3587 62.647 75.7937 62.5191 73.2683 61.6818C69.9849 60.5976 67.5256 58.5879 66.1021 55.3926C66.0448 55.2604 65.9567 55.137 65.8817 55.0136C65.4895 53.7046 65.3044 52.3824 65.3308 51.0029C65.3837 48.4335 65.3264 45.8597 65.3176 43.2858C65.3132 40.0332 65.3088 36.7763 65.3 33.5237C65.4146 32.153 65.4146 32.153 64.0836 32.1178C63.9073 32.1134 63.731 32.0869 63.5547 32.0737C63.5591 32.0208 63.5679 31.9723 63.5811 31.9239C65.2074 30.3284 66.8645 28.7594 68.4379 27.1155C69.0417 26.4897 69.3899 26.569 69.8923 27.1728C70.5755 27.9882 71.3291 28.7462 72.0431 29.5395C72.7659 30.3372 73.4799 31.1394 74.2467 31.9988C72.9642 32.2368 72.9598 32.2368 72.9642 33.44C72.9686 34.8327 72.9863 36.2254 72.9995 37.6136C72.9951 41.3422 72.9907 45.0708 72.9863 48.7993C72.9774 49.7469 72.951 50.6944 72.9686 51.642C73.0039 53.4446 74.5641 55.3177 76.3446 55.7319C77.3759 56.1198 78.394 55.8289 79.3856 55.5909C81.695 55.04 82.409 54.0968 82.409 51.7345C82.4134 51.2894 82.3958 50.8487 82.387 50.4036Z" fill="#787878"/>
<path d="M82.3594 40.2664C82.3682 37.7807 82.399 35.295 82.377 32.8093C82.3726 32.2319 82.518 32.06 83.1042 32.0777C84.3471 32.1173 85.5899 32.0733 86.8328 32.0645C87.7186 32.0733 88.6089 32.1041 89.4948 32.0865C89.9223 32.0777 90.0545 32.2099 90.0457 32.6374C90.0236 33.5233 90.0545 34.4135 90.0677 35.2994C90.0589 37.7586 90.0236 40.2135 90.0589 42.6683C90.0677 43.3338 89.9046 43.5674 89.2347 43.4837C88.7984 43.4308 88.3489 43.4881 87.9037 43.4969C86.2774 43.4881 84.6468 43.4572 83.0205 43.4793C82.518 43.4881 82.3638 43.3383 82.3814 42.8358C82.4079 41.9852 82.3682 41.1258 82.3594 40.2664Z" fill="#787878"/>
<path d="M116.875 43.877C116.95 43.9298 117.02 43.9871 117.095 44.0444C117.02 43.9871 116.95 43.9342 116.875 43.877Z" fill="#787878"/>
<path d="M40.4219 44.1948C40.4836 44.1463 40.5409 44.0934 40.6026 44.0449C40.5409 44.0978 40.4836 44.1463 40.4219 44.1948Z" fill="#787878"/>
<path d="M80.2411 20.5919C76.9357 21.0811 74.4896 19.7942 72.7884 16.9779C71.6029 14.2013 71.8364 11.5966 73.855 9.29604C76.0454 6.80152 79.3729 6.36961 82.577 8.0576C85.834 10.1599 87.0327 14.6861 84.1416 18.3574C83.0485 19.4592 81.7881 20.2702 80.2411 20.5919ZM73.0749 16.1141C73.9343 18.6351 76.5302 20.323 79.3112 20.1732C81.9688 20.0278 84.4589 17.9563 85.0583 15.3913C85.7194 12.5795 84.525 9.80728 82.0569 8.42781C79.7255 6.99544 76.7946 7.31277 74.6218 9.23875C72.7443 10.9047 72.0788 13.8532 73.0749 16.1141Z" fill="#787878"/>
<path d="M78.9241 17.4936C80.9273 17.4936 82.5512 15.8697 82.5512 13.8664C82.5512 11.8632 80.9273 10.2393 78.9241 10.2393C76.9208 10.2393 75.2969 11.8632 75.2969 13.8664C75.2969 15.8697 76.9208 17.4936 78.9241 17.4936Z" fill="#787878"/>
<path d="M143.692 75.7732V65.3742C143.692 65.3742 138.895 62.2813 139.176 55.0459H157.613L151.563 64.8394C151.563 64.8394 151.076 65.624 151.951 66.9131L157.71 75.5587L143.692 75.7732Z" fill="#787878"/>
<path d="M14.6362 75.7732V65.3742C14.6362 65.3742 19.433 62.2813 19.1522 55.0459H0.715536L6.76499 64.8394C6.76499 64.8394 7.25212 65.624 6.37726 66.9131L0.618608 75.5587L14.6362 75.7732Z" fill="#787878"/>
<path d="M41.5213 36.5L42.3785 39.1383L45.1526 39.1383L42.9083 40.7689L43.7656 43.4072L41.5213 41.7766L39.277 43.4072L40.1343 40.7689L37.89 39.1383L40.6641 39.1383L41.5213 36.5Z" fill="#787878"/>
<path d="M114.615 36.5L115.472 39.1383L118.246 39.1383L116.002 40.7689L116.859 43.4072L114.615 41.7766L112.371 43.4072L113.228 40.7689L110.984 39.1383L113.758 39.1383L114.615 36.5Z" fill="#787878"/>
<defs>
<linearGradient id="paint0_linear_6556_19923" x1="79.1619" y1="0.5" x2="79.1619" y2="120.5" gradientUnits="userSpaceOnUse">
<stop stop-color="#D8D8D8"/>
<stop offset="1" stop-color="#D8D8D8"/>
</linearGradient>
</defs>
</svg>
