<svg width="117" height="21" viewBox="0 0 117 21" fill="none" xmlns="http://www.w3.org/2000/svg">
<g opacity="0.9">
<path d="M29.1744 17.0398H24.1484C24.7988 16.4465 24.9774 14.311 25.2127 10.4555L25.2716 9.56571C25.4491 7.42993 25.5082 5.71 25.5082 4.52363C25.5082 3.51528 25.39 2.86266 25.0938 2.62545H30.7106C32.0706 2.62545 34.7313 2.68461 34.7313 5.47261C34.7313 7.37078 33.0169 8.49784 31.4203 8.91251C33.667 9.09031 35.3227 10.2166 35.3227 12.531C35.3819 15.0224 33.0167 17.0393 29.1734 17.0393L29.1744 17.0398ZM28.9959 10.0395H27.9909L27.8135 12.1753C27.7544 13.1242 27.6953 13.8952 27.6953 14.8445C27.6953 14.9633 28.1097 15.2604 29.0553 15.2604C31.0657 15.2604 32.3664 14.2518 32.3664 12.5909C32.4253 10.7523 30.8291 10.0402 28.9959 10.0402V10.0395ZM29.4104 4.34577C29.0743 4.33766 28.738 4.35745 28.4051 4.40493C28.2428 5.42587 28.1444 6.45601 28.1106 7.48929C28.1106 7.48929 28.0515 8.37909 28.0515 8.31977H28.4062C30.2391 8.31977 31.895 7.66732 31.895 6.00636C31.9538 5.05737 31.1259 4.34558 29.4113 4.34558L29.4104 4.34577ZM47.1497 17.1583C45.9081 17.1583 45.7898 17.099 44.8438 13.7185L44.4889 12.4728C43.8977 12.7693 42.8335 12.8886 41.1778 12.8886H39.4633L39.1677 13.541C38.8721 14.1936 38.1627 15.5581 38.1627 16.3884C38.1578 16.6074 38.1776 16.8262 38.2216 17.0408H34.7928C35.7387 16.0918 37.0398 13.7782 38.7544 10.1006L39.7595 7.96482C40.6465 6.0073 41.6516 3.8124 41.6516 3.51604C41.6497 3.22991 41.5894 2.9472 41.4743 2.68537H44.6068C44.6068 2.68537 45.4347 5.76992 46.1441 8.38004L46.7356 10.6341C47.7998 14.4898 48.5093 16.3286 49.3372 17.0413C48.5093 17.1009 47.5042 17.1602 47.1493 17.1602L47.1497 17.1583ZM42.6556 6.00901L40.2904 11.0513H44.0746L42.655 6.00655L42.6556 6.00901ZM60.7483 17.6329C59.684 17.6329 59.4483 17.4551 59.0928 16.9805L55.013 11.4049C54.7174 10.9303 54.4217 10.6338 53.9487 10.6338H53.8898L53.8306 11.7608C53.7716 13.2439 53.6534 14.4301 53.6534 15.3199C53.6534 16.2689 53.7716 16.8622 54.0678 17.0994H50.1653C50.7567 16.6248 50.934 14.9637 51.2887 10.5151L51.3477 9.62525C51.525 7.48948 51.5843 5.76954 51.5843 4.58316C51.5843 3.57483 51.4661 2.92238 51.1699 2.68499H56.4325C58.2062 2.68499 60.5122 2.98154 60.5122 5.76954C60.5122 8.08295 58.9748 9.32869 57.0834 9.92181C57.3342 10.1859 57.5711 10.4632 57.7928 10.7524L60.6903 14.6081C62.5232 17.0402 62.6413 17.1597 63.292 17.4554C62.4491 17.5717 61.5995 17.6313 60.7487 17.6335L60.7483 17.6329ZM55.5453 4.4055C55.1698 4.39565 54.7942 4.4155 54.4218 4.46484C54.3036 5.05794 54.2446 6.12563 54.1262 7.84594L54.0673 8.85449C54.2804 8.90342 54.4991 8.92335 54.7176 8.91362C56.4913 8.91362 57.7331 7.78659 57.7331 6.18497C57.674 5.05794 56.9053 4.4055 55.5453 4.4055ZM68.3761 17.3369C64.6511 17.3369 62.5226 14.2524 62.5226 10.8712C62.5226 6.12581 65.1242 2.38864 70.0318 2.38864C71.5691 2.38864 72.2786 2.68519 73.5793 2.68519L73.2248 6.36244C72.5152 5.05831 71.3327 4.22669 69.7959 4.22669C66.7213 4.22669 65.4797 7.54845 65.4797 10.3958C65.4797 13.4803 67.2535 15.2006 69.5003 15.2006C70.742 15.2006 71.8655 14.9041 73.6984 13.599C72.9298 15.8531 71.215 17.3362 68.3769 17.3362L68.3761 17.3369ZM93.6838 17.1582C92.4421 17.1582 92.3839 17.0988 91.3774 13.7183L91.0227 12.4725C90.4313 12.7691 89.3674 12.8883 87.712 12.8883H85.938L85.6423 13.5408C85.1697 14.49 84.6373 15.617 84.6373 16.3881C84.6373 16.566 84.6963 16.804 84.6963 17.0406H74.5256C75.1171 16.3881 75.2943 14.2526 75.5899 10.4563L75.6491 9.56643C75.8264 7.37172 75.8855 5.71076 75.8855 4.52437C75.8855 3.57539 75.7672 2.92276 75.5308 2.62621H79.4922C78.9011 3.04202 78.7236 5.35486 78.4871 9.21058L78.4281 10.1004C78.369 11.524 78.1325 13.0068 78.1325 14.3718C78.1325 15.0243 78.369 15.2024 79.0785 15.2024C81.5027 15.2024 82.0351 15.1432 83.1581 14.4312C83.8674 13.1854 84.5775 11.6432 85.3458 10.0416L86.3508 7.90585C87.2968 5.88898 88.2428 3.81277 88.2428 3.45688C88.2412 3.17081 88.1807 2.88817 88.0659 2.6264H91.1996C91.1996 2.6264 92.4413 7.31257 92.737 8.32091L93.3284 10.5752C94.3923 14.4308 95.0427 16.2697 95.9895 16.9824C95.2244 17.0836 94.4545 17.143 93.683 17.1604L93.6838 17.1582ZM89.1896 6.00919L86.8832 11.0488H90.6083L89.1896 6.00655V6.00919ZM102.671 9.26892C102.375 9.86219 101.902 10.5731 101.666 11.1671C101.429 12.2348 101.37 13.6585 101.37 15.2009C101.37 15.8533 101.489 16.7431 101.784 17.0397H97.8815C98.5908 16.3872 98.8276 12.4129 98.8276 11.1078C98.2274 9.14515 97.4559 7.23955 96.5211 5.41327C95.8118 4.10914 95.0427 2.86171 94.5111 2.62527C95.3981 2.56592 96.5211 2.50657 97.0543 2.50657C98.0003 2.50657 98.296 2.62526 98.8873 3.93014C99.8333 6.06589 100.484 7.66714 100.897 8.79415C101.843 7.2519 102.553 6.18421 103.441 4.70129C103.618 4.3454 103.856 3.8708 103.856 3.45556C103.856 3.15902 103.797 2.74377 103.678 2.62508H107.521C106.694 2.80331 103.382 8.08276 102.673 9.26892H102.671ZM115.678 6.00655C115.336 5.43082 114.852 4.95355 114.271 4.62099C113.691 4.28842 113.035 4.11185 112.367 4.10838C111.126 4.10838 110.061 4.58297 110.061 5.88804C110.061 7.01507 111.421 7.72686 112.84 8.67588C114.377 9.62485 115.974 10.8116 115.974 12.8875C115.974 15.557 113.372 17.2772 110.298 17.2772C108.923 17.2587 107.562 16.9977 106.277 16.5061L106.514 12.947C107.223 14.3706 108.524 15.4976 110.475 15.4976C111.953 15.4976 113.136 14.7856 113.136 13.4807C113.136 12.413 112.249 11.7012 111.126 11.0488C108.76 9.62525 107.282 8.49728 107.282 6.42198C107.282 3.33744 109.824 2.3291 112.544 2.3291C114.082 2.3291 115.087 2.62564 116.034 2.62564L115.678 6.00655Z" fill="#7A8BA4"/>
<path d="M18.4135 4.70222C18.2082 4.19661 17.8584 3.76321 17.4082 3.4565C17.1535 3.26384 16.8756 3.10437 16.581 2.9819C16.331 2.90909 16.0726 2.86919 15.8123 2.86321H15.752C15.3972 2.86321 14.7469 2.92256 14.3921 3.4565C14.3024 3.57275 14.2399 3.70774 14.2092 3.85149C14.1786 3.99524 14.1805 4.14407 14.2148 4.28697C14.2409 4.40944 14.2982 4.52303 14.3811 4.61662C14.464 4.71022 14.5697 4.78061 14.6879 4.82091C14.7376 4.8621 14.8008 4.8832 14.8652 4.88007C14.855 4.94211 14.835 5.00214 14.806 5.05792C14.6288 5.23577 14.333 5.53251 13.4462 5.53251H13.3876C12.9145 5.47336 12.5598 5.35466 12.0277 4.82072C11.7321 4.46483 11.5547 3.8122 11.5547 2.80386C11.5664 2.36238 11.5064 1.92192 11.3772 1.49974C11.2889 1.25514 11.1226 1.04661 10.9042 0.906451C10.7198 0.783845 10.5213 0.684261 10.313 0.609904C9.98133 0.544618 9.64524 0.504938 9.30764 0.491211C8.9529 0.491211 8.71625 0.550555 8.59813 0.728597H8.24337C8.06609 0.728597 7.8289 0.787759 7.65218 0.787759C7.34482 0.852541 7.0593 0.995754 6.82323 1.20356C6.6645 1.35078 6.54291 1.53372 6.46847 1.73732C6.47946 1.87701 6.49915 2.01589 6.52744 2.15313L6.58659 2.21228C6.77446 2.07531 7.00579 2.01204 7.23695 2.03442C7.65143 2.03442 8.24205 2.21228 8.36037 2.50902C8.65597 2.98361 8.53765 3.3395 8.53765 3.75474C8.36037 4.88177 7.94645 5.41571 7.05948 5.53421C6.90606 5.5797 6.74627 5.59975 6.58641 5.59356C5.93606 5.59356 5.46298 5.41571 5.22636 5.00028V4.88158C5.27176 4.87729 5.31393 4.8562 5.34467 4.82243C5.45772 4.77364 5.55868 4.70054 5.64043 4.60826C5.72219 4.516 5.78272 4.40683 5.81774 4.28849C5.84869 4.14537 5.84889 3.99728 5.81832 3.85408C5.78775 3.71088 5.72712 3.57586 5.64046 3.45801C5.46411 3.27383 5.25311 3.12656 5.01965 3.02472C4.78621 2.92289 4.53494 2.86851 4.28041 2.86472C4.00037 2.86635 3.72186 2.90628 3.45259 2.98341C2.74289 3.16127 2.09254 3.75455 1.61965 4.70335C1.23791 5.48086 1.017 6.32785 0.970246 7.19329C0.91096 8.0029 0.91096 8.8158 0.970246 9.62538C1.0077 10.5433 1.20796 11.4473 1.56163 12.2947C1.84451 13.0404 2.20098 13.7559 2.6257 14.4305C2.71082 14.5966 2.8097 14.7554 2.9213 14.9051L2.98046 14.8459C3.05346 14.7782 3.11354 14.6978 3.15774 14.6085C3.4488 14.3222 3.70666 14.0038 3.92641 13.6595C4.08921 13.4165 4.22803 13.1583 4.34089 12.8884L4.40004 12.7699L4.51836 12.829C4.63673 12.958 4.70032 13.1283 4.69564 13.3036C4.67315 13.5486 4.61336 13.7887 4.51836 14.0156C4.36021 14.4861 4.1621 14.9421 3.92622 15.3786C3.98519 15.438 3.98519 15.5567 3.92622 15.5567C3.81038 15.7103 3.7481 15.8979 3.74894 16.0905H3.80753C3.98653 16.0644 4.15239 15.9811 4.2806 15.8531C4.45788 15.7346 4.93095 15.3193 5.52233 14.4889C5.9954 13.8955 6.291 13.2431 6.64575 12.5313L6.70491 12.4127L6.82303 12.472C6.88219 12.5312 6.94135 12.5312 7.00032 12.5905C7.0528 12.7429 7.07295 12.9045 7.05948 13.0651C7.00032 13.5397 6.70472 14.1923 6.52725 14.6669C6.1725 15.4974 5.52214 16.3868 5.04908 17.0396C5.03629 17.0816 5.01345 17.1197 4.98254 17.1507C4.95163 17.1817 4.9136 17.2047 4.87179 17.2175C4.93909 17.2908 5.01924 17.3511 5.10823 17.3953L5.2857 17.5732C5.90801 18.0951 6.58153 18.5522 7.29592 18.9376C8.11808 19.4259 8.99036 19.8237 9.89772 20.124C10.7255 19.9461 11.9081 19.2933 12.4995 18.9376C13.214 18.5523 13.8875 18.0952 14.5099 17.5732L14.6872 17.3953C14.8053 17.3362 14.8644 17.2175 14.9236 17.2175C14.9649 17.1455 14.9853 17.0633 14.9828 16.9803L14.923 16.9217C14.3364 16.1938 13.84 15.397 13.4449 14.549C13.2676 14.0744 12.9718 13.4219 12.9126 12.9474C12.8695 12.7875 12.8908 12.617 12.9718 12.4728L13.09 12.354C13.141 12.3154 13.2034 12.2946 13.2674 12.2949L13.3263 12.4134C13.6525 13.0927 14.028 13.7469 14.4498 14.3709C15.0411 15.2014 15.5141 15.6166 15.6915 15.7354C15.8127 15.8728 15.9822 15.9578 16.1646 15.9726H16.2238C16.2828 15.9133 16.2238 15.7947 16.0463 15.4979C16.0239 15.4745 16.007 15.4465 15.9968 15.4157C15.9866 15.3849 15.9833 15.3523 15.9873 15.3201C15.7516 14.8832 15.5537 14.4266 15.3959 13.9556C15.3071 13.7269 15.2475 13.4877 15.2186 13.2438C15.2138 13.0686 15.2774 12.8983 15.3959 12.7693L15.5142 12.7099L15.5732 12.8286C15.705 13.1195 15.8634 13.3975 16.0463 13.6591C16.1646 13.837 16.6376 14.3711 16.756 14.549C16.8743 14.6677 16.9332 14.7268 16.9332 14.7862L16.9922 14.8455C17.0882 14.7175 17.1677 14.5778 17.2288 14.4297L17.2878 14.3705C17.681 13.6876 18.0172 12.9733 18.2931 12.2348C18.5887 11.523 18.7661 10.7518 18.8845 9.56545C18.9735 8.75731 18.9735 7.94175 18.8845 7.13357C18.9237 6.29674 18.7622 5.4627 18.4135 4.70146V4.70222Z" fill="#7A8BA4"/>
</g>
</svg>
