<svg width="117" height="121" viewBox="0 0 117 121" fill="none" xmlns="http://www.w3.org/2000/svg">
<path d="M0.117304 41.2799C2.28987 41.2799 4.46244 41.2667 6.635 41.2905C7.0526 41.2958 7.16096 41.1822 7.15568 40.7675C7.13718 38.1285 7.15303 35.4868 7.13718 32.8452C7.13453 32.4622 7.2429 32.2455 7.57856 32.0369C24.3115 21.5945 41.0392 11.1441 57.759 0.680625C58.166 0.424386 58.4277 0.450802 58.8189 0.696475C75.5228 11.1468 92.232 21.5865 108.946 32.0157C109.301 32.2376 109.425 32.4569 109.422 32.8716C109.401 35.4895 109.422 38.11 109.401 40.7278C109.398 41.1611 109.486 41.2984 109.948 41.2932C111.952 41.2641 113.952 41.2905 115.956 41.272C116.336 41.2694 116.455 41.346 116.453 41.7528C116.439 54.2108 116.439 66.6661 116.455 79.124C116.455 79.5837 116.286 79.6233 115.908 79.6207C113.947 79.6048 111.989 79.6286 110.027 79.6022C109.546 79.5969 109.39 79.6946 109.396 80.2124C109.425 83.0231 109.398 85.8338 109.422 88.6445C109.425 89.0883 109.274 89.3128 108.907 89.54C92.2346 99.7314 75.5704 109.933 58.9061 120.135C58.729 120.244 58.5704 120.378 58.4039 120.5C58.3193 120.5 58.2348 120.5 58.1475 120.5C57.981 120.378 57.8224 120.241 57.6454 120.135C40.9732 109.926 24.2983 99.7182 7.61821 89.5215C7.26933 89.3075 7.1266 89.0989 7.12925 88.6762C7.15039 85.8259 7.13189 82.9729 7.15039 80.1199C7.15303 79.6973 7.03674 79.5969 6.62443 79.6022C4.45186 79.6233 2.28194 79.6127 0.109375 79.6127C0.117304 66.8351 0.117304 54.0575 0.117304 41.2799ZM58.3458 43.3272C39.8525 43.3272 21.3619 43.3299 2.86869 43.314C2.29516 43.314 2.14715 43.4461 2.14715 44.0299C2.16565 54.9742 2.16565 65.9211 2.14715 76.8654C2.14715 77.4413 2.28458 77.584 2.86341 77.584C39.805 77.5681 76.7491 77.5681 113.691 77.584C114.264 77.584 114.412 77.4519 114.412 76.8681C114.394 65.9238 114.394 54.9768 114.412 44.0325C114.412 43.4567 114.275 43.314 113.696 43.314C95.2477 43.3299 76.7967 43.3272 58.3458 43.3272ZM58.2585 41.2799C72.4886 41.2799 86.716 41.2799 100.946 41.2799C101.073 41.2799 101.205 41.2641 101.329 41.2826C101.67 41.3328 101.755 41.1928 101.752 40.8599C101.734 39.6051 101.728 38.3477 101.755 37.093C101.763 36.7258 101.636 36.5303 101.335 36.3401C87.1071 27.4642 72.8824 18.5804 58.6656 9.68597C58.359 9.49313 58.1713 9.51954 57.8832 9.69653C43.6638 18.5883 29.4417 27.4747 15.2143 36.3507C14.8997 36.5488 14.8072 36.7627 14.8125 37.1114C14.831 38.2394 14.8548 39.37 14.8046 40.4954C14.7782 41.103 14.8971 41.2984 15.5711 41.2958C29.8011 41.2747 44.0311 41.2799 58.2585 41.2799ZM58.2797 79.6127C52.2959 79.6127 46.3094 79.6127 40.3256 79.6127C32.0186 79.6127 23.7116 79.6154 15.4046 79.6022C14.9473 79.6022 14.7887 79.6788 14.8046 80.178C14.8442 81.5808 14.8284 82.9888 14.8125 84.3915C14.8072 84.7402 14.8918 84.9568 15.2143 85.1549C29.4337 93.8459 43.6453 102.545 57.8542 111.254C58.174 111.45 58.3933 111.447 58.7131 111.252C72.922 102.542 87.1336 93.8432 101.353 85.1549C101.678 84.9568 101.757 84.7375 101.752 84.3915C101.736 83.0284 101.707 81.6653 101.763 80.3048C101.787 79.6946 101.58 79.6022 101.028 79.6022C86.7794 79.6154 72.5282 79.6127 58.2797 79.6127ZM106.858 37.4945C106.858 36.4722 106.835 35.4499 106.869 34.4275C106.885 33.952 106.747 33.6852 106.322 33.4211C90.4691 23.5387 74.6268 13.6379 58.7898 3.73172C58.4251 3.50454 58.166 3.4834 57.7854 3.72115C50.5753 8.24363 43.3519 12.7503 36.1338 17.2595C27.4911 22.659 18.8511 28.0612 10.2084 33.4607C9.94407 33.6245 9.68769 33.7328 9.69298 34.1581C9.72205 36.3929 9.71413 38.6304 9.69827 40.8652C9.69563 41.2007 9.78813 41.2958 10.1238 41.2879C11.1044 41.2667 12.0849 41.2588 13.0628 41.2905C13.4619 41.3037 13.5597 41.1901 13.5518 40.7992C13.528 39.3304 13.5597 37.8617 13.5307 36.3929C13.5227 36.002 13.6443 35.788 13.9694 35.5846C28.6144 26.4472 43.2541 17.3044 57.8859 8.15382C58.1766 7.97154 58.3722 7.94249 58.6709 8.14325C59.4268 8.65309 60.217 9.11537 60.9914 9.59879C74.8382 18.2475 88.6824 26.8989 102.534 35.5423C102.894 35.7668 103.05 35.9993 103.039 36.4405C103.005 37.8247 103.05 39.2089 103.016 40.5905C103.002 41.1135 103.082 41.3407 103.684 41.2958C104.53 41.2298 105.389 41.2535 106.24 41.2905C106.71 41.309 106.903 41.2192 106.877 40.6856C106.824 39.6236 106.858 38.5591 106.858 37.4945ZM106.858 83.7126C106.858 82.5212 106.843 81.3272 106.866 80.1358C106.874 79.7343 106.79 79.5863 106.354 79.6022C105.418 79.6392 104.48 79.6339 103.541 79.6048C103.137 79.5916 103.002 79.6867 103.01 80.1199C103.039 81.7577 103.002 83.3982 103.034 85.0387C103.042 85.4957 102.907 85.7466 102.508 85.9896C88.2225 94.7176 73.9343 103.443 59.6858 112.229C58.5942 112.903 57.8965 112.855 56.8445 112.208C42.6092 103.44 28.3422 94.7203 14.0751 86.0029C13.6549 85.7466 13.5148 85.4825 13.5254 85.0017C13.5571 83.385 13.5174 81.7657 13.5492 80.1463C13.5597 79.6814 13.4144 79.5863 12.9809 79.6022C12.0664 79.6365 11.1466 79.6418 10.2348 79.5995C9.76434 79.5784 9.68769 79.7395 9.69298 80.1675C9.71412 82.4895 9.71677 84.8088 9.69034 87.1308C9.68505 87.5905 9.82249 87.8362 10.2216 88.0792C26.0216 97.7344 41.8136 107.4 57.5925 117.084C58.137 117.42 58.4885 117.372 58.9959 117.061C68.4923 111.225 78.0019 105.408 87.5089 99.5888C93.794 95.7426 100.076 91.8937 106.37 88.0607C106.747 87.8309 106.877 87.5878 106.866 87.1573C106.84 86.0108 106.858 84.8617 106.858 83.7126Z" fill="#787878"/>
<path d="M52.552 69.1304C53.2788 67.025 53.9554 65.0887 54.6083 63.1445C54.7351 62.7641 54.9043 62.6214 55.3219 62.6241C56.9817 62.6373 56.9817 62.6188 56.9817 64.2645C56.9817 66.3725 56.9685 68.4806 56.9923 70.5886C56.9976 71.0509 56.9077 71.212 56.4082 71.1935C55.3457 71.1565 55.343 71.1882 55.343 70.1289C55.343 68.5123 55.343 66.8929 55.343 65.2763C55.3113 65.2657 55.2796 65.2578 55.2479 65.2472C54.8937 66.2854 54.5369 67.3209 54.1854 68.3617C53.9158 69.1621 53.6118 69.9572 53.3978 70.7735C53.2683 71.2622 52.9432 71.1988 52.6234 71.1724C52.2877 71.146 51.8992 71.3626 51.7168 70.7735C51.1856 69.0564 50.5724 67.3632 49.9909 65.6619C49.938 65.5087 49.872 65.3582 49.7345 65.2155C49.7345 67.0065 49.7187 68.7976 49.7451 70.5886C49.7504 71.035 49.6843 71.2173 49.1716 71.1962C48.1514 71.1512 48.1514 71.1882 48.1514 70.1527C48.1514 67.8307 48.1619 65.5114 48.1408 63.1894C48.1355 62.7429 48.2571 62.6214 48.7064 62.6241C50.3054 62.6373 50.3081 62.6188 50.8261 64.1113C51.3838 65.7253 51.9388 67.342 52.552 69.1304Z" fill="#787878"/>
<path d="M37.922 66.9566C37.9378 64.4048 39.9069 62.479 42.4785 62.5002C45.0053 62.5213 46.9241 64.5105 46.903 67.0913C46.8845 69.4899 44.8758 71.421 42.4072 71.421C39.8778 71.4157 37.9061 69.453 37.922 66.9566ZM45.2854 66.9196C45.2775 65.3241 44.0062 64.064 42.4098 64.0693C40.8161 64.0746 39.5289 65.3399 39.5104 66.9223C39.4919 68.531 40.7923 69.8281 42.4125 69.8201C44.0591 69.8122 45.2934 68.5654 45.2854 66.9196Z" fill="#787878"/>
<path d="M78.3289 68.1483C78.3289 66.5184 78.3501 64.8859 78.3157 63.256C78.3052 62.7594 78.432 62.5507 78.9421 62.6326C79.1298 62.6617 79.3254 62.6537 79.5157 62.6326C79.8275 62.5983 79.9148 62.7277 79.9148 63.0288C79.9042 65.6256 79.9068 68.2197 79.9148 70.8164C79.9148 71.0832 79.846 71.1572 79.5659 71.1915C78.7148 71.2892 78.1466 71.0753 77.6682 70.2564C76.7458 68.6687 75.6621 67.1736 74.5336 65.4724C74.5336 67.2924 74.5389 68.9144 74.5256 70.539C74.523 70.7477 74.6736 71.107 74.3988 71.1519C73.9495 71.2232 73.4737 71.1704 73.0112 71.1228C72.8922 71.1096 72.953 70.8983 72.953 70.7768C72.9504 68.2012 72.9557 65.6282 72.9425 63.0526C72.9398 62.7066 73.0667 62.6564 73.3838 62.6247C74.1741 62.5454 74.6895 62.7647 75.1309 63.5043C76.085 65.1052 77.1634 66.6294 78.1915 68.188C78.2417 68.1721 78.284 68.1615 78.3289 68.1483Z" fill="#787878"/>
<path d="M74.7789 54.1533C74.7789 52.8774 74.7789 51.5988 74.7789 50.3229C74.7789 50.0957 74.7155 49.8448 75.1014 49.8527C76.2485 49.8791 77.4035 49.7708 78.54 50.0006C80.6465 50.4286 81.8543 52.077 81.746 54.325C81.6191 56.8874 80.0676 58.3773 77.496 58.3984C76.7295 58.4037 75.963 58.3826 75.1965 58.409C74.8582 58.4195 74.7684 58.3112 74.7737 57.981C74.7922 56.7078 74.7789 55.4319 74.7789 54.1533ZM76.4123 54.1876C76.4123 54.6129 76.4123 55.0382 76.4123 55.4636C76.4123 57.0565 76.4123 57.0565 78.0061 56.7685C79.4518 56.507 80.1628 55.6353 80.1443 54.1454C80.1258 52.6845 79.3593 51.7441 77.9691 51.5196C77.5726 51.4562 77.1603 51.4826 76.7586 51.4483C76.4599 51.4218 76.407 51.5645 76.4097 51.8234C76.4203 52.6106 76.4123 53.4004 76.4123 54.1876Z" fill="#787878"/>
<path d="M52.904 55.3365C53.6546 56.3271 54.4026 57.3178 55.2246 58.4035C54.5691 58.4035 54.0088 58.3929 53.4485 58.4088C53.1974 58.4167 53.1313 58.2344 53.0256 58.0838C52.415 57.22 51.8045 56.3562 51.0512 55.495C51.0512 56.1951 51.0618 56.8925 51.046 57.5925C51.0407 57.854 51.1834 58.2846 50.9455 58.348C50.5094 58.4642 50.0178 58.4088 49.5527 58.3797C49.4152 58.3718 49.4601 58.1657 49.4601 58.0442C49.4575 55.4475 49.4601 52.8507 49.4575 50.254C49.4575 50.0268 49.4469 49.8366 49.7773 49.8525C50.8187 49.8948 51.8627 49.7838 52.8987 49.9687C54.2467 50.2091 55.0739 51.1469 55.1136 52.51C55.1559 53.9153 54.3973 54.9086 53.0388 55.2282C53.0044 55.2388 52.978 55.2758 52.904 55.3365ZM51.046 52.6526C51.046 52.9696 51.0486 53.2866 51.046 53.6063C51.0433 53.7912 51.0539 53.9523 51.305 53.9365C51.7252 53.91 52.1507 53.9893 52.5683 53.8651C53.2317 53.6697 53.57 53.2549 53.5357 52.6421C53.5013 51.9922 53.0996 51.5801 52.4071 51.485C51.046 51.3027 51.046 51.3027 51.046 52.6526Z" fill="#787878"/>
<path d="M37.0975 68.8668C36.4975 70.4835 34.5232 71.8334 32.1181 71.2892C30.1384 70.8402 28.6821 68.8748 28.7693 66.7483C28.8566 64.59 30.4424 62.8677 32.6546 62.5269C34.5549 62.2337 36.5636 63.3881 37.1451 65.1369C36.2914 65.1237 35.5117 65.2452 34.732 64.5821C33.614 63.6338 31.9436 63.9877 31.008 65.1738C30.1041 66.3177 30.2309 68.0189 31.2961 69.0465C32.3295 70.045 33.9999 70.1005 35.0439 69.1416C35.2685 68.9355 35.4773 68.8484 35.7734 68.8616C36.1883 68.8827 36.6138 68.8668 37.0975 68.8668Z" fill="#787878"/>
<path d="M71.9587 71.1544C70.2301 71.2548 70.2037 71.2653 69.6302 69.712C69.4214 69.1441 69.1333 68.938 68.536 68.9935C67.9016 69.0516 67.2594 69.0252 66.6224 68.9988C66.3158 68.9856 66.1493 69.0807 66.07 69.3766C66.0225 69.5588 65.9273 69.7279 65.8559 69.9049C65.2771 71.3525 65.2771 71.3525 63.6094 71.1148C64.0349 70.0924 64.4551 69.0807 64.8754 68.069C65.5731 66.3889 66.2894 64.7167 66.9607 63.0261C67.1193 62.6245 67.3704 62.6087 67.6981 62.6351C68.0311 62.6642 68.38 62.511 68.5835 63.0102C69.6777 65.7126 70.8116 68.3992 71.9587 71.1544ZM66.8286 67.4535C67.3783 67.4535 67.8567 67.4402 68.3351 67.4587C68.6523 67.4693 68.6919 67.3451 68.5835 67.0836C68.3219 66.4391 68.0708 65.7892 67.7695 65.0258C67.4391 65.8896 67.1457 66.6425 66.8286 67.4535Z" fill="#787878"/>
<path d="M68.6436 54.0578C68.6436 52.8241 68.6568 51.5879 68.6356 50.3542C68.6277 49.9685 68.7281 49.8391 69.1299 49.847C70.343 49.8734 71.5562 49.8682 72.7693 49.8497C73.1103 49.8444 73.2451 49.9131 73.2477 50.2935C73.2583 51.4505 73.2768 51.4505 72.1403 51.4505C71.9711 51.4505 71.7993 51.4505 71.6302 51.4505C70.1871 51.4505 70.047 51.6381 70.2717 53.1121C70.3166 53.4079 70.4778 53.3762 70.6681 53.3762C71.3289 53.3762 71.9896 53.3947 72.6477 53.371C72.9913 53.3578 73.1209 53.4344 73.1235 53.8174C73.1261 54.9454 73.1473 54.9454 71.9976 54.9454C71.913 54.9454 71.8284 54.9454 71.7412 54.9454C70.1977 54.9454 70.2082 54.9454 70.2717 56.4934C70.2849 56.8104 70.3827 56.8817 70.6761 56.8738C71.3791 56.8553 72.0821 56.887 72.7825 56.8606C73.1341 56.8474 73.2477 56.9398 73.2477 57.3096C73.2477 58.4033 73.2662 58.4033 72.1588 58.4033C71.1359 58.4033 70.1131 58.3874 69.0929 58.4112C68.7308 58.4191 68.6277 58.3135 68.633 57.9516C68.6568 56.6545 68.6436 55.3575 68.6436 54.0578Z" fill="#787878"/>
<path d="M43.3187 54.1449C43.3187 52.869 43.332 51.5905 43.3108 50.3146C43.3055 49.9579 43.4007 49.8417 43.7681 49.847C45.0023 49.8681 46.2366 49.8708 47.4709 49.847C47.8542 49.8391 47.9202 49.9843 47.9229 50.3278C47.9335 51.4505 47.9467 51.4478 46.8392 51.4478C46.3291 51.4478 45.8164 51.4452 45.3063 51.4505C45.1689 51.4531 44.9574 51.395 44.9495 51.6063C44.9283 52.1373 44.9257 52.6709 44.9521 53.1992C44.9653 53.4449 45.2059 53.3709 45.3592 53.3709C46.0199 53.3789 46.6807 53.3947 47.3388 53.3656C47.7062 53.3498 47.796 53.4766 47.796 53.8332C47.8013 54.9401 47.8172 54.9401 46.7071 54.9401C46.6014 54.9401 46.493 54.9401 46.3873 54.9401C44.8385 54.9401 44.8517 54.9401 44.9204 56.4907C44.9336 56.813 45.0446 56.8737 45.3301 56.8685C46.0331 56.8526 46.7362 56.8896 47.4366 56.8526C47.8436 56.8315 47.9282 56.9662 47.9255 57.3519C47.9123 58.4006 47.9335 58.4006 46.9132 58.4006C45.8904 58.4006 44.8676 58.3742 43.8473 58.4138C43.3795 58.4323 43.295 58.2738 43.3055 57.8459C43.3399 56.6149 43.3187 55.3812 43.3187 54.1449Z" fill="#787878"/>
<path d="M58.6565 66.9168C58.6565 65.6409 58.6698 64.3623 58.6486 63.0864C58.6433 62.7192 58.7543 62.6083 59.1164 62.6294C59.9648 62.677 60.8185 62.574 61.667 62.706C63.2686 62.9596 64.154 63.9238 64.1118 65.3715C64.0668 66.8481 63.0836 67.8255 61.4978 67.9603C61.0987 67.9946 60.4697 67.8652 60.3481 68.0633C60.1446 68.3882 60.2609 68.9165 60.2529 69.3577C60.245 69.8464 60.2371 70.3377 60.2556 70.8264C60.2662 71.1091 60.1604 71.1725 59.8908 71.1857C58.6592 71.2491 58.6592 71.2597 58.6592 70.0419C58.6565 69.0037 58.6565 67.9603 58.6565 66.9168ZM60.9798 64.2091C60.763 64.3571 60.2635 63.9397 60.2477 64.5631C60.2344 65.0703 60.2424 65.5775 60.245 66.0847C60.245 66.23 60.2265 66.4149 60.4327 66.4202C61.0009 66.436 61.5877 66.5074 62.0898 66.1666C62.4572 65.9183 62.555 65.5194 62.4837 65.0994C62.407 64.6661 62.1348 64.3808 61.7013 64.2857C61.4767 64.2355 61.2414 64.2355 60.9798 64.2091Z" fill="#787878"/>
<path d="M38.3936 56.2682C39.0993 54.2659 39.7785 52.3797 40.4208 50.4804C40.5794 50.0155 40.7776 49.7619 41.3088 49.849C41.6181 49.8992 41.9432 49.857 42.3475 49.857C42.033 50.6759 41.737 51.4367 41.4436 52.2001C40.7009 54.1311 39.9371 56.0569 39.2288 58.0011C39.0623 58.4555 38.7715 58.4211 38.4438 58.3974C38.1002 58.3736 37.7355 58.5479 37.5319 57.9958C36.5884 55.4387 35.5946 52.9028 34.5903 50.3694C34.4053 49.9019 34.5321 49.8438 34.9656 49.849C36.0756 49.8596 36.0756 49.8411 36.4457 50.8766C37.0271 52.5065 37.6112 54.1391 38.1954 55.7689C38.2429 55.9063 38.3011 56.0384 38.3936 56.2682Z" fill="#787878"/>
<path d="M59.6051 54.1576C59.6051 52.9239 59.6236 51.6929 59.5945 50.4593C59.5839 50.0023 59.6791 49.8226 60.1839 49.8411C61.2675 49.8834 62.3538 49.8755 63.4375 49.8438C63.8815 49.8306 64.0216 49.9574 64.011 50.4091C63.9925 51.4472 64.0163 51.4499 62.9617 51.4499C62.8137 51.4499 62.6631 51.4393 62.515 51.4525C62.1001 51.4842 61.4393 51.2676 61.3178 51.5371C61.1116 52.002 61.2358 52.6122 61.2253 53.1617C61.22 53.4443 61.4367 53.3704 61.5873 53.373C62.182 53.3809 62.7794 53.3968 63.374 53.3677C63.7493 53.3519 63.8894 53.4443 63.8868 53.8564C63.8815 54.9448 63.9026 54.9316 62.8296 54.9501C62.3063 54.9606 61.6138 54.7123 61.3098 55.0557C61.0535 55.3463 61.2305 56.0226 61.2226 56.5298C61.2173 57.0185 61.1962 57.5098 61.2305 57.9959C61.2543 58.3498 61.1142 58.4053 60.7971 58.4106C59.6051 58.4291 59.6051 58.4397 59.6051 57.28C59.6051 56.2418 59.6051 55.201 59.6051 54.1576Z" fill="#787878"/>
<path d="M84.4136 66.5362C84.9581 65.3924 85.4973 64.3357 85.9598 63.2474C86.1686 62.7587 86.4329 62.5605 86.9536 62.6266C87.2655 62.6662 87.5853 62.6345 87.8945 62.6345C87.9817 62.8828 87.8205 63.0255 87.7386 63.1866C87.3448 63.9606 86.988 64.7584 86.5281 65.4901C85.5264 67.0804 84.9634 68.7605 85.2356 70.6598C85.2964 71.0745 85.1431 71.1987 84.7176 71.1908C83.5996 71.1749 83.5282 71.1908 83.6155 70.0602C83.7265 68.6495 83.3961 67.4053 82.664 66.2034C82.0508 65.1916 81.5645 64.1033 81.0041 63.0598C80.8297 62.7375 80.8456 62.6372 81.2473 62.6266C82.5344 62.5949 82.5345 62.5817 83.0763 63.7282C83.5124 64.6448 83.9485 65.5588 84.4136 66.5362Z" fill="#787878"/>
<path d="M66.9516 54.1792C66.9516 55.4128 66.9357 56.6465 66.9595 57.8801C66.9674 58.2843 66.8723 58.4243 66.4415 58.419C65.3156 58.4032 65.3156 58.4269 65.3156 57.2937C65.3156 55.0192 65.3261 52.7421 65.305 50.4677C65.2997 50.0239 65.3605 49.8284 65.8785 49.8469C66.9489 49.8839 66.9516 49.8522 66.9516 50.9273C66.9516 52.0078 66.9516 53.0935 66.9516 54.1792Z" fill="#787878"/>
<path d="M57.9018 54.1601C57.9018 55.436 57.8912 56.7092 57.9097 57.9851C57.915 58.3127 57.8278 58.4105 57.4895 58.4157C56.2764 58.4342 56.2764 58.4501 56.2764 57.2428C56.2764 54.9895 56.2922 52.7389 56.2658 50.4855C56.2605 49.9889 56.3821 49.767 56.8975 49.8542C57.0005 49.8727 57.1116 49.8727 57.2146 49.8542C57.7565 49.7617 57.9468 49.9387 57.9203 50.5252C57.8622 51.735 57.9018 52.9475 57.9018 54.1601Z" fill="#787878"/>
<path d="M62.7972 24.7987C62.1576 26.8777 61.5391 28.8959 60.9154 30.9141C60.6352 31.8228 60.3392 32.7289 60.0775 33.6429C59.993 33.944 59.8529 34.0339 59.5436 34.0444C57.979 34.092 57.979 34.1025 57.5376 32.6364C57.1094 31.2179 56.6813 29.802 56.2504 28.386C56.2029 28.2275 56.1368 28.0743 56.0496 27.8445C55.4522 29.7808 54.8708 31.6326 54.321 33.4923C54.2021 33.8991 54.0435 34.0603 53.5889 34.0524C52.1802 34.0259 52.1828 34.0497 51.7547 32.6681C50.9485 30.0661 50.1398 27.4615 49.3125 24.804C49.9838 24.804 50.597 24.7961 51.2102 24.8066C51.6463 24.8146 51.8154 25.0972 51.9159 25.4908C52.3758 27.2713 52.8568 29.0491 53.351 30.9009C53.9034 29.1099 54.4532 27.3849 54.9633 25.6467C55.1483 25.01 55.4945 24.7749 56.1606 24.7855C56.7975 24.7961 57.1121 25.0127 57.2918 25.6361C57.7807 27.3294 58.3305 29.0068 58.9093 30.8639C59.2846 29.4374 59.6176 28.1774 59.9507 26.9173C60.0802 26.426 60.2123 25.9346 60.3365 25.4433C60.4449 25.018 60.696 24.7908 61.1532 24.8013C61.6792 24.8066 62.2078 24.7987 62.7972 24.7987Z" fill="#787878"/>
<path d="M67.3606 24.7988C66.491 27.6095 65.6453 30.3753 64.7784 33.1306C64.5643 33.8095 64.0991 34.034 63.1423 34.0393C62.2543 34.0419 62.2516 34.0419 62.5027 33.2177C63.2163 30.8746 63.9326 28.5315 64.6515 26.1883C65.0136 25.0049 65.2911 24.7988 66.491 24.7988C66.7633 24.7988 67.0381 24.7988 67.3606 24.7988Z" fill="#787878"/>
<path d="M75.8259 89.371C75.8259 88.8611 75.8259 88.3487 75.8259 87.8388C75.8286 87.2788 76.2356 86.9697 76.6955 87.2762C76.936 87.4373 76.9889 87.4003 77.1897 87.2947C77.7633 86.9909 78.3474 87.0173 78.8575 87.432C79.0848 87.6169 79.1852 87.6671 79.4627 87.4584C80.5781 86.6237 81.9736 87.1996 82.2247 88.5732C82.3833 89.437 82.2643 90.314 82.296 91.1858C82.3146 91.7009 81.9181 91.4579 81.6961 91.4869C81.4635 91.5186 81.1728 91.5847 81.1913 91.1514C81.2177 90.5359 81.2045 89.9178 81.1966 89.2997C81.186 88.4411 80.9455 88.0924 80.3878 88.1056C79.8539 88.1188 79.6266 88.4543 79.616 89.2706C79.6081 89.8227 79.587 90.3801 79.6213 90.9295C79.6504 91.3575 79.55 91.5265 79.0769 91.5133C78.6513 91.5028 78.4716 91.4262 78.5033 90.9586C78.543 90.322 78.5112 89.6827 78.5033 89.0434C78.498 88.5124 78.3024 88.103 77.7025 88.1109C77.0946 88.1188 76.936 88.5468 76.9334 89.0698C76.9307 89.7302 76.8964 90.3906 76.9386 91.0484C76.9677 91.5133 76.7298 91.5081 76.3995 91.5001C76.0691 91.4922 75.7678 91.5477 75.818 91.0273C75.8656 90.4831 75.8259 89.9257 75.8259 89.371Z" fill="#787878"/>
<path d="M48.9545 91.0378C47.8576 91.8277 46.8876 91.8198 46.1053 91.0537C45.3044 90.2718 45.1829 88.9377 45.8278 88.0158C46.5044 87.049 47.4664 86.8799 48.8329 87.5059C48.8329 87.0912 48.8646 86.6897 48.8249 86.2934C48.7774 85.8311 48.9994 85.7783 49.3826 85.7783C49.7421 85.7783 49.9165 85.8338 49.9112 86.2591C49.8874 87.8546 49.9007 89.4476 49.9007 91.0431C49.9007 91.2677 49.9667 91.5556 49.5809 91.4922C49.3033 91.4473 48.7985 91.7484 48.9545 91.0378ZM47.6911 90.6257C48.41 90.6231 48.9095 90.108 48.9095 89.371C48.9095 88.6551 48.373 88.0977 47.6805 88.0977C46.9748 88.095 46.4912 88.6154 46.4938 89.3762C46.4964 90.1529 46.951 90.6284 47.6911 90.6257Z" fill="#787878"/>
<path d="M34.1016 87.2735C35.2011 87.1916 35.2011 87.1916 35.4971 88.1638C35.6187 88.5679 35.7402 88.9721 35.8618 89.3763C35.8856 89.4555 35.9147 89.5348 35.9755 89.725C36.1843 88.9562 36.3851 88.2906 36.5437 87.6117C36.6177 87.2894 36.7869 87.226 37.0829 87.2286C37.3789 87.2313 37.5296 87.2894 37.5983 87.6249C37.7357 88.2773 37.9498 88.9166 38.1771 89.7197C38.4282 88.9245 38.6317 88.2694 38.8405 87.6143C38.9383 87.3105 39.6968 87.0648 39.9347 87.2603C40.0616 87.366 39.9796 87.4875 39.9374 87.6037C39.5065 88.7951 39.0625 89.9812 38.6529 91.1805C38.5551 91.4658 38.3912 91.4869 38.1401 91.5054C37.8256 91.5292 37.8044 91.3099 37.7489 91.1197C37.5428 90.4329 37.3472 89.7408 37.1199 88.9536C36.7419 89.6325 36.6812 90.3273 36.4406 90.956C36.3481 91.199 36.3984 91.4922 35.9781 91.5081C35.579 91.5239 35.5341 91.265 35.4442 91.0167C35.0002 89.791 34.5614 88.5626 34.1016 87.2735Z" fill="#787878"/>
<path d="M59.9752 89.8362C60.2844 90.5706 60.9161 90.8374 61.5716 90.5442C62.2905 90.2246 62.2905 90.2246 63.049 90.2563C63.0623 90.6102 62.8217 90.8295 62.6103 91.0382C61.8703 91.7646 60.591 91.8492 59.7373 91.2442C58.8572 90.6208 58.5427 89.4743 58.9709 88.4705C59.407 87.4508 60.5329 86.904 61.6588 87.1655C62.5918 87.3822 63.279 88.3675 63.2737 89.4215C63.2737 89.7649 63.1653 89.8494 62.8376 89.8442C61.8914 89.823 60.9426 89.8362 59.9752 89.8362ZM59.9646 88.9249C60.5937 88.9249 61.1646 88.9275 61.7355 88.9222C61.8518 88.9196 62.0103 88.9909 62.0764 88.8562C62.1583 88.695 62.0051 88.5815 61.9152 88.4758C61.3707 87.8392 60.3584 88.0452 59.9646 88.9249Z" fill="#787878"/>
<path d="M43.8213 87.7043C43.7817 87.0597 44.2204 87.271 44.5164 87.2393C44.8917 87.1971 44.8468 87.4586 44.8468 87.6937C44.8442 88.819 44.8495 89.9444 44.8415 91.0697C44.8415 91.2335 44.9446 91.5188 44.6274 91.4845C44.3684 91.458 43.972 91.6931 43.8662 91.318C43.7658 90.9588 43.6786 91.1727 43.5544 91.252C42.669 91.8014 41.8126 91.7618 41.1016 91.1437C40.3272 90.4674 40.1184 89.276 40.6048 88.2907C41.0276 87.4295 41.8576 87.0042 42.8038 87.1416C43.1817 87.1944 43.4645 87.3978 43.8213 87.7043ZM42.6505 90.6259C43.3694 90.618 43.8504 90.0976 43.8372 89.3447C43.824 88.6051 43.2954 88.0767 42.595 88.1005C41.9025 88.1243 41.4056 88.6711 41.4056 89.4134C41.4056 90.1557 41.8972 90.6365 42.6505 90.6259Z" fill="#787878"/>
<path d="M72.9788 91.6297C71.7048 91.6271 70.7031 90.6391 70.7031 89.3817C70.7031 88.1375 71.718 87.1152 72.9682 87.1046C74.2448 87.0914 75.2861 88.1322 75.2729 89.4055C75.2571 90.6603 74.258 91.6324 72.9788 91.6297ZM72.9946 90.6259C73.7135 90.6259 74.2051 90.1134 74.1998 89.3711C74.1946 88.6421 73.6712 88.0979 72.9814 88.1005C72.281 88.1032 71.7947 88.6315 71.7947 89.3844C71.792 90.1451 72.2572 90.6286 72.9946 90.6259Z" fill="#787878"/>
<path d="M54.3456 89.3206C54.3456 88.8319 54.3456 88.3405 54.3456 87.8518C54.3456 87.2918 54.8372 86.9589 55.2601 87.2971C55.4451 87.445 55.4636 87.4529 55.6433 87.3525C56.8115 86.6921 58.0934 87.4027 58.1489 88.75C58.1806 89.5372 58.1278 90.327 58.1701 91.1116C58.1938 91.5765 57.9216 91.5052 57.652 91.4999C57.393 91.4946 57.0891 91.6003 57.1208 91.1248C57.1604 90.5516 57.1287 89.9757 57.1314 89.4025C57.1314 89.1673 57.1049 88.9402 57.0388 88.7103C56.912 88.2692 56.6212 88.079 56.1878 88.116C55.7438 88.1556 55.4847 88.433 55.4689 88.8688C55.4398 89.6138 55.4213 90.3587 55.453 91.1037C55.4742 91.6241 55.1385 91.4894 54.8663 91.4999C54.5914 91.5105 54.3112 91.5686 54.3377 91.1116C54.372 90.5146 54.3456 89.9149 54.3456 89.3206Z" fill="#787878"/>
<path d="M70.289 88.6523C69.7049 88.7077 69.2054 88.7368 68.7349 88.2877C68.3332 87.9047 67.5456 88.0949 67.1861 88.5255C66.7949 88.9957 66.8214 89.8357 67.2443 90.2848C67.6275 90.6916 68.4177 90.7497 68.8803 90.409C69.0151 90.3112 69.0706 90.0972 69.2662 90.1025C69.5965 90.1105 70.0591 89.9387 70.2177 90.1791C70.3604 90.3958 70.0194 90.7339 69.808 90.9663C69.134 91.706 67.942 91.8645 66.9958 91.352C66.076 90.8528 65.6426 89.7829 65.9333 88.7394C66.2293 87.6801 67.1332 87.0514 68.2856 87.1069C69.282 87.1545 69.9137 87.6273 70.289 88.6523Z" fill="#787878"/>
<path d="M50.6862 88.6628C50.6862 87.8544 50.7126 87.0434 50.6756 86.2377C50.6544 85.7754 50.8976 85.786 51.2253 85.7807C51.5716 85.7754 51.7698 85.8098 51.7619 86.2509C51.7354 87.8676 51.7328 89.4843 51.7619 91.101C51.7724 91.6214 51.4473 91.4735 51.1804 91.4972C50.8791 91.521 50.6544 91.5184 50.6729 91.0878C50.7099 90.2821 50.6862 89.4711 50.6862 88.6628Z" fill="#787878"/>
<path d="M53.5651 89.3575C53.5651 89.9519 53.5386 90.5463 53.573 91.138C53.5968 91.558 53.3457 91.5237 53.0946 91.492C52.8699 91.4656 52.5184 91.6716 52.5263 91.1644C52.5448 89.9783 52.5501 88.7922 52.5237 87.6061C52.5131 87.1254 52.8197 87.2601 53.0682 87.2416C53.3589 87.2205 53.6047 87.2073 53.573 87.6431C53.536 88.2111 53.5651 88.7843 53.5651 89.3575Z" fill="#787878"/>
<path d="M53.0419 86.7527C52.6243 86.8504 52.5212 86.6972 52.5159 86.301C52.508 85.8677 52.656 85.7805 53.0551 85.7726C53.4753 85.7673 53.5758 85.8941 53.5863 86.3062C53.6022 86.7897 53.3855 86.8372 53.0419 86.7527Z" fill="#787878"/>
<path d="M64.5523 91.4845C64.1453 91.5796 64.0211 91.4343 64.0158 91.0063C64.0105 90.5599 64.1374 90.4595 64.5735 90.4542C65.0175 90.4489 65.0677 90.6154 65.0756 90.9931C65.0783 91.4026 64.9778 91.5901 64.5523 91.4845Z" fill="#787878"/>
</svg>
